<?xml version="1.0" encoding="UTF-8"?>
<!DOCTYPE svg PUBLIC "-//W3C//DTD SVG 1.1//EN" "http://www.w3.org/Graphics/SVG/1.1/DTD/svg11.dtd">
<!-- Creator: CorelDRAW 2018 (64-Bit Evaluation Version) -->
<svg xmlns="http://www.w3.org/2000/svg" xml:space="preserve" width="100%" height="100%" version="1.1" style="shape-rendering:geometricPrecision; text-rendering:geometricPrecision; image-rendering:optimizeQuality; fill-rule:evenodd; clip-rule:evenodd"
viewBox="0 0 45720 22860"
 xmlns:xlink="http://www.w3.org/1999/xlink">
 <defs>
  <style type="text/css">
   <![CDATA[
    .fil8 {fill:#FEE864}
    .fil7 {fill:#FFFC00}
    .fil10 {fill:yellow}
    .fil1 {fill:#FCC954}
    .fil6 {fill:#FA8F6B}
    .fil2 {fill:#FA8085}
    .fil3 {fill:#F77594}
    .fil4 {fill:#E0457A}
    .fil9 {fill:#EB4FB3}
    .fil5 {fill:#704FBF}
    .fil0 {fill:url(#id0)}
   ]]>
  </style>
  <linearGradient id="id0" gradientUnits="userSpaceOnUse" x1="22718.16" y1="22860.81" x2="23001.84" y2="-0.81">
   <stop offset="0" style="stop-opacity:1; stop-color:#FFEA29"/>
   <stop offset="0.439216" style="stop-opacity:1; stop-color:#FFAB36"/>
   <stop offset="1" style="stop-opacity:1; stop-color:#FF69EB"/>
  </linearGradient>
 </defs>
 <g id="Layer_x0020_1">
  <metadata id="CorelCorpID_0Corel-Layer"/>
  <rect class="fil0" width="45720" height="22860"/>
  <g id="_2243889687136">
   <path class="fil1" d="M-0 19694.13c2289.83,214.19 8022.67,-26.95 10390.77,-335.34 460.94,-60.02 941.83,-94.63 1410.59,-145.94 935.08,-102.34 1857.39,-194.07 2773.77,-319.04 908.72,-123.94 1862.17,-193.05 2773.5,-330.09 461.08,-69.34 921.21,-114.12 1367.69,-183.79 692.07,-107.99 1944.47,-333.23 2605.47,-499.53 179.63,-45.19 1167.3,-283.62 1274.18,-273.04 82.87,-64.75 2629.95,-478.64 2838.18,-513.66 198.44,-33.36 363.92,-77.69 561.87,-112.69 385.47,-68.15 765.41,-114.1 1169.4,-157.54 795.53,-85.54 1578.78,-260.9 2369.57,-314.56 419.44,-28.47 858.92,-18.63 1284.42,-48.27 1429.57,-99.56 2542.49,66.19 3870.39,82.02 898.04,10.69 1702.4,62 2566.06,132.63 1023.36,83.68 1308.82,15.35 2448.72,231.68 184.91,35.09 2080.53,368.9 2192.52,462.3 109.1,-6.98 768.49,181.38 936.82,221.19 318.66,75.38 644.81,145.98 958.93,221.22 632.54,151.54 1288.53,294.15 1927.15,416.67l0 -4830.32 -544.33 154.16c-736.31,188.72 -1862.74,317.5 -2680.68,370.58 -969.1,62.89 -2056.75,28.88 -3039.41,28.03 -1020.63,-0.88 -2000.11,-36.63 -3019.24,-46.35 -491.53,-4.7 -958.58,-63.17 -1437.19,-82.14 -474.36,-18.8 -947.66,-53.7 -1418.66,-97.72 -944.27,-88.25 -1942.36,-90.18 -2895.72,-157.5 -475.82,-33.59 -962.58,-59.27 -1436.17,-92.98 -477.09,-33.95 -941.74,-84.1 -1419.32,-97.78 -747.2,-21.42 -2267.39,-5.07 -3012.3,40.18 -1808.06,109.84 -3800.15,179.9 -5567.1,512.84 -846.12,159.43 -1661.57,361.83 -2528.94,512.89 -749.71,130.55 -1867.65,372.04 -2571.47,467.52 -443.76,60.2 -868.2,131.45 -1314.77,197.38 -433.36,63.98 -894.65,114.14 -1316.27,197.16 -1198.26,235.95 -4176.87,479.67 -5562.1,534.51 -324.21,12.83 -971.48,27.68 -1292.24,62.82 -308.6,33.81 -2828.41,60.46 -3185.27,48.3 -487.58,-16.62 -987.96,-17.67 -1478.82,-30.28 17.61,1274.39 0,2535.1 0,3774.48z"/>
   <path class="fil2" d="M11193.9 5196.32l-1292.78 228.14c-444.39,81.62 -890.39,110.94 -1328.74,183.73 -1159.55,192.57 -1498.14,260.45 -2690.9,335.11 -1192.85,74.67 -1816.21,53.04 -2986.51,48.94 -212.98,-0.75 -468.9,-30.27 -675.07,-44.42 -498.15,-34.22 -1922.85,69.24 -2219.9,-74.52l0 1226.05c251.09,110.39 2293.85,169.65 2732.41,197.58 472.14,30.05 868.62,85.11 1375.4,86.75 229.87,0.75 441.54,-34.62 660.59,-51.04 624.19,-46.77 1482.22,-18.97 2132.73,-19.39 471.41,-0.31 2259.81,-107.09 2730.28,-159.39 428.61,-47.63 839.2,-118.54 1263.42,-163.71 448.07,-47.71 910.18,-54.24 1349,-105.22 419.29,-48.71 841.27,-108.93 1258.7,-172.9 423.99,-64.97 891.85,-74.85 1288.96,-160.06 592.7,-127.17 764.93,-92.59 1258.77,-176.8 400.39,-68.26 811.34,-160.17 1213.77,-232.29 364.45,-65.31 719.83,-172.35 1170.97,-253.64 424.66,-76.54 804.2,-167.97 1206.32,-247.01 408.89,-80.36 831.27,-130.21 1247,-181.86 440.16,-54.67 838.75,-113.63 1291.37,-158.94 228.33,-22.86 458.95,-37.96 681.14,-56.22 221.47,-18.2 418.79,-53.98 644.63,-72.59 937.94,-77.33 1839.44,-90.72 2805.11,-90.81 897.86,-0.09 1819.13,108.33 2668.12,218.35 336.05,43.54 825.24,183.93 1164.03,284.05 369.71,109.28 751.61,182.56 1132.18,296.78 361.16,108.41 717.1,246.11 1091.22,351.64 641.86,181.05 488.65,153.86 1041.31,381.65 773.44,318.8 1326.95,512.82 2174.18,695.63 1646.97,355.37 2311.82,358.76 3914.09,424.11 474.8,19.37 970.52,-9.2 1448.73,1.87 -109.5,41.92 -969.81,185.65 -1180.13,230.48 -656.27,139.9 -1742.05,287.96 -2421.11,359.48 -695.44,73.26 -2614.72,62.82 -3371.61,-1.11 -336.95,-28.47 -1058.43,-11.12 -1347.21,-48.29 -610.45,-78.59 -1420.73,-68.72 -2022.33,-31.75l-1936.1 152.92c-216.46,17.07 -436.19,24.85 -650.31,36.45 -652,35.33 -1333.95,106.82 -1955.58,140.74 -227.67,12.43 -441.59,19.93 -666.45,38.24 -416.01,33.89 -827.55,114.99 -1239.71,147.37 -414.68,32.59 -824.04,107.98 -1245.94,149.05 -403.81,39.3 -832.23,99.36 -1239.44,144.94 -422.3,47.28 -851.79,75.57 -1275.67,116.79 -426.94,41.51 -847.56,104.29 -1269.12,144.01 -400.67,37.76 -803.43,125.11 -1211.3,181.19 -383.43,52.72 -779.98,158.84 -1179.41,196.55 -1469.36,138.71 -2531.09,166.06 -4039.86,167.18 -922.65,0.7 -3118.57,-23.61 -4020.44,-173.61 -639.92,-106.44 -1211.45,-163.99 -1849.35,-241.56 -207.03,-25.17 -392.12,-70.05 -599.92,-93.18 -837.28,-93.19 -1598.56,-266.86 -2404.51,-373.37 -404.42,-53.46 -788.06,-144.74 -1197.29,-189.03 -440.86,-47.71 -2309.36,-240.91 -2621.64,-113.43l0 163.41 0 2926.92 0 2696.02 21.81 1.56 4.24 -2264.56c397.28,-68.53 857.72,-191.99 1257.92,-287.27 423.55,-100.83 871.28,-166.55 1314.37,-252.94 924.02,-180.15 1879.41,-252.34 2845.22,-315.81 478.48,-31.44 973.8,-85.62 1457.9,-101.25 1562.91,-50.48 2900.3,-162.04 4456,-266.4 490.72,-32.92 984.1,-51.76 1478.92,-75.95 487.49,-23.84 975.23,-74.41 1459.45,-116.13 488.43,-42.09 992.96,-56.16 1473.92,-115.8 1728.19,-214.29 2617.31,-291.09 4441.28,-261.26 246.01,4.02 488.83,32.76 738.84,32.65 652.12,-0.29 1680.14,36.63 2320.33,70.93 505.93,27.12 966.8,61.16 1479.4,60.65 525.33,-0.53 1025.96,45.24 1540.42,43.73 527.65,-1.55 1053.87,0.91 1581.51,-6.75 513.86,-7.46 1019.15,53.18 1519.15,62.03 518.57,9.19 1017.81,31.49 1541.18,32.08 524.69,0.61 1039.16,-20.86 1561.43,-32.13 2280.38,-49.25 3505.48,-88.14 5759.92,-512.69 439.19,-82.69 865.74,-195.56 1310.74,-266.08 426.31,-67.55 887.95,-172.42 1304.92,-263.95 435.1,-95.49 825.74,-222.81 1256.45,-315.21 1430.88,-306.94 1129.72,-266.92 2430.93,-703.59 536.98,-180.22 594.51,-173.05 1163.75,-406.4l0 -2242.52c-1834.17,6.05 -3601.71,22.97 -5385.99,-231.24 -806.89,-114.95 -1635.77,-267.76 -2442.41,-384.89 -402.95,-58.51 -794.44,-130.42 -1187.8,-218.65 -320.61,-71.89 -882.34,-117.42 -1150.76,-223.8 -227.19,-33.29 -466.48,-107.35 -697.19,-152.24 -243,-47.28 -483.38,-71.91 -722.54,-116.64 -932.41,-174.38 -1961.08,-314.61 -2913.2,-476.26 -496.76,-84.33 -976.4,-145.65 -1485.73,-209.24 -515.91,-64.41 -1042.83,-64.65 -1554.4,-130.78 -504.32,-65.19 -1065.76,-109.33 -1569.6,-120.91 -701.61,-16.14 -2769.93,-62.19 -3362.11,-18.78 -1056.91,77.48 -2084.25,123.35 -3122.5,256.52 -500.65,64.22 -1012.03,159.48 -1509.7,192.59 -269.21,17.91 -497.54,38.41 -759.33,75 -244.85,34.23 -476.1,95.9 -730.11,127.97 -515,65.03 -1010.73,110.96 -1519.2,178.64 -241.6,32.16 -483.36,76.63 -727.02,111.52 -797.75,114.25 -1395.96,230.5 -2185.01,367.9 -242.5,42.22 -484.96,70.07 -730.62,108.2 -245.13,38.07 -535.85,85.63 -770.88,102.17z"/>
   <path class="fil3" d="M-0 7099.35l0 1576.6c312.28,-127.48 2180.78,65.72 2621.64,113.43 409.23,44.29 792.87,135.57 1197.29,189.03 805.95,106.51 1567.23,280.18 2404.51,373.37 207.8,23.13 392.89,68.01 599.92,93.18 637.9,77.57 1209.43,135.12 1849.35,241.56 901.87,150 3097.79,174.31 4020.44,173.61 1508.77,-1.12 2570.5,-28.47 4039.86,-167.18 399.43,-37.71 795.98,-143.83 1179.41,-196.55 407.87,-56.08 810.63,-143.43 1211.3,-181.19 421.56,-39.72 842.18,-102.5 1269.12,-144.01 423.88,-41.22 853.37,-69.51 1275.67,-116.79 407.21,-45.58 835.63,-105.64 1239.44,-144.94 421.9,-41.07 831.26,-116.46 1245.94,-149.05 412.16,-32.38 823.7,-113.48 1239.71,-147.37 224.86,-18.31 438.78,-25.81 666.45,-38.24 621.63,-33.92 1303.58,-105.41 1955.58,-140.74 214.12,-11.6 433.85,-19.38 650.31,-36.45l1936.1 -152.92c601.6,-36.97 1411.88,-46.84 2022.33,31.75 288.78,37.17 1010.26,19.82 1347.21,48.29 756.89,63.93 2676.17,74.37 3371.61,1.11 679.06,-71.52 1764.84,-219.58 2421.11,-359.48 210.32,-44.83 1070.63,-188.56 1180.13,-230.48 -478.21,-11.07 -973.93,17.5 -1448.73,-1.87 -1602.27,-65.35 -2267.12,-68.74 -3914.09,-424.11 -847.23,-182.81 -1400.74,-376.83 -2174.18,-695.63 -552.66,-227.79 -399.45,-200.6 -1041.31,-381.65 -374.12,-105.53 -730.06,-243.23 -1091.22,-351.64 -380.57,-114.22 -762.47,-187.5 -1132.18,-296.78 -338.79,-100.12 -827.98,-240.51 -1164.03,-284.05 -848.99,-110.02 -1770.26,-218.44 -2668.12,-218.35 -965.67,0.09 -1867.17,13.48 -2805.11,90.81 -225.84,18.61 -423.16,54.39 -644.63,72.59 -222.19,18.26 -452.81,33.36 -681.14,56.22 -452.62,45.31 -851.21,104.27 -1291.37,158.94 -415.73,51.65 -838.11,101.5 -1247,181.86 -402.12,79.04 -781.66,170.47 -1206.32,247.01 -451.14,81.29 -806.52,188.33 -1170.97,253.64 -402.43,72.12 -813.38,164.03 -1213.77,232.29 -493.84,84.21 -666.07,49.63 -1258.77,176.8 -397.11,85.21 -864.97,95.09 -1288.96,160.06 -417.43,63.97 -839.41,124.19 -1258.7,172.9 -438.82,50.98 -900.93,57.51 -1349,105.22 -424.22,45.17 -834.81,116.08 -1263.42,163.71 -470.47,52.3 -2258.87,159.08 -2730.28,159.39 -650.51,0.42 -1508.54,-27.38 -2132.73,19.39 -219.05,16.42 -430.72,51.79 -660.59,51.04 -506.78,-1.64 -903.26,-56.7 -1375.4,-86.75 -438.56,-27.93 -2481.32,-87.19 -2732.41,-197.58z"/>
   <path class="fil4" d="M-0 5687.92l0 185.38c297.05,143.76 1721.75,40.3 2219.9,74.52 206.17,14.15 462.09,43.67 675.07,44.42 1170.3,4.1 1793.66,25.73 2986.51,-48.94 1192.76,-74.66 1531.35,-142.54 2690.9,-335.11 438.35,-72.79 884.35,-102.11 1328.74,-183.73l1292.78 -228.14c235.03,-16.54 525.75,-64.1 770.88,-102.17 245.66,-38.13 488.12,-65.98 730.62,-108.2 789.05,-137.4 1387.26,-253.65 2185.01,-367.9 243.66,-34.89 485.42,-79.36 727.02,-111.52 508.47,-67.68 1004.2,-113.61 1519.2,-178.64 254.01,-32.07 485.26,-93.74 730.11,-127.97 261.79,-36.59 490.12,-57.09 759.33,-75 497.67,-33.11 1009.05,-128.37 1509.7,-192.59 1038.25,-133.17 2065.59,-179.04 3122.5,-256.52 592.18,-43.41 2660.5,2.64 3362.11,18.78 503.84,11.58 1065.28,55.72 1569.6,120.91 511.57,66.13 1038.49,66.37 1554.4,130.78 509.33,63.59 988.97,124.91 1485.73,209.24 952.12,161.65 1980.79,301.88 2913.2,476.26 239.16,44.73 479.54,69.36 722.54,116.64 230.71,44.89 470,118.95 697.19,152.24 268.42,106.38 830.15,151.91 1150.76,223.8 393.36,88.23 784.85,160.14 1187.8,218.65 806.64,117.13 1635.52,269.94 2442.41,384.89 1784.28,254.21 3551.82,237.29 5385.99,231.24l0 -1894.86c-893.83,-160.77 -1775.32,-368.51 -2666.41,-526.17 -458.43,-81.1 -894.84,-158.57 -1363.05,-233.04 -898.41,-142.88 -1970.28,-239.29 -2795.61,-392.09 -916.05,-169.58 -1825.42,-343.96 -2763.98,-435.15 -469.55,-45.63 -941.65,-118.37 -1401.72,-187.52 -934.26,-140.46 -1849.58,-306.59 -2811.5,-381.44 -241.79,-18.82 -480.82,-71.89 -718.78,-80.94 -642.99,-24.45 -1718.05,20.38 -2342.63,67.13 -510.5,38.21 -1045.91,-6.93 -1568.22,33.52 -475.2,36.78 -976.74,94.45 -1450.76,144.27 -905.23,95.11 -1845.19,279.36 -2734.99,454.66 -737.57,145.31 -1992.46,426.96 -2673.06,509.27 -465.44,56.28 -943.26,114.08 -1398.8,198.87 -469.69,87.4 -963.46,84.62 -1430.92,163.58 -1054.95,178.2 -1829.44,182.48 -2867.88,323.98 -531.6,72.42 -1614,161.32 -2200.41,199.24 -792.03,51.21 -1377.44,146.67 -2220.66,164.65 -499.17,10.66 -1003.86,72.47 -1499.76,100.15l-1521.65 80.63c-732.62,87.65 -972.03,0.73 -1538.87,20.63 -153.36,5.37 -212.73,30.27 -375.28,11 -133.87,-15.85 -250.27,-12.94 -384.09,-12.93 -266.82,0.01 -500.97,-32.48 -759.87,-42.74 -257.8,-10.21 -509.43,-1.43 -765.58,-17.92 -571.11,-36.76 -2326.44,-246.61 -2776.36,-419.86 -276.94,-106.63 -334.06,-121.71 -661.91,-127.91 -22.17,297.22 -7.02,1353.5 -4.03,1779.67 0.55,78.52 11.71,166.63 -23.22,230z"/>
   <path class="fil5" d="M45294.24 2601.8c163.82,34.75 304.68,119.44 425.76,180.27l0 -1486.85c-167.04,-59.65 -319.56,-169.53 -365.18,-192.74 -271.86,-138.26 -931.91,-486.2 -1180.46,-563.7 -91.99,-28.68 -147.48,-36.97 -234.39,-70.05l-689.87 -182.87c-144.39,-24.28 -314.95,-91.77 -452.51,-141.49 -72.67,-26.26 -157.92,-34.15 -223.41,-62.14 -63.87,-27.28 -143.09,-42.43 -205.8,-82.23l-42368.38 0 0 2274.03 0 1049.74c3.38,-4.3 6.64,-10.57 8.17,-14.16 37.4,-88.56 16.12,-132.28 23.98,-244.42 404.81,134.35 580.47,223.33 1056.44,256.01 345.44,23.71 668.59,110.98 1159.41,147.2 834.06,61.53 1668.19,65.59 2492.66,137.67 580.87,50.78 1988.96,132.94 2532.28,74.45 771.82,-83.11 1542.62,-196.71 2308.16,-311.55 985.96,-147.9 1396.2,-186.4 2393.43,-237.63 817.61,-42.01 1633.17,-125.85 2427.55,-196.44 1203.9,-106.97 2323.37,-289.16 3529.9,-399.22 188.4,-17.19 1102.48,-142 1178.97,-132.57 37.41,-32 14.26,-16.35 90.52,-30.39l282.31 -48.14c123.92,-21.3 238.26,-34.09 369.28,-57 259.31,-45.37 481.01,-91.36 738.02,-142.51 492.6,-98.02 968.1,-199.09 1455.4,-299.59 245.74,-50.69 498.7,-86.73 733.56,-141.27 636.9,-147.89 1523.19,-315.09 2187.38,-448.67 479.69,-96.47 955.64,-211.82 1455.48,-299.32 1129.31,-197.66 1960.76,-294.42 3087.4,-426.28 1157.62,-135.49 4044.2,-58.3 5122.81,54.56 537.47,56.23 1089.2,71.26 1612.17,155.13 493.09,79.08 1036.72,162.81 1530.32,220.38 507.15,59.17 1017.11,157.86 1513.51,248.8 498.4,91.3 948.85,209.52 1436.68,318.52 385.69,86.16 2741.18,533.71 2881.73,608.17 159.04,9.56 688.37,161.46 859.42,217.52 275.19,90.17 556.63,167.67 827.3,268.78z"/>
   <path class="fil6" d="M-0 15939.79c490.86,12.61 991.24,-6.48 1478.82,10.14 356.86,12.16 2876.67,-14.49 3185.27,-48.3 320.76,-35.14 968.03,-49.99 1292.24,-62.82 1385.23,-54.84 4363.84,-298.56 5562.1,-534.51 421.62,-83.02 882.91,-133.18 1316.27,-197.16 446.57,-65.93 871.01,-137.18 1314.77,-197.38 703.82,-95.48 1821.76,-336.97 2571.47,-467.52 867.37,-151.06 1682.82,-353.46 2528.94,-512.89 1766.95,-332.94 3759.04,-403 5567.1,-512.84 744.91,-45.25 2265.1,-61.6 3012.3,-40.18 477.58,13.68 942.23,63.83 1419.32,97.78 473.59,33.71 960.35,59.39 1436.17,92.98 953.36,67.32 1951.45,69.25 2895.72,157.5 471,44.02 944.3,78.92 1418.66,97.72 478.61,18.97 945.66,77.44 1437.19,82.14 1019.13,9.72 1998.61,45.47 3019.24,46.35 982.66,0.85 2070.31,34.86 3039.41,-28.03 817.94,-53.08 1944.37,-181.86 2680.68,-370.58l544.33 -154.16 0 -5196.27c-569.24,233.35 -626.77,226.18 -1163.75,406.4 -1301.21,436.67 -1000.05,396.65 -2430.93,703.59 -430.71,92.4 -821.35,219.72 -1256.45,315.21 -416.97,91.53 -878.61,196.4 -1304.92,263.95 -445,70.52 -871.55,183.39 -1310.74,266.08 -2254.44,424.55 -3479.54,463.44 -5759.92,512.69 -522.27,11.27 -1036.74,32.74 -1561.43,32.13 -523.37,-0.59 -1022.61,-22.89 -1541.18,-32.08 -500,-8.85 -1005.29,-69.49 -1519.15,-62.03 -527.64,7.66 -1053.86,5.2 -1581.51,6.75 -514.46,1.51 -1015.09,-44.26 -1540.42,-43.73 -512.6,0.51 -973.47,-33.53 -1479.4,-60.65 -640.19,-34.3 -1668.21,-71.22 -2320.33,-70.93 -250.01,0.11 -492.83,-28.63 -738.84,-32.65 -1823.97,-29.83 -2713.09,46.97 -4441.28,261.26 -480.96,59.64 -985.49,73.71 -1473.92,115.8 -484.22,41.72 -971.96,92.29 -1459.45,116.13 -494.82,24.19 -988.2,43.03 -1478.92,75.95 -1555.7,104.36 -2893.09,215.92 -4456,266.4 -484.1,15.63 -979.42,69.81 -1457.9,101.25 -965.81,63.47 -1921.2,135.66 -2845.22,315.81 -443.09,86.39 -890.82,152.11 -1314.37,252.94 -400.2,95.28 -886.69,218.74 -1283.97,287.27l0 3740.49z"/>
   <path class="fil7" d="M45720 22860l0 -1998.22c-143.46,-73.19 -588.21,-548.16 -1256.95,-825.84 -502.8,-208.77 -237.38,-76.46 -689.97,-344.05 -1404.52,-830.41 -3170.38,-1162.66 -4852.31,-1438.64 -308.25,-50.57 -654.49,-59.84 -965.91,-92.57 -620.83,-65.24 -1302.47,-168.98 -1929.11,-186.87 -1137.83,-32.49 -1910.1,-78.16 -3019.75,117.62 -259.67,45.82 -641.28,115.6 -883.84,194.52l-485.64 139.63c-869.84,227.56 -2305.96,906.27 -2984.77,1487.87l-473.39 413.94c-117.83,117.59 -203.21,187.09 -317.67,287.8 -205.86,181.15 -388.73,398.53 -606.72,582.16 -106.64,89.84 -202.83,181.65 -306.15,278.86l-333.24 272.43c-215.36,169.18 -450.96,374.5 -623.72,554.33 -98.57,101.06 -161.6,165.84 -267.31,268.49 -86.59,84.09 -157.2,196.82 -254.89,272.7l0 15.84c6743.26,0 13501.99,-5.58 20251.34,0z"/>
   <path class="fil8" d="M41897.09 17369.27c-111.98,-93.4 -2007.6,-427.21 -2192.51,-462.3 -1139.89,-216.33 -1425.35,-148 -2448.72,-231.68 -863.66,-70.63 -1668.01,-121.94 -2566.07,-132.63 -1327.89,-15.83 -2440.81,-181.58 -3870.38,-82.02 -425.5,29.64 -864.98,19.8 -1284.41,48.27 -790.8,53.66 -1574.05,229.02 -2369.58,314.56 -404,43.44 -783.93,89.39 -1169.39,157.54 -197.96,35 -363.43,79.33 -561.88,112.69 -208.23,35.02 -2755.31,448.91 -2838.19,513.66 -106.87,-10.58 -1094.54,227.85 -1274.17,273.04 -661,166.3 -1913.4,391.54 -2605.47,499.53 -446.49,69.67 -906.61,114.45 -1367.69,183.79 -911.32,137.04 -1864.78,206.15 -2773.5,330.09 -916.38,124.97 -1838.69,216.7 -2773.77,319.04 -468.76,51.31 -949.64,85.92 -1410.6,145.94 -2368.09,308.39 -8100.93,549.53 -10390.76,335.34l0 3165.87 25472.37 0c97.7,-75.88 164.59,-204.45 251.18,-288.54 105.71,-102.65 168.74,-167.43 267.31,-268.49 172.76,-179.83 408.36,-385.15 623.72,-554.33l333.24 -272.43c103.32,-97.21 199.51,-189.02 306.15,-278.86 217.98,-183.63 400.85,-401.01 606.72,-582.16 114.46,-100.71 199.84,-170.21 317.67,-287.8l473.39 -413.94c678.81,-581.6 2114.93,-1260.31 2984.76,-1487.87l485.65 -139.63c242.56,-78.92 624.17,-148.7 883.83,-194.52 1109.66,-195.78 1881.93,-150.11 3019.76,-117.62 626.64,17.89 1308.28,121.63 1929.11,186.87 311.42,32.73 657.65,42 965.91,92.57 1681.93,275.98 3447.79,608.23 4852.31,1438.64 452.59,267.59 187.17,135.28 689.97,344.05 668.74,277.68 1113.48,752.65 1256.95,825.84l0 -2633.43c-638.62,-122.52 -1294.62,-265.13 -1927.15,-416.67 -314.12,-75.24 -640.27,-145.84 -958.94,-221.22 -168.32,-39.81 -827.7,-228.17 -936.82,-221.19z"/>
   <path class="fil9" d="M43607.52 2115.5c-140.55,-74.46 -2496.04,-522.01 -2881.73,-608.17 -487.83,-109 -938.28,-227.22 -1436.68,-318.52 -496.4,-90.94 -1006.36,-189.63 -1513.51,-248.8 -493.6,-57.57 -1037.23,-141.3 -1530.32,-220.38 -522.97,-83.87 -1074.7,-98.9 -1612.17,-155.13 -1078.61,-112.86 -3965.19,-190.05 -5122.81,-54.56 -1126.64,131.86 -1958.09,228.62 -3087.4,426.28 -499.84,87.5 -975.79,202.85 -1455.48,299.32 -664.19,133.58 -1550.48,300.78 -2187.38,448.67 -234.86,54.54 -487.82,90.58 -733.56,141.27 -487.3,100.5 -962.8,201.57 -1455.4,299.59 -257.01,51.15 -478.71,97.14 -738.02,142.51 -131.02,22.91 -245.36,35.7 -369.28,57l-282.31 48.14c-76.26,14.04 -53.11,-1.61 -90.52,30.39 -76.49,-9.43 -990.57,115.38 -1178.97,132.57 -1206.53,110.06 -2326,292.25 -3529.9,399.22 -794.38,70.59 -1609.94,154.43 -2427.55,196.44 -997.23,51.23 -1407.47,89.73 -2393.43,237.63 -765.54,114.84 -1536.34,228.44 -2308.16,311.55 -543.32,58.49 -1951.41,-23.67 -2532.28,-74.45 -824.47,-72.08 -1658.6,-76.14 -2492.66,-137.67 -490.82,-36.22 -813.97,-123.49 -1159.41,-147.2 -475.97,-32.68 -651.63,-121.66 -1056.44,-256.01 -7.86,112.14 13.42,155.86 -23.98,244.42 -1.53,3.59 -4.79,9.86 -8.17,14.16l0 2364.15c34.93,-63.37 23.77,-151.48 23.22,-230 -2.99,-426.17 -18.14,-1482.45 4.03,-1779.67 327.85,6.2 384.97,21.28 661.91,127.91 449.92,173.25 2205.25,383.1 2776.36,419.86 256.15,16.49 507.78,7.71 765.58,17.92 258.9,10.26 493.05,42.75 759.87,42.74 133.82,-0.01 250.22,-2.92 384.09,12.93 162.55,19.27 221.92,-5.63 375.28,-11 566.84,-19.9 806.25,67.02 1538.87,-20.63l1521.65 -80.63c495.9,-27.68 1000.59,-89.49 1499.76,-100.15 843.22,-17.98 1428.63,-113.44 2220.66,-164.65 586.41,-37.92 1668.81,-126.82 2200.41,-199.24 1038.44,-141.5 1812.93,-145.78 2867.88,-323.98 467.46,-78.96 961.23,-76.18 1430.92,-163.58 455.54,-84.79 933.36,-142.59 1398.8,-198.87 680.6,-82.31 1935.49,-363.96 2673.06,-509.27 889.8,-175.3 1829.76,-359.55 2734.99,-454.66 474.02,-49.82 975.56,-107.49 1450.76,-144.27 522.31,-40.45 1057.72,4.69 1568.22,-33.52 624.58,-46.75 1699.64,-91.58 2342.63,-67.13 237.96,9.05 476.99,62.12 718.78,80.94 961.92,74.85 1877.24,240.98 2811.5,381.44 460.07,69.15 932.17,141.89 1401.72,187.52 938.56,91.19 1847.93,265.57 2763.98,435.15 825.33,152.8 1897.2,249.21 2795.61,392.09 468.21,74.47 904.62,151.94 1363.05,233.04 891.09,157.66 1772.58,365.4 2666.41,526.17l0 -1282.31c-121.08,-60.83 -261.94,-145.52 -425.76,-180.27 -270.67,-101.11 -552.11,-178.61 -827.3,-268.78 -171.05,-56.06 -700.38,-207.96 -859.42,-217.52z"/>
   <path class="fil4" d="M45720 1295.22l0 -1295.22 -3351.62 0c62.71,39.8 141.93,54.95 205.8,82.23 65.49,27.99 150.74,35.88 223.41,62.14 137.56,49.72 308.12,117.21 452.51,141.49l689.87 182.87c86.91,33.08 142.4,41.37 234.39,70.05 248.55,77.5 908.6,425.44 1180.46,563.7 45.62,23.21 198.14,133.09 365.18,192.74z"/>
  </g>
  <path class="fil10" d="M10422.83 2330.46c253.73,67.74 430.38,-24.36 513,-311.51 -14.24,290.63 168.6,442.31 485.18,499.72 -363.82,-22.15 -556.99,97.91 -555.77,379.95 -19.46,-228.78 -126.27,-430.67 -442.41,-568.16z"/>
  <path class="fil10" d="M40275.33 534.53c175.7,46.91 298.03,-16.87 355.24,-215.71 -9.86,201.25 116.76,306.29 335.99,346.05 -251.94,-15.34 -385.71,67.8 -384.87,263.11 -13.47,-158.43 -87.44,-298.23 -306.36,-393.45z"/>
  <path class="fil10" d="M7247.35 1529.26c135.21,36.1 229.34,-12.99 273.37,-166 -7.59,154.87 89.84,235.7 258.54,266.29 -193.87,-11.8 -296.81,52.18 -296.16,202.47 -10.37,-121.91 -67.28,-229.5 -235.75,-302.76z"/>
  <path class="fil10" d="M4346.49 1234.25c19.46,-221.19 104.62,-320.36 368.52,-396.69 -284.39,-19.25 -344.84,-163.61 -369.17,-328.15 -72.38,189.84 -15.55,261.23 -287.99,332.51 223.94,61.1 257.24,239.08 288.64,392.33z"/>
  <path class="fil10" d="M15284.84 1017.33c-14.45,164.16 -77.65,237.75 -273.5,294.41 211.05,14.28 255.92,121.41 273.97,243.53 53.72,-140.89 11.55,-193.87 213.74,-246.78 -166.2,-45.34 -190.91,-177.42 -214.21,-291.16z"/>
  <path class="fil10" d="M19115.47 1359.56c16.62,188.9 89.34,273.59 314.73,338.79 -242.88,16.44 -294.51,139.72 -315.28,280.25 -61.82,-162.13 -13.29,-223.1 -245.96,-283.98 191.25,-52.18 219.69,-204.18 246.51,-335.06z"/>
  <path class="fil10" d="M27.51 2246.36c311.33,83.12 528.1,-29.9 629.47,-382.24 -17.47,356.62 206.89,542.74 595.34,613.18 -446.42,-27.18 -683.45,120.14 -681.96,466.22 -23.87,-280.73 -154.93,-528.45 -542.85,-697.16z"/>
  <path class="fil10" d="M44328.67 1846.27c132.27,35.31 224.36,-12.7 267.43,-162.4 -7.42,151.51 87.9,230.59 252.94,260.51 -189.67,-11.54 -290.37,51.05 -289.74,198.08 -10.14,-119.27 -65.82,-224.52 -230.63,-296.19z"/>
  <path class="fil10" d="M12820.21 802.03c-165.3,-44.13 -280.39,15.87 -334.22,202.95 9.28,-189.35 -109.84,-288.16 -316.09,-325.57 237.03,14.43 362.88,-63.78 362.08,-247.53 12.68,149.05 82.26,280.58 288.23,370.15z"/>
  <path class="fil10" d="M20882.68 578.92c-124.3,-33.19 -210.84,11.94 -251.32,152.61 6.98,-142.38 -82.6,-216.69 -237.7,-244.82 178.24,10.85 272.88,-47.97 272.28,-186.14 9.53,112.08 61.86,210.99 216.74,278.35z"/>
  <path class="fil10" d="M13320.85 2344.84c126.87,33.87 215.2,-12.19 256.51,-155.76 -7.12,145.32 84.3,221.16 242.59,249.86 -181.91,-11.07 -278.5,48.96 -277.89,189.98 -9.73,-114.39 -63.13,-215.34 -221.21,-284.08z"/>
  <path class="fil10" d="M15507.27 1737.77c96.53,25.77 163.73,-9.27 195.16,-118.51 -5.41,110.57 64.15,168.27 184.59,190.11 -138.42,-8.42 -211.9,37.25 -211.44,144.55 -7.4,-87.04 -48.04,-163.84 -168.31,-216.15z"/>
  <path class="fil10" d="M3823.21 2541.7c-135.2,36.1 -229.34,-12.99 -273.37,-166 7.59,154.87 -89.84,235.7 -258.54,266.29 193.87,-11.8 296.81,52.18 296.16,202.47 10.37,-121.91 67.29,-229.5 235.75,-302.76z"/>
 </g>
</svg>
