<?xml version="1.0" encoding="UTF-8"?>
<!DOCTYPE svg PUBLIC "-//W3C//DTD SVG 1.1//EN" "http://www.w3.org/Graphics/SVG/1.1/DTD/svg11.dtd">
<!-- Creator: CorelDRAW 2018 (64-Bit Evaluation Version) -->
<svg xmlns="http://www.w3.org/2000/svg" xml:space="preserve" width="100%" height="100%" version="1.1" style="shape-rendering:geometricPrecision; text-rendering:geometricPrecision; image-rendering:optimizeQuality; fill-rule:evenodd; clip-rule:evenodd"
viewBox="0 0 40640 22860"
 xmlns:xlink="http://www.w3.org/1999/xlink">
 <defs>
  <style type="text/css">
   <![CDATA[
    .fil32 {fill:#254C3B}
    .fil36 {fill:#254C45}
    .fil34 {fill:#295547}
    .fil33 {fill:#2C5245}
    .fil26 {fill:#2D554A}
    .fil9 {fill:#2D594E}
    .fil23 {fill:#2E594D}
    .fil25 {fill:#2F3F38}
    .fil0 {fill:#314139}
    .fil1 {fill:#31423A}
    .fil21 {fill:#31443B}
    .fil29 {fill:#32463D}
    .fil28 {fill:#32493D}
    .fil39 {fill:#335B45}
    .fil24 {fill:#335D4A}
    .fil27 {fill:#354A3E}
    .fil35 {fill:#35634C}
    .fil3 {fill:#386E55}
    .fil12 {fill:#3A694E}
    .fil22 {fill:#3B644C}
    .fil16 {fill:#3E6B4E}
    .fil38 {fill:#3E6F50}
    .fil13 {fill:#3F6E50}
    .fil8 {fill:#457556}
    .fil40 {fill:#498261}
    .fil10 {fill:#4A8563}
    .fil4 {fill:#4B8763}
    .fil5 {fill:#4B8866}
    .fil19 {fill:#4D8568}
    .fil2 {fill:#50886B}
    .fil18 {fill:#528F4F}
    .fil37 {fill:#5A7B4E}
    .fil20 {fill:#5AA058}
    .fil14 {fill:#5CA96B}
    .fil7 {fill:#618653}
    .fil6 {fill:#628754}
    .fil31 {fill:#628854}
    .fil15 {fill:#63A25D}
    .fil30 {fill:#65A55E}
    .fil17 {fill:#709E50}
    .fil11 {fill:#719F4F}
   ]]>
  </style>
 </defs>
 <g id="Layer_x0020_1">
  <metadata id="CorelCorpID_0Corel-Layer"/>
  <path class="fil0" d="M30007.94 22239.49l56.06 -157.98 100.48 29.37 -156.54 128.61zm10194.9 620.51l-217.64 0c-147.16,-2.06 -236.61,-14.26 -396.88,-73.88 -90.97,-33.84 -167.18,-45.38 -265.32,-83.18 -147.13,-56.66 -119.82,44.92 -93.69,157.06l-192.94 0 12.85 -165.1c-43.05,-28.83 -110.06,-89.92 -149.87,-105.27 -59.74,-23.04 -131.02,-18.25 -208.16,-47.31 -72.09,-27.14 -459.87,-167.82 -541.35,-142.7 -232.24,71.6 -181.16,4.94 -181.16,460.38l-195.09 0c28.86,-69.86 -0.01,-298.58 7.45,-414.49 8.81,-136.85 -114.95,-194.19 -245,-215.88 -2.45,-71.63 -92.02,-27.34 -191.41,-65.51 -99.53,-38.22 -36.52,3.88 -201.35,-69.03 -171.65,138.07 -152.76,107.83 -152.04,200.01l77 -12.85 -60.57 22.62 -14.46 555.13 -156.96 -0.49 -16.19 -299.69 -16.72 -195.11 -5.23 -0.07c-24.92,-49.45 -6.22,14 5.54,-27.71l22.4 -78.02c4.26,-61.64 -15.2,-75.79 -44.81,-102.42 -103.24,-92.84 -63.94,-110.05 -118.2,-170.41l-1043.56 -292.14 -18.96 25.5 -10.9 480.18 1.64 336.4 50.6 23.8 -37.77 0.19 -6.57 299.99 -149.32 -0.01 -15.76 -382.33c24.08,-50.3 52.49,-215.42 0,-248.1l13.64 -459.88 -148.71 -35.34c-50.46,36.97 -388.3,368.15 -300.22,435.25l-49.49 45.03c8.88,105.8 7.41,182.07 3.03,285.49 -2.83,67.1 -0.04,197.03 34.68,239.82l-18.16 120.07 -210.1 0 0 -330.12c41.49,-17.57 5.58,-34.74 -1.48,-90.66 -6.86,-54.31 12.17,-79.3 2.5,-101.81 -35.26,-42.93 -104.48,94.48 -113.25,117.35l-418.19 405.24c14.92,-82.93 3.03,-122.64 -84.88,-128.47l345.16 -440.53c93.27,15.01 256.12,-255.71 255.12,-256.56 11.85,-38.76 -6.07,-321.76 -6.5,-407.22 -1.14,-226.11 31.14,-190.6 -187.18,-239.49 -198.98,-44.56 -523.39,-164.68 -686.06,-178.74l20.32 555.38 -27.96 330.19 1.95 609.09 -165.08 -53.85 0 -630.22 -9.77 -255.21 24.78 -570.34c-36.96,-91.57 -361.34,-205.06 -462.62,-159.98 -213.03,94.78 -96.13,225.06 -126.91,505.18l6.33 255.15 -6.97 675.39 -205.22 125.55 -12.27 -95.54c71.7,-55.74 123.65,-122.24 12.27,-187.71l-30.02 -652.69c47.31,7.91 21.66,-74.67 25.31,-139.79 4.65,-83.02 30.73,-155.22 -40.32,-166.78 42.11,-58.4 54.79,-218.18 -23.01,-286.46l-189.53 199.64 -12.57 -11.92 0 74.96 -48.54 -21.52c-19.69,69.53 -100.65,84.14 -128.31,171.69l-933.7 953.24 -81.08 -22.7c98.47,-126.05 114.49,1.15 87.55,-210.12l758.92 -862.92 141.42 -127.67 278.78 -270.16c-60.84,-44.57 -3.86,-72.45 -92.38,-93.05 -34.82,-8.12 -83.61,-5.86 -148.2,-26 -130.32,-40.62 -791.42,-277.98 -854.96,-219.32l-56.53 -52.21c-58.12,66.2 -72.18,158.23 -33.59,225.49 -90,36.65 -253.7,615.54 -310.94,769.58 -91.95,247.49 -262.92,494.04 -394.33,702.74l-251.17 -6.56c21.97,-67.25 108.38,-114.54 42.82,-191.01 -180.75,-121.28 -246.92,209.45 -272.18,242.84 -110.3,70.88 -218.71,80.76 -333.19,0.91 -129.19,-90.11 13.47,-192.05 -28.68,-321.62l-136 -47.15c62.15,-40.16 137.13,-109.12 145.15,-178.56 19.94,-172.26 15.29,-54.64 73.36,-215.75 40.74,-113.04 41.21,-141.6 103.13,-227.51 87.2,-120.98 -23.51,-103.53 54.73,-223.48 26.63,-61.24 273.94,-91.91 140.53,-319.44 38.98,-60.69 32.68,-67.45 62.31,-129.04 42.76,-88.85 30.1,-28.29 97.12,-97.91 119.07,-123.67 93.96,-146.42 -9.61,-223.32 51.94,-42.84 31.11,-70.4 84.54,-106.82 57.69,-39.31 74.15,-8.58 103.67,-92.99 27.06,-77.33 117.72,-265.69 118.94,-271.23 31.41,-141.94 -37.12,-4.77 36.58,-126.29 68.38,-112.73 109.31,-383.39 78.76,-413.72 -89.46,-75.72 -123.88,56.98 -170.84,95.46 3.1,-52.79 167.91,-501.57 194.84,-555.53 75.67,-151.62 174.55,-356.64 135.32,-525.04 131.01,-87.74 76.88,-85.78 150.02,-225.19l300.21 -778.73 495.16 418.58c-124.78,-7.32 -207.94,-103.74 -285.07,-15l-4.71 15.48 454.94 117.74c137.22,123.12 295.59,175.13 493.88,258.5 187.84,78.99 346.41,150.66 508.06,255.33l-139.74 126.99 3.56 411.65 19.67 474.67 -119.36 12.93 -123.95 -247.47 18.68 -554.93 -135.54 168.26 -26.36 -228.69 104.52 -126.26 -123.18 -31.37 -72.69 -157.55 86.99 -27.84 -271.95 -78.46 -57.42 130.62 147.3 5.7 38.7 120.07 -291.15 30.02c-1.14,13.79 -204.58,450.11 -231.72,503.68 -66.03,130.34 -137.28,406.54 -163.57,570.85l695.45 -785.88 45.23 236.65c-61.55,-64.3 -74.08,52.49 -139.3,116.04 -63.22,61.61 -89.69,88.4 -146.89,153.28l-581.59 649.07c-13.81,29.32 -122.27,448.06 -125.07,485.07l1112.7 322.56c73.66,-19.68 147.33,-86.46 155.8,-183.53 7.23,-82.91 -13.96,-167.4 -0.94,-276.96 20.99,-176.54 -4.79,-383.78 -4.79,-613.7l230.97 338.76 -4.93 585.57 17.73 3.52 176.44 -177.05 43.7 5.45 25.39 182.85 -124.5 133.25 70.42 181.93c252.13,0 189.84,121.73 391.95,75.04l-1.76 -556.09 162.67 90.83 3.77 505.64 854.06 259.81 0 -94.38c132.36,79.68 208.77,1.27 143.27,-136.7l108.56 35.96c-59.06,27.07 -26.22,259.66 65.5,279.22 102,21.74 241.66,76.71 282.96,-59.61l480.24 223.59c-18.77,63.22 76.24,72.5 161.14,86.05 72.46,11.57 137.68,73.88 199.04,44.94l43.59 11.16 16.43 -4.29 47.05 19.29 43 15.01 450.64 135.23 29.6 -110.61 210.11 -13.36 -15.01 63.79c127.39,29.67 122.72,106.35 191.4,168.79 39.38,35.8 212.28,71.35 284.07,71.35 101.58,119.09 119.05,43.13 216.6,85.54 29.8,-23.08 57.44,-40.92 94.36,-70.54 -4.1,-30.74 8.25,-4.76 -21.06,-15.08l14.36 -285.09 0.6 -57.61 266.59 -2.42 -67.37 0.11 19.14 300.06 -19.02 40.87c92.13,20.12 124.96,48.62 172.38,97.86 141.83,147.23 49.72,30.48 166.34,101.41l-72.78 0 1.93 39.7 103.13 35.35 90.03 15.08 360.18 91.88c53.83,32.91 171.26,101.39 219.96,39.57 20.92,-26.56 30.19,-110.27 28.86,-132.23 -7.49,-124.23 -12.02,-32.49 -68.74,-104.28l73.47 -0.08 2.96 -330.19c-1.4,-98.8 -7.01,-83.45 -8.06,-174.47 -1.37,-118.74 -17.4,-55.21 -98.38,-91.19l285.15 -29.93 0 349.06 29.61 366.78c-120.62,31.81 46.35,137.68 68.89,186.64 77.56,168.38 -32.05,76.43 178.98,136.19 170.55,48.3 338.61,105.09 472.89,131.47l223.16 206.08zm-5245.2 -1365.78l199.34 74.73 13.48 -7.05 -210.96 224.33 -1.86 -292.01zm-4282.54 -105.08c0.07,-4.99 46.77,-37.21 26.35,2.66 -0.04,0.07 -27.19,55.09 -26.35,-2.66zm551.71 -301.54l-626.38 -22.26c137.82,-180.01 486.79,-21.15 674.96,-111.45l-48.58 133.71zm18.56 -283.8c10.79,-10.78 85.21,14.21 25.52,7.61l-7.64 -2.01c-1.68,-0.5 -44.03,20.55 -17.88,-5.6zm-390.13 9.41c21.26,-26.24 32.52,-69.44 74.99,-69.44l15 0c7.67,0 203.02,58.2 285.14,60.03l-180.07 9.93 -195.06 -0.52zm-245.63 17.64l56.34 -174.61 98.57 29.21 12.17 12.83 -167.08 132.57zm482.62 -282.2l18.08 -24.58 90.05 9.57 163.49 36.44 1.58 68.63 -165.07 -10.14c-29.46,-6.82 -90.48,-16.74 -105.13,-34.9 -84.03,-17.33 -44.44,-16.37 -3,-45.02zm-342.1 -165.1l238.84 64.55c-18.24,68.62 -114.97,101.92 -166.3,96.07 -159.24,-18.12 -74.83,-57.79 -72.54,-160.62zm739.03 -131.53l-18.67 26.47 -104.44 -18.84 148.23 -177.39 -25.12 169.76zm-633.98 -168.65c44.35,-60.53 203.65,-38.28 285.23,-44.48 130.46,-9.93 248.94,-46.93 169.92,44.9 -94.08,109.33 -53.82,144.48 -198.87,105.85 -97.62,-25.99 -248.76,-15.93 -256.28,-106.27zm375.19 -210.12l-284.87 16.81 56.21 -138.64 558.82 46.8c-83.32,124.42 -173.39,75.03 -330.16,75.03zm-115.7 -463.95l538.57 154.21c46.81,114.57 -156.88,73.28 -264.64,61.45 -142.14,-15.61 -218.85,-28.17 -323.31,-36.87l49.38 -178.79zm608.4 -2.11l-548.84 -148.68c24.15,-105.99 -0.43,-45.64 86.15,-45.64l300.15 0 225.14 -3.44 -62.6 197.76zm92.59 -359.42l-555.19 -18.26c33.55,-141.14 108.62,-88.07 272.68,-99.72 117.03,-8.3 250.16,2.47 342.53,-17.1 -17.66,36.84 -8.97,136.31 -60.02,135.08zm-465.75 -280.53l93.46 -213.48 436.55 183.89 -530.01 29.59zm662.4 -169.02l-467 -180.28 555.6 -11.51 -88.6 191.79zm-466.24 -414.64l45.62 -95.83 264.65 100.92c-2.67,1.07 -5.88,19.84 -25.67,18.61l-284.6 -23.7zm447.67 -106.15l246.56 73 -7.27 19.2 -239.29 -92.2zm-28.01 -20.23l0 0zm0 0l-45.02 -15.01 45.02 15.01zm-45.02 -15.01l-64.13 -20.5 64.13 20.5zm-90.04 -45.03c26.68,-26.68 -26.69,26.68 0,0zm-60.04 -15.01l0 0zm0 0l-30.01 -15.01 30.01 15.01zm-30.01 -15.01l-30.01 -15.01 30.01 15.01zm-30.01 -15.01l0 0z"/>
  <path class="fil1" d="M36941.85 16466.27c-14.25,22.1 -17.15,22.94 -36.38,46.77l-47.34 44.21c-43.38,-39.6 -29.06,-11.02 -30.7,-82.9l30.7 -0.14 -41.12 -608.57 382.12 305.44 4.18 40.03 -261.46 255.16zm681.67 -795.47c167.13,-3.72 347.43,-26.23 555.06,-13.84 300.09,17.93 161.71,50.03 390.4,208.96 -200.56,0 -374.59,-23.57 -617.1,-15.16 -54.69,1.9 -262.36,-27.55 -278.11,-47.09 -82.88,-102.86 75.19,47.5 36.88,-42.38 -14.52,-34.04 -52.53,-38.81 -87.13,-90.49zm0 0l0 0zm-195.05 -177.59l569.31 -156.42 156.72 148.06 -726.03 8.36zm-512.98 -126.32c-16.51,1.26 -321.96,-51.87 -273.5,-197.86 129.76,-54.89 361.33,57.46 273.5,197.86zm-1309.85 -46.91l-28.42 -128.75 110.64 12.46 -82.22 116.29zm1462.6 -69.42l0 -30.02c209.61,-4.67 665.46,-261.81 735.36,0 -132.13,0 -303.49,39.12 -395.16,69.51 -369.62,122.55 -91.1,18.54 -340.2,-39.49zm-1965.97 -240.14l0 0zm0 0l-79.55 -37 9.75 -16.79 69.8 53.79zm1395.7 -82.06c159.01,-53.75 808.22,-37.49 915.44,37.03 -495.77,115.51 -444,233.52 -885.44,0 -8.9,98.63 -49.25,120.42 -149.64,89.7 -82.62,-25.27 -115.86,-47.94 -94.38,-140.58 64.29,-26.87 153.76,-19.83 214.02,13.85zm-1575.78 -8l0 0zm0 0l0 0zm1119.9 37.2c-142.05,37.66 -212.57,-72.41 -145.31,-128.51 58.25,-48.58 198.58,-13.26 145.31,128.51zm-294.49 -292.35c59.19,-4.93 42.51,-18.06 105.04,-15.01l285.16 14.83 -0.01 30.19c-188.91,0 -221.69,116.46 -390.19,-30.01zm-599.08 -376.74l-1.22 198.72c60.3,-23.83 3.3,-170.56 136.11,-107.14 53.99,90.44 -27.37,109.23 -76.45,133.42 59.78,44.47 94.97,128.51 163.07,155.7 220.46,88.06 148.7,46.84 132.01,167.97l-344.88 -47.55c-25.12,-37.46 -72.56,-251.54 -85.48,-271.11l-164.62 -140.02 -175.14 151.67c120.7,135.55 52.74,471.91 175.26,709.61 52.82,-42.88 498.64,-137.34 540.26,-34.22 30.43,64.6 21.35,324.99 -95.83,360.22 51.06,110.63 -0.52,141.92 -114.27,121.08l-109.45 164.09 109.45 112.74 201.74 -240.07 -2.09 442.51 160.53 125.19c0,-147.73 -34.76,-687.16 27.64,-772.74 17.6,-24.13 185.63,-210.75 209.71,-227.17 110.2,-75.17 168.37,21.48 283.78,83.39 90.92,48.77 503.96,302.78 523.94,361.63 21.98,64.72 20.48,620.06 35.46,768.68 34.19,56.66 0.41,49.02 -3.38,126.29l30.03 32.16 273.49 26.43 93.11 -118.62c37.17,-38.08 61.55,-43.37 97.31,-94.73 56.48,-81.11 20.57,-37.3 105.52,-85.38l4.22 -15c63.95,-95.51 89.69,-60.81 45.02,13.69l60.03 -16.64c47.07,44.94 48.93,19.27 57.5,77.98l272.66 361 765.38 -85.37c-85.05,-195.53 -406.61,-493.11 -509.43,-622.21 -109.7,-137.75 -142.88,-100.73 60.15,-75.56 219.69,27.22 480.43,5.96 665.61,25 143.15,14.73 121.94,84.77 201.77,174.12 58.89,65.94 126.86,146.69 167.18,233.09 36.29,-15.93 65.79,-196.09 70.13,-254.31 12.11,-162.09 -103.74,-62.56 -183.83,-67.02 -54.92,-74.68 -64.7,-129.35 -119.82,-190.14 -61.57,-67.91 -108.91,-98.24 -55.35,-204l-86.31 -78.78 -72.57 0.73c-21.54,-29.8 -66.91,-106.01 -91.02,-132.84 -26.45,-29.46 -84.04,-62.09 -119.62,-91.62 -102.41,-85.03 -151.17,-81.42 -219.81,-198.66l-25.84 -5.52c-4.04,-0.72 -8.54,-1.6 -13.04,-2.35 -4.52,-0.76 -8.49,-1.19 -13.18,-1.95 -54.8,-8.74 -71.76,-4.66 -120.35,-44.19 -223.13,-181.55 -241.11,-70.01 -290.01,-162.81 -44.06,-83.6 -3.08,-119.5 80,-122.18l-196.06 -105.38 86.33 139.26c-128.65,64.84 -300.45,-120.96 -470.66,-172.7 -75.24,-22.86 -203.71,-38.88 -258.62,-73.06 -242.15,-150.76 -1003.77,-457.65 -1171.93,-457.93l-644.14 52.6z"/>
  <path class="fil0" d="M35417.43 18777.62l0 0zm198.11 -131.15l0 0zm-1897.63 -364.45l-297.33 -86.4 312.25 -92.02 -14.92 178.42zm960.54 15.13l3.62 15.19 -6.16 210.71 -13.22 15.76 -773.15 -207.13 -21.91 -259.18 828.46 -214.28 -17.64 438.93zm-957.6 -345.05l-338.89 96.2 -5.54 -21.12c89.06,-84.48 247.98,-347.94 360.18,-360.21l-15.75 285.13zm-869.68 -600.32l0 0zm-888.25 -44.11c16.37,-31.53 31.25,-63.33 47.83,-60.95l674.64 94.87 -35.07 83.07 -687.4 -116.99zm216.07 -389.36l482.77 242.93 -7.42 20.04 -553.55 -99.6 78.2 -163.37zm221.95 -170.13c136.85,12.99 125.6,16.67 225.11,66.96l226.21 51.97 5.57 214.59 -14.1 12.13 -292.71 -192.24 -30.02 0 -15.01 8.54 -88.98 -53.64 -148.71 -85.23 15.67 -37.03 116.97 13.95zm720.36 -101.81c-120.34,114.17 -112.4,2.5 0,0zm-467.96 -90.06l17.74 15.02c227.28,0 306.01,170.97 -26.45,60.03 -29.4,21.31 -236.82,-43.34 -269.08,-75.57l38.1 -75.18c65.15,0.54 196.29,44.65 239.69,75.7zm392.93 -135.07l156.62 79.35 -7.22 13.3 -148.05 -37.94 -1.35 -54.71zm-255.13 -125.09l74.34 119.04 -14.87 8.51 -89.49 -21.26 -263.97 -46.73c36.54,-62.74 61.77,-100.69 92.78,-160.27 67.38,25.67 133.91,77.42 201.21,100.71zm240.12 -190.1l338.97 162.97 16.8 -5.31 -69.87 98.04c-66.66,-35.42 -131.5,-51.34 -199.24,-88.04 -84.55,-45.81 -83.42,-50.31 -86.66,-167.66zm-337.66 -36.82c18.1,-54.96 27.95,-79.72 67.52,-113.95 54.17,7.49 56.99,26.25 99.45,60.89l-8.85 124.72 -158.12 -71.66zm-532.77 -32.86c30.34,104.07 -218.24,457.28 -274.07,576.04 -38.27,81.4 -268.71,547.07 -308.47,574.27l387.44 317.73 583.93 66.56 -59.84 125.5 -402.47 -119.56 448.67 322.23 315.15 -547.36c0,116.69 -0.49,235.13 7.66,339.95 6.63,85.46 15.86,86.78 12.26,159.93 -6.95,141.36 -15.48,82.16 -64.94,160.11l1110.54 529.44 30.02 -3.74 22.99 15.02 22.02 19.69 30.03 -4.69 555.84 132.93 -70.46 92.2 460.08 249.86 196.49 -173.19c74.11,50.85 230.48,56.68 256.28,101.98 2.76,4.85 27.46,269.88 27.46,306.36l195.1 16.97c-94.05,-92.94 -30.02,-67.59 -30.02,-246.83l597.78 231.38 -57.51 20.34 276.25 -116.63 -636.42 -252.71 -165.08 -82.55 -12 -190.05 0 -11.08 14.65 -48.96 -5.64 -15.01 -192.11 -188.89 -15.01 384.01c-131.63,-69.66 -266.51,-32.37 -270.13,-195.12l19.05 18.18 229.07 -243.31 -69.59 -150.09 -282.5 272.33 15.95 9.52 -114.21 -69.65 -26.16 -407.32c-68.29,-95.55 -188.5,-176.18 -213.51,-375.21 -112.59,114.15 106.27,32.72 -398.33,165.27 -104.18,27.38 -341.17,112.05 -435.4,119.9 26.07,-111.92 -17.11,-363.14 24.05,-471.24 13.21,-34.71 99.35,-108.23 128.63,-141.51 53.48,-60.78 60.82,-120.75 147.47,-122.69l0 41.48c35.54,-55.46 -54.81,-161.04 105.67,-165.57l-105.67 -179.18 -106.36 138.18c-2.75,3.94 -6.45,8.6 -8.69,11.48 -2.16,2.8 -5.74,7.83 -8.32,11.15l-15.69 19.27c-50.37,64.86 -31.23,57.69 -86.05,75.1l-34.94 60.14 -25.1 2.97 -14.53 -75.05 6.91 -120.07 7.62 -139.24 -68.8 27.95c-62.26,-46.63 -57.08,-78.01 -38.1,-160.98 11.78,-51.54 30.26,-112.16 45.22,-167.21l61.68 2.45 6.6 -73.27 -137.36 -285.17 -55.5 735.43 38.7 30.03 -17.52 97.04c15.8,232.53 26.95,307.17 -113.46,449.85 -71.9,73.07 -199.7,275.66 -302.07,293.6 9.18,62.19 -98.49,156.21 -145.61,202.76l-82.72 -54.31c-19.83,-69.67 -36.11,-160.77 -20.23,-223.5 22.93,-235.47 -44.56,-603.64 43.98,-795.47 17.38,-34.98 59.53,-141.95 109.86,-135.14 27.76,-117.04 418.41,-659.33 502.98,-705.35l-47.15 -145.87c-24.05,88.61 -110.06,423.66 -228.56,323.1l-18.99 -1.87 30.78 -190.36 -374.12 -180.04c-50.39,23.06 -0.5,22.52 -53.71,12.26 -22.45,-40.44 -18.85,-44.62 -19.87,-99.7 113.02,26.3 81.12,17.74 92.29,57.35l401.49 71.51 54.73 -146.55 -234.89 -75.04 -50.36 -1.83c-79.77,-2.01 -203.22,-47.61 -263.97,-72.45 4.76,-66.98 24.06,-39.68 16.63,-88.59l-49.54 -120.03c-121.87,125.34 -83.48,61.72 -277.84,32.88l-199.85 369.86c-106.13,38.15 -136.61,-22.29 -187.53,98.79 -33.63,80.03 -53.96,127 -143.03,86.9z"/>
  <path class="fil0" d="M36648.04 19233.77l-94.36 38.76 -185.46 75.42 309.4 91.36c-79.99,172.6 87.29,275.72 105.48,343.89l-137.75 120.08 -192.41 233.14 -852.34 940.31 11.92 -924.56 -6.3 -278.92 -12.67 -450.61 64 -14.1 -210.11 25.8 -37.08 393.89 45.2 255.14 -9.07 915.54 361.13 176.47 829.91 -926.9c-1.23,-73.01 46.65,-80.2 98.74,-122.28 56.06,-45.28 58.24,-81.25 122.43,-108.01 -11.26,80.21 14.23,256.26 -15.57,311.37l-45.02 1067.95 240.12 -23.54c-50.23,-47.24 -28.96,-528.56 -23.46,-597.39 7.97,-99.65 -9.67,-583.34 53.4,-633.17l-14.32 -180.1 -0.7 -150.09 14.72 24.03 246.12 -149.87 144.44 47.44 288.51 59 1.18 109.46 10.46 1450.65 495.25 -10.84 -285.13 -15 -13.58 -1469.71c133.02,57.2 383.28,147.42 516.11,174.48 152.92,31.16 346.55,106.23 519.77,153.8 97.45,26.76 65.69,146.48 61.56,247.58 -7.27,178.07 -2.55,770.37 -18.35,859.81l195.1 4.97 -13.26 -1050.55 266.78 66.75 61.63 186.87c155.43,12.99 55.69,119.85 77.65,225.85 159.27,82.78 221.45,48.23 377.89,-23.75 141.78,-65.23 257.5,-99.43 414.89,-83.63l-72.08 -58.66 18.8 6.43 278.11 -95.52 0.28 -224.33c-58.19,61.34 -319.33,143.87 -375.18,59.87l-88.7 -28.6c-12.63,-72.9 2.13,-139.53 31.6,-181.37l-47.96 -123.44c-52.5,71.54 24.65,155.57 -105.05,155.75 -54.05,-48.21 -55.07,-179.22 -17.78,-248.75 -54.94,-53.98 -280.08,-36.77 -298.01,24.56 64.01,47.01 97.29,88.01 86.71,191.34 -66.72,61.42 -122.59,65.28 -182.19,-8.06 -23.1,-28.43 -98.65,-138.24 -107.97,-155.15l-201.12 7.12 83.51 213.29c-141.3,-7.67 -203.57,-33.96 -203.57,-191.73l105.06 -18.9 -237.24 -7.21c22.97,52.56 38.78,118.66 -23.96,141.43 -60.54,22 -101.21,-29.93 -128.99,-52.89l-15.01 -17.4 -810.39 -260.6c-89.56,-9.4 -53.67,8.64 -143.44,-30.34l-18.24 -114.3 11.59 -300.61 -85.49 43.63c18.51,84.8 52.19,83.61 26.73,185.28l-66.54 33.15 -54.78 3.14c-8.33,19.05 -5.39,27.12 -9.35,36.6 -17.42,41.71 5.08,15.42 -25.67,41.43l-259.75 -87.65 -109.1 -34.44c-4.09,-119.96 -17.88,-85.08 55.83,-163.2 48.06,-50.92 54.54,-100.24 150.28,-102.54l-312.49 -66.97c85.75,112.45 -132.81,34.56 -77.39,-8.06l-57.67 -15.33 -60.04 0.32 -45.02 -28.84 -222.03 -18.43 0 17.24 -26.53 167.08 -126.62 -71.13z"/>
  <path class="fil2" d="M33476.04 14502.24l-9.69 8.65 -115.45 277.96c54.06,124.88 9.95,159.86 -11.48,271.21 -20.68,107.45 14.12,199.97 16.14,298.49 29.67,27.86 10.92,-13.91 28.72,52.04 5.28,19.59 3.17,39.95 8.91,63.88 17.7,73.73 22.44,24.9 46.32,89.05 16.26,51.72 35.4,59.14 62.58,101.87 22.58,35.49 39.41,67.95 66.58,110.47l-17.46 30.02 -54.73 146.55 -46.08 138.62 -30.78 190.36 18.99 1.87c118.5,100.56 204.51,-234.49 228.56,-323.1l47.15 145.87 41.59 105.06 137.36 285.17 24.3 75.05c19.9,19.92 25.26,20.53 37.96,39.9l15.18 30.16c9.59,22.35 5.05,9.35 12.22,35l188.89 207.02 105.67 179.18c144.48,13.03 93.36,119.44 56.46,201.9 -1.96,4.38 -4.28,9.78 -5.9,13.42 -1.67,3.75 -4.46,9.07 -6.09,13.83 73.03,17.33 66.35,102.7 190.14,169.98 39.15,21.28 87.84,37.85 121.11,58.76 102.07,64.12 7.22,35.1 72.19,116.47 25.01,199.03 145.22,279.66 213.51,375.21l228.45 157.38 10.95 -24.12 33.47 -73.46 -284.6 -248.88c-37.22,-28.58 -63.45,-76 -81.7,-136.5 -45.61,-151.2 -14.13,-92.28 30.92,-146.9 58.02,-70.31 -82.57,-237.77 -131.92,-273.56l74.36 -35.61c-32.94,7.19 -233.04,-6.01 -241.75,-9.7 -93.7,-39.61 -32.46,-141.93 -2.75,-184.21l-127.4 -126.41c-83.73,-61.83 -196.92,27.64 -221.69,-111.96 -3.6,-20.28 -1.98,-19.94 -6.71,-48.3 -12.95,-77.68 -13.25,-22.08 14.28,-88.56l-80.85 -286.83 -4.67 14.67 254.04 -28c28.17,-19.32 101.94,-41.09 59.09,-88.6 -46.66,-51.74 -50.44,1.25 -126.6,-13.55l-10.26 -107.97 -71.73 -15.09c-50.42,-17.65 -17.17,-20.69 -82.67,-7.41 -78.03,15.81 -40.29,9.24 -52.46,33.75 -99.7,-1.29 -28.88,5.95 -55.49,-26.27l-172.33 -195.12 -22.04 -43.95 -143.26 -255.35c-67.66,-44.18 -138.59,-27.59 -127.79,-133.2 35.76,-30.14 72.9,-44.09 142.72,-36.72l-118.11 -3.59 19.8 -291.46 10.1 -216.94c275.66,49.84 215.24,-179.21 271.38,-246.65 88.53,-0.35 74.78,32.68 153.75,40.36 130.06,12.63 66.55,-50.55 120.47,-46.87 78.42,52.22 59.94,185.11 220.92,129.72l3.23 -236.19 148.09 284.22 28.57 96.06 27.17 75.05 72.64 290.21 109.92 304.4 47.71 -21.49c18.62,103.86 46.75,101.09 113.54,147.3 -2.58,69.05 -1.21,99.72 21.2,150.09l43.32 42.88 95.07 122.22 115.04 123.56 75.83 9.65 29.1 91.92 120.18 70.48 151.14 94.62c120.96,33.45 57.07,50.88 73.9,120.07 -25.83,49.75 -39.38,63.22 -26.75,132.62 79.81,49.29 119.34,14.25 149.15,-50.84 1.87,-4.08 12.18,-28.81 14.18,-31.91 2.82,-4.39 4.69,-7.38 7.91,-11.75 3.63,-4.93 6.53,-7.68 10.26,-12.25l25.34 -25.8c2.08,2.92 5.4,3.83 6.46,8.61 1.04,4.8 5.09,6.92 6.6,8.54 50.61,54.68 101.06,51.37 122,162.88l162.76 37.15 2.4 -22.14 0 120.07 147.7 23.94 72.58 -139.03 214.93 28.69c146.83,21.79 73.97,21.53 116.99,161.45l3.07 -4.01 49.41 34.85c79.2,10.38 83.77,14.87 145.69,-30.77l23.67 -73.39 681.67 133.33c384.05,-0.36 722.37,-19.24 1020.51,-130.66 63.73,-141.42 -69.49,-248.76 -150.07,-194.05l-765.38 85.37c-101.4,-2.04 -341.36,1.08 -386.98,-17.93 -101.03,-42.09 -222.01,-88.73 -348.39,-104.37l-273.49 -26.43 -356.73 -62.17c48.19,-117 -203.4,-13.74 -360.25,-150.1l208.69 -50.44 -4.41 -144.84c-190.87,-95.97 -324.93,24.06 -399.38,135.25l-195.1 -99.94 -160.53 -125.19 -199.65 -202.44 -109.45 -112.74 -85.64 -134.38c-62.74,-51.77 -46.81,-4.87 -78.01,-85.97 -18.96,-49.24 -21.64,-64.09 -24.6,-124.86l-32.46 -265.96c-122.52,-237.7 -54.56,-574.06 -175.26,-709.61l175.14 -151.67 164.62 140.02c12.92,19.57 60.36,233.65 85.48,271.11l344.88 47.55c16.69,-121.13 88.45,-79.91 -132.01,-167.97 -68.1,-27.19 -103.29,-111.23 -163.07,-155.7 49.08,-24.19 130.44,-42.98 76.45,-133.42 -132.81,-63.42 -75.81,83.31 -136.11,107.14l1.22 -198.72c-186.91,-172.08 -235,-47.71 -379.83,27.56 -44.98,23.37 -417.84,133.96 -435.57,125.25 -72.92,-35.82 15.06,-134.66 -178.89,-89.04 -146.79,34.53 -77.32,174.48 -455.52,100.26 -102.26,-20.06 -101.36,43.42 -222.67,49.74z"/>
  <path class="fil0" d="M40073.91 17802.66c4.77,28.69 3.23,111.84 4.75,139.42 2.32,41.78 -1.32,76.18 -31.82,94.89 -106.98,65.63 -128.3,-57.12 -143.12,-128.39 -16.19,-77.89 -92.94,-149.04 3.15,-200.35 80.75,-43.13 156.15,28.85 167.04,94.43zm566.09 1061.03l0 911.63 -226 67.92c-18.45,-67.81 -128.9,-148.14 -226.14,-128.6l0 -21.5 431.52 -88.39 -61.99 -209.54 3.96 -16.67 -431.6 118.79 -52.11 -194.41 402.14 -92.41 -200.36 -410.36 12.3 -13.75 -511.47 262.99 64.36 183.45 -443.78 -103.27c-26.55,-72.59 -79.33,-272.34 -155.74,-272.15 -141.15,0.35 -44.51,202.61 -9.11,268.73l-267.81 -63.36 -24.01 -15.09 -22.13 -29.95 7.13 -30.01 -28.31 -15.01 0 -15 3.02 -30.03 -64.76 -148.71 -184.9 -406.61c81.4,-221.15 -108.17,-447.91 -36.42,-600.35l163.88 34.69c72.49,-231.68 -186.72,-272.18 -87.91,-511.46 100.95,-244.47 201.3,-172.98 321.79,-321.55l51.95 92.9 -273.41 135.09c68.84,79.2 253.61,37.98 363.71,36.44 42.07,-0.59 296.7,24.62 351.54,41.11l-162.25 -337.92 -164.56 65.25c-18.05,-120.22 -58.26,-157.21 16.76,-236.13l22.41 -34.03 93.25 -405.24c22,12.39 422.8,630.7 477.5,712.55l326.53 558.97c36.95,63.43 58.85,169.12 106.74,154.32 -20.41,105.02 -58.63,195.88 -123.27,258.13 -52.78,50.82 -207.37,97.91 -257.47,57.05 38.37,-74.6 49.98,-58.19 10.68,-143.89 -26.07,-56.85 -47.5,-104.67 -85.68,-138.65l-545.33 89.87 252.77 501.67 213.83 -188.93 -26.73 326.93 -86.78 63.3c-124.43,139.2 -14.32,186.67 71.77,122.03l43.93 148.52 13.19 22.15 478.31 -256.69 14.44 4.62 -174.68 -404.22c153.78,-2.3 204.85,-131.57 285.13,-208.27 7.13,89.32 255.66,641.46 308.38,743.73 9.85,19.12 16.87,57.76 21.79,109.32zm-1665.83 -1436.86l630.09 20.47 95.33 186.92 -574.55 55.46c-29.33,-4.79 -144.06,-209.84 -150.87,-262.85z"/>
  <path class="fil0" d="M35593.58 17896.78c-28.9,-317.82 14.5,-225.48 233.95,-263.98 -22.57,61.36 -153.23,189.84 -215.52,247.34l-18.43 16.64zm2318.42 -830.17l137.08 206.61 -141.38 11.06 4.3 -217.67zm-3244.94 -465.26l0 0zm240.12 -510.3l0 0zm-275.87 270.16c18.14,47.62 20.1,2.13 -14.47,53.26 -11.77,17.42 -28.23,41.87 -37.51,53.37 -22.18,27.44 -63.84,77.47 -92.36,104.9l-123.07 88.63 57.85 19.18c15.76,4.84 29.75,8.41 45.87,14.11 33.86,12 57.85,25.27 79.38,43.71l120.06 -137.02 -8.87 465.26 74.53 24.59c123.82,38.48 128.53,114.94 66.12,139.31l-74.36 35.61c49.35,35.79 189.94,203.25 131.92,273.56 -45.05,54.62 -76.53,-4.3 -30.92,146.9 18.25,60.5 44.48,107.92 81.7,136.5l435.21 -92.92 92.28 -30.15c9.46,60.99 23.59,256.2 9.16,324.71 -18.58,88.14 -32.46,26.32 -36.28,94.86l189.97 213.99c-20.14,-284.27 238.55,-434.48 398.99,-597.77 165.04,-167.96 61.09,-119 348.76,-162.33 86.94,-13.09 348.7,-50.99 407.82,-26.57l60.03 1383.48 67.75 15.23 133.22 -77.94 -73.11 -1366.18 817.02 -66.45 0.58 1081.04c91.15,-38.5 125.35,-29.58 209.05,-98.68l-45.27 -990.85 226.24 -16.79 105.23 217.19 153.91 -38.93c37.48,-87.1 -71.38,-307.82 22.19,-406.11 49.82,-49.59 129.38,27.61 243.39,-190.33l-44.31 -70.65c-298.14,111.42 -636.46,130.3 -1020.51,130.66l150.03 16.59 -3.28 223.56c-145.67,0 -457.1,34.42 -584.25,56.13 -50.43,8.6 -191.55,18.92 -237.83,18.92l0 -190.83c-66.97,3.24 -9.44,-77.25 -46.98,-120.99 -30.68,-35.73 -60.89,28.69 -128.72,-32.55l-49.41 -34.85 1.48 49.03 8.17 165.1c-69.89,6.3 -44.17,14.76 -60.77,30.01 73.97,5.25 79.18,62.15 81.13,150.09l-449.98 47.14 209.88 -195.02c-45.6,-6.57 17.79,8.05 -29.03,-4.89 -2.62,-0.72 -9.41,-0.97 -11.51,-5.94 -2.04,-4.81 -6.46,-5.33 -9.86,-7.74 118.93,-42.72 119.01,-176.96 215.47,-163.82l41.95 -59.95c-43.02,-139.92 29.84,-139.66 -116.99,-161.45l-227.9 251.49c-48.45,98.78 -217.99,225.6 -291.01,321.15 -54.12,70.82 -369.99,142.41 -468.89,140.83l-3.74 -86.76 6.42 -30.01 -6.62 -300.18 23.21 -180.11c-29.85,-54.67 -43.34,-265.02 -6.95,-330.77l-13.94 -134.49 -151.14 -94.62c0,134.17 42.66,176.81 -59.95,184.67 12.51,10.15 24.2,28.88 51.42,30.02 0.13,95.22 19.71,192.3 -21.48,199.7l-15 363.59 43.93 -0.61 -6.58 211.13c-18.02,12.13 -2.88,0.8 -28.76,12.31l-52.74 24.35c137.75,0 125.86,149.05 -86.36,176.11 -105.11,13.4 -289.62,77.87 -349.73,49.02l0 -210.05c-37.01,-11.5 -21.22,-43.42 -25.18,-106.22 -3.41,-53.97 -17.39,-134.8 10.17,-173.6l14.94 -350.62c-49.13,-81.69 -26.64,-242.65 -26.01,-345.21 17.37,-161.84 -38.79,-60.76 72.39,-193.71 26.18,-31.32 112.48,-146.57 138.79,-166.49l-95.07 -122.22 -105.04 122.22 -15 -109.46c-120.37,23.22 -166.91,42.92 -184.19,-100.89 -14.66,-122.06 -5.53,-182.44 78.46,-230.65l-109.92 -304.4c-22.3,79.2 -19.92,464.25 -14.64,524.76 13.03,149.14 59.72,462.92 -30.58,490.8z"/>
  <path class="fil3" d="M29639.58 22234.51c39.13,13.83 35.9,10.17 69.7,45.95 -28.43,24.01 -91.83,48.77 -130.85,66.73l61.15 -112.68zm2614.23 625.49l-114.94 0c-28.6,-4.68 -54.7,-13.12 -72.04,-26.06 -45.65,-34.07 -86.09,-68.19 -87.7,-128.66l-598.69 -115.36c-81.73,-9.48 -157.46,-2.36 -210.11,-32.88 -67.65,34.9 -53.02,-82.19 -240.1,47.82l-210.18 -165.11c-99.45,-100.18 -323.99,32.75 -437.74,56.25 -219.32,45.32 -267.5,-92.65 -407.72,-112.02 -151.09,-20.86 -247.04,187.68 -360.58,168.08 -104.13,-17.98 -154.93,154.46 -234.6,271.38l-175.87 36.56 -361.67 0c39.93,-44.3 83.16,-39.89 129.17,-78.12 71.09,-59.08 8.98,-44.88 113.15,-111.97 43.85,-28.24 85.96,-76.78 126.3,-100.85 106.01,-63.25 107.17,19.02 135.05,4.91 89.99,-62.46 -8.43,-5.29 36.59,-115.78 13.08,-32.09 70.08,-94.59 99.02,-126.73 64.56,-71.68 149.03,-172.01 196.19,-251.91l101.62 -210.12 371.18 -735.44 65.97 -105.06 43.32 -123.14 114.47 -78.78 -7.15 -14.72 -17.02 -143.57c1.97,-14.1 113.8,-242.69 142.17,-314.44 43.84,-110.88 29.53,-217.15 104.22,-329.83 68.08,-102.71 209.22,-612.42 269.02,-631.54 46.96,-38.48 81.38,-171.18 170.84,-95.46 30.55,30.33 -10.38,300.99 -78.76,413.72 -73.7,121.52 -5.17,-15.65 -36.58,126.29 -1.22,5.54 -91.88,193.9 -118.94,271.23 -29.52,84.41 -45.98,53.68 -103.67,92.99 -53.43,36.42 -32.6,63.98 -84.54,106.82 103.57,76.9 128.68,99.65 9.61,223.32 -67.02,69.62 -54.36,9.06 -97.12,97.91 -29.63,61.59 -23.33,68.35 -62.31,129.04 133.41,227.53 -113.9,258.2 -140.53,319.44 -78.24,119.95 32.47,102.5 -54.73,223.48 -61.92,85.91 -62.39,114.47 -103.13,227.51 -58.07,161.11 -53.42,43.49 -73.36,215.75 -8.02,69.44 -83,138.4 -145.15,178.56l136 47.15c42.15,129.57 -100.51,231.51 28.68,321.62 114.48,79.85 222.89,69.97 333.19,-0.91 25.26,-33.39 91.43,-364.12 272.18,-242.84 65.56,76.47 -20.85,123.76 -42.82,191.01l251.17 6.56c80.37,46.02 298.69,91.05 364.26,64.47 95.76,-38.82 201.21,-167.24 347.55,-110.95 26.94,211.27 10.92,84.07 -87.55,210.12l81.08 22.7c163.9,76.43 114.4,34.5 215.33,13.52 80.86,-16.8 113.35,42.21 219.42,54.3 168.06,19.16 373.79,56.85 495.72,59.56 9.46,-113.68 336.11,-267.52 450.22,-247.75 111.38,65.47 59.43,131.97 -12.27,187.71l-122.78 89.26 135.05 6.28 205.22 -125.55 239.75 -64.95 6.71 19.53 30.14 129.16 298.56 96.29 165.08 53.85 285.15 27.88c87.91,5.83 99.8,45.54 84.88,128.47l-820.25 0c-8.66,-104.03 -166.78,-75.04 -270.14,-99.02 -94.98,17.46 -194.11,-16.91 -285.13,-20.42 -89.23,91.91 -482.05,-30.64 -632.22,-36.62l66.93 146.95c-8.26,3.77 -19.28,6.83 -32.07,9.11z"/>
  <path class="fil4" d="M34426.94 20753.49c15.79,-80.57 141.17,68.91 240.12,95.34l0 150.01c26.79,-28.92 18.96,-9.22 28.44,-59.15 11.4,-60.05 -23.76,-58.73 -8.38,-131.17 9.27,-43.64 48.7,-71.05 100,-81.37 127.33,52.1 93.81,120.12 83.24,235.8l108.56 35.96 348.46 219.61 480.24 223.59 45.02 22.08 15.02 0 300.14 108.91 43.59 11.16 16.43 -4.29 47.05 19.29 43 15.01 480.24 24.62 210.11 -13.36 390.11 -26.27c-59.45,-70.14 -36.05,-105.76 3.79,-160.81 85.68,-8.18 98.4,33.46 195.34,48.7 109.36,17.2 146.99,3.2 176.08,99.53l266.59 -2.42 24.31 0c13.2,-144.93 200.44,-31.29 249.41,-5.41l255.13 -12.68 40.82 -28.75 49.22 31.75c44.35,-70.56 209.93,-58.69 285.14,-55.46l285.15 -29.93 85.65 -4.58c-15.79,-192.12 226.85,-72.87 304.54,-0.09l194.82 -33.04 16.92 9.78 -83.37 143.41 -30.14 75.05 6.02 15.01 78.3 195.11 12.54 15.01 15.02 -9.78 102.52 48.24 707.87 36.47 0 -221.16c-402.4,26.97 -382.49,144.2 -787.38,-48.88l36.95 -101.94c-56.76,-90.76 -73.1,13.92 -62.04,-157.39 123.52,-0.78 158.59,-28.86 246.96,31.27l535.5 -100.56 30.01 -247.31 0 -22.44 -67.4 43.03c-82.78,123.5 -595.14,66.03 -803.03,104.99l-180.08 -46.92c-27.82,18.53 -54.12,30.07 -82.07,55.15 -22.41,20.12 -47.67,51.04 -71.15,64.25 -88.28,49.72 -132.07,1.67 -176.95,-44.05l-30.01 16.61 -195.1 -4.97 -210.11 -9.9 -62.28 59.56c-61.42,48.13 -165.09,231.3 -250.6,102.42 -35.97,-54.2 8.04,-72.42 27.61,-117.03l-285 13.99 -495.25 10.84 -465.23 -4.9c-87.5,64.36 -74.02,235.48 -236.11,172.38 -20.39,-52.96 -7.01,-97.5 14.45,-147.28l-33.46 -0.16 -240.12 23.54c-101.08,-21.9 -153.38,30.9 -283.72,-9.68 -75.04,-23.38 -189.5,-41.75 -262.34,-54.13 -100.24,-17.04 -147.17,-0.83 -243.2,-40.39 -97.77,-40.28 -92.44,-79.97 -201.23,-117.93l-361.13 -176.47 -509.3 -278.85 -257.9 -126.39 -207.33 -110.84c-43.61,58.74 47.37,8.09 -63.61,125.85l15.01 131.55c0.48,-1.99 1.47,9.2 3.58,13.26z"/>
  <path class="fil5" d="M35297.37 18142.92l28.46 64.36 69.59 150.09 37.02 36.24 192.11 188.89 5.64 15.01 -14.65 48.96 0 11.08 12 190.05 165.08 82.55 73.6 -130.63 -13.58 -6.9c59.24,21.44 189.65,119.55 326.58,168.68 121.36,43.54 236.91,83.43 273.72,221.62l100.74 89.61 94.36 -38.76 15 -22.36 -17.87 -120.03c80.76,-2.03 79.21,21.93 156.02,29.2l222.03 18.43 45.02 28.84 60.04 -0.32 57.67 15.33 77.39 8.06 312.49 66.97 77.7 6.3c44.87,-7.65 80.66,-45.16 143.51,-16.46 57.13,26.09 24.66,49.21 71.14,98.39l85.49 -43.63 255.13 44c33.15,-34.7 46.78,-61.25 116.43,-38.46 2.48,9.08 3.02,225.3 0.84,251.53 23.88,25.75 0.85,-4.29 17.33,30.65 3.22,6.84 6.26,15.53 9.38,22.91 7.88,18.65 0.91,14.13 21.04,50.01 -4.31,69.95 19.87,80.09 80.86,114.16 56.06,31.31 69.42,57.13 120.56,89.77 58.32,37.24 236.85,79.85 323.83,81.24 -2.33,-4.14 -5.97,-14.72 -6.99,-12.42 -0.14,0.35 -32.23,-26.21 -7.89,-124.61l66.01 -31.71c61.49,54.92 90.39,97.41 131.91,157.64l237.24 7.21 15 -2.66 201.12 -7.12 -9.14 -77.89c32.3,-20.36 60.94,-49.31 117.01,-37.45 58.63,12.39 57.33,43.32 95.58,87.21 17.93,-61.33 243.07,-78.54 298.01,-24.56 36.67,-19.56 74.29,-37.85 108.75,-67.76 68.26,-59.26 18.5,-43.34 42.18,-99.54l0 -21.5 -58.11 -195.81 -52.11 -194.41c-0.92,-129.82 111.2,-250.83 -82.96,-255.15l-150.07 185.07 -443.78 -103.27c-26.55,-72.59 -79.33,-272.34 -155.74,-272.15 -141.15,0.35 -44.51,202.61 -9.11,268.73l-267.81 -63.36 -24.01 -15.09 -22.13 -29.95 7.13 -30.01 -28.31 -15.01 0 -15 3.02 -30.03 -64.76 -148.71c-175.05,-44.94 -60.03,218.42 -60.03,268.78l-127.22 -15.01c-44.72,54.46 -63.95,124.57 2.1,181.74 52.88,84.7 165.79,21.83 230.98,-26.54 67.63,54.42 147.25,52.89 174.3,69.93 -3.89,9.46 -10.31,35.37 -12.25,39.9l-27.79 50.08c-71.43,55.27 -36.89,129.59 48.2,150.17l197.23 -232.38c257.97,-6.05 687.78,129.35 744.89,307.43l-3.32 15 26.83 79.22 -7.45 -19.53 -448.49 77.63c-3.18,3.53 -6.61,8.26 -8.74,11.26l-28.03 43.7c-95.33,171.23 -176.9,68.27 -188.9,-29.83l-378.63 -27.37c-101.43,0 -211.18,36.21 -238.72,-48.09 -111.85,69.16 -235.47,56.3 -166.32,-109.49 -34.05,-27.41 -5.29,25.29 -35.64,-47.06 -40.54,-96.68 -20.67,-178.38 -158.15,-275.65l-60.11 -53.24c-83.79,31.55 -177.61,121.46 -220.58,-66.82l-139.6 -3.05 -210.09 -18.63 -60.04 -20.49 -255.12 -25.24 -330.17 -69.86 -217.38 -39.94 -67.75 -15.23c-184.74,-29.22 -544.16,-84.18 -692.46,-165.65 -103.35,-56.77 -199.04,-116.38 -289.74,-190.52 -91.64,-74.91 -177.48,-195.64 -233.4,-240.64l-189.97 -213.99c-27.27,-13 -28.55,-14.68 -65.16,-19.06l-45.02 42.4z"/>
  <path class="fil6" d="M36002.72 13014.24c60.4,230.41 25.98,159.57 137.43,349.56l-17.37 10.66c-14.37,53.82 -106.8,81.72 -161.1,139.05 -69.89,73.79 -94.18,88.98 -217.84,95.8 -193.14,10.64 -349.4,-9.38 -506.5,-84.77 23.8,-65.75 244.89,-216.48 180.16,-390.22l-1.43 -73.42 -111.61 58.42c-72.86,397.34 -396.06,379.05 -532.43,555.32 -30.16,84.86 -15.12,157.51 -134.98,89.48 -87.6,78.54 -116.82,70.74 -186.92,188.87 -69.54,117.2 -67.71,168.6 -203.28,96.86l-60.02 84.83c174.82,23.33 135.8,186.25 -14.35,111.11 -18.55,-50.18 -14.56,-2.06 -5.23,-60.85l-89.51 45.02 1.31 96.77c-92.58,25.58 -223.22,47.09 -192.45,-81.76l-248.99 -80.2 -4.38 20.65 -16.69 59.47c80.21,-44.54 98.44,-32.56 161.83,2.11 9.09,144.51 -56.96,76.26 -143.14,122.88 -35.37,19.13 -25.92,30.35 -78.96,55.59 -56.7,26.98 -61.18,9.68 -80.23,76.77 121.31,-6.32 120.41,-69.8 222.67,-49.74 378.2,74.22 308.73,-65.73 455.52,-100.26 193.95,-45.62 105.97,53.22 178.89,89.04 17.73,8.71 390.59,-101.88 435.57,-125.25 144.83,-75.27 192.92,-199.64 379.83,-27.56l644.14 -52.6 -273.56 -30.16 -20.38 -8.09 52.35 -117.75c-15.32,-7.91 -123.44,41.31 -196.94,43.48 -131.64,3.89 -167.65,-0.82 -248.5,-7.81 -96.68,-8.36 -123.33,39.94 -225.26,7.91 -111.01,-34.87 -95.9,-101.33 -198.3,-103.61 74.4,-140.63 189.55,-235.57 326.35,-320.4 156.17,-96.83 207.41,8.53 402.36,71.89 362.75,117.89 814.22,-71.41 877.08,-306.82 209.51,110.88 585.5,88.66 684.84,-224.82 22.91,-72.3 -52.63,-230.32 -54.53,-315.49l-74.96 -30.02 6.06 96.18c-100.44,55.3 -119.68,-0.6 -183.08,-40.1 -60.66,-37.79 -135.55,-36.4 -206.98,-53.44l-0.58 47.58 -62.89 -0.2c129.35,52.03 303.29,33.26 347.16,243.99 41.33,198.53 -99.72,294.46 -286.68,274.46 -457.09,-48.9 -440.04,-527.26 -69.18,-515.62l-24.58 -50.21c-162.47,-7.81 -168.25,8.44 -223.71,8.76 -8.12,-20.17 -0.48,-9.34 -9.77,-31.9l-21.2 -39.46 -105.06 180.02z"/>
  <path class="fil0" d="M33723.93 18897.69l-5.36 225.13c13.88,177.4 8.32,377.02 2.29,554.98 -2.75,80.88 7.87,165.21 -25.13,216.01 -33.55,51.63 -115.79,132.06 -181.8,144.54l275.41 90.41c32.4,-4.82 34.42,-1.72 55.2,-13.16 35.39,-19.47 17.91,-13.14 33.75,-32.23l-7.65 -120.03 12.49 10.58 336.83 -355.81c41.23,-59.95 123.75,-184.14 206.98,-198.4l272.59 -309.14 11.5 12.24 -28.89 405.24c16.78,97.99 34.26,187.05 55.78,285.17l-41.58 60.03 0 15.01 10.25 45.03 -28.56 30.02c73.81,25.98 46.47,236.58 39.39,304.31 -11.33,108.26 21.03,304.37 -38.13,326.05l257.9 126.39c57.07,-134.78 -38.92,-796.12 43.02,-831.8 -72.36,-60.64 -59.76,-255.94 -12.54,-330.19l-45.48 -396.45 -345.17 -189.71 -325.93 331.01c-20.77,48.01 -76.68,116.97 -124.3,103.33 -13.89,62.94 -210.09,274.76 -244.6,273.13 -12.88,-0.61 -46.56,-369.36 19.42,-421.49 -24.44,-28.14 14.54,-8.94 -38.96,-45.02 3.23,-48.35 -6.58,-211.09 24.02,-225.2l8.15 -330.12 -158.22 -61.25 -12.67 301.39z"/>
  <path class="fil4" d="M38989.19 16646.37c26.67,-26.68 -26.68,26.68 0,0zm-213.84 -900.52c-53.56,105.76 -6.22,136.09 55.35,204 55.12,60.79 64.9,115.46 119.82,190.14 80.09,4.46 195.94,-95.07 183.83,67.02 -4.34,58.22 -33.84,238.38 -70.13,254.31 -149.64,31.25 -187.75,76.55 -105.05,200.05 -171.84,40.05 -210.26,194.51 -285.85,330.21 -114.01,217.94 -193.57,140.74 -243.39,190.33 -93.57,98.29 15.29,319.01 -22.19,406.11l-153.91 38.93c-143.82,47.61 -59.47,217.36 80.4,160.08l117.56 -51.03c-1.2,95.2 -15.59,182.01 -0.25,272.38 17.32,102.04 40.46,115.82 -2.62,207.63 -21.48,122.29 -5.12,-41.28 14.28,138.01 14.21,131.15 67.17,121.51 111.71,153.43l79.3 -135.07c81.4,-221.15 -108.17,-447.91 -36.42,-600.35l163.88 34.69c72.49,-231.68 -186.72,-272.18 -87.91,-511.46 100.95,-244.47 201.3,-172.98 321.79,-321.55l51.95 92.9 115.03 -60.03c-18.05,-120.22 -58.26,-157.21 16.76,-236.13l22.41 -34.03 93.25 -405.24c87.49,-124.43 -44.02,-341.45 -128.09,-407.82 -78.45,-61.94 -93.19,-45.36 -174.11,-126.05 -47.58,-47.44 -165.38,-81.7 -237.4,-51.46z"/>
  <path class="fil7" d="M31545.53 17308.42l495.16 418.58 165.16 118.22c137.22,123.12 295.59,175.13 493.88,258.5 187.84,78.99 346.41,150.66 508.06,255.33l183.65 88.45 345.16 148.8 158.22 61.25 682.2 314.36 345.17 189.71 525.25 272.72 210.11 -25.8c159.41,80.85 572.19,35.13 710.67,-60.59l185.46 -75.42 -100.74 -89.61 -23.9 -0.06 -276.25 116.63 -510.25 -4.89 -195.1 -16.97 -480.23 -235.15 -460.08 -249.86 -485.38 -225.13 -30.03 4.69 -22.02 -19.69 -22.99 -15.02 -30.02 3.74 -1110.54 -529.44 -270.13 -112.63 -448.67 -322.23 -121.62 -72.5 -387.44 -317.73c-44.32,-63.08 -65.34,-5.88 -86.18,-141.67 -15.42,-100.51 8.87,-141.14 -96.66,-143.49 -121.04,88.69 -8.25,361.58 150.08,406.9z"/>
  <path class="fil8" d="M35191.08 13134.32l113.38 -15 111.61 -58.42 1.43 73.42c82.55,-65.21 -38.77,-48.5 118.31,-106.82 54.61,-20.28 121.21,-39.61 151.75,-88.22 -4.9,-0.97 138.76,-154.38 172.37,-202.6 53.29,-76.44 74.87,-248.01 -17.77,-312.75 -204.18,-142.66 -316.06,-214.05 -618.29,-83.2 -180.6,78.18 -332.26,217.27 -402.05,422.64 -155.36,457.24 263.02,294.53 369.26,370.95z"/>
  <path class="fil2" d="M40225.72 17757.02c-20.41,105.02 -58.63,195.88 -123.27,258.13 -52.78,50.82 -207.37,97.91 -257.47,57.05l-153.73 120.07 -26.73 326.93 -86.78 63.3c-124.43,139.2 -14.32,186.67 71.77,122.03 98.14,-74 164.47,-70.31 195.34,-226.85 27.64,-140.27 78.69,-191.71 179.85,-258.77 153.78,-2.3 204.85,-131.57 285.13,-208.27 28.95,-65.44 65.45,-167.89 151.91,-221.92 130.78,-81.7 99.82,-181.78 -76.86,-181.78l-84.32 -286.97c50.24,-74.61 276.03,-225.34 219.38,-343.4 -159.35,-76.48 -221.27,132.37 -270.13,165.09 -3.63,-162.87 0.21,-223.91 80.28,-356.04 53.24,-87.86 -1.57,-76.56 35.53,-173.18 36.53,-95.15 42.25,-80.19 34.26,-176.2 -290.54,-67.69 -112.72,183.79 -210.11,255.16 0,-213.1 -131.48,-230.7 -173.05,-127.07 -35.13,87.59 37.57,259.57 113.03,277.15l-57.05 176.65c-61.39,-45.7 -75.55,-113.58 -183.07,-41.56 -52.64,109.72 163.65,219.02 235.68,319.61 67.79,94.68 90.78,344.64 100.41,460.84z"/>
  <path class="fil4" d="M32518.32 18237.3l38.7 120.07 9.01 318.67 45.23 236.65 269.92 651.83 230.97 338.76c78.63,179.48 187.65,177.49 204.25,270.08l33.4 -26.08c39.12,-23.13 191.95,-84.18 172.84,112.3l79.12 33.92 104.83 44.25 162.67 90.83 362.51 210.13c-11.58,-70.33 -17.18,-73.45 37.72,-111.49 72.49,-50.24 34.7,-17.33 67.33,-128.66l-315.07 -185.61c-83.4,28.15 -223.41,59.48 -265.98,-39.52l9.18 -17.66c1.38,-1.78 5.11,-6.97 6.73,-8.93l17.66 -18.08 -275.41 -90.41 -385.91 -382.07c87.23,-8.16 340.13,82.7 229.22,-106.05 -112.61,-191.63 -177.64,-100.89 -265.96,-177.87l-119.36 12.93 -123.95 -247.47 -116.86 -386.67 -26.36 -228.69 -18.66 -157.63 -72.69 -157.55 -95.08 30.02z"/>
  <path class="fil1" d="M34082.05 15250.56l235.62 99.37 -126.72 87.16 -154.2 -150.16c-92.98,19.67 -114.17,-56.13 -173.76,-102.85 -40.06,-31.39 -123.34,-84.55 -133.89,-136 18.64,4.86 130.79,80.08 167.16,102.77 62.07,38.73 127.35,53.46 185.79,99.71zm233.77 -165.1l227.89 129.54 -11.71 20.55c-90.59,60.66 -346.78,-101.27 -420.22,-165.1l-15 -0.49c-28.45,-5.36 -149.15,-67.31 -174.03,-89.57 85.74,-50.16 126.66,-61.97 213.37,-10.33l179.7 115.4zm-695.61 91.22c25.72,53.6 81.65,70.05 119.36,133.92l315.25 236.12 -93.11 37.25c-36.35,53.27 -37.64,69.21 -119.88,71.1 -37.84,0.86 -111.04,-5.92 -138.24,-13.42l143.26 255.35 41.72 13.62c14.83,-27.83 50.89,-64.01 81.22,-84.12l-8.01 -5.62c59.1,-19.65 267.82,-214.06 331.39,-268.84 52.46,-45.2 311.48,-200.81 383.36,-206.39l-72.64 -290.21c-163.88,-27.7 -77.84,-46.24 -41.88,-86.56l-109.6 24.81c-42.38,-30.19 -121.24,-62.56 -146.31,-117.57 90.79,-10.18 169.37,-11.61 224.1,42.66 23.42,-14.2 20.53,26.1 17.95,-34.45l-148.09 -284.22 -3.23 236.19c-160.98,55.39 -142.5,-77.5 -220.92,-129.72 -53.92,-3.68 9.59,59.5 -120.47,46.87 -78.97,-7.68 -65.22,-40.71 -153.75,-40.36 -56.14,67.44 4.28,296.49 -271.38,246.65l-10.1 216.94z"/>
  <path class="fil6" d="M35868.6 11982.17c-39.8,74.5 -143.3,87.67 -226.06,83.52 -35.72,-37.34 -13.91,-32.76 -51.76,-64.01 -40.24,-33.2 -19.07,15.18 -53.24,-50.95l-26.98 2.65c36.12,47.7 67.15,10.88 50.82,108.66 -108.7,55.86 -140.6,7.61 -208.01,-22.78 -26.35,-11.88 -31.67,-15.77 -55.31,-11.54 -61.52,11.03 14.04,7.14 10.38,97.68 -24.27,13.14 -69.4,24.76 -98.24,33.35 -22.43,83.68 -289.25,228.87 -370.1,293.83 -80.98,65.06 -142.81,60.95 -182.93,145.32 -72.76,153.06 -130.5,67.52 -177.08,101.16 -35.68,169.91 139.03,306.58 234.55,373.23 114.93,80.19 30.3,63.44 207.97,75.75 172.27,11.94 137.01,-2.38 268.47,-13.72 -106.24,-76.42 -524.62,86.29 -369.26,-370.95 69.79,-205.37 221.45,-344.46 402.05,-422.64 302.23,-130.85 414.11,-59.46 618.29,83.2 92.64,64.74 71.06,236.31 17.77,312.75 -33.61,48.22 -177.27,201.63 -172.37,202.6 66.73,14.84 210.22,-92.12 268.2,-137.09 140.58,-109.03 222.59,-481.23 160.21,-636.63 -30.48,-75.93 -127.08,-221.62 -203.22,-246.95l-44.15 63.56z"/>
  <path class="fil6" d="M32566.03 15340.61l-30.01 15.01 30.01 -15.01zm90.05 -5.56l-90.05 5.56 156.6 -173.28 15.32 83.23 -6 57.38 -75.87 27.11zm352 -104.37c-16.98,-83.12 18.04,-84.94 72.57,-111.88l34.68 92.48 -107.25 19.4zm212.84 -655.52c-86.97,190.58 -178.37,183.62 -219.68,285.09 159.09,-35.82 14.3,142.53 -7.54,172.64 -60.48,83.32 -45.68,192.88 -157.54,188.76 -33.37,-40.92 -29.47,-27.17 -25.54,-84.49 3.74,-54.31 17.56,-64.38 -4.47,-111.66 -29.69,184.66 -11.31,-79.63 -223.19,76.76 -74.16,54.75 -147.28,144.78 -121.98,253.36l75.04 0c-38.48,52.51 -106.26,68.29 -123.3,133.66 -22.12,84.79 -0.34,118.09 -69.86,183.46 -99.15,93.27 -205.66,156.97 -242.06,313.24l60.03 50.39c89.07,40.1 109.4,-6.87 143.03,-86.9 50.92,-121.08 81.4,-60.64 187.53,-98.79l199.85 -369.86c194.36,28.84 155.97,92.46 277.84,-32.88l49.54 120.03 123.53 29.79c52.43,-41.04 71.33,-24.16 96.41,-77.14 23.1,-113.02 66.28,-21.86 75.98,-152.17 -16.55,-57.06 -30.78,-90.84 -54.62,-150.89 -39.38,-99.14 -67.42,-369.85 90.98,-428.71l115.45 -277.96c-103.73,58.42 -46.81,-9.03 -113.22,86.09 -29.04,41.6 -46.85,61.69 -110.42,64.39l-21.79 -86.21z"/>
  <path class="fil9" d="M35589.62 22199.62l1.64 336.4 50.6 23.8 255.81 135.08 113.41 -95.5 36.66 20.46 193.82 63.01 102.31 -113.7c-3.74,-42.12 -110.49,-114.16 -145.8,-144.72 136.26,0.3 285.42,-55.61 327.96,16.47 48.58,82.32 22.65,85.07 74.97,107 56.73,23.78 74.64,55.18 122.07,86.95l96.99 -75.05 -16.72 -195.11 -5.23 -0.07c-24.92,-49.45 -6.22,14 5.54,-27.71l22.4 -78.02c4.26,-61.64 -15.2,-75.79 -44.81,-102.42 -103.24,-92.84 -63.94,-110.05 -118.2,-170.41 -71.73,47.64 -153.22,49.92 -235.56,98.03 -104.92,61.29 -58.03,79.26 -221.93,109.29 -96.42,17.68 -493.71,6.22 -615.93,6.22z"/>
  <path class="fil1" d="M39938.48 22054.37c148.15,22.42 30.06,124.37 62.81,228.55 31.74,100.98 91.29,162.07 142.88,232.99 154.38,212.21 216.94,195.05 495.83,260.01l0 -801.55 -707.87 -36.47 6.35 116.47z"/>
  <path class="fil10" d="M35551.07 14079.87l-52.35 117.75 20.38 8.09 273.56 30.16c168.16,0.28 929.78,307.17 1171.93,457.93 54.91,34.18 183.38,50.2 258.62,73.06 170.21,51.74 342.01,237.54 470.66,172.7l-86.33 -139.26c-213.99,-195.17 -342.22,-146.5 -468.99,-250.43 -95.64,-78.41 -139.62,-42.13 -237.58,-122.62 -70.81,-58.17 -139.02,-119.59 -238.17,-127.34 -113.79,-8.9 -97.39,-66.07 -216.29,-124.14 -63.04,-30.79 -196.26,-36.34 -267.31,-45.88 -168.05,-22.56 -510.43,-76.24 -628.13,-50.02z"/>
  <path class="fil1" d="M30283.09 22614.71l-70.14 46.75 -6.03 -19.97 76.17 -26.78zm-143.81 245.29l-208.09 0c-265.39,-1.28 -530.9,-0.1 -796.32,0l-15.67 0 -15.66 0 175.87 -36.56c79.67,-116.92 130.47,-289.36 234.6,-271.38 113.54,19.6 209.49,-188.94 360.58,-168.08 140.22,19.37 188.4,157.34 407.72,112.02 113.75,-23.5 338.29,-156.43 437.74,-56.25 -157.5,64.13 -183.64,115.35 -296.1,229.11 -78.47,79.37 -142.84,178.92 -284.67,191.14z"/>
  <path class="fil9" d="M38434.66 21719.33c27.9,37.08 58.2,43.01 51.07,113.96 -83.39,78.06 -132.89,-10.14 -216.9,-45.5 -101.34,96.72 -112.27,114.44 -276.93,96.64l-19.02 40.87c92.13,20.12 124.96,48.62 172.38,97.86 141.83,147.23 49.72,30.48 166.34,101.41l32.28 75.05 90.03 15.08 360.18 91.88c69.65,-141.57 38.77,-82 -30.01,-212.02l210.09 15.08 73.47 -0.08 2.96 -330.19 -106.44 7.21 -75.03 -10.02 -134.72 35.31 -0.34 -55.59c-30.17,-15.76 -44.47,-15.03 -82.41,-29.85 -33.27,-13 -37.99,-19.51 -67.68,-33.37l-149.32 26.27z"/>
  <path class="fil8" d="M34528.71 13119.32c76.32,176.91 -96.95,154.16 -209.12,207.73 -115.11,54.97 -148.05,182.58 -237.82,203.98 -74.74,-48.56 -30.26,-57.02 -75.04,-114.01 -43.45,75.63 1.61,159.41 30.14,208.78 23.07,39.96 88.47,56.73 162.72,96.61 78.06,41.92 137.41,21.4 236.17,5.35 176.81,-28.71 100.56,-28.65 201.29,36.36 119.86,68.03 104.82,-4.62 134.98,-89.48l-90.09 -14.39c17.96,-67.4 268.27,-130.99 218.84,-356.65 -27.59,-125.98 -273.33,-226.38 -372.07,-184.28z"/>
  <path class="fil11" d="M34480.09 12699.06c46.58,-33.64 104.32,51.9 177.08,-101.16 40.12,-84.37 101.95,-80.26 182.93,-145.32 80.85,-64.96 347.67,-210.15 370.1,-293.83 -2.15,-44.87 57.85,-181.2 58.81,-182.25 45.09,-43.48 115,-52.74 163.43,-84.9l78.12 61.78 26.98 -2.65c102.76,-10.08 234.2,14.65 331.06,31.44l44.15 -63.56c-3.29,-51.71 -398.16,-124.16 -495.43,-121.93 -97.49,2.24 -249.56,95.84 -320.32,146.67 -74.65,53.64 -50.13,16.91 -114.22,50.87 -16.82,8.9 -168.72,116.51 -181.84,133.32 -80.76,103.4 -537.45,399.83 -320.85,571.52z"/>
  <path class="fil1" d="M39679.52 20902.85l7.6 81.05 38.19 61.91c9.71,24.48 13.77,61.71 17.49,88.18l26.77 119.99c207.89,-38.96 720.25,18.51 803.03,-104.99l-115.74 -284.12 63.08 -11.84c-183.55,7.95 -3.08,-66.94 -198.26,-76.15 -261.47,-12.33 -338.58,225.14 -642.16,125.97z"/>
  <path class="fil1" d="M39214.29 19708.16c0,-59.31 0,59.3 0,0zm-15 -90.05c26.68,-26.69 -26.68,26.67 0,0zm-131.89 -120.07l-12.19 224.5 -82.42 0.63 378.63 27.37c4.37,-91.1 60.24,-99.36 103.11,-147.12 32.99,-36.74 8.74,-39.3 57.96,-63.81 101.58,-50.58 157.9,74.16 64.6,185.8l448.49 -77.63 7.45 19.53 -26.83 -79.22 3.32 -15c-57.11,-178.08 -486.92,-313.48 -744.89,-307.43l-197.23 232.38z"/>
  <path class="fil9" d="M33882.67 21764.37l-27.96 330.19c112.96,69.77 160.93,199.4 287.22,149.8 102.46,-40.24 211.96,86.56 345.04,46.64 93.27,15.01 256.12,-255.71 255.12,-256.56l-192.54 39.74c-7.71,-241.67 -255.49,-72.91 -362.72,-144.72l40.8 -115.75c-166.86,-108.84 -129.23,-49.34 -344.96,-49.34z"/>
  <path class="fil9" d="M33117.06 21539.23l6.33 255.15 220.99 94.67c-42.94,163.84 -17.07,69.4 51.8,230.77 33.86,79.34 67.78,172.99 130.32,214.87 210.43,-4.68 75.03,-199.07 75.03,-330.19l90.05 15.08 -9.77 -255.21 -264.41 -56.75 6.05 -13.96 177.01 -81.72 -9.63 -133.35 -7.91 -24.28 -465.86 84.92z"/>
  <path class="fil9" d="M39229.31 21832.84l29.61 366.78 165.48 195.1c13.8,-41.61 133.66,-26.42 145.85,-123.44 14.54,-115.74 -93.16,-101.23 -70.81,-206.75l315.15 51.36 123.89 -61.52 -6.35 -116.47 -102.52 -48.24 -15.02 9.78 -60.02 0 47.48 -15.01 -78.3 -195.11 -14.2 0.8 -90.05 -10.71 -390.19 153.43z"/>
  <path class="fil12" d="M33071.61 18897.69c79.26,32.27 124.13,-1.43 148.9,-80.84 45.08,-144.62 -19.66,-96.93 95.89,-174.32l170.6 231.77c-47.17,77.98 -43.09,156.29 -47.62,280.26 -7.08,193.45 47.56,183.76 57.1,298.45 164.46,-76.06 120.06,152.09 120.06,-435.26l102.03 105.07 5.36 -225.13 -346.73 -375.91 14.24 -74.28 -183.65 -88.45 -139.74 126.99 3.56 411.65z"/>
  <path class="fil12" d="M35606.22 19873.25l6.3 278.92c134.37,104.31 266.87,-62.27 383.94,-90.45 65.43,-15.74 366.33,56 456.48,74.7l192.41 -233.14c-177.83,-134.74 -225.53,-179.6 -466.61,-94.18 -50.63,17.93 -221.44,93.85 -248.71,92.68 -76.5,-3.3 -181.57,-28.53 -323.81,-28.53z"/>
  <path class="fil8" d="M36395.74 12944.2l-8.7 2.83c-370.86,-11.64 -387.91,466.72 69.18,515.62 186.96,20 328.01,-75.93 286.68,-274.46 -43.87,-210.73 -217.81,-191.96 -347.16,-243.99z"/>
  <path class="fil12" d="M37053.85 19963.31l14.32 180.1c6.23,42.32 228.55,226.91 330.24,75.05 82.69,55.38 109.53,97.76 195.09,-30.02l-59.2 -189.98 9.85 -16.5 203.97 -78.68 -1.18 -109.46 -288.51 -59c-17.88,179.21 -273.06,163.84 -404.58,228.49z"/>
  <path class="fil1" d="M40074.49 21476.27c55.27,59.06 75.06,72.44 44.19,172.07 -159.51,50.55 -103.47,-47.82 -229.11,-45.95l-36.95 101.94c404.89,193.08 384.98,75.85 787.38,48.88l-30.01 -377.5 -535.5 100.56z"/>
  <path class="fil12" d="M34967.67 19558.07c-47.22,74.25 -59.82,269.55 12.54,330.19 120.63,70.55 67.89,-6.92 176,126.17 24.23,29.83 119.87,150.47 126.16,174.01l173.19 -105.07 -45.2 -255.14c-192.59,-190.25 -224.33,-42.9 -263.06,-60.04 -41,-88.64 124.66,-17.04 210.1,-195.1 -48.2,-55.47 -58,-89.32 -177.39,-74.88 -43.33,5.24 -187.59,37.84 -212.34,59.86z"/>
  <path class="fil13" d="M35596.26 17126.65l6.62 300.18 -6.42 30.01 3.74 86.76c98.9,1.58 414.77,-70.01 468.89,-140.83 73.02,-95.55 242.56,-222.37 291.01,-321.15 -251.48,0 -634.24,110.37 -763.84,45.03z"/>
  <path class="fil14" d="M39814.59 22115.89l-30.01 132.27c49.63,57.61 21.91,73.68 54.15,138.02 14.13,28.21 20.78,29.83 36.64,51.68 25.8,35.52 19.85,28.83 34.41,61.92l69.9 154.14 223.16 206.08 437.16 0 0 -84.08c-278.89,-64.96 -341.45,-47.8 -495.83,-260.01 -51.59,-70.92 -111.14,-132.01 -142.88,-232.99 -32.75,-104.18 85.34,-206.13 -62.81,-228.55l-123.89 61.52z"/>
  <path class="fil10" d="M39679.52 20902.85c303.58,99.17 380.69,-138.3 642.16,-125.97 195.18,9.21 14.71,84.1 198.26,76.15 25.07,-23.09 56.83,-100.84 60.04,-139.29 -45.64,-68.14 -79.37,-64.65 -165.09,-93.18 -157.39,-15.8 -273.11,18.4 -414.89,83.63 -156.44,71.98 -218.62,106.53 -377.89,23.75 -21.96,-106 77.78,-212.86 -77.65,-225.85 -51.21,16.25 -59.36,57.55 -78.47,104.39 -20.65,50.64 -30.45,88.08 -1.05,140.55 28.57,51 154.5,153.34 214.58,155.82z"/>
  <path class="fil7" d="M38058.73 18377.02l-91.1 40.38c-83.7,69.1 -117.9,60.18 -209.05,98.68l-744.49 351.59 -133.22 77.94 217.38 39.94c34.77,-42.8 246.72,-128.49 323.05,-155.01 72.9,-25.33 96.89,-51.6 153.92,-86.22 44.92,-27.27 104.29,-46.07 153.42,-71.76 39.12,-29.51 206.44,-99.34 260.1,-114.95 76.4,-22.21 170.1,-82.48 250.08,-122.86 2.96,-0.37 7.41,-5.43 8.46,-2.91 0.26,0.62 149.18,-56.92 156.62,-151.67 -72.11,-63.17 -91.27,-28.97 -167.22,14.71 -45.76,26.32 -119.9,63.11 -177.95,82.14z"/>
  <path class="fil9" d="M31530.44 20773.78c19.84,62.04 634.27,531.98 765.46,562.92l141.42 -127.67c-133.98,-56.65 -294.75,-194.05 -428.34,-283.38 -73.86,-49.38 -140.86,-95.19 -210.3,-149.89 -61.2,-48.2 -124.65,-155.21 -178.12,-175.26l-56.53 -52.21c-58.12,66.2 -72.18,158.23 -33.59,225.49z"/>
  <path class="fil13" d="M38653.96 19214.5l-18.76 46.09 18.76 -46.09zm-180.53 -196.75c16.33,57.35 9.99,105.17 -39.52,120.16 -13.19,82.03 0.29,79.9 -59.95,104.97 137.48,97.27 117.61,178.97 158.15,275.65 30.35,72.35 1.59,19.65 35.64,47.06 84.65,-22.31 86.36,-63.04 186.88,-79.8 144.6,-24.12 102.24,59.05 121.7,132.32 43.54,12.82 104.3,-36.59 106.81,-108.95 2.47,-71.37 -65.29,-85.19 -99,-131.19 76.87,-17.92 77.95,-49.24 135.06,-30.1l27.79 -50.08c1.94,-4.53 8.36,-30.44 12.25,-39.9 -27.05,-17.04 -106.67,-15.51 -174.3,-69.93 -65.19,48.37 -178.1,111.24 -230.98,26.54 -66.05,-57.17 -46.82,-127.28 -2.1,-181.74 -53.99,-5.61 -45.22,-21 -85.16,-22.97 -65.28,-3.22 -29.36,29.3 -93.27,7.96z"/>
  <path class="fil0" d="M37728.64 18672.56c23.5,9.84 69,-16.42 -40.77,94.05l-259.45 288.8 255.12 25.24 56.35 -66.46c9.71,76 20.99,29.96 3.69,86.95l210.09 18.63c0,-188.71 -61.98,-299.12 52.24,-409.99 66.8,-64.86 197.9,-194.15 232.91,-275.03 -79.98,40.38 -173.68,100.65 -250.08,122.86 -53.66,15.61 -220.98,85.44 -260.1,114.95z"/>
  <path class="fil12" d="M34441.95 19603.1l17.26 29.27 -17.26 -29.27zm0 0l0 0zm-221.99 15.01c59.25,117.93 39.36,180.11 221.99,180.11l33.36 134.23c53.05,20.79 -54.47,-5.31 12.72,-2.2 6.62,0.31 -1.74,-7.15 19.55,2.95 48.13,22.83 68.48,112.85 170.45,30.11l28.56 -30.02 -10.25 -45.03 0 -15.01c-13.2,-63.06 -27.51,-40.64 -29.28,-120.07 61.32,44.93 -3.67,23.27 70.86,60.04 -21.52,-98.12 -39,-187.18 -55.78,-285.17l-3 13.99c-69.24,-47.31 -48.81,-21.75 -122.91,-53.22 -46.55,-19.76 -61.04,-46.07 -129.29,-69.11 -83.23,14.26 -165.75,138.45 -206.98,198.4z"/>
  <path class="fil9" d="M32464.21 21479.2c-11.15,133.2 3.37,53.64 69.98,256.99l106.87 193.27 135.06 -45.03c0,-136.16 -59.52,-231.69 -45.01,-300.17 90.11,47.69 82,79.31 150.07,75.12 47.31,7.91 21.66,-74.67 25.31,-139.79 4.65,-83.02 30.73,-155.22 -40.32,-166.78 -112.21,-25.26 -70.37,10.98 -121.88,12.05 -29.93,0.61 -16.2,-2.15 -45.96,-16.92 -43.55,-21.62 -8.61,-21.9 -57.27,-18.91l-48.54 -21.52c-19.69,69.53 -100.65,84.14 -128.31,171.69z"/>
  <path class="fil10" d="M38689.04 15667.07c113.74,-142.48 -158.84,-285.06 -233.8,-332.79 -153.36,-97.62 -48.6,-183.26 -365.34,-279.99 -76.12,-23.25 -44.81,-46.42 -134.16,-75.95 -92.34,-30.52 -76.85,-23.29 -152.14,-72.66 -83.08,2.68 -124.06,38.58 -80,122.18 48.9,92.8 66.88,-18.74 290.01,162.81 48.59,39.53 65.55,35.45 120.35,44.19 4.69,0.76 8.66,1.19 13.18,1.95 4.5,0.75 9,1.63 13.04,2.35l25.84 5.52c68.64,117.24 117.4,113.63 219.81,198.66 35.58,29.53 93.17,62.16 119.62,91.62 24.11,26.83 69.48,103.04 91.02,132.84l72.57 -0.73z"/>
  <path class="fil11" d="M36107.78 12834.22l21.2 39.46c9.29,22.56 1.65,11.73 9.77,31.9 55.46,-0.32 61.24,-16.57 223.71,-8.76l24.58 50.21 8.7 -2.83 62.89 0.2 0.58 -47.58c71.43,17.04 146.32,15.65 206.98,53.44 63.4,39.5 82.64,95.4 183.08,40.1l-6.06 -96.18c-1.43,-57.57 -28.37,-42.06 -68.87,-111.26 -40.5,-69.22 -20.31,-71.04 -81.28,-128.88 -111.93,0 -53.34,26.36 -123.97,17.64 -46.88,-5.8 -78.32,-28.85 -144.95,-17.64 -121.62,20.47 -8.52,38 -96.74,71.36 -52.77,19.96 -102.69,-12.1 -129.59,-26.34 -34.78,51.94 -79.91,64.35 -90.03,135.16z"/>
  <path class="fil9" d="M34985.37 22739.93l41.87 30.02c60.96,-42.37 90.8,-38.96 135.07,-105.07 -4.31,-193.25 -169.72,-145.43 -180.1,-270.16 87.72,1.96 247.98,30.03 435.22,30.03l15.01 52.91c24.08,-50.3 52.49,-215.42 0,-248.1 -111.71,-79.23 -105.56,-25.97 -205.04,-39.89 -47.42,-6.64 -29.48,-18.04 -109.92,-20.83 -37.92,-1.32 -81.63,0.75 -120.33,0.75l-49.49 45.03c8.88,105.8 7.41,182.07 3.03,285.49 -2.83,67.1 -0.04,197.03 34.68,239.82z"/>
  <path class="fil15" d="M34336.82 20398.56c-32.63,111.33 5.16,78.42 -67.33,128.66 -54.9,38.04 -49.3,41.16 -37.72,111.49 -34.24,88.63 0.07,87.43 0.07,180.09 72.7,40.07 -30.92,-67.99 105.06,135.09 76.29,0 122.91,5.41 135.55,-61.73l-22.1 -110.86c-16.26,-26.42 -14.22,-20.23 -23.41,-27.81 -2.11,-4.06 -3.1,-15.25 -3.58,-13.26l-15.01 -131.55c110.98,-117.76 20,-67.11 63.61,-125.85l225.49 -18.21c-0.38,-123.13 -32.91,-103.28 -149.23,-112.3 -98.15,-7.64 -103.07,-43.82 -211.32,-43.82 -14.89,63.92 -25.1,22.89 -0.08,90.06z"/>
  <path class="fil16" d="M34922.19 17426.9c75.39,29.12 312.56,-15.08 436.09,-15.08l52.74 -24.35c25.88,-11.51 10.74,-0.18 28.76,-12.31l6.58 -211.13 -43.93 0.61c-52.84,-10.9 -189.41,5.35 -253.93,23.24 -56.91,15.8 -22.79,14.55 -76.24,28.83 -7.25,-87.1 -71.59,-82.75 -165.08,-69.63 -27.56,38.8 -13.58,119.63 -10.17,173.6 3.96,62.8 -11.83,94.72 25.18,106.22z"/>
  <path class="fil11" d="M34006.73 13417.02c44.78,56.99 0.3,65.45 75.04,114.01 89.77,-21.4 122.71,-149.01 237.82,-203.98 112.17,-53.57 285.44,-30.82 209.12,-207.73 -53.32,-60.63 -39.52,-63.81 -145.8,-45.65 -47.77,8.16 -135.19,37.45 -185.82,55.91 -91.73,33.43 -69.79,54.94 -112.48,127.65 -25.6,43.62 -72.73,102.17 -77.88,159.79z"/>
  <path class="fil9" d="M37068.24 22282.25c77.27,76.49 323.75,376.34 390.19,127.49 -24.66,-105.86 -65.61,-68.78 -120.06,-150.09l197.67 -30.02c-2.45,-71.63 -92.02,-27.34 -191.41,-65.51 -99.53,-38.22 -36.52,3.88 -201.35,-69.03 -171.65,138.07 -152.76,107.83 -152.04,200.01l77 -12.85z"/>
  <path class="fil12" d="M34303.57 16151.09l10.26 107.97c76.16,14.8 79.94,-38.19 126.6,13.55 42.85,47.51 -30.92,69.28 -59.09,88.6 40.7,29.06 79.57,159.52 105.63,211.53 28.52,-27.43 70.18,-77.46 92.36,-104.9 9.28,-11.5 25.74,-35.95 37.51,-53.37 34.57,-51.13 32.61,-5.64 14.47,-53.26 -35.38,-34.9 -22.7,-4.4 -24.28,-75.05l-120.01 -15.35c45.94,-39.64 100.98,-34.32 135,-90.11 33.93,-55.67 41.83,-124.86 -18.11,-147.48 -75.51,-28.51 -96.49,4.14 -153.32,36.16 -69.17,38.96 -80.32,31.73 -147.02,81.71z"/>
  <path class="fil15" d="M39259.32 21282.41c44.88,45.72 88.67,93.77 176.95,44.05 23.48,-13.21 48.74,-44.13 71.15,-64.25 27.95,-25.08 54.25,-36.62 82.07,-55.15l153.31 -73.07c-3.72,-26.47 -7.78,-63.7 -17.49,-88.18l-38.19 -61.91c-86.52,-57.97 -202.72,44.18 -254.44,83.33 -67.68,51.2 -171.06,116.66 -173.36,215.18z"/>
  <path class="fil6" d="M35042.25 16436.33c3.09,4.34 4.99,10.14 6.39,14.66 27.94,89.46 -0.73,92.12 19.55,168.25 14.58,54.71 -12.77,-36.74 8.35,23.95l10.73 23.5 46.92 -7.61c15.27,-0.27 40.43,2.29 58.2,2.29l104.98 -150.01c32.81,-29.28 1.43,-21.57 11.36,-80.09 10.05,-59.07 18.78,-36.14 18.53,-115.09l-29.1 -91.92 -75.83 -9.65c-59.25,20.51 -93.3,13.23 -131.45,75.18 -20.9,33.96 -26.52,96.81 -48.63,146.54z"/>
  <path class="fil17" d="M33616.54 14244.89c-65.16,34.56 -52.63,21.19 -122.26,42.78 -76.29,23.65 -55.23,35.93 -109.7,70.51 -58.52,37.17 -63.74,9.49 -107.68,72.4 -26.69,38.21 -46.54,87.69 -55.98,144.58l21.79 86.21c63.57,-2.7 81.38,-22.79 110.42,-64.39 66.41,-95.12 9.49,-27.67 113.22,-86.09l9.69 -8.65c19.05,-67.09 23.53,-49.79 80.23,-76.77 53.04,-25.24 43.59,-36.46 78.96,-55.59 86.18,-46.62 152.23,21.63 143.14,-122.88 -63.39,-34.67 -81.62,-46.65 -161.83,-2.11z"/>
  <path class="fil12" d="M33901.61 19257.89c32.56,61.42 145.8,134.25 225.18,148.36 47.62,13.64 103.53,-55.32 124.3,-103.33 -100.07,-7.44 -88.78,-53.53 -169.32,-75.04 109.51,-163.56 68.53,-121.09 -100.99,-199.59 -71.87,-33.29 -30.1,-54.86 -94.11,-40.62 -30.6,14.11 -20.79,176.85 -24.02,225.2 53.5,36.08 14.52,16.88 38.96,45.02z"/>
  <path class="fil14" d="M38093.27 19122.82c42.97,188.28 136.79,98.37 220.58,66.82l120.06 -51.73c49.51,-14.99 55.85,-62.81 39.52,-120.16 -34.86,-80.76 -132.22,-77.21 -224.39,-65.7 -125.65,15.68 -172.99,23.54 -155.77,170.77z"/>
  <path class="fil16" d="M33101.48 16946.54c123.17,49.91 215.23,10.69 334.15,45.85 60.64,17.93 234.59,82.38 285.96,81.22l17.52 -97.04 -38.7 -30.03c-59.46,-17.24 -49.44,-32.7 -94.42,-49.31 -76.05,-28.08 -96.93,14.57 -258.53,-72.02 -44.66,-23.93 -78.39,-36.12 -136.12,-13.81 -50.33,-6.81 -92.48,100.16 -109.86,135.14z"/>
  <path class="fil14" d="M40036.93 19881.94c-37.29,69.53 -36.27,200.54 17.78,248.75 129.7,-0.18 52.55,-84.21 105.05,-155.75l30.01 -11.56c110.92,33.71 38.14,-20.97 135.07,-24.57l59.96 -6.63c19.11,-70.2 24.67,-11.41 29.2,-88.94 -18.45,-67.81 -128.9,-148.14 -226.14,-128.6 -23.68,56.2 26.08,40.28 -42.18,99.54 -34.46,29.91 -72.08,48.2 -108.75,67.76z"/>
  <path class="fil15" d="M37071.69 21374.13c-21.46,49.78 -34.84,94.32 -14.45,147.28 162.09,63.1 148.61,-108.02 236.11,-172.38 47.18,-39.75 89.88,-97.95 120.06,-155 -45.26,-71.35 -3.56,-59.3 -90.04,-105.06 -102.99,23.99 -217.12,197.21 -251.68,285.16z"/>
  <path class="fil15" d="M39314.96 21479.2c7.59,35.97 8.28,31.73 48.21,60.51 23.11,16.67 53.25,35.84 82.47,53.32 62.03,37.08 107.69,60.55 173.86,86.38l90.05 10.71 8.18 -15.81 30.14 -75.05c-31.81,-63.85 -70.08,-93.82 -128.37,-120.15 -77.69,-72.78 -320.33,-192.03 -304.54,0.09z"/>
  <path class="fil15" d="M33316.4 20173.36c-1.45,0.47 -18.7,-36.01 -29.95,45.25 -5.97,43.03 4.91,70.36 14.94,96.71l43.7 5.45 25.39 182.85 80.98 45.03c78.11,-52.31 92.57,-125.34 67.43,-210.12l3.75 -78.95c19.11,-196.48 -133.72,-135.43 -172.84,-112.3l-33.4 26.08z"/>
  <path class="fil0" d="M38334.23 17787.03c30.25,29.19 87.41,119.11 99.68,165.1 -65.61,43.94 -58.2,43.04 -97.02,98.09 -50.05,70.99 -264.27,266.9 -278.16,326.8 58.05,-19.03 132.19,-55.82 177.95,-82.14 75.95,-43.68 95.11,-77.88 167.22,-14.71 13.79,-48.01 8.72,-30 45.02,-64.16 43.08,-91.81 19.94,-105.59 2.62,-207.63 -15.34,-90.37 -0.95,-177.18 0.25,-272.38l-117.56 51.03z"/>
  <path class="fil15" d="M38064.44 21584.26c3.57,44.71 -3.33,30.83 35.52,63.39 12.44,10.41 50.64,33.06 63.94,41.55 76.12,48.54 51.85,41.87 104.93,98.59 84.01,35.36 133.51,123.56 216.9,45.5 7.13,-70.95 -23.17,-76.88 -51.07,-113.96l-120.81 -140.48c-48.97,-25.88 -236.21,-139.52 -249.41,5.41z"/>
  <path class="fil13" d="M35342.39 17730.16c-13.13,24.06 -13.38,34.46 -28.15,58.5 -8.36,13.62 -33.19,45.64 -44.65,60.64 -26.73,34.94 -65.73,74.6 -77.27,117.84 62.24,44.95 -5.56,3.35 34.78,84.08 1.38,2.75 3.66,6.71 5.31,9.32 1.65,2.6 4.55,6.03 6.45,8.5 26.43,34.54 30.81,13.43 58.51,73.88l45.02 -42.4c36.61,4.38 37.89,6.06 65.16,19.06 3.82,-68.54 17.7,-6.72 36.28,-94.86 14.43,-68.51 0.3,-263.72 -9.16,-324.71l-92.28 30.15z"/>
  <path class="fil7" d="M34939.64 15505.7c2.96,60.77 5.64,75.62 24.6,124.86 31.2,81.1 15.27,34.2 78.01,85.97l195.09 -29.71c113.75,20.84 165.33,-10.45 114.27,-121.08l-84.81 -45.3c-52.95,-30.14 -44.42,-27.46 -105.73,-16.51 -113.96,20.33 -88.73,1.77 -221.43,1.77z"/>
  <path class="fil15" d="M38538.83 21329.1c-19.57,44.61 -63.58,62.83 -27.61,117.03 85.51,128.88 189.18,-54.29 250.6,-102.42l62.28 -59.56c18.21,-0.44 23.01,40.8 42.67,-33.35 16.4,-61.76 -57.54,-208.51 -241.87,-30.86 -36.57,35.24 -71.85,56.78 -86.07,109.16z"/>
  <path class="fil15" d="M38568.98 21566.17c-61.56,43.07 -12.64,78.93 15,126.89 29.69,13.86 34.41,20.37 67.68,33.37 37.94,14.82 52.24,14.09 82.41,29.85 50.19,-7.17 69.63,19.99 135.06,20.28l75.03 10.02c120.42,-157.96 -31.09,-167.44 -158.83,-208.87 -48.9,-15.86 -87.15,-21.66 -126.31,-8.54l-49.22 -31.75 -40.82 28.75z"/>
  <path class="fil15" d="M34667.06 20998.84c3.14,85.29 -3.85,15.3 23.12,51.23 14.73,19.59 2.09,-0.27 20.31,24.08 0.01,0.01 16.11,24.72 16.6,25.5 132.36,79.68 208.77,1.27 143.27,-136.7 10.57,-115.68 44.09,-183.7 -83.24,-235.8 -51.3,10.32 -90.73,37.73 -100,81.37 -15.38,72.44 19.78,71.12 8.38,131.17 -9.48,49.93 -1.65,30.23 -28.44,59.15z"/>
  <path class="fil6" d="M34786.45 15650.05c-83.99,48.21 -93.12,108.59 -78.46,230.65 17.28,143.81 63.82,124.11 184.19,100.89l54.5 -31.18c2.26,-2.04 5.66,-5.83 7.63,-7.76l14.59 -16.7c-22.41,-50.37 -23.78,-81.04 -21.2,-150.09 -66.79,-46.21 -94.92,-43.44 -113.54,-147.3l-47.71 21.49z"/>
  <path class="fil15" d="M37398.33 21599.26c-2.39,22.33 -9.21,10.01 0.08,45.03 10.87,0.24 49.75,4.54 51.89,4.52 77.67,-0.71 20.73,-26 124.4,-2.31 130.33,29.8 136.82,40.11 198.24,-2.21l0.6 -57.61c-29.09,-96.33 -66.72,-82.33 -176.08,-99.53 -96.94,-15.24 -109.66,-56.88 -195.34,-48.7 -39.84,55.05 -63.24,90.67 -3.79,160.81z"/>
  <path class="fil18" d="M34426.94 16910.19c23.9,-70.92 181.43,-86.49 120.06,-171.82 -21.53,-18.44 -45.52,-31.71 -79.38,-43.71 -16.12,-5.7 -30.11,-9.27 -45.87,-14.11l-57.85 -19.18 -151.08 0c-27.53,66.48 -27.23,10.88 -14.28,88.56 4.73,28.36 3.11,28.02 6.71,48.3 24.77,139.6 137.96,50.13 221.69,111.96z"/>
  <path class="fil15" d="M33878.29 20083.37c-15.84,19.09 1.64,12.76 -33.75,32.23 -20.78,11.44 -22.8,8.34 -55.2,13.16l-17.66 18.08c-1.62,1.96 -5.35,7.15 -6.73,8.93l-9.18 17.66c42.57,99 182.58,67.67 265.98,39.52 73.95,10.53 145.26,-28.15 195.09,-54.53l0 -75.05c-51.55,-24.73 -98.55,-40.58 -167.15,-41.66l-44.42 -0.82c-121.25,3.22 -109.02,13.27 -126.98,42.48z"/>
  <path class="fil12" d="M34922.12 16796.46c23.97,31.01 85.66,40.91 135.13,45.02 67.07,-100.15 30.02,-41.4 30.02,-174.79l-10.73 -23.5c-21.12,-60.69 6.23,30.76 -8.35,-23.95 -20.28,-76.13 8.39,-78.79 -19.55,-168.25 -1.4,-4.52 -3.3,-10.32 -6.39,-14.66 0,75.44 4.02,29.05 -15.01,44.95 -67.22,-15.66 -41.38,-30.03 -131.13,-30.03 -0.63,102.56 -23.12,263.52 26.01,345.21z"/>
  <path class="fil14" d="M39535.47 19934.63c9.32,16.91 84.87,126.72 107.97,155.15 59.6,73.34 115.47,69.48 182.19,8.06 10.58,-103.33 -22.7,-144.33 -86.71,-191.34 -38.25,-43.89 -36.95,-74.82 -95.58,-87.21 -56.07,-11.86 -84.71,17.09 -117.01,37.45l9.14 77.89z"/>
  <path class="fil13" d="M37942.08 19603.1l18.24 114.3c89.77,38.98 53.88,20.94 143.44,30.34 30.73,-12.43 90.86,-27.12 121.96,-37.56 53.38,-17.9 94.74,-30.76 148.1,-47.05 -20.13,-35.88 -13.16,-31.36 -21.04,-50.01 -3.12,-7.38 -6.16,-16.07 -9.38,-22.91 -16.48,-34.94 6.55,-4.9 -17.33,-30.65 -42.53,103.64 -161.61,55.65 -118.72,-61.52 -97.8,41.31 -99.47,27.84 -146.34,47.37 -41.78,17.43 -61.69,42.72 -118.93,57.69z"/>
  <path class="fil12" d="M35612.52 16615.77c-36.39,65.75 -22.9,276.1 6.95,330.77 58.37,-55.83 123.27,-81.37 83.1,-165.09 38.93,14.1 32.88,31.8 75.04,60.03 77.4,-18.03 139.97,-36.72 210.02,-60.03 -20.94,-111.51 -71.39,-108.2 -122,-162.88 -1.51,-1.62 -5.56,-3.74 -6.6,-8.54 -1.06,-4.78 -4.38,-5.69 -6.46,-8.61l-25.34 25.8c-3.73,4.57 -6.63,7.32 -10.26,12.25 -3.22,4.37 -5.09,7.36 -7.91,11.75 -2,3.1 -12.31,27.83 -14.18,31.91 -29.81,65.09 -69.34,100.13 -149.15,50.84 -12.63,-69.4 0.92,-82.87 26.75,-132.62 -24.75,8.05 -35.36,10.42 -59.96,14.42z"/>
  <path class="fil17" d="M32806.15 15025.5c22.03,47.28 8.21,57.35 4.47,111.66 -3.93,57.32 -7.83,43.57 25.54,84.49 111.86,4.12 97.06,-105.44 157.54,-188.76 21.84,-30.11 166.63,-208.46 7.54,-172.64 -22.48,1.43 -27.03,34.49 -75.88,42.14 -63.78,9.97 -17.69,-17.19 -104.21,2.97 -9.05,38.85 -10.99,29.1 -19.17,73.14 -6.91,37.26 -29.6,17.11 4.17,47z"/>
  <path class="fil19" d="M39906.87 17708.23c-96.09,51.31 -19.34,122.46 -3.15,200.35 14.82,71.27 36.14,194.02 143.12,128.39 30.5,-18.71 34.14,-53.11 31.82,-94.89 -1.52,-27.58 0.02,-110.73 -4.75,-139.42 -10.89,-65.58 -86.29,-137.56 -167.04,-94.43z"/>
  <path class="fil14" d="M39351.42 19750.54c12,98.1 93.57,201.06 188.9,29.83l28.03 -43.7c2.13,-3 5.56,-7.73 8.74,-11.26 93.3,-111.64 36.98,-236.38 -64.6,-185.8 -49.22,24.51 -24.97,27.07 -57.96,63.81 -42.87,47.76 -98.74,56.02 -103.11,147.12z"/>
  <path class="fil0" d="M31380.44 22589.92c-81.73,-9.48 -157.46,-2.36 -210.11,-32.88 -17.9,73.23 -187.81,224.85 -240.1,302.96l142.71 0c75.22,-5.33 96.58,-34.92 210.72,-171.77 54.06,-64.8 57.66,-36.06 96.78,-98.31z"/>
  <path class="fil20" d="M34171.82 17228.16c48.83,115.62 -9.03,110.55 60.02,213.68 108.58,0 132.83,-39.52 90.12,-150.1 1.63,-4.76 4.42,-10.08 6.09,-13.83 1.62,-3.64 3.94,-9.04 5.9,-13.42 36.9,-82.46 88.02,-188.87 -56.46,-201.9 -160.48,4.53 -70.13,110.11 -105.67,165.57z"/>
  <path class="fil16" d="M36903.16 16991.65c-61.92,45.64 -66.49,41.15 -145.69,30.77 67.83,61.24 98.04,-3.18 128.72,32.55 37.54,43.74 -19.99,124.23 46.98,120.99 34.92,9.68 174.02,1.44 217.15,-12.65 75.47,-24.65 70.08,-89.83 37.98,-156.73 -126.42,-60.66 -148.07,38.01 -285.14,-14.93z"/>
  <path class="fil10" d="M40189.77 19963.38c20.26,60.87 14.01,43.65 45.03,89.98 -13.04,18.76 -17.7,27.76 -27.08,45.02 -29.47,41.84 -44.23,108.47 -31.6,181.37l88.7 28.6c55.19,-36.58 95.96,-74.87 112.92,-158.46 9.79,-48.33 2.69,-72.48 -8.42,-110.38 -15.48,-52.82 -10.47,-62 -44.48,-100.7 -96.93,3.6 -24.15,58.28 -135.07,24.57z"/>
  <path class="fil12" d="M33057.5 17742.01c-15.88,62.73 0.4,153.83 20.23,223.5l82.72 54.31c47.12,-46.55 154.79,-140.57 145.61,-202.76 4.27,-42.93 7.84,-7.78 -4.67,-60.04 -68.8,-36.41 -41.19,-21.64 -106.25,-22.4 -41.45,-0.5 -93.92,-10.94 -137.64,7.39z"/>
  <path class="fil21" d="M33314.54 15368.45l32.6 12.48 8.42 -22.38c-2.02,-98.52 -36.82,-191.04 -16.14,-298.49 21.43,-111.35 65.54,-146.33 11.48,-271.21 -158.4,58.86 -130.36,329.57 -90.98,428.71 23.84,60.05 38.07,93.83 54.62,150.89z"/>
  <path class="fil20" d="M33703.59 15641.65c27.2,7.5 100.4,14.28 138.24,13.42 82.24,-1.89 83.53,-17.83 119.88,-71.1 -25.52,-54.39 -70.06,-112.63 -150.07,-78.34l-93.12 -33.9c-69.82,-7.37 -106.96,6.58 -142.72,36.72 -10.8,105.61 60.13,89.02 127.79,133.2z"/>
  <path class="fil14" d="M38567.75 19565.59c-69.15,165.79 54.47,178.65 166.32,109.49 41.65,-6.94 95.29,-42.4 142.26,-56.97 -19.46,-73.27 22.9,-156.44 -121.7,-132.32 -100.52,16.76 -102.23,57.49 -186.88,79.8z"/>
  <path class="fil14" d="M37653.53 19264.19c0,75.78 -6.49,66.89 27.17,116.88 18.18,26.99 3.64,-2.66 24.99,34.74 8.62,15.1 16.43,39.48 22.87,53.69 52.11,65.71 51.51,47.59 99.81,95.05l66.54 -33.15c25.46,-101.67 -8.22,-100.48 -26.73,-185.28 -46.48,-49.18 -14.01,-72.3 -71.14,-98.39 -62.85,-28.7 -98.64,8.81 -143.51,16.46z"/>
  <path class="fil15" d="M39889.57 21602.39c125.64,-1.87 69.6,96.5 229.11,45.95 30.87,-99.63 11.08,-113.01 -44.19,-172.07 -88.37,-60.13 -123.44,-32.05 -246.96,-31.27 -11.06,171.31 5.28,66.63 62.04,157.39z"/>
  <path class="fil20" d="M33886.67 16867.34c42.12,-46.77 43.05,-5.95 65.52,-72.06 5.14,-15.11 1.38,-15.67 8.74,-45.75 8.34,-34.11 11.36,-31.79 22,-73.14 -7.17,-25.65 -2.63,-12.65 -12.22,-35l-15.18 -30.16c-12.7,-19.37 -18.06,-19.98 -37.96,-39.9 -25.5,-14.61 -5.17,-8.86 -30.9,-1.78l-61.68 -2.45c-14.96,55.05 -33.44,115.67 -45.22,167.21 -18.98,82.97 -24.16,114.35 38.1,160.98l68.8 -27.95z"/>
  <path class="fil20" d="M34798.84 17230.51c62.41,-24.37 57.7,-100.83 -66.12,-139.31l-74.53 -24.59c-39.36,-42.73 -24.85,-30.01 -103.85,-30.01 -29.71,42.28 -90.95,144.6 2.75,184.21 8.71,3.69 208.81,16.89 241.75,9.7z"/>
  <path class="fil14" d="M38899.07 19948.3c-11.36,51.06 -26.26,-1.72 15.08,60.04l15.01 17.4c27.78,22.96 68.45,74.89 128.99,52.89 62.74,-22.77 46.93,-88.87 23.96,-141.43 -41.52,-60.23 -70.42,-102.72 -131.91,-157.64l-66.01 31.71c-24.34,98.4 7.75,124.96 7.89,124.61 1.02,-2.3 4.66,8.28 6.99,12.42z"/>
  <path class="fil20" d="M35210.2 12158.75c28.84,-8.59 73.97,-20.21 98.24,-33.35 3.66,-90.54 -71.9,-86.65 -10.38,-97.68 23.64,-4.23 28.96,-0.34 55.31,11.54 67.41,30.39 99.31,78.64 208.01,22.78 16.33,-97.78 -14.7,-60.96 -50.82,-108.66l-78.12 -61.78c-48.43,32.16 -118.34,41.42 -163.43,84.9 -0.96,1.05 -60.96,137.38 -58.81,182.25z"/>
  <path class="fil1" d="M33142.15 15597.76c-17.71,28.62 -13.08,8.14 -7.13,34.22l226.4 44.21c92.79,54.02 98.99,64.22 207.25,99.67 -27.17,-42.52 -44,-74.98 -66.58,-110.47 -27.18,-42.73 -46.32,-50.15 -62.58,-101.87 -82.51,23.17 -93.82,-38.38 -200.95,-42.9 -25.08,52.98 -43.98,36.1 -96.41,77.14z"/>
  <path class="fil10" d="M36915.49 15366.89c87.83,-140.4 -143.74,-252.75 -273.5,-197.86 -48.46,145.99 256.99,199.12 273.5,197.86z"/>
  <path class="fil12" d="M33846.85 15897l22.04 43.95c42.08,25.17 69.26,54.48 101.5,96.42 27.25,35.45 18.21,26.6 50.06,57.98 49.9,49.17 57.08,15.75 20.77,40.72 26.61,32.22 -44.21,24.98 55.49,26.27 12.17,-24.51 -25.57,-17.94 52.46,-33.75 65.5,-13.28 32.25,-10.24 82.67,7.41l-66.47 -69.39c-158.38,-116.01 -145.87,-130.65 -203.59,-245.73l8.01 5.62c-30.33,20.11 -66.39,56.29 -81.22,84.12l-41.72 -13.62z"/>
  <path class="fil12" d="M36637.53 20248.48c43.12,11.72 69.42,14 109.5,36.17 34.63,19.15 5.98,8.99 46.36,28.92 39.66,19.58 24.94,11.66 49.74,15.99 29.8,-55.11 4.31,-231.16 15.57,-311.37 -64.19,26.76 -66.37,62.73 -122.43,108.01 -52.09,42.08 -99.97,49.27 -98.74,122.28z"/>
  <path class="fil14" d="M38208.8 19346.49l-8.01 22.84c-15.42,63.57 -1.69,56.36 -22,98.68l28.56 30.03c-42.89,117.17 76.19,165.16 118.72,61.52 2.18,-26.23 1.64,-242.45 -0.84,-251.53 -69.65,-22.79 -83.28,3.76 -116.43,38.46z"/>
  <path class="fil9" d="M32761.12 16402.44c15.12,-41.27 26.12,-52.78 30.02,-106.29 -67.3,-23.29 -133.83,-75.04 -201.21,-100.71 -31.01,59.58 -56.24,97.53 -92.78,160.27l263.97 46.73z"/>
  <path class="fil10" d="M36527.97 14965.39l-30 -37.03c-60.26,-33.68 -149.73,-40.72 -214.02,-13.85 -21.48,92.64 11.76,115.31 94.38,140.58 100.39,30.72 140.74,8.93 149.64,-89.7z"/>
  <path class="fil12" d="M37478.82 19558.07l259.75 87.65c30.75,-26.01 8.25,0.28 25.67,-41.43 3.96,-9.48 1.02,-17.55 9.35,-36.6l54.78 -3.14c-48.3,-47.46 -47.7,-29.34 -99.81,-95.05 -60.25,-2.31 -101.04,-3.61 -144.63,18.97 -67.23,34.83 -14.69,44.18 -105.11,69.6z"/>
  <path class="fil16" d="M35612.01 17880.14c62.29,-57.5 192.95,-185.98 215.52,-247.34 -219.45,38.5 -262.85,-53.84 -233.95,263.98l18.43 -16.64z"/>
  <path class="fil12" d="M37274.13 16391.22c-84.95,48.08 -49.04,4.27 -105.52,85.38 -35.76,51.36 -60.14,56.65 -97.31,94.73 63.99,-1.55 44.5,-4.37 92.09,-24.74 49.21,-21.07 35.53,-13.23 92.9,-27.33 85.55,-21.03 126.15,-24.06 184.61,-68.01 -8.57,-58.71 -10.43,-33.04 -57.5,-77.98l-60.03 16.64 -45.02 -13.69 -4.22 15z"/>
  <path class="fil16" d="M36497.97 17233.92c42.43,-1.53 53.65,2.78 73.14,2.29 21.46,-0.54 56.56,-4.5 85.83,-4.5 16.6,-15.25 -9.12,-23.71 60.77,-30.01l-8.17 -165.1 -46.5 14.93c-96.46,-13.14 -96.54,121.1 -215.47,163.82 3.4,2.41 7.82,2.93 9.86,7.74 2.1,4.97 8.89,5.22 11.51,5.94 46.82,12.94 -16.57,-1.68 29.03,4.89z"/>
  <path class="fil22" d="M33718.52 15471.73l93.12 33.9 -16.97 -21.72c-2.45,-2.64 -14.05,-14.95 -17.3,-18.27 -28.32,-28.83 -84.83,-75.8 -37.8,-155.04 -37.71,-63.87 -93.64,-80.32 -119.36,-133.92l-19.8 291.46 118.11 3.59z"/>
  <path class="fil12" d="M35192.39 16661.37c60,0 139.78,-3.82 166.2,28.89 41.47,51.35 -24.63,42.2 58.84,110.79 41.19,-7.4 21.61,-104.48 21.48,-199.7 -27.22,-1.14 -38.91,-19.87 -51.42,-30.02 -31.54,-1.17 -25.53,5.88 -49.83,-8.63 -49.29,-29.45 -19.21,-0.69 -40.29,-51.34l-104.98 150.01z"/>
  <path class="fil11" d="M33886.6 14244.97c-30.77,128.85 99.87,107.34 192.45,81.76l-1.31 -96.77 -77.74 -39.08c-42.87,-19.98 -69.54,-34.42 -100.46,-8.95 -35.25,29.02 -18.64,39.6 -12.94,63.04z"/>
  <path class="fil23" d="M32644.63 16631.36c26.84,-43.7 16.46,-18.32 26.45,-60.03l-17.74 -15.02c-43.4,-31.05 -174.54,-75.16 -239.69,-75.7l-38.1 75.18c32.26,32.23 239.68,96.88 269.08,75.57z"/>
  <path class="fil16" d="M34096.78 15069.96c12.54,-20.02 2.73,-19.76 15,0.49 74.92,0 111.09,15.01 204.04,15.01l-179.7 -115.4c-86.71,-51.64 -127.63,-39.83 -213.37,10.33 24.88,22.26 145.58,84.21 174.03,89.57z"/>
  <path class="fil24" d="M33316.32 15730.84l45.1 -54.65 -226.4 -44.21c-5.95,-26.08 -10.58,-5.6 7.13,-34.22l-123.53 -29.79c7.43,48.91 -11.87,21.61 -16.63,88.59 60.75,24.84 184.2,70.44 263.97,72.45l50.36 1.83z"/>
  <path class="fil9" d="M32417.01 16856.49l88.98 53.64 15.01 -8.54 30.02 0c24.93,6.91 14.52,35.21 55.4,-18.89 14.77,-19.56 17.17,-40.98 19.63,-67.56 -99.51,-50.29 -88.26,-53.97 -225.11,-66.96 0,64.73 -7.57,62.87 16.07,108.31z"/>
  <path class="fil20" d="M35868.6 11982.17c-96.86,-16.79 -228.3,-41.52 -331.06,-31.44 34.17,66.13 13,17.75 53.24,50.95 37.85,31.25 16.04,26.67 51.76,64.01 82.76,4.15 186.26,-9.02 226.06,-83.52z"/>
  <path class="fil25" d="M33136.3 22760.98c-94.98,17.46 -194.11,-16.91 -285.13,-20.42 2.92,3.64 8.85,2.72 10.73,8.97 20.98,69.68 26.27,-52.79 64.31,110.47l210.09 0 0 -99.02z"/>
  <path class="fil10" d="M36042.09 14957.56c53.27,-141.77 -87.06,-177.09 -145.31,-128.51 -67.26,56.1 3.26,166.17 145.31,128.51z"/>
  <path class="fil16" d="M34036.75 15286.93c44.88,-4.02 -0.3,14.68 27,-10.16l18.3 -26.21c-58.44,-46.25 -123.72,-60.98 -185.79,-99.71 -36.37,-22.69 -148.52,-97.91 -167.16,-102.77 10.55,51.45 93.83,104.61 133.89,136 59.59,46.72 80.78,122.52 173.76,102.85z"/>
  <path class="fil13" d="M33314.54 15368.45c-9.7,130.31 -52.88,39.15 -75.98,152.17 107.13,4.52 118.44,66.07 200.95,42.9 -23.88,-64.15 -28.62,-15.32 -46.32,-89.05 -5.74,-23.93 -3.63,-44.29 -8.91,-63.88 -17.8,-65.95 0.95,-24.18 -28.72,-52.04l-8.42 22.38 -32.6 -12.48z"/>
  <path class="fil26" d="M37468.68 21929.46c101.58,119.09 119.05,43.13 216.6,85.54 29.8,-23.08 57.44,-40.92 94.36,-70.54 -4.1,-30.74 8.25,-4.76 -21.06,-15.08 -94.85,-36.64 -209.15,-5.86 -289.9,0.08z"/>
  <path class="fil12" d="M36347.97 16601.35l356.73 62.17 -30.03 -32.16c3.79,-77.27 37.57,-69.63 3.38,-126.29 -64.96,16.72 -74.9,42.15 -132.54,68.79 -63.97,29.57 -98.84,27.49 -197.54,27.49z"/>
  <path class="fil16" d="M34562.01 14968.88l14.71 11.51 -28.57 -96.06c2.58,60.55 5.47,20.25 -17.95,34.45 -54.73,-54.27 -133.31,-52.84 -224.1,-42.66 25.07,55.01 103.93,87.38 146.31,117.57l109.6 -24.81z"/>
  <path class="fil9" d="M32693.6 16069.23l158.12 71.66 8.85 -124.72c-42.46,-34.64 -45.28,-53.4 -99.45,-60.89 -39.57,34.23 -49.42,58.99 -67.52,113.95z"/>
  <path class="fil16" d="M33879.05 17006.58l-6.91 120.07c34.81,8.23 33.45,12.06 74.57,11.94 54.82,-17.41 35.68,-10.24 86.05,-75.1l15.69 -19.27c2.58,-3.32 6.16,-8.35 8.32,-11.15 2.24,-2.88 5.94,-7.54 8.69,-11.48 -75.61,-4.55 -133.04,-31.6 -186.41,-15.01z"/>
  <path class="fil23" d="M34644.88 22454.76c20.76,41.35 6.23,26.05 45.57,53.2 28.63,19.76 24.4,20.23 66.66,21.92 41.49,-17.57 5.58,-34.74 -1.48,-90.66 -6.86,-54.31 12.17,-79.3 2.5,-101.81 -35.26,-42.93 -104.48,94.48 -113.25,117.35z"/>
  <path class="fil4" d="M39909.78 22499.78c-14.56,-33.09 -8.61,-26.4 -34.41,-61.92 -15.86,-21.85 -22.51,-23.47 -36.64,-51.68 -32.24,-64.34 -4.52,-80.41 -54.15,-138.02l-9.77 18.43c-24.93,84.02 4.01,182.41 24.77,203.18 31.29,15.01 71.2,22.21 110.2,30.01z"/>
  <path class="fil17" d="M34167.25 14184.94c-9.33,58.79 -13.32,10.67 5.23,60.85 150.15,75.14 189.17,-87.78 14.35,-111.11 -48.37,44.93 -24.46,2.77 -19.58,50.26z"/>
  <path class="fil6" d="M36663.04 19211.41c47.16,-10.34 98.03,-49.88 138.15,-73.59l0 -17.24c-76.81,-7.27 -75.26,-31.23 -156.02,-29.2l17.87 120.03z"/>
  <path class="fil16" d="M31092.23 20548.65l3 45.02c14.65,18.16 75.67,28.08 105.13,34.9l0 -94.93 -90.05 -9.57 -18.08 24.58z"/>
  <path class="fil27" d="M33008.08 15230.68l107.25 -19.4 -34.68 -92.48c-54.53,26.94 -89.55,28.76 -72.57,111.88z"/>
  <path class="fil9" d="M33076.28 15911.01c22.64,-9.88 9.97,-3.26 18.71,-30.09 -11.17,-39.61 20.73,-31.05 -92.29,-57.35 1.02,55.08 -2.58,59.26 19.87,99.7 53.21,10.26 3.32,10.8 53.71,-12.26z"/>
  <path class="fil22" d="M36858.13 16474.21l-30.7 0.14c1.64,71.88 -12.68,43.3 30.7,82.9l47.34 -44.21c19.23,-23.83 22.13,-24.67 36.38,-46.77l-52.86 -17.39 -30.86 25.33z"/>
  <path class="fil28" d="M29578.43 22347.19c39.02,-17.96 102.42,-42.72 130.85,-66.73 -33.8,-35.78 -30.57,-32.12 -69.7,-45.95l-61.15 112.68z"/>
  <path class="fil0" d="M32656.08 15335.05l75.87 -27.11 6 -57.38c-28.41,14.69 -23.23,5.63 -49.31,32.38 -29.61,30.38 -16.77,18.9 -32.56,52.11z"/>
  <path class="fil29" d="M33518.89 20338.53c40.71,-20.52 7.17,-5.87 41.5,-26.46 22.23,-13.33 10.84,-10.48 41.37,-18.57l-79.12 -33.92 -3.75 78.95z"/>
  <polygon class="fil30" points="37413.41,21194.03 37428.42,21194.03 37415.92,21176.51 "/>
  <polygon class="fil31" points="32100.8,15985.98 32085.79,15985.98 32098.29,16003.5 "/>
  <polygon class="fil32" points="39424.4,22394.72 39424.4,22409.74 39441.91,22397.23 "/>
  <polygon class="fil9" points="36047.74,22619.86 36047.74,22634.87 36065.25,22622.36 "/>
  <polygon class="fil33" points="36723.07,22634.87 36723.07,22649.88 36740.58,22637.36 "/>
  <polygon class="fil34" points="35897.67,22694.9 35897.67,22709.92 35915.18,22697.4 "/>
  <polygon class="fil7" points="36002.72,13014.24 35987.72,13014.24 36000.22,13031.76 "/>
  <polygon class="fil35" points="30930.23,22604.86 30930.23,22619.86 30947.74,22607.35 "/>
  <polygon class="fil13" points="35177.31,17982.15 35162.31,17982.15 35174.81,17999.66 "/>
  <polygon class="fil36" points="35027.24,22769.95 35027.24,22784.95 35044.74,22772.45 "/>
  <path class="fil37" d="M36948.18 13344.45c1.49,1.48 4.47,-6.59 4.48,-4.49l0 0.01c-0.29,0.29 -5.97,2.98 -4.48,4.48z"/>
  <path class="fil12" d="M36633.03 20278.49c1.48,1.49 4.46,-6.59 4.47,-4.47l0 0c-0.29,0.28 -5.96,2.98 -4.47,4.47z"/>
  <path class="fil38" d="M38418.91 19798.22l4.48 -4.48c-0.3,0.29 -5.98,2.98 -4.48,4.48z"/>
  <path class="fil39" d="M40369.87 16721.41l4.47 -4.46c-0.3,0.28 -5.96,2.97 -4.47,4.46z"/>
  <polygon class="fil40" points="35867.66,21464.19 35852.64,21464.19 "/>
  <polygon class="fil38" points="35192.32,17967.14 35177.31,17982.15 "/>
 </g>
</svg>
