<?xml version="1.0" encoding="UTF-8"?>
<!DOCTYPE svg PUBLIC "-//W3C//DTD SVG 1.1//EN" "http://www.w3.org/Graphics/SVG/1.1/DTD/svg11.dtd">
<!-- Creator: CorelDRAW 2018 (64-Bit Evaluation Version) -->
<svg xmlns="http://www.w3.org/2000/svg" xml:space="preserve" width="100%" height="100%" version="1.1" style="shape-rendering:geometricPrecision; text-rendering:geometricPrecision; image-rendering:optimizeQuality; fill-rule:evenodd; clip-rule:evenodd"
viewBox="0 0 40640 22860"
 xmlns:xlink="http://www.w3.org/1999/xlink">
 <defs>
  <style type="text/css">
   <![CDATA[
    .str0 {stroke:white;stroke-width:211.66;stroke-miterlimit:22.9256}
    .fil1 {fill:lime}
    .fil3 {fill:#FF6600}
    .fil0 {fill:#00B394}
    .fil2 {fill:url(#id8)}
   ]]>
  </style>
   <mask id="id0">
  <linearGradient id="id1" gradientUnits="userSpaceOnUse" x1="32250.19" y1="11430" x2="34850.33" y2="11430">
   <stop offset="0" style="stop-opacity:0; stop-color:white"/>
   <stop offset="0.180392" style="stop-opacity:0.470588; stop-color:white"/>
   <stop offset="0.878431" style="stop-opacity:0.509804; stop-color:white"/>
   <stop offset="1" style="stop-opacity:0; stop-color:white"/>
  </linearGradient>
    <rect style="fill:url(#id1)" x="32240.19" y="-10" width="2620.14" height="22880"/>
   </mask>
   <mask id="id2">
  <radialGradient id="id3" gradientUnits="userSpaceOnUse" cx="29544.23" cy="5165.54" r="0" fx="29544.23" fy="5165.54">
   <stop offset="0" style="stop-opacity:0.501961; stop-color:white"/>
   <stop offset="1" style="stop-opacity:0; stop-color:white"/>
  </radialGradient>
    <rect style="fill:url(#id3)" x="29438.4" y="5059.71" width="8072" height="8072"/>
   </mask>
   <mask id="id4">
  <linearGradient id="id5" gradientUnits="userSpaceOnUse" x1="30175.91" y1="11430" x2="36924.61" y2="11430">
   <stop offset="0" style="stop-opacity:0; stop-color:white"/>
   <stop offset="0.509804" style="stop-opacity:0.509804; stop-color:white"/>
   <stop offset="1" style="stop-opacity:0; stop-color:white"/>
  </linearGradient>
    <rect style="fill:url(#id5)" x="30165.91" y="-10" width="6768.7" height="22880"/>
   </mask>
   <mask id="id6">
  <radialGradient id="id7" gradientUnits="userSpaceOnUse" cx="29544.23" cy="4028.53" r="0" fx="29544.23" fy="4028.53">
   <stop offset="0" style="stop-opacity:0.501961; stop-color:white"/>
   <stop offset="1" style="stop-opacity:0; stop-color:white"/>
  </radialGradient>
    <rect style="fill:url(#id7)" x="29438.4" y="3922.7" width="8072" height="8072"/>
   </mask>
  <linearGradient id="id8" gradientUnits="userSpaceOnUse" x1="28476.55" y1="2817.35" x2="38623.96" y2="20042.65">
   <stop offset="0" style="stop-opacity:1; stop-color:lime"/>
   <stop offset="0.509804" style="stop-opacity:1; stop-color:#00603F"/>
   <stop offset="1" style="stop-opacity:1; stop-color:#263AA6"/>
  </linearGradient>
 </defs>
 <g id="Layer_x0020_1">
  <metadata id="CorelCorpID_0Corel-Layer"/>
  <polygon class="fil0" style="mask:url(#id0)" points="32250.19,0 34850.33,0 34850.33,22860 32250.19,22860 "/>
  <path class="fil1 str0" style="mask:url(#id2)" d="M33474.4 5165.54c2170.58,0 3930.17,1759.59 3930.17,3930.17 0,2170.58 -1759.59,3930.17 -3930.17,3930.17 -2170.58,0 -3930.17,-1759.59 -3930.17,-3930.17 0,-2170.58 1759.59,-3930.17 3930.17,-3930.17z"/>
  <polygon class="fil2" style="mask:url(#id4)" points="30175.91,0 36924.61,0 36924.61,22860 30175.91,22860 "/>
  <path class="fil3 str0" style="mask:url(#id6)" d="M33474.4 4028.53c2170.58,0 3930.17,1759.59 3930.17,3930.17 0,2170.58 -1759.59,3930.17 -3930.17,3930.17 -2170.58,0 -3930.17,-1759.59 -3930.17,-3930.17 0,-2170.58 1759.59,-3930.17 3930.17,-3930.17z"/>
 </g>
</svg>
