<?xml version="1.0" encoding="UTF-8"?>
<!DOCTYPE svg PUBLIC "-//W3C//DTD SVG 1.1//EN" "http://www.w3.org/Graphics/SVG/1.1/DTD/svg11.dtd">
<!-- Creator: CorelDRAW 2018 (64-Bit Evaluation Version) -->
<svg xmlns="http://www.w3.org/2000/svg" xml:space="preserve" width="100%" height="100%" version="1.1" style="shape-rendering:geometricPrecision; text-rendering:geometricPrecision; image-rendering:optimizeQuality; fill-rule:evenodd; clip-rule:evenodd"
viewBox="0 0 40640 3599.18"
 xmlns:xlink="http://www.w3.org/1999/xlink">
 <defs>
  <style type="text/css">
   <![CDATA[
    .fil0 {fill:black}
   ]]>
  </style>
 </defs>
 <g id="Layer_x0020_1">
  <metadata id="CorelCorpID_0Corel-Layer"/>
  <path class="fil0" d="M40640 715.98c-87.4,-72.61 -202.93,-154.68 -346.38,-213.53 -247.95,-101.73 -507.15,-154.02 -753.58,-160.42 -39.91,-329.03 -192.96,-203.67 -334.3,20.69 -178.29,27.8 -342.08,82.38 -480.05,162.24 -1.65,-4.33 -3.26,-8.65 -4.95,-12.98 -133.77,-342.01 -203.1,-856.17 -458.48,-184.34 -58.79,154.68 -67.13,392.7 -58.1,584.03 -50.73,-20.05 -118.05,-38.26 -206.2,-42.22 -159.75,-210.17 -353.41,-426.99 -487.31,-429.65 -154.92,-3.08 -54.61,267.98 58.09,499.44 -340.69,102.38 -755,299.88 -997.34,508.25 -157.36,9.41 -323.78,54.5 -405.59,86.5 -1024.72,400.8 569.49,-345.38 433.76,-692.4 -312.46,-28.48 -781.68,345.68 -990.78,546.63 -346.19,332.69 236.7,-225.45 300.93,-799.56 27.3,-244.01 6.72,-256.18 -160.25,-119.14 -15.82,12.98 -340.1,376.75 -380.58,421.59 -47.38,52.48 -328.81,564.59 -387.11,645.42l-4.55 -10.35c3.2,-8.27 7.65,-18.97 13.63,-32.64 74.2,-169.54 -19.29,-406.42 -50.47,-593.93 -18.88,-113.5 -60.38,-575.42 -190.21,-311.98 -55.39,112.39 -107.29,217.07 -155.16,317.27 -179.11,-215.62 -391.49,-406.57 -651.76,-644.25 -216.87,-198.05 -87.26,247.25 -63.5,359.83 39.26,185.99 38.48,440.65 169.34,571.51 205.25,205.25 -491.51,-383.35 -571.5,-423.34 -54.03,-27.01 -488.54,-247.67 -508,-254 -205.41,-66.8 -220.15,-47.97 -105.84,169.33 268.94,511.27 1015.09,818.75 571.5,635.01 -267.93,-110.98 -841.21,-288.51 -1121.83,-148.17 0,372.62 1756.49,486.83 656.17,486.83 -160.07,0 -597.71,61.83 -677.34,254 -29.09,70.21 1079.17,86.03 402.17,169.34 -77.37,9.52 -447.75,190.5 -486.84,190.5 0,255.98 655.76,-107.92 -169.33,486.83 -164.45,118.54 13.85,50.63 -190.5,-232.83 -137.31,-190.47 -237.4,41.64 84.67,-359.84 165.77,-206.65 168.01,-812.94 -550.34,63.5 -121.44,148.16 3.52,-75.72 21.17,-254 4.66,-47.02 157.98,-947.17 -84.67,-846.66 -207.98,86.15 -352.8,797.32 -402.16,994.83 26.88,0 -125.25,-589.92 -338.67,-825.5 -482.55,-532.65 -359.83,-28.56 -359.83,338.67 0,555.8 304.74,986.09 -63.5,465.66 -172.28,-243.49 -1085.94,-1071.05 -677.34,-84.66 242.36,585.09 415.17,535.66 -148.16,254 -303.07,-151.53 -926.65,-164.23 -317.51,381 376.04,336.59 -104.76,-94.14 -740.83,169.33 -475.16,196.82 525.45,423.34 529.17,423.34 -88.27,0 -412.54,88.28 -622.57,198.47 -79.7,-16.94 -161.68,-29.21 -255.81,-29.21 -207.95,0 -329.06,-23.63 -529.35,0.16 0.12,-3.76 0.19,-7.36 0.19,-10.75 0,-489.1 42.64,-649.41 201.08,-1111.25 16.04,-46.74 216.13,-547.06 275.17,-571.5 2.35,-0.97 153.62,-32.79 179.91,-42.33 104.82,-38.05 1141.31,-503.71 444.51,-402.17 -457.92,66.73 -459.08,346.36 -254.01,-74.08 17.01,-34.88 199.18,-569.55 -10.58,-359.84 -197.92,197.88 -331.79,328.56 -423.33,603.25 0,-200.72 72.23,-257.77 0,-518.58 -153.42,-553.93 -228.55,328.56 -243.42,433.92 -31.16,220.7 -62.82,-275.17 -306.92,-275.17 -166.99,0 56.22,377.39 211.67,455.08 -72.61,0 -328.3,-106.07 -381,26.46 -30.64,5.29 33.38,61.36 95.25,79.38 164.51,47.92 267.72,74.08 433.92,74.08 0,272.6 -90.72,299.16 -116.42,508 -11.38,92.5 -74.08,281.91 -74.08,391.59 0,75.61 -74.09,361.05 -74.09,444.5 -1962.68,-1964.14 -942.72,-326.69 -179.91,-10.59 190.28,78.85 116.41,38.32 116.41,338.67 0,11.99 0.1,23.96 0.29,35.9 -327.72,36.3 -648.16,113.94 -979.47,170.03l14332.8 0 0 -2883.2zm-15246 2883.2c518.53,-594.88 104.81,-426.66 -383.62,-92.82 -51.69,-60.87 -124.67,-81.6 -201.98,-85.65 258.76,-489.88 490.42,-1165.47 568.31,-1541.92 5.44,-26.25 44.31,-298.9 -63.34,-215.11 -281.7,219.26 -671.11,742.85 -861.99,1049.36 -98.46,158.11 -292.16,551.22 -432.64,886.14l1375.26 0zm-1513.51 0c14.07,-113.92 24.67,-206.36 23.99,-232.58 -5.22,-201 -275.66,-1517.72 -336.74,-1647.66 -42.19,-89.74 -8.76,-163.5 -81.11,32.21 -196.17,530.66 -262.22,1197.92 -185.89,1820.41 -68.92,-20.63 -136.14,-19.22 -168.32,25.43l-1.58 2.19 749.65 0zm-767.19 0c13.98,-36.28 29.7,-86.55 29.7,-134.48 0,-159.28 -152.62,-101.42 -227.54,-26.46 -21.04,21.05 126.59,-123.75 142.88,-148.17 39.73,-59.58 47.77,-142.87 -42.34,-142.87 0,1.79 -104.3,83.16 -116.42,100.54 -111.98,160.61 -63.5,213.78 -63.5,37.04 0,-110.91 -7.34,-221.43 -142.87,-243.42 -102.48,-16.63 -57.45,135.76 -52.92,190.5 1.79,21.69 36.74,131.99 47.63,142.88 -38.74,-77.55 -102.67,-115.16 -190.5,-95.25 -111.51,25.28 55.62,169.43 63.5,185.21 13.66,0 -6.04,4.43 -42.34,-10.59 -37.78,-15.63 -187.26,46.79 -195.42,145.07l790.14 0zm-946.47 0c78.06,-114.78 153.18,-234.96 230.07,-396.43l105.84 -222.25c84.71,-177.88 195.61,-330.9 264.58,-497.42 29.89,-72.15 -287.11,69.35 -338.67,105.83 -384.24,271.84 -659.36,587.71 -848.55,1010.27l586.73 0zm-588.65 0c41.15,-101.08 107.84,-264.5 109.64,-269.43 112.66,-307.77 109.05,-1202.27 -21.17,-1492.25 -58.84,-131.03 -34.05,-287.02 -179.91,31.75 -161.37,352.66 -158.75,799.6 -158.75,1185.33 0,57.93 34.68,58.81 -42.34,-95.25 -184.19,-368.43 -201.78,-427.35 -560.92,-666.75 -116.14,-77.42 -96.78,-79.18 -63.5,169.33 10.32,77.07 89.13,323.52 148.17,391.59 139.25,160.55 -67.46,-17.75 -169.33,-63.5 -3.4,-1.53 -446.19,-201.3 -433.92,-137.59 95,493.24 805.04,642.28 349.25,539.76 -77.72,-17.48 -455.08,-183.08 -455.08,-84.67 0,300.38 644.96,370.42 359.83,370.42 -75.42,0 -195.36,4.3 -234.92,70.82 -111.97,-43.82 -230.51,-87.53 -348.8,-112.33 -258.45,-54.19 -471.08,-122.09 -719.53,-160.19 113.68,-277.81 112.52,-659.11 10.64,-934.69 -25.2,-68.2 -13.56,-42.5 -28.26,-11.23 -21.28,45.28 -115.52,504.09 -117.33,574.13 -0.93,35.85 58.61,426.54 14.36,232.83 -23.51,-102.92 -152.69,-376.67 -204.94,-460.56 -66.51,-106.81 -202.2,-289.25 -300.36,-365.65 -37.51,-29.2 -23.96,65.81 -22.07,74.95 37.33,180.39 175.98,557.96 301.17,693.19 7.92,8.54 116.87,116.58 119.25,131.08 -104.41,-163.89 -748.24,-586.65 -415.25,-212.07 103.54,116.48 152.97,170 247.3,243.55 -342.98,-23.8 -565.04,-62.73 -971.4,-31.02 -159.73,12.47 -550.43,-2.03 -685.34,43.17 -218.7,73.27 -2105.08,188.57 -2410.23,173.54 -825.78,-40.63 -1042.17,-84.56 -1465.61,15.01l1.74 -1.25c160.29,-115.16 204.43,-161.47 336.1,-309.59 329.38,-370.52 -296.9,39.06 -411.58,206.61l1.89 -4.1c22.67,-30.6 106.77,-114.06 113.69,-121.52 125.19,-135.23 263.84,-512.8 301.17,-693.19 1.89,-9.14 15.44,-104.15 -22.07,-74.95 -98.16,76.4 -233.85,258.84 -300.36,365.65 -10.43,16.74 -23.92,41.05 -39.02,70.05 -2.27,-4.22 -4.7,-8.29 -7.3,-12.19 -53.12,-79.68 -123.04,-128.38 -201.92,-156.93 -24.59,-117.9 -49.87,-226.48 -59.67,-247.33 -14.7,-31.27 -3.06,-56.97 -28.26,11.23 -23.49,63.54 -41.62,132.71 -54.23,204.93 -69.31,-7.29 -141.5,-5.65 -212.56,-0.6 -139.26,9.9 -399.67,88.28 -490.59,179.25 -54.23,54.25 28.88,-103.77 -226.43,-103.77 -189.09,0 -424.03,77.46 -518.89,254.73 -2.06,3.83 -28.3,122.18 -28.3,132.07 -1.28,0 -112.96,-150.93 -273.6,-150.93 -251.58,0 -418.76,-105.98 -556.64,169.81 -28.15,56.31 4.74,152.09 -75.48,18.87 -101.38,-168.39 -525.51,-362.76 -650.98,-188.68 -172.63,239.51 18.86,-12.42 18.86,-235.87 0,-283.98 -272.1,-180.81 -405.67,-47.17 -37.51,37.53 225.7,-220.63 254.74,-264.17 70.83,-106.23 85.17,-254.73 -75.49,-254.73 0,3.19 -185.96,148.28 -207.57,179.26 -199.64,286.35 -113.22,381.15 -113.22,66.03 0,-197.74 -13.07,-394.79 -254.71,-433.99 -182.72,-29.64 -102.43,242.05 -94.36,339.65 3.2,38.66 65.51,235.32 84.92,254.74 -69.07,-138.27 -183.04,-205.32 -339.64,-169.82 -198.8,45.07 99.17,302.06 113.21,330.2 24.36,0 -10.76,7.91 -75.48,-18.87 -69.25,-28.65 -349.08,89.8 -349.08,273.6 0,343.47 134.06,84.92 -254.71,84.92 -176.63,0 -430.77,185.45 -547.22,301.89 -11.72,11.73 -95.65,84.91 -113.21,84.91 0,13.96 -57.03,51.31 -125.59,107.9 -20.68,-3.12 -41.22,-4.8 -60.74,-4.8 61.93,-37.14 151.08,-50.16 166.21,-88.59 62.34,-158.19 -249.86,-166.11 -424.78,-166.11 -497.57,0 627.93,-73.29 627.93,-387.6 0,-102.98 -658.52,70.31 -794.15,88.6 -795.38,107.27 443.68,-48.68 609.47,-564.8 21.41,-66.67 -751.29,142.37 -757.22,143.97 -177.77,47.87 -538.49,234.44 -295.49,66.45 103.02,-71.23 240.55,-329.11 258.56,-409.76 58.08,-260.03 91.86,-258.19 -110.81,-177.18 -626.72,250.5 -657.42,312.16 -978.84,697.68 -134.4,161.2 -73.89,160.28 -73.89,99.66 0,-403.62 4.58,-871.29 -277.02,-1240.31 -254.54,-333.55 -211.28,-170.33 -313.96,-33.22 -227.24,303.43 -233.54,1239.43 -36.94,1561.47 4.97,8.17 44.18,126.88 -10.02,48.46 -331,-478.87 -576.11,-523.89 -1282.78,-823.67 -89.97,-38.16 -643.16,-186.23 -591,-110.73 120.36,174.24 313.89,334.36 461.71,520.49l184.7 232.56c15.88,19.99 31.72,39.36 47.52,58.21 -75.93,15.88 -150.8,41.66 -223.58,78.29 -51.84,26.09 32.16,-237.07 -345.8,-480.1 -405.03,-260.45 -1230.3,-517.68 -1588.59,-365.58 -528.95,224.55 -33.3,33.16 -654.51,-220.84 -247.06,-101.02 -583.39,-154.93 -877.3,-124.61l0 1612.14 21578.18 0z"/>
 </g>
</svg>
