<?xml version="1.0" encoding="UTF-8"?>
<!DOCTYPE svg PUBLIC "-//W3C//DTD SVG 1.1//EN" "http://www.w3.org/Graphics/SVG/1.1/DTD/svg11.dtd">
<!-- Creator: CorelDRAW 2018 (64-Bit Evaluation Version) -->
<svg xmlns="http://www.w3.org/2000/svg" xml:space="preserve" width="100%" height="100%" version="1.1" style="shape-rendering:geometricPrecision; text-rendering:geometricPrecision; image-rendering:optimizeQuality; fill-rule:evenodd; clip-rule:evenodd"
viewBox="0 0 40640 13355.32"
 xmlns:xlink="http://www.w3.org/1999/xlink">
 <defs>
  <style type="text/css">
   <![CDATA[
    .fil0 {fill:black}
    .fil1 {fill:yellow}
   ]]>
  </style>
 </defs>
 <g id="Layer_x0020_1">
  <metadata id="CorelCorpID_0Corel-Layer"/>
  <path class="fil0" d="M10054.67 2184.73c1141.7,71.91 2086.42,869.16 2379.12,1936.11 6.94,-0.13 13.88,-0.3 20.87,-0.3 729.5,0 1320.91,591.41 1320.91,1320.91 0,273.67 -83.26,527.88 -225.75,738.75 1074.07,924.64 1794.44,2248.48 1931.02,3741.27 422.08,220.5 710.26,662.27 710.26,1171.52 0,57.08 -3.64,113.34 -10.68,168.59 566.5,227.1 1035.98,644.8 1329.31,1173.72 105.5,-27.13 216.06,-41.59 330.01,-41.59 324.98,0 622.47,117.51 852.56,312.12 426.44,-968.34 1391.01,-1580.12 2429.5,-1574.54l5.37 -20.15c196.83,-702.45 925.84,-1112.34 1628.31,-915.53 263.51,73.83 485.87,222.58 650.47,416.66 495.73,-329.58 1042.42,-580.18 1619.1,-739.79 598.38,-814.83 1402.74,-1445.65 2315.36,-1837.86 -70.59,-342.05 -62.81,-705.68 37.94,-1065.16 336.82,-1202.17 1584.43,-1903.77 2786.73,-1566.91 866.87,242.91 1473.26,959.35 1617.86,1790.93 129.1,-3.43 260.93,12.16 391.84,48.83 100.81,28.25 195.58,67.46 283.41,115.97 77.61,-98.45 197.95,-161.66 333.05,-161.66 171.83,0 319.8,102.26 386.33,249.24 451.97,-158.48 955.34,-184.75 1451.55,-45.74 1106.63,310.08 1816.88,1341.12 1764.77,2442.21 199.75,5.27 400.91,24.07 602.35,57.07 125.73,-143.75 310.47,-234.57 516.45,-234.57 235.56,0 443.36,118.79 566.86,299.69 141.69,-81.19 305.85,-127.61 480.87,-127.61 49.65,0 98.41,3.75 146.04,10.97 70.11,-167.32 234.23,-285.49 426.31,-288.41 18.01,-378.51 330.57,-679.86 713.53,-679.86 138.84,0 268.4,39.65 378.05,108.19 -5.37,-26.94 -8.21,-54.81 -8.21,-83.33 0,-234.08 189.77,-423.85 423.86,-423.85l0 4874.7 -2407.52 0 -9038.3 0 -29194.18 0 0 -3512.75 0 -2391.93 0 -4233.23c676.23,95.52 1250.7,507.46 1568.98,1081.2 263.05,-155.08 539.81,-289.38 828.08,-400.56 -34.52,-117.87 -53.06,-242.53 -53.06,-371.59 0,-405.4 182.67,-768.04 470.11,-1010.33 -35.37,-96.85 -54.66,-201.46 -54.66,-310.59 0,-489.82 389.01,-888.73 874.97,-904.82 -20.08,-81 -30.8,-165.69 -30.8,-252.9 0,-578.66 469.09,-1047.75 1047.75,-1047.75 385.82,0 722.89,208.57 904.72,519.08 436.98,-210.27 926.82,-328.13 1444.21,-328.13 1364.77,0 2537.9,819.81 3054.37,1993.71z"/>
  <path class="fil1" d="M4112.67 3869.68c0,-143.35 116.2,-259.56 259.55,-259.56 -143.35,0 -259.55,-116.2 -259.55,-259.55 0,143.35 -116.2,259.55 -259.55,259.55 143.35,0 259.55,116.21 259.55,259.56z"/>
  <path class="fil1" d="M14501.01 9242.88c0,286.7 -232.4,519.1 -519.1,519.1 286.7,0 519.1,232.41 519.1,519.1 0,-286.69 232.4,-519.1 519.1,-519.1 -286.7,0 -519.1,-232.4 -519.1,-519.1z"/>
  <path class="fil1" d="M10095.75 12069.84c0,143.35 -116.2,259.55 -259.55,259.55 143.35,0 259.55,116.2 259.55,259.55 0,-143.35 116.2,-259.55 259.55,-259.55 -143.35,0 -259.55,-116.2 -259.55,-259.55z"/>
  <path class="fil1" d="M14474.29 3174.06c0,143.35 -116.2,259.55 -259.55,259.55 143.35,0 259.55,116.2 259.55,259.55 0,-143.35 116.2,-259.55 259.55,-259.55 -143.35,0 -259.55,-116.2 -259.55,-259.55z"/>
  <path class="fil1" d="M7645.4 3222.63c0,165.12 -133.85,298.97 -298.98,298.97 165.13,0 298.98,133.85 298.98,298.98 0,-165.13 133.85,-298.98 298.97,-298.98 -165.12,0 -298.97,-133.85 -298.97,-298.97z"/>
  <path class="fil1" d="M3127.2 2294.93c0,71.67 58.1,129.77 129.77,129.77 -71.67,0 -129.77,58.1 -129.77,129.78 0,-71.68 -58.11,-129.78 -129.78,-129.78 71.67,0 129.78,-58.1 129.78,-129.77z"/>
  <path class="fil1" d="M5922.5 6314.33c0,-71.67 58.1,-129.77 129.77,-129.77 -71.67,0 -129.77,-58.1 -129.77,-129.78 0,71.68 -58.1,129.78 -129.78,129.78 71.68,0 129.78,58.1 129.78,129.77z"/>
  <path class="fil1" d="M9075.34 8393.71c0,71.67 -58.1,129.77 -129.78,129.77 71.68,0 129.78,58.1 129.78,129.78 0,-71.68 58.1,-129.78 129.77,-129.78 -71.67,0 -129.77,-58.1 -129.77,-129.77z"/>
  <path class="fil1" d="M21815.87 11939.75c0,143.35 -116.2,259.55 -259.55,259.55 143.35,0 259.55,116.2 259.55,259.55 0,-143.35 116.2,-259.55 259.55,-259.55 -143.35,0 -259.55,-116.2 -259.55,-259.55z"/>
  <path class="fil1" d="M26655.42 10221.67c0,71.67 58.11,129.77 129.78,129.77 -71.67,0 -129.78,58.11 -129.78,129.78 0,-71.67 -58.1,-129.78 -129.77,-129.78 71.67,0 129.77,-58.1 129.77,-129.77z"/>
  <path class="fil1" d="M31730.86 5298.33c0,-71.67 -58.1,-129.77 -129.77,-129.77 71.67,0 129.77,-58.1 129.77,-129.78 0,71.68 58.1,129.78 129.78,129.78 -71.68,0 -129.78,58.1 -129.78,129.77z"/>
  <path class="fil1" d="M28578.02 7377.71c0,71.67 58.1,129.77 129.78,129.77 -71.68,0 -129.78,58.1 -129.78,129.78 0,-71.68 -58.1,-129.78 -129.77,-129.78 71.67,0 129.77,-58.1 129.77,-129.77z"/>
  <path class="fil1" d="M31538.37 6138.41c0,-140.56 113.94,-254.5 254.5,-254.5 -140.56,0 -254.5,-113.95 -254.5,-254.51 0,140.56 -113.94,254.51 -254.51,254.51 140.57,0 254.51,113.94 254.51,254.5z"/>
  <path class="fil1" d="M34566.48 7968.33c0,71.67 -58.1,129.77 -129.78,129.77 71.68,0 129.78,58.1 129.78,129.78 0,-71.68 58.1,-129.78 129.77,-129.78 -71.67,0 -129.77,-58.1 -129.77,-129.77z"/>
  <path class="fil1" d="M27988.68 10219.69c0,-143.35 116.2,-259.56 259.55,-259.56 -143.35,0 -259.55,-116.2 -259.55,-259.55 0,143.35 -116.2,259.55 -259.55,259.55 143.35,0 259.55,116.21 259.55,259.56z"/>
  <path class="fil1" d="M26957.33 8736.7c0,46.33 37.56,83.89 83.89,83.89 -46.33,0 -83.89,37.56 -83.89,83.9 0,-46.34 -37.56,-83.9 -83.9,-83.9 46.34,0 83.9,-37.56 83.9,-83.89z"/>
 </g>
</svg>
