<?xml version="1.0" encoding="UTF-8"?>
<!DOCTYPE svg PUBLIC "-//W3C//DTD SVG 1.1//EN" "http://www.w3.org/Graphics/SVG/1.1/DTD/svg11.dtd">
<!-- Creator: CorelDRAW 2018 (64-Bit Evaluation Version) -->
<svg xmlns="http://www.w3.org/2000/svg" xml:space="preserve" width="100%" height="100%" version="1.1" style="shape-rendering:geometricPrecision; text-rendering:geometricPrecision; image-rendering:optimizeQuality; fill-rule:evenodd; clip-rule:evenodd"
viewBox="0 0 17780 35560"
 xmlns:xlink="http://www.w3.org/1999/xlink">
 <defs>
  <style type="text/css">
   <![CDATA[
    .str0 {stroke:yellow;stroke-width:20;stroke-miterlimit:22.9256}
    .str1 {stroke:yellow;stroke-width:20;stroke-linecap:round;stroke-miterlimit:22.9256}
    .fil2 {fill:none}
    .fil1 {fill:yellow}
    .fil0 {fill:#704FBF}
   ]]>
  </style>
 </defs>
 <g id="Layer_x0020_1">
  <metadata id="CorelCorpID_0Corel-Layer"/>
  <polygon class="fil0" points="-0,0.01 17780,0.01 17780,35560 -0,35560 -0,16826.92 -0,13697.2 -0,11698.88 "/>
  <path class="fil1" d="M6077.28 27125.52c121.11,43.49 205.43,-15.65 244.86,-200.03 -6.8,186.62 80.48,284.02 231.58,320.88 -173.65,-14.22 -265.86,62.87 -265.27,243.98 -9.29,-146.91 -60.27,-276.55 -211.17,-364.83z"/>
  <path class="fil1" d="M4561.59 26611.04c64.54,23.18 109.47,-8.33 130.48,-106.59 -3.62,99.45 42.88,151.35 123.41,171 -92.54,-7.58 -141.67,33.5 -141.36,130 -4.95,-78.28 -32.12,-147.36 -112.53,-194.41z"/>
  <path class="fil1" d="M3176.98 26421.61c9.29,-142.03 49.93,-205.71 175.9,-254.72 -135.74,-12.36 -164.6,-105.06 -176.21,-210.72 -34.55,121.9 -7.42,167.74 -137.46,213.52 106.89,39.23 122.78,153.51 137.77,251.92z"/>
  <path class="fil1" d="M8397.97 26282.32c-6.9,105.41 -37.06,152.67 -130.55,189.05 100.74,9.17 122.16,77.96 130.77,156.38 25.64,-90.47 5.51,-124.49 102.02,-158.46 -79.33,-29.12 -91.12,-113.93 -102.24,-186.97z"/>
  <path class="fil1" d="M13520.46 12827.23c7.93,121.3 42.65,175.68 150.22,217.54 -115.92,10.56 -140.57,89.72 -150.48,179.96 -29.51,-104.11 -6.34,-143.26 -117.4,-182.35 91.29,-33.51 104.86,-131.11 117.66,-215.15z"/>
  <path class="fil1" d="M1115.48 27071.51c148.61,53.38 252.07,-19.19 300.46,-245.44 -8.34,228.99 98.75,348.5 284.16,393.74 -213.08,-17.45 -326.22,77.14 -325.51,299.37 -11.39,-180.26 -73.95,-339.34 -259.11,-447.67z"/>
  <path class="fil1" d="M7221.57 26144.07c-78.9,-28.33 -133.83,10.2 -159.52,130.32 4.43,-121.58 -52.43,-185.04 -150.87,-209.05 113.13,9.26 173.2,-40.96 172.82,-158.95 6.05,95.71 39.26,180.17 137.57,237.68z"/>
  <path class="fil1" d="M7460.54 27134.75c60.55,21.75 102.71,-7.82 122.43,-100.02 -3.4,93.31 40.24,142.01 115.79,160.45 -86.83,-7.12 -132.93,31.43 -132.64,121.98 -4.64,-73.45 -30.13,-138.27 -105.58,-182.41z"/>
  <path class="fil1" d="M11991.23 28416.23c46.08,16.55 78.16,-5.95 93.16,-76.1 -2.59,71 30.61,108.05 88.1,122.08 -66.06,-5.42 -101.14,23.91 -100.92,92.81 -3.53,-55.89 -22.93,-105.2 -80.34,-138.79z"/>
  <path class="fil1" d="M2927.21 27261.16c-64.53,23.18 -109.47,-8.34 -130.48,-106.59 3.62,99.44 -42.88,151.34 -123.4,170.99 92.53,-7.58 141.67,33.5 141.36,130.01 4.94,-78.29 32.11,-147.37 112.52,-194.41z"/>
  <path class="fil1" d="M1729.27 28785.44c14.71,120.71 -9.34,180.22 -107.4,240 116.01,-9.66 154.96,63.97 181.47,151.03 9.69,-107.53 -20.37,-142.04 81.63,-199.7 -96.03,-17.18 -127.51,-110.86 -155.7,-191.33z"/>
  <path class="fil1" d="M14796.94 27523.47c-55.53,31.87 -102.5,10.06 -139.02,-77.23 20.67,91.22 -13.22,146.67 -84.13,177.87 84.11,-22.01 136.62,7.94 153.15,97.08 -9.07,-73.07 3.97,-141.24 70,-197.72z"/>
  <path class="fil1" d="M3468.72 28726.64c-42.25,24.24 -77.99,7.65 -105.77,-58.77 15.72,69.4 -10.06,111.6 -64.01,135.33 63.99,-16.74 103.95,6.05 116.52,73.87 -6.9,-55.59 3.02,-107.47 53.26,-150.43z"/>
  <polyline class="fil2 str0" points="3196.04,26188.9 4688.54,26654.96 7066.37,26090.4 6315.51,27207.92 7579.65,27175.95 7066.37,26090.4 "/>
  <line class="fil2 str0" x1="1753.43" y1="28980.96" x2="3383.84" y2= "28772.47" />
  <path class="fil1" d="M14584.31 25217.36c26.36,102.52 64.81,143.79 163.54,163.42 -97.41,26.44 -105.7,97.82 -99.62,176.46 -42.02,-84.57 -28.54,-121.52 -129.79,-138.26 72.64,-42.36 68.49,-127.84 65.87,-201.62z"/>
  <path class="fil1" d="M12175.71 21518.67c54.41,-31.22 100.43,-9.86 136.21,75.67 -20.25,-89.37 12.95,-143.7 82.43,-174.27 -82.41,21.56 -133.86,-7.79 -150.06,-95.12 8.89,71.59 -3.89,138.39 -68.58,193.72z"/>
  <path class="fil1" d="M13877.64 23525.69c-72.36,41.52 -133.56,13.11 -181.14,-100.63 26.93,118.85 -17.22,191.1 -109.61,231.75 109.58,-28.68 178,10.35 199.54,126.5 -11.82,-95.21 5.17,-184.04 91.21,-257.62z"/>
  <path class="fil1" d="M9373.65 21743.3c26.35,-102.51 64.81,-143.79 163.53,-163.42 -97.4,-26.44 -105.7,-97.82 -99.61,-176.45 -42.03,84.57 -28.54,121.52 -129.8,138.26 72.64,42.35 68.5,127.84 65.88,201.61z"/>
  <path class="fil1" d="M5847.8 23866.91c54.41,31.22 100.43,9.86 136.22,-75.67 -20.26,89.37 12.95,143.7 82.42,174.27 -82.4,-21.56 -133.86,7.79 -150.05,95.12 8.89,-71.59 -3.89,-138.39 -68.59,-193.72z"/>
  <path class="fil1" d="M8178.91 24226.28c-72.37,-41.52 -133.56,-13.11 -181.15,100.63 26.94,-118.85 -17.22,-191.1 -109.61,-231.75 109.58,28.68 178.01,-10.35 199.55,-126.5 -11.82,95.21 5.17,184.04 91.21,257.62z"/>
  <path class="fil1" d="M4515.37 14402.86c148.6,53.37 252.06,-19.2 300.45,-245.45 -8.34,229 98.75,348.51 284.16,393.74 -213.08,-17.45 -326.22,77.15 -325.5,299.37 -11.4,-180.26 -73.96,-339.33 -259.11,-447.66z"/>
  <path class="fil1" d="M11885.27 24824.11c-64.53,23.18 -109.47,-8.34 -130.48,-106.59 3.62,99.45 -42.88,151.35 -123.4,170.99 92.53,-7.58 141.67,33.5 141.36,130.01 4.94,-78.28 32.11,-147.36 112.52,-194.41z"/>
  <path class="fil1" d="M16278.17 24589.8c83.86,30.12 142.25,-10.83 169.56,-138.51 -4.71,129.23 55.73,196.68 160.37,222.2 -120.26,-9.85 -184.11,43.54 -183.7,168.95 -6.43,-101.73 -41.74,-191.5 -146.23,-252.64z"/>
  <path class="fil1" d="M16130.06 22163.83c-32.83,127.7 -80.73,179.12 -203.72,203.57 121.34,32.93 131.68,121.86 124.1,219.81 52.35,-105.35 35.55,-151.38 161.68,-172.23 -90.49,-52.76 -85.32,-159.25 -82.06,-251.15z"/>
  <path class="fil1" d="M6798.21 22749.18c-121.11,-43.5 -205.43,15.64 -244.86,200.03 6.8,-186.62 -80.48,-284.02 -231.58,-320.88 173.65,14.22 265.86,-62.88 265.27,-243.98 9.29,146.91 60.27,276.54 211.17,364.83z"/>
  <path class="fil1" d="M3165.09 22557.18c6.9,-105.42 37.06,-152.67 130.55,-189.05 -100.74,-9.17 -122.16,-77.97 -130.78,-156.38 -25.64,90.47 -5.51,124.49 -102.01,158.46 79.32,29.11 91.12,113.93 102.24,186.97z"/>
  <path class="fil1" d="M1669.24 23706.23c-7.93,-121.3 -42.64,-175.68 -150.22,-217.55 115.93,-10.55 140.57,-89.72 150.49,-179.95 29.5,104.1 6.34,143.25 117.39,182.35 -91.28,33.5 -104.86,131.1 -117.66,215.15z"/>
  <path class="fil1" d="M4341.48 22695.42c78.9,28.34 133.84,-10.19 159.53,-130.31 -4.43,121.58 52.43,185.03 150.87,209.05 -113.13,-9.27 -173.2,40.96 -172.82,158.95 -6.05,-95.71 -39.27,-180.17 -137.58,-237.69z"/>
  <path class="fil1" d="M493.18 22838.69c59.33,21.31 100.64,-7.67 119.96,-98 -3.33,91.43 39.43,139.15 113.45,157.21 -85.07,-6.97 -130.24,30.8 -129.96,119.52 -4.55,-71.97 -29.52,-135.48 -103.45,-178.73z"/>
  <path class="fil1" d="M4102.52 21704.75c-60.55,-21.75 -102.71,7.82 -122.43,100.01 3.4,-93.31 -40.24,-142.01 -115.79,-160.44 86.83,7.11 132.93,-31.44 132.64,-121.99 4.64,73.46 30.13,138.28 105.58,182.42z"/>
  <path class="fil1" d="M3058.92 22094.56c-46.07,-16.55 -78.15,5.95 -93.15,76.1 2.58,-71 -30.62,-108.05 -88.1,-122.08 66.06,5.41 101.14,-23.91 100.92,-92.81 3.53,55.89 22.92,105.2 80.33,138.79z"/>
  <polygon class="fil2 str0" points="3179.24,22384.46 2968.29,22063.21 1652.96,23507.48 609.9,22879.06 "/>
  <path class="fil1" d="M6351.76 28843.03c-26.36,102.51 -64.81,143.79 -163.54,163.41 97.41,26.44 105.7,97.83 99.62,176.46 42.02,-84.57 28.54,-121.52 129.79,-138.26 -72.63,-42.36 -68.49,-127.84 -65.87,-201.61z"/>
  <path class="fil1" d="M10413.07 16204.41c-54.41,-31.22 -100.43,-9.86 -136.21,75.67 20.25,-89.37 -12.95,-143.71 -82.43,-174.27 82.41,21.56 133.86,-7.79 150.06,-95.13 -8.89,71.6 3.88,138.4 68.58,193.73z"/>
  <path class="fil1" d="M3942.16 25478.07c72.36,41.52 133.56,13.11 181.14,-100.63 -26.94,118.85 17.22,191.1 109.61,231.75 -109.58,-28.67 -178.01,10.35 -199.54,126.5 11.82,-95.21 -5.18,-184.04 -91.21,-257.62z"/>
  <path class="fil1" d="M1489.52 24205.03c-148.61,-53.37 -252.07,19.2 -300.46,245.44 8.34,-228.99 -98.75,-348.5 -284.16,-393.73 213.08,17.45 326.22,-77.15 325.51,-299.37 11.39,180.26 73.95,339.33 259.11,447.66z"/>
  <path class="fil1" d="M10511.12 22921.68c14.75,-79.97 -34.38,-125.22 -161.46,-128.08 124.76,-17.58 179.27,-82.92 186.12,-180.68 10.83,109.06 72.8,157.08 193.04,135.58 -96.51,22.89 -176.67,69.55 -217.7,173.18z"/>
  <path class="fil1" d="M8035.42 22001.9c-11.33,61.38 26.38,96.1 123.91,98.3 -95.75,13.49 -137.59,63.64 -142.84,138.66 -8.31,-83.69 -55.88,-120.55 -148.15,-104.05 74.06,-17.57 135.58,-53.38 167.08,-132.91z"/>
  <path class="fil1" d="M12941.42 22179.68c78.9,28.34 133.84,-10.2 159.53,-130.32 -4.43,121.58 52.43,185.04 150.87,209.05 -113.14,-9.26 -173.2,40.96 -172.83,158.95 -6.05,-95.71 -39.26,-180.17 -137.57,-237.68z"/>
  <path class="fil1" d="M13865.5 15227.7c-54.42,-31.22 -100.44,-9.86 -136.22,75.67 20.26,-89.37 -12.95,-143.71 -82.42,-174.27 82.4,21.56 133.85,-7.79 150.05,-95.13 -8.89,71.6 3.89,138.4 68.59,193.73z"/>
  <path class="fil1" d="M16807.05 14404.73c-26.36,-102.51 -64.81,-143.79 -163.54,-163.42 97.41,-26.44 105.7,-97.82 99.62,-176.45 42.02,84.57 28.54,121.52 129.79,138.26 -72.64,42.35 -68.49,127.84 -65.87,201.61z"/>
  <path class="fil1" d="M14295.42 20215.03c64.54,23.18 109.47,-8.33 130.48,-106.59 -3.62,99.45 42.89,151.35 123.41,170.99 -92.54,-7.58 -141.67,33.51 -141.36,130.01 -4.95,-78.28 -32.12,-147.36 -112.53,-194.41z"/>
  <path class="fil1" d="M12202.67 19277.88c-83.87,30.12 -142.26,-10.83 -169.57,-138.52 4.71,129.24 -55.72,196.68 -160.36,222.21 120.25,-9.85 184.1,43.54 183.7,168.95 6.43,-101.73 41.73,-191.5 146.23,-252.64z"/>
  <path class="fil1" d="M13788.78 18204.63c32.83,127.7 80.73,179.12 203.72,203.57 -121.34,32.94 -131.68,121.86 -124.1,219.82 -52.35,-105.35 -35.55,-151.38 -161.68,-172.24 90.48,-52.76 85.32,-159.25 82.06,-251.15z"/>
  <path class="fil1" d="M7130.95 18701.5c121.11,43.5 205.43,-15.64 244.86,-200.03 -6.79,186.62 80.48,284.02 231.58,320.89 -173.65,-14.23 -265.85,62.87 -265.27,243.97 -9.29,-146.91 -60.27,-276.54 -211.17,-364.83z"/>
  <path class="fil1" d="M8275.25 17720.06c-78.9,-28.34 -133.84,10.19 -159.53,130.32 4.43,-121.59 -52.43,-185.04 -150.87,-209.06 113.13,9.27 173.2,-40.96 172.82,-158.94 6.05,95.7 39.27,180.16 137.58,237.68z"/>
  <path class="fil1" d="M8514.21 18710.73c60.55,21.75 102.71,-7.82 122.43,-100.01 -3.4,93.31 40.24,142.01 115.79,160.44 -86.83,-7.11 -132.93,31.44 -132.64,121.99 -4.64,-73.45 -30.13,-138.27 -105.58,-182.42z"/>
  <path class="fil1" d="M1451.5 18646.29c-26.36,102.51 -64.81,143.79 -163.54,163.42 97.41,26.44 105.7,97.82 99.62,176.45 42.02,-84.57 28.54,-121.52 129.79,-138.26 -72.64,-42.35 -68.49,-127.84 -65.87,-201.61z"/>
  <path class="fil1" d="M1823.64 16049.67c72.36,41.52 133.56,13.11 181.14,-100.63 -26.93,118.85 17.22,191.11 109.62,231.76 -109.59,-28.68 -178.01,10.35 -199.55,126.49 11.82,-95.2 -5.17,-184.03 -91.21,-257.62z"/>
  <path class="fil1" d="M5949.78 20613.94c-11.33,61.37 26.38,96.1 123.91,98.29 -95.75,13.5 -137.58,63.65 -142.84,138.67 -8.31,-83.7 -55.87,-120.55 -148.15,-104.05 74.06,-17.57 135.59,-53.38 167.08,-132.91z"/>
  <path class="fil1" d="M7539.34 20673.75c60.55,21.74 102.71,-7.83 122.43,-100.02 -3.4,93.31 40.24,142.01 115.79,160.44 -86.83,-7.11 -132.93,31.44 -132.64,121.99 -4.64,-73.45 -30.13,-138.27 -105.58,-182.41z"/>
  <path class="fil1" d="M7840.14 19486.14c26.36,102.52 64.81,143.79 163.54,163.42 -97.41,26.44 -105.7,97.83 -99.62,176.46 -42.02,-84.57 -28.54,-121.52 -129.79,-138.26 72.64,-42.36 68.49,-127.84 65.87,-201.62z"/>
  <path class="fil1" d="M4314.3 17362.54c54.41,-31.22 100.43,-9.86 136.21,75.67 -20.25,-89.37 12.95,-143.71 82.43,-174.27 -82.41,21.56 -133.86,-7.79 -150.06,-95.13 8.89,71.6 -3.89,138.4 -68.58,193.73z"/>
  <path class="fil1" d="M6125 16554.29c-72.36,41.52 -133.56,13.11 -181.14,-100.63 26.93,118.85 -17.22,191.11 -109.61,231.75 109.58,-28.67 178,10.36 199.54,126.5 -11.82,-95.21 5.17,-184.04 91.21,-257.62z"/>
  <path class="fil1" d="M3952.27 19515.47c-121.1,43.49 -205.42,-15.65 -244.86,-200.03 6.8,186.62 -80.47,284.02 -231.58,320.88 173.66,-14.22 265.86,62.87 265.28,243.98 9.28,-146.91 60.27,-276.55 211.16,-364.83z"/>
  <path class="fil1" d="M6856.52 14040.84c-11.33,-61.38 26.38,-96.1 123.91,-98.3 -95.75,-13.49 -137.59,-63.64 -142.84,-138.66 -8.31,83.7 -55.88,120.55 -148.15,104.05 74.06,17.57 135.58,53.38 167.08,132.91z"/>
  <path class="fil1" d="M2065.91 13331.5c-83.87,30.12 -142.26,-10.84 -169.56,-138.52 4.7,129.23 -55.73,196.68 -160.37,222.21 120.25,-9.85 184.1,43.53 183.7,168.95 6.43,-101.73 41.73,-191.51 146.23,-252.64z"/>
  <path class="fil1" d="M11222.15 13502.16c54.42,-31.22 100.44,-9.85 136.22,75.68 -20.25,-89.38 12.95,-143.71 82.43,-174.28 -82.41,21.57 -133.86,-7.78 -150.06,-95.12 8.89,71.59 -3.89,138.39 -68.59,193.72z"/>
  <path class="fil1" d="M11456.84 17968.38c-72.36,41.52 -133.56,13.11 -181.15,-100.63 26.94,118.85 -17.22,191.1 -109.61,231.75 109.59,-28.67 178.01,10.35 199.55,126.5 -11.82,-95.21 5.17,-184.04 91.21,-257.62z"/>
  <path class="fil1" d="M8446.58 14606.96c14.75,-79.97 -34.38,-125.22 -161.46,-128.08 124.76,-17.58 179.27,-82.92 186.12,-180.67 10.83,109.05 72.8,157.07 193.04,135.57 -96.51,22.89 -176.67,69.55 -217.7,173.18z"/>
  <polyline class="fil2 str0" points="8120.05,17666.38 8633.33,18751.94 7888.98,19656.08 "/>
  <polyline class="fil2 str0" points="7369.18,18783.91 8633.33,18751.94 12037.7,19334.95 13849.61,18416.32 "/>
  <path class="fil1" d="M13042.25 22553.87c-33.36,11.98 -56.58,-4.3 -67.44,-55.08 1.87,51.39 -22.16,78.21 -63.78,88.37 47.83,-3.92 73.22,17.31 73.06,67.19 2.56,-40.46 16.6,-76.16 58.16,-100.48z"/>
  <path class="fil1" d="M15190.73 26392.2c26.35,102.51 64.81,143.79 163.53,163.42 -97.4,26.44 -105.7,97.82 -99.61,176.46 -42.03,-84.58 -28.54,-121.53 -129.8,-138.26 72.64,-42.36 68.5,-127.85 65.88,-201.62z"/>
  <path class="fil1" d="M15301.52 25188.71c26.36,102.51 64.81,143.79 163.54,163.42 -97.41,26.44 -105.71,97.82 -99.62,176.45 -42.02,-84.57 -28.54,-121.52 -129.79,-138.26 72.63,-42.35 68.49,-127.84 65.87,-201.61z"/>
  <path class="fil1" d="M12497.01 20988.69c-26.36,102.52 -64.81,143.79 -163.54,163.42 97.41,26.44 105.7,97.82 99.62,176.46 42.02,-84.57 28.54,-121.52 129.79,-138.26 -72.64,-42.36 -68.49,-127.84 -65.87,-201.62z"/>
  <polyline class="fil2 str0" points="12448.17,21158.63 13096.62,22233.37 13732.26,23604.18 14633.14,25387.3 15350.35,25358.65 15239.55,26562.14 "/>
  <ellipse class="fil2 str0" cx="6561.34" cy="22659.85" rx="427.28" ry="412.27"/>
  <path class="fil2 str1" d="M5746.77 21938.89c845.64,148.9 1524.52,-59.09 1555.82,1413.53 -1366.04,-39.91 -1442.32,-531.13 -1555.82,-1413.53z"/>
  <line class="fil2 str1" x1="6521.35" y1="22146.04" x2="6736.04" y2= "21561.15" />
  <line class="fil2 str1" x1="6938.1" y1="22308.51" x2="7502.2" y2= "21792.66" />
  <line class="fil2 str1" x1="7110.7" y1="22637.51" x2="7754.77" y2= "22511.6" />
  <path class="fil1" d="M9170.25 32995.6c-26.36,102.51 -64.81,143.79 -163.54,163.41 97.41,26.44 105.7,97.83 99.62,176.46 42.02,-84.57 28.54,-121.52 129.79,-138.26 -72.63,-42.36 -68.49,-127.84 -65.87,-201.61z"/>
  <path class="fil1" d="M10117.94 34139.99c72.36,41.52 133.56,13.11 181.14,-100.63 -26.94,118.85 17.22,191.1 109.61,231.75 -109.58,-28.67 -178.01,10.36 -199.55,126.5 11.83,-95.21 -5.17,-184.04 -91.2,-257.62z"/>
  <path class="fil1" d="M13046.29 31741.1c54.42,-31.22 100.44,-9.86 136.22,75.67 -20.26,-89.37 12.95,-143.71 82.42,-174.27 -82.4,21.56 -133.85,-7.79 -150.05,-95.13 8.89,71.6 -3.89,138.4 -68.59,193.73z"/>
  <path class="fil1" d="M13660.33 34632.97c-121.1,43.5 -205.42,-15.65 -244.86,-200.03 6.8,186.62 -80.47,284.02 -231.58,320.88 173.66,-14.22 265.86,62.87 265.28,243.98 9.28,-146.91 60.26,-276.55 211.16,-364.83z"/>
  <path class="fil1" d="M9784.66 30410.29c-83.86,30.13 -142.26,-10.83 -169.56,-138.51 4.7,129.23 -55.73,196.68 -160.37,222.2 120.25,-9.84 184.1,43.54 183.7,168.96 6.43,-101.74 41.73,-191.51 146.23,-252.65z"/>
  <path class="fil1" d="M5271.13 32627.98c-148.6,53.37 -252.06,-19.2 -300.45,-245.45 8.34,228.99 -98.75,348.51 -284.16,393.74 213.08,-17.45 326.22,77.15 325.5,299.37 11.4,-180.26 73.95,-339.33 259.11,-447.66z"/>
  <path class="fil1" d="M3459.4 32817.62c64.54,23.18 109.47,-8.34 130.48,-106.59 -3.62,99.44 42.89,151.35 123.41,170.99 -92.54,-7.58 -141.67,33.5 -141.36,130.01 -4.95,-78.28 -32.12,-147.37 -112.53,-194.41z"/>
  <path class="fil1" d="M16773.63 30373.92c7.93,121.3 42.64,175.68 150.22,217.54 -115.93,10.56 -140.57,89.72 -150.49,179.96 -29.5,-104.11 -6.34,-143.26 -117.39,-182.35 91.28,-33.51 104.86,-131.11 117.66,-215.15z"/>
  <path class="fil1" d="M16073.05 17371.9c-55.53,31.86 -102.5,10.06 -139.02,-77.23 20.67,91.21 -13.22,146.67 -84.13,177.86 84.11,-22.01 136.62,7.95 153.15,97.09 -9.07,-73.07 3.97,-141.25 70,-197.72z"/>
  <path class="fil1" d="M1030.67 31613.83c-55.53,31.87 -102.5,10.06 -139.02,-77.23 20.67,91.22 -13.21,146.67 -84.12,177.87 84.1,-22.01 136.61,7.94 153.14,97.08 -9.07,-73.07 3.97,-141.24 70,-197.72z"/>
  <path class="fil1" d="M4640.42 10784.95c-7.93,-121.3 -42.65,-175.68 -150.22,-217.54 115.92,-10.56 140.57,-89.72 150.48,-179.96 29.51,104.11 6.34,143.26 117.4,182.35 -91.29,33.51 -104.86,131.11 -117.66,215.15z"/>
  <path class="fil1" d="M13645.51 9209.32c-148.6,-53.37 -252.06,19.2 -300.45,245.45 8.34,-229 -98.75,-348.51 -284.16,-393.74 213.08,17.45 326.22,-77.15 325.5,-299.37 11.4,180.26 73.96,339.33 259.11,447.66z"/>
  <path class="fil1" d="M7747.81 7407.77c54.41,31.22 100.43,9.86 136.21,-75.67 -20.25,89.37 12.95,143.71 82.43,174.27 -82.41,-21.56 -133.86,7.79 -150.06,95.13 8.89,-71.6 -3.88,-138.4 -68.58,-193.73z"/>
  <path class="fil1" d="M4295.38 8384.48c54.42,31.22 100.44,9.86 136.22,-75.67 -20.26,89.37 12.95,143.71 82.42,174.27 -82.4,-21.56 -133.85,7.79 -150.05,95.13 8.89,-71.6 -3.89,-138.4 -68.59,-193.73z"/>
  <path class="fil1" d="M1353.83 9207.45c26.36,102.51 64.81,143.79 163.54,163.42 -97.41,26.44 -105.7,97.82 -99.62,176.45 -42.02,-84.57 -28.54,-121.52 -129.79,-138.26 72.64,-42.35 68.49,-127.84 65.87,-201.61z"/>
  <path class="fil1" d="M3865.46 3397.15c-64.54,-23.18 -109.47,8.33 -130.48,106.59 3.62,-99.45 -42.89,-151.35 -123.41,-170.99 92.54,7.58 141.67,-33.51 141.36,-130.01 4.95,78.28 32.12,147.36 112.53,194.41z"/>
  <path class="fil1" d="M5958.21 4334.3c83.87,-30.12 142.26,10.83 169.57,138.52 -4.71,-129.24 55.72,-196.68 160.36,-222.21 -120.25,9.85 -184.1,-43.54 -183.7,-168.95 -6.43,101.73 -41.73,191.5 -146.23,252.64z"/>
  <path class="fil1" d="M4372.1 5407.55c-32.83,-127.7 -80.73,-179.12 -203.72,-203.57 121.34,-32.94 131.68,-121.86 124.1,-219.82 52.35,105.35 35.55,151.38 161.68,172.24 -90.48,52.76 -85.32,159.25 -82.06,251.15z"/>
  <path class="fil1" d="M11029.93 4910.68c-121.11,-43.5 -205.43,15.64 -244.86,200.03 6.79,-186.62 -80.48,-284.02 -231.58,-320.89 173.65,14.23 265.85,-62.87 265.27,-243.97 9.29,146.91 60.27,276.54 211.17,364.83z"/>
  <path class="fil1" d="M9885.63 5892.12c78.9,28.34 133.84,-10.19 159.53,-130.32 -4.43,121.59 52.43,185.04 150.87,209.06 -113.13,-9.27 -173.2,40.96 -172.82,158.94 -6.05,-95.7 -39.27,-180.16 -137.58,-237.68z"/>
  <path class="fil1" d="M9646.67 4901.45c-60.55,-21.75 -102.71,7.82 -122.43,100.01 3.4,-93.31 -40.24,-142.01 -115.79,-160.44 86.83,7.11 132.93,-31.44 132.64,-121.99 4.64,73.45 30.13,138.27 105.58,182.42z"/>
  <path class="fil1" d="M16709.38 4965.89c26.36,-102.51 64.81,-143.79 163.54,-163.42 -97.41,-26.44 -105.7,-97.82 -99.62,-176.45 -42.02,84.57 -28.54,121.52 -129.79,138.26 72.64,42.35 68.49,127.84 65.87,201.61z"/>
  <path class="fil1" d="M16337.24 7562.51c-72.36,-41.52 -133.56,-13.11 -181.14,100.63 26.93,-118.85 -17.22,-191.11 -109.62,-231.76 109.59,28.68 178.01,-10.35 199.55,-126.49 -11.82,95.2 5.17,184.03 91.21,257.62z"/>
  <path class="fil1" d="M12211.1 2998.24c11.33,-61.37 -26.38,-96.1 -123.91,-98.29 95.75,-13.5 137.58,-63.65 142.84,-138.67 8.31,83.7 55.87,120.55 148.15,104.05 -74.06,17.57 -135.59,53.38 -167.08,132.91z"/>
  <path class="fil1" d="M10621.54 2938.43c-60.55,-21.74 -102.71,7.83 -122.43,100.02 3.4,-93.31 -40.24,-142.01 -115.79,-160.44 86.83,7.11 132.93,-31.44 132.64,-121.99 4.64,73.45 30.13,138.27 105.58,182.41z"/>
  <path class="fil1" d="M10320.74 4126.04c-26.36,-102.52 -64.81,-143.79 -163.54,-163.42 97.41,-26.44 105.7,-97.83 99.62,-176.46 42.02,84.57 28.54,121.52 129.79,138.26 -72.64,42.36 -68.49,127.84 -65.87,201.62z"/>
  <path class="fil1" d="M13846.58 6249.64c-54.41,31.22 -100.43,9.86 -136.21,-75.67 20.25,89.37 -12.95,143.71 -82.43,174.27 82.41,-21.56 133.86,7.79 150.06,95.13 -8.89,-71.6 3.89,-138.4 68.58,-193.73z"/>
  <path class="fil1" d="M12035.88 7057.89c72.36,-41.52 133.56,-13.11 181.14,100.63 -26.93,-118.85 17.22,-191.11 109.61,-231.75 -109.58,28.67 -178,-10.36 -199.54,-126.5 11.82,95.21 -5.17,184.04 -91.21,257.62z"/>
  <path class="fil1" d="M14208.61 4096.71c121.1,-43.49 205.42,15.65 244.86,200.03 -6.8,-186.62 80.47,-284.02 231.58,-320.88 -173.66,14.22 -265.86,-62.87 -265.28,-243.98 -9.28,146.91 -60.27,276.55 -211.16,364.83z"/>
  <path class="fil1" d="M11304.36 9571.34c11.33,61.38 -26.38,96.1 -123.91,98.3 95.75,13.49 137.59,63.64 142.84,138.66 8.31,-83.7 55.88,-120.55 148.15,-104.05 -74.06,-17.57 -135.58,-53.38 -167.08,-132.91z"/>
  <path class="fil1" d="M16094.97 10280.68c83.87,-30.12 142.26,10.84 169.56,138.52 -4.7,-129.23 55.73,-196.68 160.37,-222.21 -120.25,9.85 -184.1,-43.53 -183.7,-168.95 -6.43,101.73 -41.73,191.51 -146.23,252.64z"/>
  <path class="fil1" d="M6938.73 10110.02c-54.42,31.22 -100.44,9.85 -136.22,-75.68 20.25,89.38 -12.95,143.71 -82.43,174.28 82.41,-21.57 133.86,7.78 150.06,95.12 -8.89,-71.59 3.89,-138.39 68.59,-193.72z"/>
  <path class="fil1" d="M6704.04 5643.8c72.36,-41.52 133.56,-13.11 181.15,100.63 -26.94,-118.85 17.22,-191.1 109.61,-231.75 -109.59,28.67 -178.01,-10.35 -199.55,-126.5 11.82,95.21 -5.17,184.04 -91.21,257.62z"/>
  <path class="fil1" d="M9714.3 9005.22c-14.75,79.97 34.38,125.22 161.46,128.08 -124.76,17.58 -179.27,82.92 -186.12,180.67 -10.83,-109.05 -72.8,-157.07 -193.04,-135.57 96.51,-22.89 176.67,-69.55 217.7,-173.18z"/>
  <polyline class="fil2 str0" points="10791.7,4828.27 9527.55,4860.24 6123.18,4277.23 4311.27,5195.86 "/>
  <path class="fil1" d="M2087.83 6240.28c55.53,-31.86 102.5,-10.06 139.02,77.23 -20.67,-91.21 13.22,-146.67 84.13,-177.86 -84.11,22.01 -136.62,-7.95 -153.15,-97.09 9.07,73.07 -3.97,141.25 -70,197.72z"/>
  <path class="fil1" d="M3943.53 1510.28c46.08,16.55 78.16,-5.95 93.16,-76.1 -2.59,71 30.61,108.05 88.1,122.08 -66.06,-5.42 -101.14,23.91 -100.92,92.81 -3.53,-55.89 -22.93,-105.2 -80.34,-138.79z"/>
  <path class="fil1" d="M6749.24 617.52c-55.53,31.87 -102.5,10.06 -139.02,-77.23 20.67,91.22 -13.22,146.67 -84.13,177.87 84.11,-22.01 136.62,7.94 153.15,97.08 -9.07,-73.07 3.97,-141.24 70,-197.72z"/>
  <path class="fil1" d="M1122.55 6089.65c-26.36,102.51 -64.81,143.79 -163.54,163.41 97.41,26.44 105.7,97.83 99.62,176.46 42.02,-84.57 28.54,-121.52 129.79,-138.26 -72.63,-42.36 -68.49,-127.84 -65.87,-201.61z"/>
  <path class="fil1" d="M2070.24 7234.04c72.36,41.52 133.56,13.11 181.14,-100.63 -26.94,118.85 17.22,191.1 109.61,231.75 -109.58,-28.67 -178.01,10.36 -199.55,126.5 11.83,-95.21 -5.17,-184.04 -91.2,-257.62z"/>
  <path class="fil1" d="M4998.59 4835.15c54.42,-31.22 100.44,-9.86 136.22,75.67 -20.26,-89.37 12.95,-143.71 82.42,-174.27 -82.4,21.56 -133.85,-7.79 -150.05,-95.13 8.89,71.6 -3.89,138.4 -68.59,193.73z"/>
  <path class="fil1" d="M5612.63 7727.02c-121.1,43.5 -205.42,-15.65 -244.86,-200.03 6.8,186.62 -80.47,284.02 -231.58,320.88 173.66,-14.22 265.86,62.87 265.28,243.98 9.28,-146.91 60.26,-276.55 211.16,-364.83z"/>
  <path class="fil1" d="M1736.96 3504.34c-83.86,30.13 -142.26,-10.83 -169.56,-138.51 4.7,129.23 -55.73,196.68 -160.37,222.2 120.25,-9.84 184.1,43.54 183.7,168.96 6.43,-101.74 41.73,-191.51 146.23,-252.65z"/>
  <path class="fil1" d="M8725.93 3467.97c7.93,121.3 42.64,175.68 150.22,217.54 -115.93,10.56 -140.57,89.72 -150.49,179.96 -29.5,-104.11 -6.34,-143.26 -117.39,-182.35 91.28,-33.51 104.86,-131.11 117.66,-215.15z"/>
  <polygon class="fil2 str0" points="16758.21,4795.96 14446.83,4014.31 13737.26,6308.67 16191.86,7484.02 "/>
  <polyline class="fil2 str0" points="8474.7,14452.59 11331.47,13443.14 13756.17,15168.67 13536.74,13025.98 "/>
  <line class="fil2 str0" x1="13155.61" y1="31682.07" x2="13422.11" y2= "34715.36" />
  <polyline class="fil2 str0" points="4807.68,14503.97 1969.02,16128.17 4423.62,17303.51 "/>
  <path class="fil1" d="M12271 31991.22c60.55,21.74 102.71,-7.83 122.43,-100.02 -3.4,93.31 40.24,142.01 115.79,160.44 -86.83,-7.11 -132.93,31.44 -132.64,121.99 -4.64,-73.45 -30.13,-138.27 -105.58,-182.41z"/>
  <path class="fil1" d="M12571.8 30803.61c26.36,102.52 64.81,143.79 163.54,163.42 -97.41,26.44 -105.7,97.83 -99.62,176.46 -42.02,-84.57 -28.54,-121.52 -129.79,-138.26 72.64,-42.36 68.49,-127.84 65.87,-201.62z"/>
  <path class="fil1" d="M16143.3 34312.13c55.53,-31.87 102.5,-10.06 139.02,77.23 -20.67,-91.22 13.22,-146.67 84.13,-177.87 -84.11,22.01 -136.62,-7.94 -153.15,-97.08 9.07,73.07 -3.97,141.24 -70,197.72z"/>
  <path class="fil1" d="M14166.61 31461.68c-7.93,-121.3 -42.64,-175.68 -150.22,-217.54 115.93,-10.56 140.57,-89.72 150.49,-179.96 29.5,104.11 6.34,143.26 117.39,182.35 -91.28,33.51 -104.86,131.11 -117.66,215.15z"/>
  <polyline class="fil2 str0" points="16254.87,34251.88 14150.33,31262.93 13155.61,31682.07 "/>
  <polyline class="fil2 str0" points="12620.63,30973.55 12390.11,32032.41 13155.61,31682.07 "/>
  <polyline class="fil2 str0" points="2215.62,7312.54 4404.7,8443.51 5374.41,7809.42 "/>
 </g>
</svg>
