<?xml version="1.0" encoding="UTF-8"?>
<!DOCTYPE svg PUBLIC "-//W3C//DTD SVG 1.1//EN" "http://www.w3.org/Graphics/SVG/1.1/DTD/svg11.dtd">
<!-- Creator: CorelDRAW 2018 (64-Bit Evaluation Version) -->
<svg xmlns="http://www.w3.org/2000/svg" xml:space="preserve" width="100%" height="100%" version="1.1" style="shape-rendering:geometricPrecision; text-rendering:geometricPrecision; image-rendering:optimizeQuality; fill-rule:evenodd; clip-rule:evenodd"
viewBox="0 0 5651.5 5651.5"
 xmlns:xlink="http://www.w3.org/1999/xlink">
 <defs>
  <style type="text/css">
   <![CDATA[
    .fil0 {fill:black}
    .fil1 {fill:yellow}
   ]]>
  </style>
 </defs>
 <g id="Layer_x0020_1">
  <metadata id="CorelCorpID_0Corel-Layer"/>
  <rect class="fil0" width="5651.5" height="5651.5"/>
  <path class="fil1" d="M768.41 1056.33c0,-59.83 48.49,-108.33 108.32,-108.33 -59.83,0 -108.32,-48.49 -108.32,-108.32 0,59.83 -48.5,108.32 -108.33,108.32 59.83,0 108.33,48.5 108.33,108.33z"/>
  <path class="fil1" d="M5103.96 3298.82c0,119.66 -96.99,216.65 -216.65,216.65 119.66,0 216.65,96.99 216.65,216.65 0,-119.66 96.99,-216.65 216.65,-216.65 -119.66,0 -216.65,-96.99 -216.65,-216.65z"/>
  <path class="fil1" d="M3265.43 4478.65c0,59.82 -48.49,108.32 -108.32,108.32 59.83,0 108.32,48.5 108.32,108.32 0,-59.82 48.5,-108.32 108.33,-108.32 -59.83,0 -108.33,-48.5 -108.33,-108.32z"/>
  <path class="fil1" d="M5092.81 766.01c0,59.83 -48.5,108.33 -108.33,108.33 59.83,0 108.33,48.49 108.33,108.32 0,-59.83 48.49,-108.32 108.32,-108.32 -59.83,0 -108.32,-48.5 -108.32,-108.33z"/>
  <path class="fil1" d="M2242.78 786.28c0,68.92 -55.86,124.78 -124.77,124.78 68.91,0 124.77,55.86 124.77,124.78 0,-68.92 55.87,-124.78 124.78,-124.78 -68.91,0 -124.78,-55.86 -124.78,-124.78z"/>
  <path class="fil1" d="M357.12 399.11c0,29.91 24.25,54.16 54.16,54.16 -29.91,0 -54.16,24.25 -54.16,54.16 0,-29.91 -24.25,-54.16 -54.16,-54.16 29.91,0 54.16,-24.25 54.16,-54.16z"/>
  <path class="fil1" d="M1523.73 2076.6c0,-29.91 24.25,-54.16 54.17,-54.16 -29.92,0 -54.17,-24.25 -54.17,-54.16 0,29.91 -24.24,54.16 -54.16,54.16 29.92,0 54.16,24.25 54.16,54.16z"/>
  <path class="fil1" d="M2839.57 2944.42c0,29.92 -24.25,54.16 -54.17,54.16 29.92,0 54.17,24.25 54.17,54.17 0,-29.92 24.24,-54.17 54.16,-54.17 -29.92,0 -54.16,-24.24 -54.16,-54.16z"/>
  <path class="fil1" d="M4513.96 5127.79c0,59.82 -48.5,108.32 -108.32,108.32 59.82,0 108.32,48.49 108.32,108.32 0,-59.83 48.5,-108.32 108.32,-108.32 -59.82,0 -108.32,-48.5 -108.32,-108.32z"/>
  <path class="fil1" d="M581.02 4544.61c0,29.91 24.25,54.16 54.16,54.16 -29.91,0 -54.16,24.25 -54.16,54.16 0,-29.91 -24.25,-54.16 -54.16,-54.16 29.91,0 54.16,-24.25 54.16,-54.16z"/>
  <path class="fil1" d="M2699.24 2489.86c0,-29.91 -24.25,-54.16 -54.16,-54.16 29.91,0 54.16,-24.25 54.16,-54.16 0,29.91 24.25,54.16 54.16,54.16 -29.91,0 -54.16,24.25 -54.16,54.16z"/>
  <path class="fil1" d="M1383.41 3357.69c0,29.91 24.25,54.16 54.16,54.16 -29.91,0 -54.16,24.25 -54.16,54.16 0,-29.91 -24.25,-54.16 -54.16,-54.16 29.91,0 54.16,-24.25 54.16,-54.16z"/>
  <path class="fil1" d="M2618.91 2840.47c0,-58.66 47.55,-106.22 106.21,-106.22 -58.66,0 -106.21,-47.55 -106.21,-106.22 0,58.67 -47.56,106.22 -106.22,106.22 58.66,0 106.22,47.56 106.22,106.22z"/>
  <path class="fil1" d="M3882.68 3604.18c0,29.91 -24.25,54.16 -54.16,54.16 29.91,0 54.16,24.25 54.16,54.16 0,-29.91 24.25,-54.16 54.16,-54.16 -29.91,0 -54.16,-24.25 -54.16,-54.16z"/>
  <path class="fil1" d="M1137.45 4543.78c0,-59.83 48.5,-108.32 108.32,-108.32 -59.82,0 -108.32,-48.5 -108.32,-108.33 0,59.83 -48.5,108.33 -108.32,108.33 59.82,0 108.32,48.49 108.32,108.32z"/>
  <path class="fil1" d="M707.02 3924.86c0,19.34 15.67,35.01 35.01,35.01 -19.34,0 -35.01,15.68 -35.01,35.02 0,-19.34 -15.68,-35.02 -35.02,-35.02 19.34,0 35.02,-15.67 35.02,-35.01z"/>
 </g>
</svg>
