<?xml version="1.0" encoding="UTF-8"?>
<!DOCTYPE svg PUBLIC "-//W3C//DTD SVG 1.1//EN" "http://www.w3.org/Graphics/SVG/1.1/DTD/svg11.dtd">
<!-- Creator: CorelDRAW 2018 (64-Bit Evaluation Version) -->
<svg xmlns="http://www.w3.org/2000/svg" xml:space="preserve" width="100%" height="100%" version="1.1" style="shape-rendering:geometricPrecision; text-rendering:geometricPrecision; image-rendering:optimizeQuality; fill-rule:evenodd; clip-rule:evenodd"
viewBox="0 0 2540 2540"
 xmlns:xlink="http://www.w3.org/1999/xlink">
 <defs>
  <style type="text/css">
   <![CDATA[
    .fil0 {fill:yellow}
   ]]>
  </style>
 </defs>
 <g id="Layer_x0020_1">
  <metadata id="CorelCorpID_0Corel-Layer"/>
  <path class="fil0" d="M2247.44 2405.83c0,13.52 -10.96,24.48 -24.48,24.48 13.52,0 24.48,10.95 24.48,24.47 0,-13.52 10.95,-24.47 24.47,-24.47 -13.52,0 -24.47,-10.96 -24.47,-24.48z"/>
  <path class="fil0" d="M2231.45 1496.87c0,13.52 -10.96,24.48 -24.48,24.48 13.52,0 24.48,10.95 24.48,24.47 0,-13.52 10.95,-24.47 24.47,-24.47 -13.52,0 -24.47,-10.96 -24.47,-24.48z"/>
  <path class="fil0" d="M187.74 2211.25c0,13.52 -10.95,24.48 -24.47,24.48 13.52,0 24.47,10.95 24.47,24.47 0,-13.52 10.96,-24.47 24.48,-24.47 -13.52,0 -24.48,-10.96 -24.48,-24.48z"/>
  <path class="fil0" d="M419.82 1867.4c0,27.04 -21.92,48.95 -48.95,48.95 27.03,0 48.95,21.92 48.95,48.95 0,-27.03 21.91,-48.95 48.95,-48.95 -27.04,0 -48.95,-21.91 -48.95,-48.95z"/>
  <path class="fil0" d="M2071.59 475.58c0,13.52 -10.96,24.47 -24.48,24.47 13.52,0 24.48,10.96 24.48,24.48 0,-13.52 10.95,-24.48 24.47,-24.48 -13.52,0 -24.47,-10.95 -24.47,-24.47z"/>
  <path class="fil0" d="M761.2 934.1c0,13.52 -10.95,24.47 -24.47,24.47 13.52,0 24.47,10.96 24.47,24.48 0,-13.52 10.96,-24.48 24.48,-24.48 -13.52,0 -24.48,-10.95 -24.48,-24.47z"/>
  <path class="fil0" d="M1846.7 329.51c0,13.52 -10.96,24.47 -24.48,24.47 13.52,0 24.48,10.96 24.48,24.48 0,-13.52 10.95,-24.48 24.47,-24.48 -13.52,0 -24.47,-10.95 -24.47,-24.47z"/>
  <path class="fil0" d="M1465.35 188.62c0,6.76 -5.47,12.24 -12.23,12.24 6.76,0 12.23,5.47 12.23,12.23 0,-6.76 5.48,-12.23 12.24,-12.23 -6.76,0 -12.24,-5.48 -12.24,-12.24z"/>
  <path class="fil0" d="M2320.3 1396.33c0,13.52 -10.96,24.48 -24.48,24.48 13.52,0 24.48,10.95 24.48,24.47 0,-13.52 10.95,-24.47 24.47,-24.47 -13.52,0 -24.47,-10.96 -24.47,-24.48z"/>
  <path class="fil0" d="M1258.31 1248.94c0,-6.76 5.47,-12.24 12.23,-12.24 -6.76,0 -12.23,-5.47 -12.23,-12.23 0,6.76 -5.48,12.23 -12.24,12.23 6.76,0 12.24,5.48 12.24,12.24z"/>
  <path class="fil0" d="M466.86 1377.26c0,13.52 10.96,24.48 24.48,24.48 -13.52,0 -24.48,10.95 -24.48,24.47 0,-13.52 -10.95,-24.47 -24.47,-24.47 13.52,0 24.47,-10.96 24.47,-24.48z"/>
  <path class="fil0" d="M848.21 1236.37c0,6.76 5.47,12.24 12.23,12.24 -6.76,0 -12.23,5.47 -12.23,12.23 0,-6.76 -5.48,-12.23 -12.24,-12.23 6.76,0 12.24,-5.48 12.24,-12.24z"/>
  <path class="fil0" d="M1714.06 1109.37c0,6.76 -5.47,12.24 -12.23,12.24 6.76,0 12.23,5.47 12.23,12.23 0,-6.76 5.48,-12.23 12.24,-12.23 -6.76,0 -12.24,-5.48 -12.24,-12.24z"/>
  <path class="fil0" d="M1382.99 821.63c0,-13.52 -10.96,-24.48 -24.48,-24.48 13.52,0 24.48,-10.95 24.48,-24.47 0,13.52 10.95,24.47 24.47,24.47 -13.52,0 -24.47,10.96 -24.47,24.48z"/>
  <path class="fil0" d="M1367.12 541.18c0,13.52 10.95,24.47 24.47,24.47 -13.52,0 -24.47,10.96 -24.47,24.48 0,-13.52 -10.96,-24.48 -24.48,-24.48 13.52,0 24.48,-10.95 24.48,-24.47z"/>
  <path class="fil0" d="M1469.99 519.36c0,-6.76 5.47,-12.24 12.23,-12.24 -6.76,0 -12.23,-5.47 -12.23,-12.23 0,6.76 -5.48,12.23 -12.24,12.23 6.76,0 12.24,5.48 12.24,12.24z"/>
  <path class="fil0" d="M404.01 753.5c0,-27.04 21.91,-48.95 48.95,-48.95 -27.04,0 -48.95,-21.92 -48.95,-48.95 0,27.03 -21.92,48.95 -48.95,48.95 27.03,0 48.95,21.91 48.95,48.95z"/>
  <path class="fil0" d="M496.62 293.8c0,-13.52 10.96,-24.48 24.48,-24.48 -13.52,0 -24.48,-10.95 -24.48,-24.47 0,13.52 -10.95,24.47 -24.47,24.47 13.52,0 24.47,10.96 24.47,24.48z"/>
  <path class="fil0" d="M2363.2 1766.86c0,54.07 -43.83,97.9 -97.9,97.9 54.07,0 97.9,43.83 97.9,97.9 0,-54.07 43.83,-97.9 97.9,-97.9 -54.07,0 -97.9,-43.83 -97.9,-97.9z"/>
  <path class="fil0" d="M1532.39 2300.01c0,27.04 -21.91,48.95 -48.95,48.95 27.04,0 48.95,21.92 48.95,48.95 0,-27.03 21.92,-48.95 48.95,-48.95 -27.03,0 -48.95,-21.91 -48.95,-48.95z"/>
  <path class="fil0" d="M2358.16 622.31c0,27.03 -21.91,48.95 -48.95,48.95 27.04,0 48.95,21.91 48.95,48.95 0,-27.04 21.92,-48.95 48.95,-48.95 -27.03,0 -48.95,-21.92 -48.95,-48.95z"/>
  <path class="fil0" d="M1084.65 602.7c0,39.09 -31.68,70.77 -70.77,70.77 39.09,0 70.77,31.68 70.77,70.77 0,-39.09 31.68,-70.77 70.77,-70.77 -39.09,0 -70.77,-31.68 -70.77,-70.77z"/>
  <path class="fil0" d="M1009.6 328.19c0,-6.76 5.47,-12.24 12.23,-12.24 -6.76,0 -12.23,-5.47 -12.23,-12.23 0,6.76 -5.48,12.23 -12.24,12.23 6.76,0 12.24,5.48 12.24,12.24z"/>
  <path class="fil0" d="M218.15 456.51c0,13.52 10.96,24.47 24.48,24.47 -13.52,0 -24.48,10.96 -24.48,24.48 0,-13.52 -10.95,-24.48 -24.47,-24.48 13.52,0 24.47,-10.95 24.47,-24.47z"/>
  <path class="fil0" d="M599.5 315.62c0,6.76 5.47,12.24 12.23,12.24 -6.76,0 -12.23,5.47 -12.23,12.23 0,-6.76 -5.48,-12.23 -12.24,-12.23 6.76,0 12.24,-5.48 12.24,-12.24z"/>
  <path class="fil0" d="M745.33 1214.55c0,-13.52 10.96,-24.48 24.48,-24.48 -13.52,0 -24.48,-10.95 -24.48,-24.47 0,13.52 -10.95,24.47 -24.47,24.47 13.52,0 24.47,10.96 24.47,24.48z"/>
  <path class="fil0" d="M1339.95 1606.71c0,13.52 -10.96,24.48 -24.48,24.48 13.52,0 24.48,10.95 24.48,24.47 0,-13.52 10.95,-24.47 24.47,-24.47 -13.52,0 -24.47,-10.96 -24.47,-24.48z"/>
 </g>
</svg>
