<?xml version="1.0" encoding="UTF-8"?>
<!DOCTYPE svg PUBLIC "-//W3C//DTD SVG 1.1//EN" "http://www.w3.org/Graphics/SVG/1.1/DTD/svg11.dtd">
<!-- Creator: CorelDRAW 2018 (64-Bit Evaluation Version) -->
<svg xmlns="http://www.w3.org/2000/svg" xml:space="preserve" width="100%" height="100%" version="1.1" style="shape-rendering:geometricPrecision; text-rendering:geometricPrecision; image-rendering:optimizeQuality; fill-rule:evenodd; clip-rule:evenodd"
viewBox="0 0 12700 12700"
 xmlns:xlink="http://www.w3.org/1999/xlink">
 <defs>
  <style type="text/css">
   <![CDATA[
    .fil0 {fill:black}
    .fil1 {fill:white}
   ]]>
  </style>
 </defs>
 <g id="Layer_x0020_1">
  <metadata id="CorelCorpID_0Corel-Layer"/>
  <rect class="fil0" width="12700" height="12700" rx="1270" ry="1270"/>
  <path class="fil1" d="M5083.09 7187.19c-379.89,48.81 -726.17,121.36 -1023.09,217.64 -132.34,42.88 -283.2,74.9 -406.79,75.59 -122.72,0.63 -224.92,-30.23 -276.86,-109.41 -185.41,-282.43 -348.82,-580.78 -466.17,-897.69 -118.23,-319.15 -189.49,-656.37 -189.49,-1014.14 0,-207.26 21.03,-411.56 61.23,-610.84 34.8,-172.46 83.64,-339.52 145.22,-500 -186.43,-79.73 -346.62,-208.58 -464.05,-370.11 -132.99,-182.91 -211.44,-407.69 -211.44,-650.54 0,-306.5 124.99,-584.2 327.02,-785.29 201.86,-200.99 480.6,-325.31 788.18,-325.31 207.08,0 401.35,56.54 567.88,154.87 143.73,84.86 266.69,201.06 359.42,339 284.13,-179.78 597.28,-323.32 931.44,-423.19 723.81,-216.32 1527.1,-216.32 2250.94,0 334.16,99.87 647.31,243.41 931.44,423.19 92.73,-137.94 215.69,-254.14 359.42,-339 166.53,-98.33 360.8,-154.87 567.88,-154.87 307.58,0 586.32,124.32 788.18,325.31 202.03,201.09 327.02,478.79 327.02,785.29 0,242.85 -78.45,467.63 -211.44,650.54 -117.43,161.53 -277.62,290.38 -464.05,370.11 61.58,160.48 110.42,327.54 145.22,500 40.2,199.28 61.23,403.58 61.23,610.84 0,357.77 -71.26,694.99 -189.49,1014.14 -117.35,316.91 -280.76,615.26 -466.17,897.69 -51.94,79.18 -154.14,110.04 -276.86,109.41 -123.59,-0.69 -274.45,-32.71 -406.79,-75.59 -296.92,-96.28 -643.2,-168.83 -1023.09,-217.64 -785.74,-100.87 -1750.2,-100.87 -2535.94,0zm2507.03 439.16c256.64,0 464.67,208.03 464.67,464.67 0,256.64 -208.03,464.67 -464.67,464.67 -256.64,0 -464.67,-208.03 -464.67,-464.67 0,-256.64 208.03,-464.67 464.67,-464.67zm-2478.12 0c256.64,0 464.67,208.03 464.67,464.67 0,256.64 -208.03,464.67 -464.67,464.67 -256.64,0 -464.67,-208.03 -464.67,-464.67 0,-256.64 208.03,-464.67 464.67,-464.67zm1083.81 -2582.8c-159.44,9.64 -409.89,51.06 -398.67,236.76 5.96,98.86 81.61,207.78 185.35,294.86 247.14,207.58 489.51,207.92 737.14,0 103.74,-87.08 179.39,-196 185.35,-294.86 11.22,-185.7 -239.23,-227.12 -398.67,-236.76 -74.78,-4.5 -235.72,-4.5 -310.5,0zm-1515.71 4619.01c-372.47,-317.75 -559.42,-790.12 -559.42,-1377.87 0,-127.25 -103.18,-230.42 -230.43,-230.42 -127.24,0 -230.42,103.17 -230.42,230.42 0,725.44 241.12,1317.33 721.47,1727.11 943.32,804.86 2996.2,804.86 3939.52,0 480.35,-409.78 721.47,-1001.67 721.47,-1727.11 0,-127.25 -103.18,-230.42 -230.42,-230.42 -127.25,0 -230.43,103.17 -230.43,230.42 0,587.75 -186.95,1060.12 -559.42,1377.87 -768.81,655.95 -2573.11,655.95 -3341.92,0zm2418.69 -1021.94c-4.45,-76.04 -69.77,-134.04 -145.81,-129.58 -76.04,4.46 -134.04,69.77 -129.58,145.81 20.73,333.53 -256.48,389.65 -414.27,399.47 -72.77,3.62 -27.17,3.62 -99.94,0 -157.8,-9.82 -451.2,-65.94 -430.47,-399.47 4.46,-76.04 -53.54,-141.35 -129.58,-145.81 -76.04,-4.46 -141.36,53.54 -145.81,129.58 -35.88,576.77 414.72,673.99 689.66,691.09 77.05,1.68 55.32,1.05 132.37,0 274.91,-17.1 709.31,-114.32 673.43,-691.09zm1346.87 -4630.9c384.88,0 695.84,310.96 695.84,695.84 0,384.45 -311.31,695.83 -695.84,695.83 -384.35,0 -695.83,-311.48 -695.83,-695.83 0,-384.53 311.13,-695.84 695.83,-695.84zm737.18 -645.84c-76.87,-86.49 -161,-169.61 -250.17,-249.2 -64.96,-54.13 -96.31,-152.05 -29.23,-217.78 100.05,-97.99 237.71,-141.01 379.76,-130.66 145.39,10.59 295.28,77.09 415.87,197.68 120.95,120.94 188.04,271.84 198.66,417.9 10.28,141.49 -32.67,278.39 -131.29,377 -123.48,123.48 -203.95,99.62 -255.99,47.69 -38.07,-38.18 -68.52,-89.94 -89.73,-126.14 -64.3,-109.79 -153.51,-221.61 -237.88,-316.49zm-4926.38 645.84c-384.88,0 -695.84,310.96 -695.84,695.84 0,384.45 311.31,695.83 695.84,695.83 384.35,0 695.83,-311.48 695.83,-695.83 0,-384.53 -311.13,-695.84 -695.83,-695.84zm-737.18 -645.84c76.87,-86.49 161,-169.61 250.17,-249.2 64.96,-54.13 96.31,-152.05 29.23,-217.78 -100.05,-97.99 -237.71,-141.01 -379.76,-130.66 -145.39,10.59 -295.28,77.09 -415.87,197.68 -120.95,120.94 -188.04,271.84 -198.66,417.9 -10.28,141.49 32.67,278.39 131.29,377 123.48,123.48 203.95,99.62 255.99,47.69 38.07,-38.18 68.52,-89.94 89.73,-126.14 64.3,-109.79 153.51,-221.61 237.88,-316.49z"/>
 </g>
</svg>
