<?xml version="1.0" encoding="UTF-8"?>
<!DOCTYPE svg PUBLIC "-//W3C//DTD SVG 1.1//EN" "http://www.w3.org/Graphics/SVG/1.1/DTD/svg11.dtd">
<!-- Creator: CorelDRAW 2018 (64-Bit Evaluation Version) -->
<svg xmlns="http://www.w3.org/2000/svg" xml:space="preserve" width="100%" height="100%" version="1.1" style="shape-rendering:geometricPrecision; text-rendering:geometricPrecision; image-rendering:optimizeQuality; fill-rule:evenodd; clip-rule:evenodd"
viewBox="0 0 12700 12700"
 xmlns:xlink="http://www.w3.org/1999/xlink">
 <defs>
  <style type="text/css">
   <![CDATA[
    .fil0 {fill:white}
   ]]>
  </style>
 </defs>
 <g id="Layer_x0020_1">
  <metadata id="CorelCorpID_0Corel-Layer"/>
  <path class="fil0" d="M4670.75 7452.78c-503.44,64.68 -962.32,160.83 -1355.8,288.42 -175.37,56.82 -375.29,99.25 -539.07,100.17 -162.63,0.83 -298.06,-40.07 -366.89,-144.99 -245.72,-374.28 -462.26,-769.65 -617.77,-1189.62 -156.67,-422.93 -251.12,-869.82 -251.12,-1343.94 0,-274.66 27.88,-545.39 81.15,-809.48 46.12,-228.54 110.83,-449.93 192.45,-662.6 -247.06,-105.66 -459.35,-276.41 -614.96,-490.46 -176.25,-242.39 -280.2,-540.27 -280.2,-862.1 0,-406.18 165.63,-774.17 433.36,-1040.66 267.5,-266.35 636.89,-431.1 1044.49,-431.1 274.43,0 531.87,74.92 752.56,205.23 190.46,112.45 353.41,266.44 476.29,449.24 376.54,-238.23 791.53,-428.47 1234.35,-560.81 959.19,-286.66 2023.71,-286.66 2982.94,0 442.82,132.34 857.81,322.58 1234.35,560.81 122.88,-182.8 285.83,-336.79 476.29,-449.24 220.69,-130.31 478.13,-205.23 752.56,-205.23 407.6,0 776.99,164.75 1044.49,431.1 267.73,266.49 433.36,634.48 433.36,1040.66 0,321.83 -103.95,619.71 -280.2,862.1 -155.61,214.05 -367.9,384.8 -614.96,490.46 81.62,212.67 146.33,434.06 192.45,662.6 53.27,264.09 81.15,534.82 81.15,809.48 0,474.12 -94.45,921.01 -251.12,1343.94 -155.51,419.97 -372.05,815.34 -617.77,1189.62 -68.83,104.92 -204.26,145.82 -366.89,144.99 -163.78,-0.92 -363.7,-43.35 -539.07,-100.17 -393.48,-127.59 -852.36,-223.74 -1355.8,-288.42 -1041.26,-133.68 -2319.36,-133.68 -3360.62,0zm1474.57 -2840.75c-211.28,12.78 -543.18,67.67 -528.31,313.75 7.89,131.01 108.15,275.36 245.62,390.76 327.51,275.07 648.7,275.53 976.86,0 137.47,-115.4 237.73,-259.75 245.62,-390.76 14.87,-246.08 -317.03,-300.97 -528.31,-313.75 -99.11,-5.96 -312.37,-5.96 -411.48,0zm-2008.61 6121.1c-493.6,-421.08 -741.35,-1047.07 -741.35,-1825.95 0,-168.62 -136.73,-305.35 -305.35,-305.35 -168.63,0 -305.36,136.73 -305.36,305.35 0,961.36 319.53,1745.73 956.09,2288.77 1250.09,1066.59 3970.55,1066.59 5220.64,0 636.56,-543.04 956.09,-1327.41 956.09,-2288.77 0,-168.62 -136.73,-305.35 -305.36,-305.35 -168.62,0 -305.35,136.73 -305.35,305.35 0,778.88 -247.75,1404.87 -741.35,1825.95 -1018.82,869.26 -3409.88,869.26 -4428.7,0zm3205.25 -1354.27c-5.91,-100.77 -92.47,-177.63 -193.24,-171.72 -100.77,5.91 -177.62,92.46 -171.71,193.23 27.46,441.99 -339.89,516.36 -549,529.37 -96.43,4.81 -36.01,4.81 -132.44,0 -209.11,-13.01 -597.92,-87.38 -570.46,-529.37 5.91,-100.77 -70.94,-187.32 -171.71,-193.23 -100.77,-5.91 -187.33,70.95 -193.24,171.72 -47.54,764.33 549.6,893.17 913.95,915.83 102.11,2.22 73.3,1.39 175.41,0 364.31,-22.66 939.98,-151.5 892.44,-915.83zm651.1 -1025.52c-163.97,0 -297.19,133.22 -297.19,297.19 0,163.73 133.69,297.18 297.19,297.18 163.32,0 297.18,-133.86 297.18,-297.18 0,-163.46 -133.63,-297.19 -297.18,-297.19zm1280.28 -4757.18c-221.76,0 -403.08,181.32 -403.08,403.08 0,221.76 181.32,403.08 403.08,403.08 221.76,0 403.08,-181.28 403.08,-403.08 0,-221.76 -181.28,-403.08 -403.08,-403.08zm-146.52 -354.15c510.04,0 922.12,412.08 922.12,922.12 0,509.48 -412.55,922.11 -922.12,922.11 -509.34,0 -922.11,-412.77 -922.11,-922.11 0,-509.58 412.31,-922.12 922.11,-922.12zm976.91 -855.87c-101.88,-114.62 -213.36,-224.76 -331.53,-330.24 -86.09,-71.73 -127.63,-201.49 -38.73,-288.6 132.58,-129.85 315.01,-186.86 503.25,-173.15 192.68,14.03 391.31,102.16 551.12,261.96 160.27,160.28 249.18,360.25 263.26,553.8 13.61,187.51 -43.3,368.92 -173.99,499.6 -163.64,163.64 -270.27,132.02 -339.23,63.2 -50.46,-50.6 -90.8,-119.19 -118.92,-167.15 -85.21,-145.5 -203.43,-293.68 -315.23,-419.42zm-5394.67 5967.2c163.97,0 297.19,133.22 297.19,297.19 0,163.73 -133.69,297.18 -297.19,297.18 -163.32,0 -297.18,-133.86 -297.18,-297.18 0,-163.46 133.63,-297.19 297.18,-297.19zm-1280.28 -4757.18c221.76,0 403.08,181.32 403.08,403.08 0,221.76 -181.32,403.08 -403.08,403.08 -221.76,0 -403.08,-181.28 -403.08,-403.08 0,-221.76 181.28,-403.08 403.08,-403.08zm146.52 -354.15c-510.04,0 -922.12,412.08 -922.12,922.12 0,509.48 412.55,922.11 922.12,922.11 509.34,0 922.11,-412.77 922.11,-922.11 0,-509.58 -412.31,-922.12 -922.11,-922.12zm-976.91 -855.87c101.88,-114.62 213.36,-224.76 331.53,-330.24 86.09,-71.73 127.63,-201.49 38.73,-288.6 -132.58,-129.85 -315.01,-186.86 -503.25,-173.15 -192.68,14.03 -391.31,102.16 -551.12,261.96 -160.27,160.28 -249.18,360.25 -263.26,553.8 -13.61,187.51 43.3,368.92 173.99,499.6 163.64,163.64 270.27,132.02 339.23,63.2 50.46,-50.6 90.8,-119.19 118.92,-167.15 85.21,-145.5 203.43,-293.68 315.23,-419.42z"/>
 </g>
</svg>
