<?xml version="1.0" encoding="UTF-8"?>
<!DOCTYPE svg PUBLIC "-//W3C//DTD SVG 1.1//EN" "http://www.w3.org/Graphics/SVG/1.1/DTD/svg11.dtd">
<!-- Creator: CorelDRAW 2018 (64-Bit Evaluation Version) -->
<svg xmlns="http://www.w3.org/2000/svg" xml:space="preserve" width="100%" height="100%" version="1.1" style="shape-rendering:geometricPrecision; text-rendering:geometricPrecision; image-rendering:optimizeQuality; fill-rule:evenodd; clip-rule:evenodd"
viewBox="0 0 12700 12700"
 xmlns:xlink="http://www.w3.org/1999/xlink">
 <defs>
  <style type="text/css">
   <![CDATA[
    .fil0 {fill:black}
    .fil1 {fill:white}
   ]]>
  </style>
 </defs>
 <g id="Layer_x0020_1">
  <metadata id="CorelCorpID_0Corel-Layer"/>
  <rect class="fil0" width="12700" height="12700" rx="2432.39" ry="2432.39"/>
  <path class="fil1" d="M4918.1 7293.46c-429.32,55.16 -820.66,137.15 -1156.22,245.96 -149.55,48.46 -320.04,84.64 -459.71,85.43 -138.69,0.7 -254.19,-34.17 -312.88,-123.65 -209.55,-319.18 -394.21,-656.35 -526.83,-1014.5 -133.61,-360.67 -214.16,-741.77 -214.16,-1146.1 0,-234.23 23.78,-465.11 69.21,-690.32 39.33,-194.9 94.52,-383.7 164.12,-565.06 -210.69,-90.11 -391.73,-235.72 -524.44,-418.26 -150.3,-206.71 -238.95,-460.74 -238.95,-735.2 0,-346.38 141.25,-660.21 369.57,-887.47 228.13,-227.14 543.13,-367.63 890.73,-367.63 234.03,0 453.58,63.89 641.78,175.02 162.43,95.89 301.39,227.22 406.18,383.11 321.11,-203.17 675.01,-365.4 1052.65,-478.26 817.98,-244.46 1725.8,-244.46 2543.82,0 377.64,112.86 731.54,275.09 1052.65,478.26 104.79,-155.89 243.75,-287.22 406.18,-383.11 188.2,-111.13 407.75,-175.02 641.78,-175.02 347.6,0 662.6,140.49 890.73,367.63 228.32,227.26 369.57,541.09 369.57,887.47 0,274.46 -88.65,528.49 -238.95,735.2 -132.71,182.54 -313.75,328.15 -524.44,418.26 69.6,181.36 124.79,370.16 164.12,565.06 45.43,225.21 69.21,456.09 69.21,690.32 0,404.33 -80.55,785.43 -214.16,1146.1 -132.62,358.15 -317.28,695.32 -526.83,1014.5 -58.69,89.48 -174.19,124.35 -312.88,123.65 -139.67,-0.79 -310.16,-36.97 -459.71,-85.43 -335.56,-108.81 -726.9,-190.8 -1156.22,-245.96 -887.98,-114 -1977.94,-114 -2865.92,0zm1257.51 -2422.58c-180.18,10.91 -463.22,57.72 -450.55,267.57 6.73,111.73 92.24,234.82 209.47,333.24 279.3,234.58 553.21,234.97 833.06,0 117.23,-98.42 202.74,-221.51 209.47,-333.24 12.67,-209.85 -270.37,-256.66 -450.55,-267.57 -84.51,-5.07 -266.39,-5.07 -350.9,0zm-1712.93 5220.04c-420.94,-359.09 -632.22,-892.93 -632.22,-1557.15 0,-143.81 -116.6,-260.41 -260.41,-260.41 -143.8,0 -260.4,116.6 -260.4,260.41 0,819.83 272.49,1488.74 815.35,1951.84 1066.06,909.59 3386.06,909.59 4452.12,0 542.86,-463.1 815.35,-1132.01 815.35,-1951.84 0,-143.81 -116.6,-260.41 -260.4,-260.41 -143.81,0 -260.41,116.6 -260.41,260.41 0,664.22 -211.28,1198.06 -632.22,1557.15 -868.84,741.3 -2907.92,741.3 -3776.76,0zm2733.41 -1154.91c-5.04,-85.94 -78.85,-151.48 -164.79,-146.44 -85.93,5.03 -151.48,78.85 -146.44,164.78 23.42,376.93 -289.85,440.35 -468.18,451.45 -82.23,4.09 -30.7,4.09 -112.94,0 -178.33,-11.1 -509.9,-74.52 -486.48,-451.45 5.04,-85.93 -60.51,-159.75 -146.44,-164.78 -85.94,-5.04 -159.75,60.5 -164.79,146.44 -40.55,651.82 468.69,761.69 779.41,781.02 87.07,1.89 62.51,1.18 149.59,0 310.67,-19.33 801.61,-129.2 761.06,-781.02zm555.26 -874.56c-139.83,0 -253.44,113.61 -253.44,253.44 0,139.63 114,253.44 253.44,253.44 139.27,0 253.43,-114.16 253.43,-253.44 0,-139.39 -113.96,-253.44 -253.43,-253.44zm966.86 -4358.91c434.96,0 786.38,351.42 786.38,786.38 0,434.48 -351.82,786.37 -786.38,786.37 -434.36,0 -786.37,-352.01 -786.37,-786.37 0,-434.56 351.61,-786.38 786.37,-786.38zm833.1 -729.88c-86.88,-97.75 -181.95,-191.67 -282.72,-281.62 -73.42,-61.18 -108.85,-171.84 -33.03,-246.12 113.06,-110.74 268.63,-159.35 429.17,-147.66 164.31,11.97 333.7,87.12 469.99,223.4 136.67,136.68 212.49,307.21 224.5,472.27 11.61,159.91 -36.93,314.62 -148.37,426.06 -139.55,139.55 -230.49,112.59 -289.3,53.89 -43.03,-43.14 -77.43,-101.64 -101.41,-142.54 -72.67,-124.08 -173.48,-250.45 -268.83,-357.68zm-4600.54 5088.79c139.83,0 253.44,113.61 253.44,253.44 0,139.63 -114,253.44 -253.44,253.44 -139.27,0 -253.43,-114.16 -253.43,-253.44 0,-139.39 113.96,-253.44 253.43,-253.44zm-966.86 -4358.91c-434.96,0 -786.38,351.42 -786.38,786.38 0,434.48 351.82,786.37 786.38,786.37 434.36,0 786.37,-352.01 786.37,-786.37 0,-434.56 -351.61,-786.38 -786.37,-786.38zm-833.1 -729.88c86.88,-97.75 181.95,-191.67 282.72,-281.62 73.42,-61.18 108.85,-171.84 33.03,-246.12 -113.06,-110.74 -268.63,-159.35 -429.17,-147.66 -164.31,11.97 -333.7,87.12 -469.99,223.4 -136.67,136.68 -212.49,307.21 -224.5,472.27 -11.61,159.91 36.93,314.62 148.37,426.06 139.55,139.55 230.49,112.59 289.3,53.89 43.03,-43.14 77.43,-101.64 101.41,-142.54 72.67,-124.08 173.48,-250.45 268.83,-357.68z"/>
 </g>
</svg>
