<?xml version="1.0" encoding="UTF-8"?>
<!DOCTYPE svg PUBLIC "-//W3C//DTD SVG 1.1//EN" "http://www.w3.org/Graphics/SVG/1.1/DTD/svg11.dtd">
<!-- Creator: CorelDRAW 2018 (64-Bit Evaluation Version) -->
<svg xmlns="http://www.w3.org/2000/svg" xml:space="preserve" width="100%" height="100%" version="1.1" style="shape-rendering:geometricPrecision; text-rendering:geometricPrecision; image-rendering:optimizeQuality; fill-rule:evenodd; clip-rule:evenodd"
viewBox="0 0 40640 22860"
 xmlns:xlink="http://www.w3.org/1999/xlink">
 <defs>
  <style type="text/css">
   <![CDATA[
    .fil17 {fill:#13966D}
    .fil19 {fill:#003399}
    .fil25 {fill:lime}
    .fil7 {fill:#1A1A1A}
    .fil23 {fill:#333333}
    .fil13 {fill:#5A44B3}
    .fil12 {fill:#6666FF}
    .fil24 {fill:#999999}
    .fil26 {fill:#9999FF}
    .fil32 {fill:#9E3F00}
    .fil31 {fill:#E34400}
    .fil30 {fill:#FF6600}
    .fil1 {fill:white}
    .fil3 {fill:#F54029}
    .fil16 {fill:#ED2E38}
    .fil8 {fill:#CF035C}
    .fil18 {fill:#008CCC}
    .fil0 {fill:#00B394}
    .fil2 {fill:white;fill-opacity:0.168627}
    .fil11 {fill:white;fill-opacity:0.478431}
    .fil4 {fill:black;fill-opacity:0.501961}
    .fil6 {fill:#666666;fill-opacity:0.501961}
    .fil9 {fill:#999999;fill-opacity:0.501961}
    .fil5 {fill:white;fill-opacity:0.501961}
    .fil10 {fill:white;fill-opacity:0.701961}
    .fil20 {fill:url(#id14);fill-opacity:0.501961}
    .fil14 {fill:url(#id15);fill-opacity:0.501961}
    .fil15 {fill:url(#id16);fill-opacity:0.501961}
    .fil22 {fill:url(#id17);fill-opacity:0.501961}
    .fil33 {fill:url(#id18);fill-opacity:0.501961}
    .fil34 {fill:url(#id19);fill-opacity:0.501961}
    .fil29 {fill:url(#id20);fill-opacity:0.501961}
    .fil27 {fill:url(#id21);fill-opacity:0.501961}
    .fil28 {fill:url(#id22);fill-opacity:0.501961}
    .fil21 {fill:url(#id23);fill-opacity:0.501961}
   ]]>
  </style>
  <mask id="id0">
  <linearGradient id="id1" gradientUnits="userSpaceOnUse" x1="18512.54" y1="9570.03" x2="20929.1" y2="12127.67">
   <stop offset="0" style="stop-opacity:1; stop-color:white"/>
   <stop offset="1" style="stop-opacity:0; stop-color:white"/>
  </linearGradient>
   <rect style="fill:url(#id1)" x="18791.28" y="9958.07" width="2079.29" height="2079.29"/>
  </mask>
     <mask id="id2">
  <linearGradient id="id3" gradientUnits="userSpaceOnUse" x1="29317.43" y1="8158.04" x2="29546.74" y2="12938.18">
   <stop offset="0" style="stop-opacity:1; stop-color:white"/>
   <stop offset="1" style="stop-opacity:0; stop-color:white"/>
  </linearGradient>
      <rect style="fill:url(#id3)" x="28597.4" y="9103.46" width="3509.65" height="3509.65"/>
     </mask>
     <mask id="id4">
  <linearGradient id="id5" gradientUnits="userSpaceOnUse" x1="28602.98" y1="9181.09" x2="31019.54" y2="11738.73">
   <stop offset="0" style="stop-opacity:1; stop-color:white"/>
   <stop offset="1" style="stop-opacity:0; stop-color:white"/>
  </linearGradient>
      <rect style="fill:url(#id5)" x="28881.72" y="9569.13" width="2079.29" height="2079.29"/>
     </mask>
     <mask id="id6">
  <linearGradient id="id7" gradientUnits="userSpaceOnUse" x1="23127.59" y1="15474.19" x2="25879.26" y2="18913.78">
   <stop offset="0" style="stop-opacity:1; stop-color:white"/>
   <stop offset="1" style="stop-opacity:0; stop-color:white"/>
  </linearGradient>
      <rect style="fill:url(#id7)" x="23159.73" y="15938.73" width="2376.67" height="2376.67"/>
     </mask>
     <mask id="id8">
  <linearGradient id="id9" gradientUnits="userSpaceOnUse" x1="24659.79" y1="15229.35" x2="24765.63" y2="17081.44">
   <stop offset="0" style="stop-opacity:1; stop-color:white"/>
   <stop offset="1" style="stop-opacity:0; stop-color:white"/>
  </linearGradient>
      <rect style="fill:url(#id9)" x="23427.05" y="16206.05" width="1017.74" height="1017.74"/>
     </mask>
     <mask id="id10">
  <linearGradient id="id11" gradientUnits="userSpaceOnUse" x1="8898.83" y1="7709" x2="10090.23" y2="9198.25">
   <stop offset="0" style="stop-opacity:1; stop-color:white"/>
   <stop offset="1" style="stop-opacity:0; stop-color:white"/>
  </linearGradient>
      <rect style="fill:url(#id11)" x="8907.08" y="7904.47" width="1040.37" height="1040.37"/>
     </mask>
     <mask id="id12">
  <linearGradient id="id13" gradientUnits="userSpaceOnUse" x1="9562.23" y1="7602.99" x2="9608.06" y2="8404.9">
   <stop offset="0" style="stop-opacity:1; stop-color:white"/>
   <stop offset="1" style="stop-opacity:0; stop-color:white"/>
  </linearGradient>
      <rect style="fill:url(#id13)" x="9022.82" y="8020.21" width="451.99" height="451.99"/>
     </mask>
  <radialGradient id="id14" gradientUnits="userSpaceOnUse" gradientTransform="matrix(1 -0 -0 1 0 0)" cx="29921.37" cy="10608.78" r="3306.29" fx="29921.37" fy="10608.78">
   <stop offset="0" style="stop-opacity:1; stop-color:white"/>
   <stop offset="1" style="stop-opacity:1; stop-color:black"/>
  </radialGradient>
  <radialGradient id="id15" gradientUnits="userSpaceOnUse" gradientTransform="matrix(1 -0 -0 1 0 0)" cx="36425.94" cy="14710.83" r="3306.29" fx="36425.94" fy="14710.83">
   <stop offset="0" style="stop-opacity:1; stop-color:#E3A1FF"/>
   <stop offset="1" style="stop-opacity:1; stop-color:black"/>
  </radialGradient>
  <radialGradient id="id16" gradientUnits="userSpaceOnUse" gradientTransform="matrix(1 -0 -0 1 0 0)" cx="6970.2" cy="13900.84" r="5867.41" fx="6970.2" fy="13900.84">
   <stop offset="0" style="stop-opacity:1; stop-color:#FF0099"/>
   <stop offset="1" style="stop-opacity:1; stop-color:black"/>
  </radialGradient>
  <radialGradient id="id17" gradientUnits="userSpaceOnUse" gradientTransform="matrix(1 -0 -0 1 0 0)" cx="13924.9" cy="15334.05" r="3103.5" fx="13924.9" fy="15334.05">
   <stop offset="0" style="stop-opacity:1; stop-color:#57B9FF"/>
   <stop offset="1" style="stop-opacity:1; stop-color:black"/>
  </radialGradient>
  <radialGradient id="id18" gradientUnits="userSpaceOnUse" gradientTransform="matrix(1 -0 -0 1 0 0)" cx="9248.82" cy="8246.21" r="1454.39" fx="9248.82" fy="8246.21">
   <stop offset="0" style="stop-opacity:1; stop-color:#FF6A00"/>
   <stop offset="1" style="stop-opacity:1; stop-color:black"/>
  </radialGradient>
  <radialGradient id="id19" gradientUnits="userSpaceOnUse" gradientTransform="matrix(1 -0 -0 1 0 0)" cx="31180.97" cy="19346.31" r="1454.39" fx="31180.97" fy="19346.31">
   <stop offset="0" style="stop-opacity:1; stop-color:red"/>
   <stop offset="1" style="stop-opacity:1; stop-color:black"/>
  </radialGradient>
  <radialGradient id="id20" gradientUnits="userSpaceOnUse" gradientTransform="matrix(1 -0 -0 1 0 0)" cx="22865.37" cy="12114.49" r="1720.67" fx="22865.37" fy="12114.49">
   <stop offset="0" style="stop-opacity:1; stop-color:#BF7FFF"/>
   <stop offset="1" style="stop-opacity:1; stop-color:black"/>
  </radialGradient>
  <radialGradient id="id21" gradientUnits="userSpaceOnUse" gradientTransform="matrix(1 -0 -0 1 0 0)" xlink:href="#id14" cx="24167.86" cy="16448" r="1809.64" fx="24167.86" fy="16448">
  </radialGradient>
  <radialGradient id="id22" gradientUnits="userSpaceOnUse" gradientTransform="matrix(1 -0 -0 1 0 0)" cx="15022.14" cy="4022.98" r="3686.53" fx="15022.14" fy="4022.98">
   <stop offset="0" style="stop-opacity:1; stop-color:#A1FFA9"/>
   <stop offset="1" style="stop-opacity:1; stop-color:black"/>
  </radialGradient>
  <radialGradient id="id23" gradientUnits="userSpaceOnUse" gradientTransform="matrix(1 -0 -0 1 0 0)" cx="24142.79" cy="7875.02" r="3686.53" fx="24142.79" fy="7875.02">
   <stop offset="0" style="stop-opacity:1; stop-color:#FFA1A1"/>
   <stop offset="1" style="stop-opacity:1; stop-color:black"/>
  </radialGradient>
 </defs>
<symbol id="jewel_circle" viewBox="18393.83 9503.83 3852.34 3852.34">
 <circle id="fill" class="fil0" cx="20320" cy="11430" r="1926.17"/>
 <path id="shine" class="fil1" style="mask:url(#id0)" d="M19830.93 9968.07c568.65,0 1029.64,460.99 1029.64,1029.65 0,568.65 -460.99,1029.64 -1029.64,1029.64 -568.66,0 -1029.65,-460.99 -1029.65,-1029.64 0,-568.66 460.99,-1029.65 1029.65,-1029.65z"/>
 <path id="light" class="fil2" d="M20320 9503.83c945.62,0 1712.21,766.59 1712.21,1712.21 0,945.62 -766.59,1712.21 -1712.21,1712.21 -945.62,0 -1712.21,-766.59 -1712.21,-1712.21 0,-945.62 766.59,-1712.21 1712.21,-1712.21z"/>
</symbol>
<symbol id="square-jewel" viewBox="18901.84 10011.83 2836.33 2836.33">
 <rect id="fill_0" class="fil3" x="18901.84" y="10011.83" width="2836.33" height="2836.33"/>
 <polygon id="dark" class="fil4" points="20320,11429.99 21738.17,12848.16 18901.84,12848.16 "/>
 <polygon id="light_1" class="fil5" points="18901.84,10011.83 20320,11429.99 21738.17,10011.83 "/>
 <polygon id="dark_2" class="fil6" points="20320,11429.99 18901.84,10011.83 18901.84,12848.16 "/>
</symbol>
<symbol id="shine_3" viewBox="15218.02 6328.02 10203.96 10203.96">
 <circle id="red_shine" class="fil7" cx="20320" cy="11430" r="5101.98"/>
</symbol>
<symbol id="star-jewel" viewBox="15151.45 6261.46 10337.09 10337.09">
 <path id="fill_4" class="fil8" d="M15151.45 11263.22c2854.51,92.13 5093.88,2480.81 5001.76,5335.33 92.12,-2854.52 2480.82,-5093.87 5335.33,-5001.76 -2854.51,-92.11 -5093.86,-2480.82 -5001.76,-5335.33 -92.1,2854.51 -2480.82,5093.89 -5335.33,5001.76z"/>
 <path id="dark_5" class="fil6" d="M21646.36 11472.79c-732.53,-23.64 -1345.53,551.04 -1369.16,1283.57l-123.99 3842.19c92.12,-2854.52 2480.82,-5093.87 5335.33,-5001.76l-3842.18 -124z"/>
 <path id="mid" class="fil9" d="M20362.8 10103.64c-23.64,732.53 551.03,1345.51 1283.56,1369.15l3842.18 124c-2854.51,-92.11 -5093.86,-2480.82 -5001.76,-5335.33l-123.98 3842.18z"/>
 <path id="light_6" class="fil10" d="M18993.64 11387.2c732.53,23.64 1345.52,-551.03 1369.16,-1283.56l123.98 -3842.18c-92.1,2854.51 -2480.82,5093.89 -5335.33,5001.76l3842.19 123.98z"/>
 <path id="center" class="fil11" d="M20362.8 10103.64c-23.64,732.53 -636.63,1307.2 -1369.16,1283.56 732.53,23.64 1307.19,636.63 1283.56,1369.16 23.63,-732.53 636.63,-1307.21 1369.16,-1283.57 -732.53,-23.64 -1307.2,-636.62 -1283.56,-1369.15z"/>
</symbol>
 <g id="Layer_x0020_1">
  <metadata id="CorelCorpID_0Corel-Layer"/>
  <g id="layer_0">
   <g id="jewel_9">
    <path class="fil8" d="M1774.22 14896.45c2854.51,92.13 5093.88,2480.81 5001.76,5335.33 92.12,-2854.52 2480.82,-5093.87 5335.33,-5001.76 -2854.51,-92.11 -5093.86,-2480.82 -5001.76,-5335.33 -92.1,2854.51 -2480.82,5093.89 -5335.33,5001.76z"/>
    <path class="fil6" d="M8269.13 15106.02c-732.53,-23.64 -1345.53,551.04 -1369.16,1283.57l-123.99 3842.19c92.12,-2854.52 2480.82,-5093.87 5335.33,-5001.76l-3842.18 -124z"/>
    <path class="fil9" d="M6985.57 13736.87c-23.64,732.53 551.03,1345.51 1283.56,1369.15l3842.18 124c-2854.51,-92.11 -5093.86,-2480.82 -5001.76,-5335.33l-123.98 3842.18z"/>
    <path class="fil10" d="M5616.41 15020.43c732.53,23.64 1345.52,-551.03 1369.16,-1283.56l123.98 -3842.18c-92.1,2854.51 -2480.82,5093.89 -5335.33,5001.76l3842.19 123.98z"/>
    <path class="fil11" d="M6985.57 13736.87c-23.64,732.53 -636.63,1307.2 -1369.16,1283.56 732.53,23.64 1307.19,636.63 1283.56,1369.16 23.63,-732.53 636.63,-1307.21 1369.16,-1283.57 -732.53,-23.64 -1307.2,-636.62 -1283.56,-1369.15z"/>
   </g>
   <g id="jewel_8">
    <rect class="fil12" transform="matrix(0.543189 -0.839611 0.839611 0.543189 35145.2 15440.5)" width="2836.33" height="2836.33"/>
    <polygon class="fil13" points="35145.25,15440.47 37106.28,15020.09 39067.32,14599.72 37526.66,16981.13 "/>
    <polygon class="fil5" points="35145.25,15440.47 37106.28,15020.09 36685.91,13059.06 "/>
   </g>
   <path id="shine_violet" class="fil14" d="M36425.94 11404.54c1826.01,0 3306.29,1480.28 3306.29,3306.29 0,1826.01 -1480.28,3306.29 -3306.29,3306.29 -1826.01,0 -3306.29,-1480.28 -3306.29,-3306.29 0,-1826.01 1480.28,-3306.29 3306.29,-3306.29z"/>
   <path id="shine_pink" class="fil15" d="M6970.2 8033.43c3240.47,0 5867.41,2626.94 5867.41,5867.41 0,3240.47 -2626.94,5867.41 -5867.41,5867.41 -3240.47,0 -5867.41,-2626.94 -5867.41,-5867.41 0,-3240.47 2626.94,-5867.41 5867.41,-5867.41z"/>
  </g>
  <g id="layer_1">
   <g id="jewel_7">
    <rect class="fil3" transform="matrix(0.95266 -0.304038 0.304038 0.95266 22791.5 7177.6)" width="2836.33" height="2836.33"/>
    <polygon class="fil16" points="22791.53,7177.6 24573.73,8097.45 26355.94,9017.31 23653.88,9879.66 "/>
    <polygon class="fil5" points="22791.53,7177.6 24573.73,8097.45 25493.59,6315.25 "/>
   </g>
   <g id="jewel_6">
    <circle class="fil17" cx="30352.22" cy="11039.63" r="1926.17"/>
    <path class="fil0" style="mask:url(#id2)" d="M30352.22 9113.46c963.64,0 1744.83,781.19 1744.83,1744.82 0,963.64 -781.19,1744.83 -1744.83,1744.83 -963.63,0 -1744.82,-781.19 -1744.82,-1744.83 0,-963.63 781.19,-1744.82 1744.82,-1744.82z"/>
    <path class="fil1" style="mask:url(#id4)" d="M29921.37 9579.13c568.65,0 1029.64,460.99 1029.64,1029.65 0,568.65 -460.99,1029.64 -1029.64,1029.64 -568.66,0 -1029.65,-460.99 -1029.65,-1029.64 0,-568.66 460.99,-1029.65 1029.65,-1029.65z"/>
   </g>
   <g id="jewel_5">
    <rect class="fil18" transform="matrix(0.921179 0.389139 -0.389139 0.921179 13547.6 14404.9)" width="2836.33" height="2836.33"/>
    <polygon class="fil19" points="13547.64,14404.93 14302.15,16263.17 15056.67,18121.43 12443.91,17017.7 "/>
    <polygon class="fil5" points="13547.64,14404.93 14302.15,16263.17 16160.4,15508.66 "/>
   </g>
   <path id="shine_green_2" class="fil20" d="M29921.37 7302.49c1826.01,0 3306.29,1480.28 3306.29,3306.29 0,1826.01 -1480.28,3306.29 -3306.29,3306.29 -1826.01,0 -3306.29,-1480.28 -3306.29,-3306.29 0,-1826.01 1480.28,-3306.29 3306.29,-3306.29z"/>
   <path id="shine_orange_2" class="fil21" d="M24142.79 4188.49c2036.01,0 3686.53,1650.52 3686.53,3686.53 0,2036.01 -1650.52,3686.53 -3686.53,3686.53 -2036.01,0 -3686.53,-1650.52 -3686.53,-3686.53 0,-2036.01 1650.52,-3686.53 3686.53,-3686.53z"/>
   <path id="shine_blue" class="fil22" d="M13924.9 12230.55c1714.01,0 3103.5,1389.49 3103.5,3103.5 0,1714.01 -1389.49,3103.5 -3103.5,3103.5 -1714.01,0 -3103.5,-1389.49 -3103.5,-3103.5 0,-1714.01 1389.49,-3103.5 3103.5,-3103.5z"/>
  </g>
  <g id="layer_2">
   <g id="jewel_0">
    <circle class="fil23" cx="24434.79" cy="17213.8" r="1315.86"/>
    <path class="fil24" style="mask:url(#id6)" d="M24348.06 15948.73c650.78,0 1178.34,527.56 1178.34,1178.34 0,650.77 -527.56,1178.33 -1178.34,1178.33 -650.77,0 -1178.33,-527.56 -1178.33,-1178.33 0,-650.78 527.56,-1178.34 1178.33,-1178.34z"/>
    <path class="fil1" style="mask:url(#id8)" d="M23935.92 16216.05c275.52,0 498.87,223.35 498.87,498.87 0,275.52 -223.35,498.87 -498.87,498.87 -275.52,0 -498.87,-223.35 -498.87,-498.87 0,-275.52 223.35,-498.87 498.87,-498.87z"/>
   </g>
   <g id="jewel_1">
    <path class="fil25" d="M12375.42 3587.27c1644.16,1021.35 2149.07,3182.16 1127.72,4826.33 1021.35,-1644.17 3182.16,-2149.06 4826.33,-1127.72 -1644.17,-1021.34 -2149.06,-3182.16 -1127.72,-4826.33 -1021.34,1644.17 -3182.17,2149.07 -4826.33,1127.72z"/>
    <path class="fil6" d="M16116.42 5911.14c-421.93,-262.1 -976.45,-132.53 -1238.54,289.4l-1374.74 2213.06c1021.35,-1644.17 3182.16,-2149.06 4826.33,-1127.72l-2213.05 -1374.74z"/>
    <path class="fil9" d="M15827.02 4672.6c-262.1,421.93 -132.53,976.44 289.4,1238.54l2213.05 1374.74c-1644.17,-1021.34 -2149.06,-3182.16 -1127.72,-4826.33l-1374.73 2213.05z"/>
    <path class="fil10" d="M14588.48 4962c421.93,262.1 976.44,132.53 1238.54,-289.4l1374.73 -2213.05c-1021.34,1644.17 -3182.17,2149.07 -4826.33,1127.72l2213.06 1374.73z"/>
    <path class="fil11" d="M15827.02 4672.6c-262.1,421.93 -816.61,551.5 -1238.54,289.4 421.93,262.1 551.49,816.61 289.4,1238.54 262.09,-421.93 816.61,-551.5 1238.54,-289.4 -421.93,-262.1 -551.5,-816.61 -289.4,-1238.54z"/>
   </g>
   <g id="jewel_2">
    <path class="fil26" d="M21211.58 12977.04c971.63,-227.03 1943.33,376.58 2170.36,1348.21 -227.03,-971.63 376.58,-1943.33 1348.21,-2170.36 -971.63,227.03 -1943.33,-376.58 -2170.36,-1348.21 227.03,971.63 -376.58,1943.33 -1348.21,2170.36z"/>
    <path class="fil6" d="M23422.34 12460.47c-249.34,58.26 -404.25,307.62 -345.98,556.96l305.58 1307.82c-227.03,-971.63 376.58,-1943.33 1348.21,-2170.36l-1307.81 305.58z"/>
    <path class="fil9" d="M22865.37 12114.49c58.27,249.34 307.63,404.24 556.97,345.98l1307.81 -305.58c-971.63,227.03 -1943.33,-376.58 -2170.36,-1348.21l305.58 1307.81z"/>
    <path class="fil10" d="M22519.4 12671.45c249.34,-58.26 404.24,-307.62 345.97,-556.96l-305.58 -1307.81c227.03,971.63 -376.58,1943.33 -1348.21,2170.36l1307.82 -305.59z"/>
    <path class="fil11" d="M22865.37 12114.49c58.27,249.34 -96.63,498.7 -345.97,556.96 249.34,-58.26 498.69,96.64 556.96,345.98 -58.27,-249.34 96.64,-498.7 345.98,-556.96 -249.34,58.26 -498.7,-96.64 -556.97,-345.98z"/>
   </g>
   <path id="shine_grey" class="fil27" d="M24167.86 14638.36c999.43,0 1809.64,810.21 1809.64,1809.64 0,999.43 -810.21,1809.64 -1809.64,1809.64 -999.43,0 -1809.64,-810.21 -1809.64,-1809.64 0,-999.43 810.21,-1809.64 1809.64,-1809.64z"/>
   <path id="shine_green" class="fil28" d="M15022.14 336.45c2036.01,0 3686.53,1650.52 3686.53,3686.53 0,2036.01 -1650.52,3686.53 -3686.53,3686.53 -2036.01,0 -3686.53,-1650.52 -3686.53,-3686.53 0,-2036.01 1650.52,-3686.53 3686.53,-3686.53z"/>
   <path id="shine_purple" class="fil29" d="M22865.37 10393.82c950.3,0 1720.67,770.37 1720.67,1720.67 0,950.3 -770.37,1720.67 -1720.67,1720.67 -950.3,0 -1720.67,-770.37 -1720.67,-1720.67 0,-950.3 770.37,-1720.67 1720.67,-1720.67z"/>
  </g>
  <g id="layer_3">
   <g id="jewel_3">
    <rect class="fil30" transform="matrix(0.0963644 -0.439429 0.439429 0.0963644 30801 19969.5)" width="2836.33" height="2836.33"/>
    <polygon class="fil31" points="30801.05,19969.49 31560.89,19482.97 32320.74,18996.45 32047.41,20242.82 "/>
    <polygon class="fil5" points="30801.05,19969.49 31560.89,19482.97 31074.37,18723.13 "/>
   </g>
   <g id="jewel_4">
    <circle class="fil32" cx="9464.81" cy="8462.21" r="569.73"/>
    <path class="fil30" style="mask:url(#id10)" d="M9427.26 7914.47c281.77,0 510.19,228.42 510.19,510.18 0,281.77 -228.42,510.19 -510.19,510.19 -281.76,0 -510.18,-228.42 -510.18,-510.19 0,-281.76 228.42,-510.18 510.18,-510.18z"/>
    <path class="fil1" style="mask:url(#id12)" d="M9248.82 8030.21c119.29,0 215.99,96.7 215.99,216 0,119.29 -96.7,215.99 -215.99,215.99 -119.3,0 -216,-96.7 -216,-215.99 0,-119.3 96.7,-216 216,-216z"/>
   </g>
   <path id="shine_prange" class="fil33" d="M9248.82 6791.82c803.23,0 1454.39,651.16 1454.39,1454.39 0,803.24 -651.16,1454.39 -1454.39,1454.39 -803.23,0 -1454.39,-651.15 -1454.39,-1454.39 0,-803.23 651.16,-1454.39 1454.39,-1454.39z"/>
   <path id="shine_red_orange" class="fil34" d="M31180.97 17891.92c803.23,0 1454.39,651.16 1454.39,1454.39 0,803.24 -651.16,1454.39 -1454.39,1454.39 -803.23,0 -1454.39,-651.15 -1454.39,-1454.39 0,-803.23 651.16,-1454.39 1454.39,-1454.39z"/>
  </g>
 </g>
</svg>
