<?xml version="1.0" encoding="UTF-8"?>
<!DOCTYPE svg PUBLIC "-//W3C//DTD SVG 1.1//EN" "http://www.w3.org/Graphics/SVG/1.1/DTD/svg11.dtd">
<!-- Creator: CorelDRAW 2018 (64-Bit Evaluation Version) -->
<svg xmlns="http://www.w3.org/2000/svg" xml:space="preserve" width="100%" height="100%" version="1.1" style="shape-rendering:geometricPrecision; text-rendering:geometricPrecision; image-rendering:optimizeQuality; fill-rule:evenodd; clip-rule:evenodd"
viewBox="0 0 254 254"
 xmlns:xlink="http://www.w3.org/1999/xlink">
 <defs>
  <style type="text/css">
   <![CDATA[
    .fil0 {fill:#CF035C}
    .fil4 {fill:white;fill-opacity:0.478431}
    .fil1 {fill:gray;fill-opacity:0.501961}
    .fil2 {fill:#999999;fill-opacity:0.501961}
    .fil3 {fill:white;fill-opacity:0.701961}
   ]]>
  </style>
 </defs>
 <g id="Layer_x0020_1">
  <metadata id="CorelCorpID_0Corel-Layer"/>
  <path class="fil0" d="M-0 122.902c70.14,2.263 125.165,60.957 122.902,131.098 2.263,-70.141 60.958,-125.165 131.098,-122.902 -70.14,-2.263 -125.165,-60.958 -122.902,-131.098 -2.263,70.14 -60.958,125.165 -131.098,122.902z"/>
  <path class="fil1" d="M159.591 128.051c-18,-0.581 -33.062,13.54 -33.643,31.54l-3.046 94.409c2.263,-70.141 60.958,-125.165 131.098,-122.902l-94.409 -3.047z"/>
  <path class="fil2" d="M128.052 94.409c-0.581,17.999 13.539,33.061 31.539,33.642l94.409 3.047c-70.14,-2.263 -125.165,-60.958 -122.902,-131.098l-3.046 94.409z"/>
  <path class="fil3" d="M94.409 125.948c18,0.581 33.062,-13.54 33.643,-31.539l3.046 -94.409c-2.263,70.14 -60.958,125.165 -131.098,122.902l94.409 3.046z"/>
  <path class="fil4" d="M128.052 94.409c-0.581,17.999 -15.643,32.12 -33.643,31.539 18,0.581 32.12,15.643 31.539,33.643 0.581,-18 15.643,-32.121 33.643,-31.54 -18,-0.581 -32.12,-15.643 -31.539,-33.642z"/>
 </g>
</svg>
