<?xml version="1.0" encoding="UTF-8"?>
<!DOCTYPE svg PUBLIC "-//W3C//DTD SVG 1.1//EN" "http://www.w3.org/Graphics/SVG/1.1/DTD/svg11.dtd">
<!-- Creator: CorelDRAW 2018 (64-Bit Evaluation Version) -->
<svg xmlns="http://www.w3.org/2000/svg" xml:space="preserve" width="100%" height="100%" version="1.1" style="shape-rendering:geometricPrecision; text-rendering:geometricPrecision; image-rendering:optimizeQuality; fill-rule:evenodd; clip-rule:evenodd"
viewBox="0 0 40640 325120"
 xmlns:xlink="http://www.w3.org/1999/xlink">
 <defs>
  <style type="text/css">
   <![CDATA[
    .fil6 {fill:#13966D}
    .fil0 {fill:black}
    .fil10 {fill:#003399}
    .fil13 {fill:lime}
    .fil11 {fill:#333333}
    .fil21 {fill:#5A44B3}
    .fil20 {fill:#6666FF}
    .fil12 {fill:#999999}
    .fil18 {fill:#9999FF}
    .fil22 {fill:#9E3F00}
    .fil5 {fill:#E34400}
    .fil4 {fill:#FF6600}
    .fil8 {fill:white}
    .fil1 {fill:#F54029}
    .fil2 {fill:#ED2E38}
    .fil19 {fill:#CF035C}
    .fil9 {fill:#008CCC}
    .fil7 {fill:#00B394}
    .fil28 {fill:#0091CC}
    .fil17 {fill:white;fill-opacity:0.478431}
    .fil14 {fill:#666666;fill-opacity:0.501961}
    .fil15 {fill:#999999;fill-opacity:0.501961}
    .fil3 {fill:white;fill-opacity:0.501961}
    .fil16 {fill:white;fill-opacity:0.701961}
    .fil23 {fill:url(#id18);fill-opacity:0.501961}
    .fil24 {fill:url(#id19);fill-opacity:0.501961}
    .fil25 {fill:url(#id20);fill-opacity:0.501961}
    .fil30 {fill:url(#id21);fill-opacity:0.501961}
    .fil27 {fill:url(#id22);fill-opacity:0.501961}
    .fil29 {fill:url(#id23);fill-opacity:0.501961}
    .fil26 {fill:url(#id24);fill-opacity:0.501961}
   ]]>
  </style>
    <mask id="id0">
  <linearGradient id="id1" gradientUnits="userSpaceOnUse" x1="29317.43" y1="191327.12" x2="29546.74" y2="196107.26">
   <stop offset="0" style="stop-opacity:1; stop-color:white"/>
   <stop offset="1" style="stop-opacity:0; stop-color:white"/>
  </linearGradient>
     <rect style="fill:url(#id1)" x="28597.4" y="192272.54" width="3509.65" height="3509.65"/>
    </mask>
    <mask id="id2">
  <linearGradient id="id3" gradientUnits="userSpaceOnUse" x1="28602.98" y1="192350.17" x2="31019.54" y2="194907.81">
   <stop offset="0" style="stop-opacity:1; stop-color:white"/>
   <stop offset="1" style="stop-opacity:0; stop-color:white"/>
  </linearGradient>
     <rect style="fill:url(#id3)" x="28881.72" y="192738.21" width="2079.29" height="2079.29"/>
    </mask>
    <mask id="id4">
  <linearGradient id="id5" gradientUnits="userSpaceOnUse" x1="21249.96" y1="199668.21" x2="24001.63" y2="203107.8">
   <stop offset="0" style="stop-opacity:1; stop-color:white"/>
   <stop offset="1" style="stop-opacity:0; stop-color:white"/>
  </linearGradient>
     <rect style="fill:url(#id5)" x="21282.1" y="200132.75" width="2376.67" height="2376.67"/>
    </mask>
    <mask id="id6">
  <linearGradient id="id7" gradientUnits="userSpaceOnUse" x1="22782.16" y1="199423.37" x2="22888" y2="201275.46">
   <stop offset="0" style="stop-opacity:1; stop-color:white"/>
   <stop offset="1" style="stop-opacity:0; stop-color:white"/>
  </linearGradient>
     <rect style="fill:url(#id7)" x="21549.42" y="200400.07" width="1017.74" height="1017.74"/>
    </mask>
   <mask id="id8">
  <linearGradient id="id9" gradientUnits="userSpaceOnUse" x1="8898.83" y1="190878.08" x2="10090.23" y2="192367.33">
   <stop offset="0" style="stop-opacity:1; stop-color:white"/>
   <stop offset="1" style="stop-opacity:0; stop-color:white"/>
  </linearGradient>
    <rect style="fill:url(#id9)" x="8907.08" y="191073.55" width="1040.37" height="1040.37"/>
   </mask>
   <mask id="id10">
  <linearGradient id="id11" gradientUnits="userSpaceOnUse" x1="9562.23" y1="190772.07" x2="9608.06" y2="191573.98">
   <stop offset="0" style="stop-opacity:1; stop-color:white"/>
   <stop offset="1" style="stop-opacity:0; stop-color:white"/>
  </linearGradient>
    <rect style="fill:url(#id11)" x="9022.82" y="191189.29" width="451.99" height="451.99"/>
   </mask>
   <mask id="id12">
  <radialGradient id="id13" gradientUnits="userSpaceOnUse" cx="10821.4" cy="195399.63" r="0" fx="10821.4" fy="195399.63">
   <stop offset="0" style="stop-opacity:0.470588; stop-color:white"/>
   <stop offset="1" style="stop-opacity:0; stop-color:white"/>
  </radialGradient>
    <rect style="fill:url(#id13)" x="10811.4" y="195389.63" width="6227" height="6227"/>
   </mask>
   <mask id="id14">
  <radialGradient id="id15" gradientUnits="userSpaceOnUse" cx="7794.43" cy="189960.9" r="0" fx="7794.43" fy="189960.9">
   <stop offset="0" style="stop-opacity:0.470588; stop-color:white"/>
   <stop offset="1" style="stop-opacity:0; stop-color:white"/>
  </radialGradient>
    <rect style="fill:url(#id15)" x="7784.43" y="189950.9" width="2928.78" height="2928.78"/>
   </mask>
   <mask id="id16">
  <radialGradient id="id17" gradientUnits="userSpaceOnUse" cx="18795.98" cy="194439.29" r="0" fx="18795.98" fy="194439.29">
   <stop offset="0" style="stop-opacity:0.470588; stop-color:white"/>
   <stop offset="1" style="stop-opacity:0; stop-color:white"/>
  </radialGradient>
    <rect style="fill:url(#id17)" x="18785.98" y="194429.29" width="3530.52" height="3530.52"/>
   </mask>
  <radialGradient id="id18" gradientUnits="userSpaceOnUse" gradientTransform="matrix(1 -0 -0 1 0 0)" cx="29921.37" cy="193777.86" r="3306.29" fx="29921.37" fy="193777.86">
   <stop offset="0" style="stop-opacity:1; stop-color:white"/>
   <stop offset="1" style="stop-opacity:1; stop-color:black"/>
  </radialGradient>
  <radialGradient id="id19" gradientUnits="userSpaceOnUse" gradientTransform="matrix(1 -0 -0 1 0 0)" cx="36425.94" cy="197879.91" r="3306.29" fx="36425.94" fy="197879.91">
   <stop offset="0" style="stop-opacity:1; stop-color:#E3A1FF"/>
   <stop offset="1" style="stop-opacity:1; stop-color:black"/>
  </radialGradient>
  <radialGradient id="id20" gradientUnits="userSpaceOnUse" gradientTransform="matrix(1 -0 -0 1 0 0)" cx="31560.89" cy="202652.05" r="2279.4" fx="31560.89" fy="202652.05">
   <stop offset="0" style="stop-opacity:1; stop-color:#FFF1A1"/>
   <stop offset="1" style="stop-opacity:1; stop-color:black"/>
  </radialGradient>
  <radialGradient id="id21" gradientUnits="userSpaceOnUse" gradientTransform="matrix(1 -0 -0 1 0 0)" cx="6859.21" cy="196986.96" r="4312.71" fx="6859.21" fy="196986.96">
   <stop offset="0" style="stop-opacity:1; stop-color:#FF4242"/>
   <stop offset="1" style="stop-opacity:1; stop-color:black"/>
  </radialGradient>
  <radialGradient id="id22" gradientUnits="userSpaceOnUse" gradientTransform="matrix(1 -0 -0 1 0 0)" xlink:href="#id18" cx="22290.23" cy="200642.02" r="1809.64" fx="22290.23" fy="200642.02">
  </radialGradient>
  <radialGradient id="id23" gradientUnits="userSpaceOnUse" gradientTransform="matrix(1 -0 -0 1 0 0)" cx="13182.76" cy="188917.17" r="3686.53" fx="13182.76" fy="188917.17">
   <stop offset="0" style="stop-opacity:1; stop-color:#A1FFA9"/>
   <stop offset="1" style="stop-opacity:1; stop-color:black"/>
  </radialGradient>
  <radialGradient id="id24" gradientUnits="userSpaceOnUse" gradientTransform="matrix(1 -0 -0 1 0 0)" cx="24142.79" cy="191044.1" r="3686.53" fx="24142.79" fy="191044.1">
   <stop offset="0" style="stop-opacity:1; stop-color:#FFA1A1"/>
   <stop offset="1" style="stop-opacity:1; stop-color:black"/>
  </radialGradient>
 </defs>
 <g id="Layer_x0020_1">
  <metadata id="CorelCorpID_0Corel-Layer"/>
  <rect class="fil0" y="183169.08" width="40640" height="22860.01"/>
  <g id="_1665848100192">
   <rect class="fil1" transform="matrix(0.95266 -0.304038 0.304038 0.95266 22791.5 190347)" width="2836.33" height="2836.33"/>
   <polygon class="fil2" points="22791.53,190346.68 24573.73,191266.53 26355.94,192186.39 23653.88,193048.74 "/>
   <polygon class="fil3" points="22791.53,190346.68 24573.73,191266.53 25493.59,189484.33 "/>
  </g>
  <rect class="fil4" transform="matrix(0.0963644 -0.439429 0.439429 0.0963644 30801 203139)" width="2836.33" height="2836.33"/>
  <polygon class="fil5" points="30801.05,203138.57 31560.89,202652.05 32320.74,202165.53 32047.41,203411.9 "/>
  <polygon class="fil3" points="30801.05,203138.57 31560.89,202652.05 31074.37,201892.21 "/>
  <g id="_1665848097408">
   <circle class="fil6" cx="30352.22" cy="194208.71" r="1926.17"/>
   <path class="fil7" style="mask:url(#id0)" d="M30352.22 192282.54c963.64,0 1744.83,781.19 1744.83,1744.82 0,963.64 -781.19,1744.83 -1744.83,1744.83 -963.63,0 -1744.82,-781.19 -1744.82,-1744.83 0,-963.63 781.19,-1744.82 1744.82,-1744.82z"/>
   <path class="fil8" style="mask:url(#id2)" d="M29921.37 192748.21c568.65,0 1029.64,460.99 1029.64,1029.65 0,568.65 -460.99,1029.64 -1029.64,1029.64 -568.66,0 -1029.65,-460.99 -1029.65,-1029.64 0,-568.66 460.99,-1029.65 1029.65,-1029.65z"/>
  </g>
  <g id="_1665848097120">
   <rect class="fil9" transform="matrix(0.921179 0.389139 -0.389139 0.921179 13547.6 197574)" width="2836.33" height="2836.33"/>
   <polygon class="fil10" points="13547.64,197574.01 14302.15,199432.25 15056.67,201290.51 12443.91,200186.78 "/>
   <polygon class="fil3" points="13547.64,197574.01 14302.15,199432.25 16160.4,198677.74 "/>
  </g>
  <g id="_1665848096320">
   <circle class="fil11" cx="22557.16" cy="201407.82" r="1315.86"/>
   <path class="fil12" style="mask:url(#id4)" d="M22470.43 200142.75c650.78,0 1178.34,527.56 1178.34,1178.34 0,650.77 -527.56,1178.33 -1178.34,1178.33 -650.77,0 -1178.33,-527.56 -1178.33,-1178.33 0,-650.78 527.56,-1178.34 1178.33,-1178.34z"/>
   <path class="fil8" style="mask:url(#id6)" d="M22058.29 200410.07c275.52,0 498.87,223.35 498.87,498.87 0,275.52 -223.35,498.87 -498.87,498.87 -275.52,0 -498.87,-223.35 -498.87,-498.87 0,-275.52 223.35,-498.87 498.87,-498.87z"/>
  </g>
  <g id="_1665848094144">
   <path class="fil13" d="M10497.79 187781.29c1644.16,1021.35 2149.07,3182.16 1127.72,4826.33 1021.35,-1644.17 3182.16,-2149.06 4826.33,-1127.72 -1644.17,-1021.34 -2149.06,-3182.16 -1127.72,-4826.33 -1021.34,1644.17 -3182.17,2149.07 -4826.33,1127.72z"/>
   <path class="fil14" d="M14238.79 190105.16c-421.93,-262.1 -976.45,-132.53 -1238.54,289.4l-1374.74 2213.06c1021.35,-1644.17 3182.16,-2149.06 4826.33,-1127.72l-2213.05 -1374.74z"/>
   <path class="fil15" d="M13949.39 188866.62c-262.1,421.93 -132.53,976.44 289.4,1238.54l2213.05 1374.74c-1644.17,-1021.34 -2149.06,-3182.16 -1127.72,-4826.33l-1374.73 2213.05z"/>
   <path class="fil16" d="M12710.85 189156.02c421.93,262.1 976.44,132.53 1238.54,-289.4l1374.73 -2213.05c-1021.34,1644.17 -3182.17,2149.07 -4826.33,1127.72l2213.06 1374.73z"/>
   <path class="fil17" d="M13949.39 188866.62c-262.1,421.93 -816.61,551.5 -1238.54,289.4 421.93,262.1 551.49,816.61 289.4,1238.54 262.09,-421.93 816.61,-551.5 1238.54,-289.4 -421.93,-262.1 -551.5,-816.61 -289.4,-1238.54z"/>
  </g>
  <g id="_1665848090880">
   <path class="fil18" d="M19333.95 197171.06c971.63,-227.03 1943.33,376.58 2170.36,1348.21 -227.03,-971.63 376.58,-1943.33 1348.21,-2170.36 -971.63,227.03 -1943.33,-376.58 -2170.36,-1348.21 227.03,971.63 -376.58,1943.33 -1348.21,2170.36z"/>
   <path class="fil14" d="M21544.71 196654.49c-249.34,58.26 -404.25,307.62 -345.98,556.96l305.58 1307.82c-227.03,-971.63 376.58,-1943.33 1348.21,-2170.36l-1307.81 305.58z"/>
   <path class="fil15" d="M20987.74 196308.51c58.27,249.34 307.63,404.24 556.97,345.98l1307.81 -305.58c-971.63,227.03 -1943.33,-376.58 -2170.36,-1348.21l305.58 1307.81z"/>
   <path class="fil16" d="M20641.77 196865.47c249.34,-58.26 404.24,-307.62 345.97,-556.96l-305.58 -1307.81c227.03,971.63 -376.58,1943.33 -1348.21,2170.36l1307.82 -305.59z"/>
   <path class="fil17" d="M20987.74 196308.51c58.27,249.34 -96.63,498.7 -345.97,556.96 249.34,-58.26 498.69,96.64 556.96,345.98 -58.27,-249.34 96.64,-498.7 345.98,-556.96 -249.34,58.26 -498.7,-96.64 -556.97,-345.98z"/>
  </g>
  <g id="_1665848088032">
   <path class="fil19" d="M1774.22 198065.53c2854.51,92.13 5093.88,2480.81 5001.76,5335.33 92.12,-2854.52 2480.82,-5093.87 5335.33,-5001.76 -2854.51,-92.11 -5093.86,-2480.82 -5001.76,-5335.33 -92.1,2854.51 -2480.82,5093.89 -5335.33,5001.76z"/>
   <path class="fil14" d="M8269.13 198275.1c-732.53,-23.64 -1345.53,551.04 -1369.16,1283.57l-123.99 3842.19c92.12,-2854.52 2480.82,-5093.87 5335.33,-5001.76l-3842.18 -124z"/>
   <path class="fil15" d="M6985.57 196905.95c-23.64,732.53 551.03,1345.51 1283.56,1369.15l3842.18 124c-2854.51,-92.11 -5093.86,-2480.82 -5001.76,-5335.33l-123.98 3842.18z"/>
   <path class="fil16" d="M5616.41 198189.51c732.53,23.64 1345.52,-551.03 1369.16,-1283.56l123.98 -3842.18c-92.1,2854.51 -2480.82,5093.89 -5335.33,5001.76l3842.19 123.98z"/>
   <path class="fil17" d="M6985.57 196905.95c-23.64,732.53 -636.63,1307.2 -1369.16,1283.56 732.53,23.64 1307.19,636.63 1283.56,1369.16 23.63,-732.53 636.63,-1307.21 1369.16,-1283.57 -732.53,-23.64 -1307.2,-636.62 -1283.56,-1369.15z"/>
  </g>
  <rect class="fil20" transform="matrix(0.543189 -0.839611 0.839611 0.543189 35145.2 198610)" width="2836.33" height="2836.33"/>
  <polygon class="fil21" points="35145.25,198609.55 37106.28,198189.17 39067.32,197768.8 37526.66,200150.21 "/>
  <polygon class="fil3" points="35145.25,198609.55 37106.28,198189.17 36685.91,196228.14 "/>
  <circle class="fil22" cx="9464.81" cy="191631.29" r="569.73"/>
  <path class="fil4" style="mask:url(#id8)" d="M9427.26 191083.55c281.77,0 510.19,228.42 510.19,510.18 0,281.77 -228.42,510.19 -510.19,510.19 -281.76,0 -510.18,-228.42 -510.18,-510.19 0,-281.76 228.42,-510.18 510.18,-510.18z"/>
  <path class="fil8" style="mask:url(#id10)" d="M9248.82 191199.29c119.29,0 215.99,96.7 215.99,216 0,119.29 -96.7,215.99 -215.99,215.99 -119.3,0 -216,-96.7 -216,-215.99 0,-119.3 96.7,-216 216,-216z"/>
  <path class="fil23" d="M29921.37 190471.57c1826.01,0 3306.29,1480.28 3306.29,3306.29 0,1826.01 -1480.28,3306.29 -3306.29,3306.29 -1826.01,0 -3306.29,-1480.28 -3306.29,-3306.29 0,-1826.01 1480.28,-3306.29 3306.29,-3306.29z"/>
  <path class="fil24" d="M36425.94 194573.62c1826.01,0 3306.29,1480.28 3306.29,3306.29 0,1826.01 -1480.28,3306.29 -3306.29,3306.29 -1826.01,0 -3306.29,-1480.28 -3306.29,-3306.29 0,-1826.01 1480.28,-3306.29 3306.29,-3306.29z"/>
  <path class="fil25" d="M31560.89 200372.65c1258.87,0 2279.4,1020.53 2279.4,2279.4 0,1258.87 -1020.53,2279.4 -2279.4,2279.4 -1258.87,0 -2279.4,-1020.53 -2279.4,-2279.4 0,-1258.87 1020.53,-2279.4 2279.4,-2279.4z"/>
  <path id="OrangeShine" class="fil26" d="M24142.79 187357.57c2036.01,0 3686.53,1650.52 3686.53,3686.53 0,2036.01 -1650.52,3686.53 -3686.53,3686.53 -2036.01,0 -3686.53,-1650.52 -3686.53,-3686.53 0,-2036.01 1650.52,-3686.53 3686.53,-3686.53z"/>
  <path class="fil27" d="M22290.23 198832.38c999.43,0 1809.64,810.21 1809.64,1809.64 0,999.43 -810.21,1809.64 -1809.64,1809.64 -999.43,0 -1809.64,-810.21 -1809.64,-1809.64 0,-999.43 810.21,-1809.64 1809.64,-1809.64z"/>
  <path class="fil28" style="mask:url(#id12)" d="M13924.9 195399.63c1714.01,0 3103.5,1389.49 3103.5,3103.5 0,1714.01 -1389.49,3103.5 -3103.5,3103.5 -1714.01,0 -3103.5,-1389.49 -3103.5,-3103.5 0,-1714.01 1389.49,-3103.5 3103.5,-3103.5z"/>
  <path class="fil4" style="mask:url(#id14)" d="M9248.82 189960.9c803.23,0 1454.39,651.16 1454.39,1454.39 0,803.24 -651.16,1454.39 -1454.39,1454.39 -803.23,0 -1454.39,-651.15 -1454.39,-1454.39 0,-803.23 651.16,-1454.39 1454.39,-1454.39z"/>
  <path class="fil18" style="mask:url(#id16)" d="M20551.24 194439.29c969.4,0 1755.26,785.86 1755.26,1755.26 0,969.4 -785.86,1755.26 -1755.26,1755.26 -969.4,0 -1755.26,-785.86 -1755.26,-1755.26 0,-969.4 785.86,-1755.26 1755.26,-1755.26z"/>
  <path id="OrangeShine_0" class="fil29" d="M13182.76 185230.64c2036.01,0 3686.53,1650.52 3686.53,3686.53 0,2036.01 -1650.52,3686.53 -3686.53,3686.53 -2036.01,0 -3686.53,-1650.52 -3686.53,-3686.53 0,-2036.01 1650.52,-3686.53 3686.53,-3686.53z"/>
  <path id="OrangeShine_1" class="fil30" d="M6859.21 192674.25c2381.84,0 4312.71,1930.87 4312.71,4312.71 0,2381.84 -1930.87,4312.71 -4312.71,4312.71 -2381.84,0 -4312.71,-1930.87 -4312.71,-4312.71 0,-2381.84 1930.87,-4312.71 4312.71,-4312.71z"/>
 </g>
</svg>
