<?xml version="1.0" encoding="UTF-8"?>
<!DOCTYPE svg PUBLIC "-//W3C//DTD SVG 1.1//EN" "http://www.w3.org/Graphics/SVG/1.1/DTD/svg11.dtd">
<!-- Creator: CorelDRAW 2018 (64-Bit Evaluation Version) -->
<svg xmlns="http://www.w3.org/2000/svg" xml:space="preserve" width="100%" height="100%" version="1.1" style="shape-rendering:geometricPrecision; text-rendering:geometricPrecision; image-rendering:optimizeQuality; fill-rule:evenodd; clip-rule:evenodd"
viewBox="0 0 12700 5080"
 xmlns:xlink="http://www.w3.org/1999/xlink">
 <defs>
  <style type="text/css">
   <![CDATA[
    .fil0 {fill:white;fill-rule:nonzero}
    .fil3 {fill:#FCC954;fill-rule:nonzero}
    .fil1 {fill:#EB4FB3;fill-rule:nonzero}
    .fil2 {fill:#874DBF;fill-rule:nonzero}
   ]]>
  </style>
 </defs>
 <g id="Layer_x0020_1">
  <metadata id="CorelCorpID_0Corel-Layer"/>
  <path class="fil0" d="M17.81 2214.93l0 -1924.64c0,-85.75 69.56,-155.31 155.31,-155.31l228.79 0c85.76,0 155.31,69.56 155.31,155.31l0 584.92 712.29 0 0 -584.92c0,-85.75 69.56,-155.31 155.31,-155.31l231.49 0c85.76,0 155.31,69.56 155.31,155.31l0 1924.64c0,85.75 -69.55,155.3 -155.31,155.3l-231.49 0c-85.75,0 -155.31,-69.55 -155.31,-155.3l0 -811.05 -712.29 0 0 811.05c0,85.75 -69.55,155.3 -155.31,155.3l-228.79 0c-85.75,0 -155.31,-69.55 -155.31,-155.3zm6175.09 -319.51c42.85,0 84.32,-3.93 124.08,-11.77 41.47,-8.36 80.24,-20.04 116.01,-35.13l0 -0.61c39.83,-16.73 76.13,-36.22 108.74,-58.35 32.81,-22.27 65.74,-49.95 98.6,-82.81 31.73,-31.73 58.73,-64.07 80.77,-96.88 23.04,-34.25 42.46,-70.41 58.14,-108.35 15.52,-37.65 27.35,-77.01 35.3,-117.89l0.12 -0.59c7.72,-40.23 11.65,-82.4 11.65,-126.4 0,-45.02 -3.96,-88.1 -11.89,-128.98 -8.04,-41.61 -19.98,-81.7 -35.65,-119.94 -16.03,-39.15 -35.57,-75.87 -58.4,-110.05 -22.13,-33.17 -48.87,-65.36 -80.04,-96.53 -30.93,-30.93 -63.47,-57.9 -97.43,-80.79 -34.25,-23.07 -70.29,-42.5 -107.97,-58.11 -37.42,-15.58 -76.39,-27.38 -116.68,-35.28 -39.95,-7.83 -81.8,-11.79 -125.35,-11.79 -43.99,0 -86.16,3.93 -126.37,11.76l-5.25 0.91c-39.21,7.96 -77.04,19.46 -113.25,34.4 -38.24,15.76 -73.99,34.98 -107.06,57.49 -32.81,22.33 -64.27,48.89 -94.24,79.59l-1.55 1.56c-30.08,30.46 -56.76,63.12 -79.86,97.84 -23.91,35.92 -43.52,72.52 -58.75,109.73 -15.32,37.45 -27.12,77.45 -35.28,119.83 -7.83,40.56 -11.76,83.4 -11.76,128.36 0,44.64 3.84,87.08 11.53,126.96 7.84,40.71 19.4,79.59 34.63,116.57 15.03,36.48 34.42,72.31 58.08,107.41l4.99 7.92c21.86,31.52 47.39,62.02 76.45,91.54l0.29 -0.29c32.43,32.42 65.65,60.28 99.49,83.31 34.72,23.72 70.34,43.26 106.68,58.61l0.11 -0.32c37.3,15.61 76.1,27.41 116.1,35.3 39.8,7.84 81.56,11.77 125.02,11.77zm1183.59 -638.78c0,78.3 -7.43,155.1 -22.16,230.26 -14.67,74.78 -36.83,147.53 -66.27,218.17 -29.32,70.67 -65.62,137.55 -108.7,200.53 -42.73,62.48 -92.3,121.15 -148.56,175.85 -55.67,54.15 -116.01,102.31 -180.72,144.39 -65.15,42.38 -133.56,78.16 -205.05,107.3l-8.42 3.11c-70.29,27.76 -141.72,48.74 -214.27,62.89 -76.04,14.82 -152.49,22.25 -229.44,22.25 -77.36,0 -153.92,-7.43 -229.7,-22.25 -75.13,-14.7 -148.82,-36.71 -221.07,-66l-10.75 -4.82c-69.05,-29.05 -133.79,-63.21 -193.89,-102.48l-8.81 -6.19c-61.01,-40.65 -118.06,-86.75 -170.98,-138.2 -55.32,-53.85 -104.97,-112.66 -148.79,-176.43l-0.29 0.2c-43.14,-62.77 -79.74,-129.74 -109.82,-200.91 -30.23,-71.93 -52.71,-144.77 -67.23,-218.4 -14.83,-74.84 -22.25,-151.32 -22.25,-229.27 0,-78.35 7.42,-155.13 22.25,-230.37 14.73,-74.96 36.97,-147.94 66.61,-218.94l5.11 -11.03c29.32,-67.62 64.24,-131.01 104.74,-190.08 43.08,-62.84 92.97,-121.94 149.67,-177.06 55.26,-53.76 115.16,-101.57 179.49,-143.3 64.48,-41.79 132.86,-77.24 205.08,-106.15 72.52,-29.14 146.45,-51.1 221.63,-65.68 75.81,-14.73 152.23,-22.13 229,-22.13 77.3,0 154.14,7.43 230.44,22.19 74.45,14.38 148.41,36.3 221.84,65.62l0.53 0.2c72.28,28.71 140.8,64.16 205.46,106.04 64.36,41.64 124.31,89.42 179.63,143.21 56.23,54.68 105.77,113.4 148.47,175.94 43.14,63.21 79.47,130.27 108.79,200.88l3.26 8.54c28,69.03 49.04,139.29 63.01,210.72l1.06 6.13c13.99,73.78 21.1,148.88 21.1,225.27zm1003.12 587.63c113.93,-0.12 207.64,-2.53 280.92,-7.13 74.27,-4.64 129.92,-11.21 166.87,-19.58 34.24,-7.75 65.71,-18.25 94.23,-31.49 25.18,-11.71 48.04,-26 68.32,-42.82 30.11,-24.94 55.82,-52.47 76.98,-82.35 22.01,-31.1 41.23,-67.32 57.43,-108.49l3.73 -8.75c14.7,-38.74 26.12,-81.5 34.22,-128.22 8.66,-50.09 13.03,-104.71 13.03,-163.73 0,-59.37 -4.26,-113.98 -12.77,-163.67 -8.48,-49.51 -20.63,-94.23 -36.5,-134.09 -16.03,-39.44 -35.46,-75.36 -58.38,-107.44 -22.07,-30.9 -48.21,-59.04 -78.35,-84.25 -20.64,-17.26 -43.67,-31.88 -69.03,-43.76 -27.79,-13.03 -60.04,-23.8 -96.64,-32.22 -38.53,-8.9 -94.24,-15.79 -167.05,-20.58 -73.04,-4.81 -165.34,-7.3 -277.01,-7.45l0 1186.02zm-542.1 370.66l0 -1924.64c0,-85.75 69.55,-155.31 155.3,-155.31l369.69 0c138.14,0 258.23,3.7 360.16,10.98 103.83,7.42 188.46,19.22 253.62,35.16l0.58 0.14c66.21,16.32 128.49,38.33 186.68,65.77 58.64,27.68 113.66,61.25 164.85,100.63 65.68,50.72 123.55,108.5 173.53,173.3 50.36,65.36 92.3,136.76 125.61,214.12 32.6,75.69 57.16,158.09 73.69,247.02 16.2,87.22 24.3,177.84 24.3,271.84 0,192.41 -32.55,364.29 -97.55,516.05 -33.43,78.03 -75.25,149.5 -125.35,214.32 -50.33,65.13 -108.64,123.12 -174.85,173.86 -50.33,38.5 -104.21,71.72 -161.67,99.49 -56.5,27.26 -116.78,49.24 -180.67,65.82l-0.73 0.18 0.12 0.44c-62.1,15.76 -139.7,27.56 -232.73,35.19 -88.36,7.25 -190.76,10.94 -307.06,10.94l-452.22 0c-85.75,0 -155.3,-69.55 -155.3,-155.3zm2351.76 0l0 -1924.64c0,-85.75 69.55,-155.31 155.3,-155.31l228.8 0c85.75,0 155.3,69.56 155.3,155.31l0 1924.64c0,85.75 -69.55,155.3 -155.3,155.3l-228.8 0c-85.75,0 -155.3,-69.55 -155.3,-155.3zm1091.08 0l0 -1924.64c0,-85.75 69.55,-155.31 155.3,-155.31l1014.81 0c85.75,0 155.31,69.56 155.31,155.31l0 209.95c0,85.75 -69.56,155.31 -155.31,155.31l-630.71 0 0 241.21 630.71 0c85.75,0 155.31,69.55 155.31,155.3l0 212.65c0,85.76 -69.56,155.31 -155.31,155.31l-630.71 0 0 426.95 630.71 0c85.75,0 155.31,69.55 155.31,155.3l0 212.66c0,85.75 -69.56,155.3 -155.31,155.3l-1014.81 0c-85.75,0 -155.3,-69.55 -155.3,-155.3zm-11280.35 2573.12l0 -1776.6c0,-85.76 69.55,-155.31 155.31,-155.31l208.72 0c85.75,0 155.3,69.55 155.3,155.31l0 399.91 477.72 -506.06c30.46,-32.4 71.61,-48.75 112.84,-48.75l0 -0.41 252.18 0c85.76,0 155.31,69.55 155.31,155.31 0,45.51 -19.6,86.45 -50.8,114.86l-657.41 690.31 745.98 870.74c55.59,64.98 47.98,162.79 -16.99,218.38 -29.2,24.97 -65.03,37.18 -100.69,37.18l0 0.44 -272.93 0c-51.16,0 -96.53,-24.74 -124.85,-62.92l-520.36 -621.61 0 529.22c0,85.76 -69.55,155.31 -155.3,155.31l-208.72 0c-85.76,0 -155.31,-69.55 -155.31,-155.31zm1848.19 0l0 -1776.6c0,-85.76 69.55,-155.31 155.3,-155.31l211.22 0c85.75,0 155.3,69.55 155.3,155.31l0 1776.6c0,85.76 -69.55,155.31 -155.3,155.31l-211.22 0c-85.75,0 -155.3,-69.55 -155.3,-155.31zm1542.59 -354.1c99.72,-0.27 181.98,-2.44 246.57,-6.52 68,-4.25 118.77,-10.21 152.2,-17.78 30.7,-6.93 58.96,-16.38 84.61,-28.29 22.3,-10.36 42.49,-23.01 60.46,-37.89 26.35,-21.84 49.36,-46.66 68.93,-74.28 20.11,-28.35 37.36,-60.78 51.65,-97.02l3.7 -8.66c13.12,-34.78 23.33,-73.28 30.64,-115.45 7.9,-45.52 11.86,-95.26 11.86,-149.15 0,-54.2 -3.88,-103.95 -11.6,-149.08 -7.68,-44.87 -18.69,-85.4 -32.98,-121.35 -14.47,-35.51 -31.96,-67.83 -52.53,-96.67 -19.75,-27.65 -43.2,-52.89 -70.29,-75.54 -18.31,-15.32 -38.71,-28.27 -61.1,-38.77 -24.8,-11.62 -53.8,-21.25 -86.84,-28.88 -34.98,-8.07 -85.75,-14.35 -152.29,-18.72 -64.33,-4.23 -145.32,-6.52 -242.99,-6.81l0 1070.86zm-524.32 354.1l0 -1776.6c0,-85.76 69.55,-155.31 155.3,-155.31l341.25 0c127.37,0 238.34,3.43 332.75,10.15 96.7,6.9 175.61,17.91 236.62,32.81l0.59 0.15c61.9,15.26 120.15,35.83 174.56,61.48 54.88,25.92 106.44,57.35 154.37,94.27 61.39,47.45 115.6,101.51 162.32,162.11 47.13,61.16 86.37,127.93 117.48,200.18 30.4,70.64 53.32,147.56 68.76,230.61 15.14,81.33 22.68,165.73 22.68,253.1 0,179.16 -30.37,339.4 -91.03,481 -31.26,72.96 -70.38,139.84 -117.25,200.45 -47.1,60.95 -101.65,115.21 -163.58,162.67 -47.1,36.07 -97.58,67.17 -151.31,93.09 -52.8,25.5 -109.15,46.07 -168.93,61.57l-0.73 0.18 0.12 0.44c-58.14,14.76 -130.22,25.73 -216.18,32.81l-4.08 0.29c-81.17,6.51 -174.82,9.86 -280.97,9.86l-417.44 0c-85.75,0 -155.3,-69.55 -155.3,-155.31zm3049.84 -1125.33c65.77,28.68 124.82,62.63 176.91,101.72 57.14,42.91 104.65,90.8 142.39,143.48l7.46 11.42c35.24,51.39 62.19,107.38 80.53,167.75 19.54,64.33 29.37,131.51 29.37,201.12 0,101.07 -16.69,193.87 -50,278.04 -34.13,86.31 -85.52,162.46 -154.05,228.23 -67.73,65.06 -146.35,113.93 -235.81,146.36 -86.66,31.46 -181.6,47.25 -284.87,47.25 -83.94,0 -163.23,-11.36 -237.83,-34.08 -76.95,-23.45 -146.18,-58.34 -207.61,-104.74l-11.06 -9.18c-57.7,-45.7 -106.09,-99.7 -145.24,-161.94 -41.06,-65.27 -71.87,-138.35 -92.45,-219.23 -19.22,-75.66 20.72,-152.43 90.78,-181.51l182.83 -90.42c76.68,-37.86 169.6,-6.34 207.46,70.34 6.13,12.42 10.42,25.24 13,38.19 9.86,39.2 22.16,72.84 36.8,100.74 12.82,24.51 27.94,44.88 45.25,60.96l1.62 1.56c14.29,13.14 30.05,22.97 47.13,29.31 18.75,6.99 41.91,10.48 69.32,10.48 35.68,0 66.47,-4.64 92.27,-13.79 23.39,-8.34 43.58,-20.34 60.36,-35.87 15.79,-14.96 27.56,-31.96 35.4,-51 8.21,-20.02 12.38,-44.79 12.38,-74.1 0,-24.48 -2.9,-45.43 -8.63,-62.75 -5.69,-17.2 -14.64,-33.6 -26.73,-49.07l-0.5 -0.64c-13.71,-17.52 -31.61,-34.28 -53.74,-50.19 -24.56,-17.64 -55.58,-34.69 -92.94,-51.12l-213.12 -91.24c-69.38,-28.85 -131.3,-62.89 -185.53,-102.01 -57.26,-41.27 -105.07,-87.72 -143.19,-139.35l-3.49 -4.93c-37.98,-51.94 -66.5,-108.38 -85.4,-169.04 -19.34,-62.16 -29.06,-128.04 -29.06,-197.36 0,-84.43 16.38,-163.2 49.13,-236.1 32.72,-72.84 81.09,-137.4 145.06,-193.46 62.66,-54.94 133.33,-96.05 211.89,-123.11 76.31,-26.33 159.48,-39.53 249.51,-39.53 64.22,0 126.2,7.33 185.57,21.89 61.25,15 117.74,37.51 169.13,67.27 53.18,30.96 100.37,68.93 141.36,114.01 39.62,43.52 73.84,94.5 102.52,152.96 34.92,71.4 9.74,156.66 -55.79,198.33l-174.77 111.43c-72.02,45.9 -167.63,24.71 -213.53,-47.31l-3.82 -6.34 -0.44 0.27c-14.35,-25.06 -29.4,-46.63 -44.99,-64.54 -14.58,-16.75 -28.11,-29.34 -40.44,-37.74 -10.62,-7.22 -23.03,-13 -37.09,-17.25 -13.12,-3.97 -27.62,-5.96 -43.47,-5.96 -22.09,0 -40.2,2.67 -54.26,7.89 -12.18,4.55 -23.36,11.68 -33.4,21.31 -9.27,8.89 -16.14,18.69 -20.45,29.29 -4.9,12.06 -7.4,26.94 -7.4,44.61 0,25.41 7.13,46.66 21.37,63.48l1.08 1.32c10.48,12.41 24.27,24.44 41.21,35.95l0.29 -0.41c23.16,15.67 50.42,30.31 81.56,43.87 86.07,38.27 175.11,74.6 260.16,114.48zm748.8 1006.48c0,-82.09 29.38,-152.58 88.08,-211.36l-0.3 -0.3c28.44,-28.44 60.87,-50.24 97.23,-65.41 36.33,-15.21 74.57,-22.78 114.43,-22.78 40.2,0 78.35,7.4 114.48,22.04 35.66,14.5 68,35.92 97.02,64.1l0.88 0.88c29.44,29.05 51.68,61.48 66.56,96.96 15.26,36.42 22.95,75.07 22.95,115.87 0,40.2 -7.6,78.35 -22.68,114.45l-0.21 0.5c-14.79,35.75 -37.12,68.06 -66.67,96.7l-1.88 1.76c-28.76,27.21 -61.08,47.9 -97.06,61.95 -35.89,14.09 -73.6,21.16 -113.39,21.16 -38.68,0 -76.42,-7.27 -112.79,-21.71 -36.45,-14.44 -69.02,-35.57 -97.46,-63.16l-0.82 -0.82c-28.76,-28.32 -50.71,-60.55 -65.71,-96.38 -15.03,-36.15 -22.66,-74.31 -22.66,-114.45zm-3211.55 -2773.78c42.85,0 84.32,-3.93 124.08,-11.77 41.47,-8.36 80.27,-20.07 116.01,-35.13l0 -0.61c39.83,-16.73 76.13,-36.22 108.74,-58.35 32.81,-22.27 65.73,-49.95 98.6,-82.81 31.73,-31.73 58.73,-64.07 80.77,-96.88 23.04,-34.25 42.46,-70.41 58.13,-108.35 15.53,-37.65 27.36,-77.01 35.31,-117.89l0.12 -0.59c7.72,-40.23 11.65,-82.4 11.65,-126.4 0,-45.02 -3.96,-88.1 -11.89,-128.98 -8.04,-41.61 -19.98,-81.7 -35.65,-119.94 -16.03,-39.15 -35.57,-75.87 -58.41,-110.05 -22.86,-34.25 -49.53,-66.57 -79.76,-96.85 -30.05,-30.02 -62.66,-56.88 -97.7,-80.47 -34.25,-23.07 -70.35,-42.5 -107.97,-58.11 -37.42,-15.58 -76.39,-27.38 -116.69,-35.28 -39.94,-7.83 -81.79,-11.79 -125.34,-11.79 -43.99,0 -86.16,3.93 -126.37,11.76l-5.25 0.91c-39.21,7.96 -77.04,19.46 -113.25,34.4 -38.24,15.76 -73.99,34.98 -107.06,57.49 -32.81,22.33 -64.27,48.89 -94.24,79.59l-1.55 1.56c-30.08,30.46 -56.76,63.12 -79.86,97.84 -23.92,35.92 -43.52,72.52 -58.75,109.73 -15.32,37.45 -27.12,77.45 -35.28,119.83 -7.83,40.56 -11.77,83.4 -11.77,128.36 0,44.64 3.85,87.08 11.54,126.96 7.83,40.71 19.4,79.59 34.63,116.57 15.02,36.48 34.42,72.31 58.08,107.41l4.99 7.92c21.86,31.52 47.39,62.02 76.45,91.54l0.29 -0.29c32.43,32.42 65.65,60.28 99.49,83.31 34.72,23.72 70.34,43.26 106.68,58.61l0.11 -0.32c37.3,15.61 76.1,27.41 116.1,35.3 39.8,7.84 81.56,11.77 125.02,11.77zm1183.59 -638.78c0,78.33 -7.43,155.1 -22.19,230.26 -14.65,74.78 -36.8,147.53 -66.24,218.17 -29.35,70.67 -65.62,137.55 -108.7,200.53 -42.76,62.48 -92.33,121.15 -148.56,175.85 -55.73,54.15 -116.01,102.31 -180.72,144.39 -65.18,42.41 -133.62,78.19 -205.05,107.3l-8.42 3.11c-70.61,27.91 -141.87,48.92 -213.65,62.89l-6.08 1.06c-74.25,14.11 -148.88,21.19 -223.98,21.19 -77.36,0 -153.93,-7.43 -229.7,-22.25 -75.13,-14.7 -148.82,-36.71 -221.08,-66l-10.74 -4.82c-69.05,-29.05 -133.79,-63.21 -193.9,-102.48l-8.8 -6.19c-61.01,-40.65 -118.06,-86.75 -170.98,-138.2 -55.32,-53.85 -104.97,-112.66 -148.79,-176.43l-0.29 0.2c-43.14,-62.77 -79.74,-129.74 -109.82,-200.91 -30.23,-71.93 -52.71,-144.77 -67.24,-218.4 -14.82,-74.84 -22.24,-151.32 -22.24,-229.27 0,-78.35 7.42,-155.13 22.24,-230.37 14.74,-74.96 36.98,-147.94 66.62,-218.94l5.11 -11.03c29.32,-67.62 64.24,-131.01 104.74,-190.08 43.08,-62.84 92.97,-121.94 149.67,-177.06 55.26,-53.76 115.16,-101.57 179.49,-143.3 64.48,-41.79 132.86,-77.24 205.08,-106.15 72.52,-29.14 146.45,-51.1 221.63,-65.68 75.81,-14.73 152.23,-22.13 229,-22.13 77.3,0 154.13,7.43 230.44,22.19 74.45,14.38 148.41,36.3 221.84,65.62l0.52 0.2c72.29,28.71 140.81,64.16 205.47,106.04 64.35,41.64 124.31,89.42 179.63,143.21 56.23,54.68 105.77,113.4 148.47,175.94 43.14,63.21 79.47,130.27 108.79,200.88l3.26 8.54c28,69.03 49.07,139.29 62.98,210.72 14.76,75.54 22.19,152.66 22.19,231.4z"/>
  <path class="fil1" d="M7566.36 4701.01l494.63 -854.95 -461.37 -753.94c-44.55,-73.01 -21.46,-168.36 51.56,-212.91 25.24,-15.41 53.12,-22.72 80.68,-22.69l0 -0.38 253.44 0c61.25,0 114.19,35.48 139.49,86.98l238.95 424.37 234.01 -430.06c28.03,-51.5 81.09,-80.67 135.88,-80.73l0 -0.56 240.18 0c85.75,0 155.31,69.55 155.31,155.31 0,32.34 -9.89,62.39 -26.83,87.25l-451.21 763.29 517.92 845.39c44.55,73.01 21.45,168.36 -51.56,212.91 -25.24,15.41 -53.12,22.72 -80.68,22.69l0 0.38 -248.48 0c-60.34,0 -112.67,-34.42 -138.38,-84.73l-296.11 -517.51 -281.68 520.33c-27.94,51.98 -81.32,81.53 -136.5,81.59l0 0.32 -240.62 0c-85.75,0 -155.3,-69.55 -155.3,-155.31 0,-32.25 9.83,-62.21 26.67,-87.04z"/>
  <path class="fil2" d="M9850.04 4788.05l0 -768.99 -577.62 -925.73c-45.19,-72.67 -22.92,-168.31 49.75,-213.51 25.53,-15.87 53.88,-23.42 81.87,-23.39l243.5 -0.29c59.28,0 110.82,33.25 136.99,82.08l327.55 543.31 329.84 -549.56c28.96,-48.42 80.23,-75.3 132.85,-75.33l0 -0.5 243.09 0c85.75,0 155.31,69.55 155.31,155.31 0,33.6 -10.69,64.74 -28.85,90.15l-572.45 917.46 0 768.99c0,85.76 -69.56,155.31 -155.31,155.31l-211.22 0c-85.75,0 -155.3,-69.55 -155.3,-155.31z"/>
  <path class="fil3" d="M11063.06 4695.26l842.65 -1334.7 -529.28 0c-85.75,0 -155.31,-69.55 -155.31,-155.3l0 -193.81c0,-85.76 69.56,-155.31 155.31,-155.31l1168.26 0c85.76,0 155.31,69.55 155.31,155.31 0,34.6 -11.33,66.59 -30.49,92.41l-833.06 1327.62 668.07 0c85.75,0 155.3,69.56 155.3,155.31l0 201.26c0,85.76 -69.55,155.31 -155.3,155.31l-1316.91 0c-85.76,0 -155.31,-69.55 -155.31,-155.31 0,-34.77 11.45,-66.91 30.76,-92.79z"/>
 </g>
</svg>
