<?xml version="1.0" encoding="UTF-8"?>
<!DOCTYPE svg PUBLIC "-//W3C//DTD SVG 1.1//EN" "http://www.w3.org/Graphics/SVG/1.1/DTD/svg11.dtd">
<!-- Creator: CorelDRAW 2018 (64-Bit Evaluation Version) -->
<svg xmlns="http://www.w3.org/2000/svg" xml:space="preserve" width="100%" height="100%" version="1.1" style="shape-rendering:geometricPrecision; text-rendering:geometricPrecision; image-rendering:optimizeQuality; fill-rule:evenodd; clip-rule:evenodd"
viewBox="0 0 12700 5080"
 xmlns:xlink="http://www.w3.org/1999/xlink">
 <defs>
  <style type="text/css">
   <![CDATA[
    .fil2 {fill:lime;fill-rule:nonzero}
    .fil1 {fill:aqua;fill-rule:nonzero}
    .fil3 {fill:fuchsia;fill-rule:nonzero}
    .fil0 {fill:white;fill-rule:nonzero}
   ]]>
  </style>
 </defs>
 <g id="Layer_x0020_1">
  <metadata id="CorelCorpID_0Corel-Layer"/>
  <g id="_1199291665792">
   <path class="fil0" d="M17.82 2214.93l0 -1924.64c0,-85.75 69.55,-155.3 155.31,-155.3l228.79 0c85.75,0 155.3,69.55 155.3,155.3l0 584.93 712.3 0 0 -584.93c0,-85.75 69.55,-155.3 155.3,-155.3l231.5 0c85.75,0 155.3,69.55 155.3,155.3l0 1924.64c0,85.75 -69.55,155.31 -155.3,155.31l-231.5 0c-85.75,0 -155.3,-69.56 -155.3,-155.31l0 -811.05 -712.3 0 0 811.05c0,85.75 -69.55,155.31 -155.3,155.31l-228.79 0c-85.76,0 -155.31,-69.56 -155.31,-155.31zm6175.09 -319.51c42.84,0 84.31,-3.93 124.08,-11.76 41.47,-8.37 80.23,-20.05 116.01,-35.13l0 -0.62c39.82,-16.73 76.13,-36.21 108.73,-58.34 32.81,-22.28 65.74,-49.95 98.61,-82.82 31.72,-31.73 58.72,-64.07 80.76,-96.88 23.04,-34.25 42.47,-70.4 58.14,-108.35 15.53,-37.65 27.35,-77.01 35.31,-117.89l0.11 -0.58c7.72,-40.24 11.65,-82.41 11.65,-126.4 0,-45.02 -3.96,-88.1 -11.88,-128.99 -8.04,-41.61 -19.99,-81.7 -35.66,-119.94 -16.02,-39.15 -35.57,-75.86 -58.4,-110.05 -22.13,-33.16 -48.86,-65.36 -80.03,-96.53 -30.93,-30.93 -63.48,-57.9 -97.43,-80.79 -34.25,-23.07 -70.29,-42.49 -107.97,-58.11 -37.42,-15.58 -76.4,-27.38 -116.69,-35.27 -39.94,-7.84 -81.79,-11.8 -125.34,-11.8 -43.99,0 -86.17,3.93 -126.37,11.77l-5.26 0.91c-39.2,7.95 -77.03,19.46 -113.25,34.39 -38.24,15.76 -73.98,34.99 -107.06,57.49 -32.81,22.34 -64.27,48.9 -94.23,79.6l-1.56 1.55c-30.08,30.46 -56.76,63.13 -79.85,97.84 -23.92,35.93 -43.52,72.52 -58.76,109.74 -15.31,37.44 -27.11,77.44 -35.27,119.82 -7.84,40.56 -11.77,83.41 -11.77,128.37 0,44.63 3.84,87.07 11.53,126.95 7.84,40.71 19.4,79.59 34.63,116.57 15.03,36.48 34.43,72.31 58.08,107.41l4.99 7.93c21.87,31.52 47.4,62.01 76.45,91.53l0.3 -0.29c32.42,32.43 65.65,60.28 99.48,83.32 34.72,23.71 70.35,43.25 106.68,58.6l0.12 -0.32c37.3,15.61 76.1,27.41 116.1,35.31 39.79,7.83 81.55,11.76 125.02,11.76zm1183.58 -638.77c0,78.3 -7.42,155.1 -22.16,230.26 -14.67,74.77 -36.83,147.53 -66.26,218.17 -29.32,70.66 -65.62,137.55 -108.71,200.53 -42.73,62.48 -92.29,121.14 -148.55,175.85 -55.68,54.14 -116.01,102.3 -180.72,144.39 -65.16,42.37 -133.56,78.15 -205.06,107.29l-8.42 3.11c-70.29,27.76 -141.72,48.75 -214.26,62.89 -76.04,14.82 -152.49,22.25 -229.44,22.25 -77.36,0 -153.93,-7.43 -229.71,-22.25 -75.12,-14.7 -148.82,-36.71 -221.07,-66l-10.74 -4.81c-69.06,-29.06 -133.8,-63.22 -193.9,-102.48l-8.8 -6.2c-61.02,-40.64 -118.07,-86.75 -170.98,-138.19 -55.32,-53.86 -104.98,-112.67 -148.79,-176.44l-0.3 0.21c-43.14,-62.78 -79.73,-129.75 -109.82,-200.92 -30.22,-71.93 -52.7,-144.77 -67.23,-218.4 -14.82,-74.84 -22.25,-151.32 -22.25,-229.26 0,-78.36 7.43,-155.13 22.25,-230.38 14.73,-74.95 36.98,-147.94 66.62,-218.93l5.1 -11.04c29.32,-67.61 64.25,-131 104.75,-190.08 43.08,-62.83 92.97,-121.94 149.67,-177.05 55.26,-53.77 115.16,-101.58 179.49,-143.31 64.47,-41.79 132.85,-77.24 205.08,-106.15 72.51,-29.14 146.44,-51.09 221.63,-65.68 75.8,-14.73 152.22,-22.13 229,-22.13 77.3,0 154.13,7.43 230.43,22.19 74.46,14.38 148.41,36.3 221.84,65.62l0.53 0.21c72.28,28.7 140.81,64.15 205.46,106.03 64.36,41.64 124.32,89.42 179.64,143.22 56.23,54.67 105.77,113.39 148.47,175.93 43.14,63.22 79.47,130.28 108.79,200.89l3.25 8.54c28,69.02 49.04,139.28 63.01,210.71l1.06 6.14c14,73.78 21.1,148.88 21.1,225.27zm1003.13 587.62c113.92,-0.12 207.63,-2.52 280.91,-7.13 74.28,-4.64 129.92,-11.21 166.87,-19.58 34.25,-7.74 65.71,-18.25 94.24,-31.48 25.18,-11.71 48.04,-26.01 68.32,-42.82 30.11,-24.95 55.82,-52.48 76.97,-82.35 22.02,-31.11 41.24,-67.33 57.44,-108.5l3.72 -8.75c14.71,-38.73 26.12,-81.49 34.22,-128.21 8.66,-50.1 13.03,-104.72 13.03,-163.73 0,-59.37 -4.25,-113.99 -12.76,-163.67 -8.48,-49.51 -20.63,-94.24 -36.51,-134.09 -16.02,-39.45 -35.45,-75.37 -58.37,-107.44 -22.07,-30.91 -48.22,-59.05 -78.36,-84.26 -20.63,-17.26 -43.67,-31.87 -69.03,-43.76 -27.79,-13.03 -60.04,-23.8 -96.64,-32.22 -38.53,-8.89 -94.23,-15.79 -167.04,-20.57 -73.05,-4.82 -165.35,-7.31 -277.01,-7.46l0 1186.02zm-542.11 370.66l0 -1924.64c0,-85.75 69.55,-155.3 155.31,-155.3l369.69 0c138.14,0 258.23,3.69 360.15,10.97 103.83,7.43 188.47,19.22 253.62,35.16l0.59 0.15c66.21,16.31 128.48,38.33 186.68,65.76 58.63,27.68 113.66,61.25 164.84,100.64 65.68,50.71 123.55,108.5 173.53,173.29 50.36,65.36 92.3,136.76 125.61,214.12 32.61,75.69 57.17,158.1 73.69,247.02 16.2,87.22 24.3,177.85 24.3,271.85 0,192.4 -32.55,364.29 -97.55,516.04 -33.43,78.04 -75.25,149.5 -125.34,214.33 -50.33,65.12 -108.65,123.11 -174.86,173.85 -50.33,38.51 -104.21,71.73 -161.67,99.49 -56.49,27.26 -116.77,49.24 -180.66,65.83l-0.74 0.17 0.12 0.44c-62.1,15.76 -139.69,27.56 -232.73,35.19 -88.36,7.25 -190.75,10.95 -307.06,10.95l-452.21 0c-85.76,0 -155.31,-69.56 -155.31,-155.31zm2351.76 0l0 -1924.64c0,-85.75 69.55,-155.3 155.31,-155.3l228.79 0c85.75,0 155.31,69.55 155.31,155.3l0 1924.64c0,85.75 -69.56,155.31 -155.31,155.31l-228.79 0c-85.76,0 -155.31,-69.56 -155.31,-155.31zm1091.08 0l0 -1924.64c0,-85.75 69.55,-155.3 155.31,-155.3l1014.8 0c85.76,0 155.31,69.55 155.31,155.3l0 209.95c0,85.76 -69.55,155.31 -155.31,155.31l-630.7 0 0 241.21 630.7 0c85.76,0 155.31,69.55 155.31,155.31l0 212.65c0,85.75 -69.55,155.3 -155.31,155.3l-630.7 0 0 426.95 630.7 0c85.76,0 155.31,69.55 155.31,155.31l0 212.65c0,85.75 -69.55,155.31 -155.31,155.31l-1014.8 0c-85.76,0 -155.31,-69.56 -155.31,-155.31zm-11280.35 2573.13l0 -1776.61c0,-85.75 69.56,-155.31 155.31,-155.31l208.72 0c85.75,0 155.31,69.56 155.31,155.31l0 399.92 477.72 -506.07c30.46,-32.4 71.6,-48.75 112.84,-48.75l0 -0.41 252.18 0c85.75,0 155.31,69.56 155.31,155.31 0,45.52 -19.61,86.46 -50.8,114.87l-657.42 690.31 745.99 870.74c55.58,64.97 47.98,162.79 -17,218.37 -29.2,24.98 -65.03,37.18 -100.69,37.18l0 0.44 -272.93 0c-51.15,0 -96.52,-24.74 -124.84,-62.92l-520.36 -621.61 0 529.23c0,85.75 -69.56,155.3 -155.31,155.3l-208.72 0c-85.75,0 -155.31,-69.55 -155.31,-155.3zm1848.19 0l0 -1776.61c0,-85.75 69.55,-155.31 155.31,-155.31l211.21 0c85.75,0 155.31,69.56 155.31,155.31l0 1776.61c0,85.75 -69.56,155.3 -155.31,155.3l-211.21 0c-85.76,0 -155.31,-69.55 -155.31,-155.3zm1542.59 -354.11c99.72,-0.26 181.99,-2.44 246.58,-6.51 68,-4.26 118.77,-10.22 152.2,-17.79 30.69,-6.93 58.95,-16.38 84.6,-28.29 22.31,-10.36 42.5,-23.01 60.46,-37.89 26.35,-21.83 49.36,-46.66 68.94,-74.28 20.1,-28.35 37.36,-60.77 51.65,-97.02l3.7 -8.66c13.11,-34.77 23.33,-73.28 30.63,-115.45 7.9,-45.52 11.86,-95.26 11.86,-149.14 0,-54.21 -3.87,-103.95 -11.59,-149.09 -7.69,-44.87 -18.7,-85.4 -32.99,-121.35 -14.47,-35.51 -31.96,-67.82 -52.53,-96.67 -19.75,-27.65 -43.2,-52.88 -70.29,-75.54 -18.31,-15.32 -38.71,-28.26 -61.1,-38.77 -24.8,-11.62 -53.79,-21.25 -86.84,-28.88 -34.98,-8.07 -85.75,-14.35 -152.28,-18.72 -64.33,-4.23 -145.33,-6.52 -243,-6.81l0 1070.86zm-524.32 354.11l0 -1776.61c0,-85.75 69.55,-155.31 155.31,-155.31l341.25 0c127.37,0 238.33,3.44 332.74,10.16 96.7,6.89 175.62,17.9 236.63,32.81l0.59 0.14c61.89,15.26 120.14,35.84 174.55,61.49 54.88,25.91 106.45,57.34 154.37,94.26 61.4,47.46 115.6,101.51 162.32,162.12 47.14,61.16 86.37,127.92 117.48,200.18 30.41,70.63 53.33,147.55 68.76,230.61 15.15,81.32 22.69,165.72 22.69,253.09 0,179.17 -30.38,339.4 -91.04,481.01 -31.25,72.95 -70.37,139.84 -117.24,200.44 -47.1,60.95 -101.66,115.22 -163.58,162.67 -47.11,36.07 -97.58,67.18 -151.32,93.09 -52.8,25.5 -109.14,46.08 -168.92,61.57l-0.74 0.18 0.12 0.44c-58.14,14.76 -130.21,25.74 -216.17,32.81l-4.08 0.29c-81.18,6.52 -174.83,9.86 -280.97,9.86l-417.44 0c-85.76,0 -155.31,-69.55 -155.31,-155.3zm3049.85 -1125.33c65.77,28.67 124.81,62.63 176.9,101.72 57.14,42.9 104.66,90.8 142.4,143.48l7.45 11.41c35.25,51.39 62.19,107.39 80.53,167.75 19.55,64.33 29.38,131.51 29.38,201.12 0,101.07 -16.7,193.87 -50.01,278.04 -34.13,86.31 -85.52,162.47 -154.04,228.23 -67.74,65.07 -146.36,113.93 -235.81,146.36 -86.66,31.46 -181.6,47.25 -284.88,47.25 -83.93,0 -163.23,-11.36 -237.83,-34.07 -76.95,-23.45 -146.18,-58.35 -207.6,-104.74l-11.07 -9.19c-57.69,-45.69 -106.09,-99.69 -145.24,-161.94 -41.05,-65.27 -71.87,-138.34 -92.44,-219.22 -19.22,-75.66 20.72,-152.44 90.77,-181.52l182.83 -90.42c76.69,-37.86 169.6,-6.34 207.46,70.35 6.14,12.41 10.42,25.24 13,38.18 9.86,39.21 22.16,72.84 36.8,100.75 12.83,24.5 27.94,44.87 45.26,60.95l1.61 1.56c14.29,13.15 30.05,22.98 47.13,29.32 18.76,6.98 41.91,10.47 69.32,10.47 35.69,0 66.47,-4.63 92.27,-13.79 23.39,-8.33 43.58,-20.34 60.37,-35.86 15.79,-14.97 27.56,-31.96 35.39,-51.01 8.22,-20.01 12.39,-44.78 12.39,-74.1 0,-24.48 -2.91,-45.43 -8.63,-62.75 -5.69,-17.19 -14.65,-33.6 -26.74,-49.06l-0.5 -0.65c-13.7,-17.52 -31.6,-34.28 -53.73,-50.18 -24.56,-17.64 -55.59,-34.69 -92.94,-51.13l-213.13 -91.24c-69.37,-28.85 -131.3,-62.89 -185.53,-102.01 -57.26,-41.26 -105.06,-87.72 -143.19,-139.34l-3.49 -4.93c-37.97,-51.95 -66.5,-108.38 -85.4,-169.04 -19.34,-62.16 -29.05,-128.05 -29.05,-197.37 0,-84.43 16.37,-163.2 49.12,-236.1 32.73,-72.84 81.09,-137.4 145.07,-193.45 62.65,-54.94 133.32,-96.06 211.89,-123.12 76.3,-26.32 159.47,-39.53 249.51,-39.53 64.21,0 126.19,7.34 185.56,21.89 61.25,15 117.74,37.51 169.13,67.27 53.18,30.96 100.37,68.94 141.37,114.01 39.62,43.53 73.84,94.5 102.51,152.96 34.92,71.41 9.74,156.66 -55.79,198.33l-174.76 111.44c-72.02,45.9 -167.64,24.71 -213.54,-47.31l-3.81 -6.34 -0.44 0.26c-14.35,-25.06 -29.41,-46.63 -44.99,-64.53 -14.59,-16.76 -28.12,-29.35 -40.44,-37.74 -10.63,-7.22 -23.04,-13 -37.1,-17.26 -13.12,-3.96 -27.61,-5.96 -43.46,-5.96 -22.1,0 -40.21,2.67 -54.26,7.9 -12.18,4.55 -23.36,11.68 -33.4,21.3 -9.28,8.9 -16.14,18.7 -20.46,29.29 -4.9,12.06 -7.39,26.94 -7.39,44.61 0,25.42 7.13,46.66 21.36,63.48l1.09 1.32c10.48,12.41 24.27,24.45 41.2,35.95l0.3 -0.41c23.15,15.67 50.41,30.32 81.55,43.87 86.08,38.27 175.12,74.61 260.17,114.49zm748.8 1006.47c0,-82.09 29.38,-152.58 88.07,-211.36l-0.29 -0.29c28.43,-28.44 60.86,-50.25 97.22,-65.42 36.34,-15.2 74.58,-22.77 114.43,-22.77 40.21,0 78.36,7.39 114.49,22.04 35.65,14.49 67.99,35.92 97.02,64.09l0.88 0.88c29.43,29.06 51.68,61.48 66.56,96.97 15.26,36.42 22.95,75.07 22.95,115.86 0,40.21 -7.6,78.36 -22.69,114.45l-0.2 0.5c-14.79,35.75 -37.13,68.06 -66.68,96.7l-1.88 1.76c-28.76,27.21 -61.07,47.9 -97.05,61.96 -35.89,14.08 -73.6,21.16 -113.4,21.16 -38.68,0 -76.42,-7.28 -112.78,-21.72 -36.45,-14.44 -69.03,-35.57 -97.46,-63.16l-0.83 -0.82c-28.76,-28.32 -50.71,-60.54 -65.71,-96.38 -15.02,-36.15 -22.65,-74.3 -22.65,-114.45zm-3211.55 -2773.78c42.84,0 84.31,-3.93 124.08,-11.76 41.47,-8.37 80.26,-20.08 116.01,-35.13l0 -0.62c39.82,-16.73 76.12,-36.21 108.73,-58.34 32.81,-22.28 65.74,-49.95 98.61,-82.82 31.72,-31.73 58.72,-64.07 80.76,-96.88 23.04,-34.25 42.47,-70.4 58.14,-108.35 15.52,-37.65 27.35,-77.01 35.3,-117.89l0.12 -0.58c7.72,-40.24 11.65,-82.41 11.65,-126.4 0,-45.02 -3.96,-88.1 -11.88,-128.99 -8.04,-41.61 -19.99,-81.7 -35.66,-119.94 -16.02,-39.15 -35.57,-75.86 -58.4,-110.05 -22.86,-34.25 -49.54,-66.56 -79.77,-96.85 -30.05,-30.02 -62.66,-56.87 -97.7,-80.47 -34.24,-23.07 -70.34,-42.49 -107.97,-58.11 -37.41,-15.58 -76.39,-27.38 -116.68,-35.27 -39.94,-7.84 -81.79,-11.8 -125.34,-11.8 -44,0 -86.17,3.93 -126.37,11.77l-5.26 0.91c-39.21,7.95 -77.03,19.46 -113.25,34.39 -38.24,15.76 -73.98,34.99 -107.06,57.49 -32.81,22.34 -64.27,48.9 -94.23,79.6l-1.56 1.55c-30.08,30.46 -56.76,63.13 -79.85,97.84 -23.92,35.93 -43.53,72.52 -58.76,109.74 -15.32,37.44 -27.11,77.44 -35.27,119.82 -7.84,40.56 -11.77,83.41 -11.77,128.37 0,44.63 3.84,87.07 11.53,126.95 7.84,40.71 19.4,79.59 34.63,116.57 15.03,36.48 34.43,72.31 58.08,107.41l4.99 7.93c21.86,31.52 47.4,62.01 76.45,91.53l0.29 -0.29c32.43,32.43 65.65,60.28 99.49,83.32 34.72,23.71 70.35,43.25 106.68,58.6l0.12 -0.32c37.3,15.61 76.1,27.41 116.1,35.31 39.79,7.83 81.55,11.76 125.02,11.76zm1183.58 -638.77c0,78.33 -7.43,155.1 -22.19,230.26 -14.64,74.77 -36.8,147.53 -66.23,218.17 -29.35,70.66 -65.63,137.55 -108.71,200.53 -42.76,62.48 -92.32,121.14 -148.55,175.85 -55.74,54.14 -116.01,102.3 -180.73,144.39 -65.18,42.4 -133.62,78.18 -205.05,107.29l-8.42 3.11c-70.61,27.91 -141.87,48.92 -213.65,62.89l-6.07 1.06c-74.25,14.12 -148.88,21.19 -223.98,21.19 -77.36,0 -153.93,-7.43 -229.71,-22.25 -75.13,-14.7 -148.82,-36.71 -221.07,-66l-10.74 -4.81c-69.06,-29.06 -133.8,-63.22 -193.9,-102.48l-8.81 -6.2c-61.01,-40.64 -118.06,-86.75 -170.97,-138.19 -55.32,-53.86 -104.98,-112.67 -148.8,-176.44l-0.29 0.21c-43.14,-62.78 -79.74,-129.75 -109.82,-200.92 -30.22,-71.93 -52.71,-144.77 -67.23,-218.4 -14.82,-74.84 -22.25,-151.32 -22.25,-229.26 0,-78.36 7.43,-155.13 22.25,-230.38 14.73,-74.95 36.98,-147.94 66.62,-218.93l5.1 -11.04c29.32,-67.61 64.24,-131 104.74,-190.08 43.09,-62.83 92.98,-121.94 149.68,-177.05 55.26,-53.77 115.16,-101.58 179.49,-143.31 64.47,-41.79 132.85,-77.24 205.08,-106.15 72.51,-29.14 146.44,-51.09 221.63,-65.68 75.8,-14.73 152.22,-22.13 229,-22.13 77.3,0 154.13,7.43 230.43,22.19 74.46,14.38 148.41,36.3 221.84,65.62l0.53 0.21c72.28,28.7 140.81,64.15 205.46,106.03 64.36,41.64 124.32,89.42 179.64,143.22 56.23,54.67 105.76,113.39 148.46,175.93 43.15,63.22 79.48,130.28 108.8,200.89l3.25 8.54c28,69.02 49.07,139.28 62.98,210.71 14.76,75.54 22.19,152.67 22.19,231.41zm2929.23 3444.36l494.62 -854.95 -461.37 -753.93c-44.55,-73.02 -21.45,-168.37 51.56,-212.92 25.24,-15.41 53.12,-22.72 80.68,-22.69l0 -0.38 253.44 0c61.25,0 114.2,35.48 139.49,86.99l238.95 424.36 234.02 -430.06c28.02,-51.5 81.08,-80.67 135.88,-80.73l0 -0.56 240.18 0c85.75,0 155.3,69.56 155.3,155.31 0,32.34 -9.89,62.39 -26.82,87.25l-451.22 763.3 517.93 845.38c44.54,73.02 21.45,168.37 -51.57,212.92 -25.24,15.4 -53.12,22.71 -80.67,22.68l0 0.38 -248.49 0c-60.34,0 -112.66,-34.42 -138.37,-84.72l-296.12 -517.52 -281.68 520.34c-27.93,51.97 -81.32,81.52 -136.49,81.58l0 0.32 -240.62 0c-85.75,0 -155.31,-69.55 -155.31,-155.3 0,-32.26 9.83,-62.22 26.68,-87.05zm2283.67 87.05l0 -768.99 -577.61 -925.74c-45.2,-72.67 -22.92,-168.31 49.74,-213.5 25.53,-15.88 53.88,-23.42 81.88,-23.39l243.49 -0.3c59.29,0 110.82,33.25 137,82.09l327.55 543.31 329.83 -549.56c28.97,-48.43 80.24,-75.31 132.86,-75.34l0 -0.5 243.08 0c85.76,0 155.31,69.56 155.31,155.31 0,33.6 -10.68,64.74 -28.85,90.15l-572.45 917.47 0 768.99c0,85.75 -69.55,155.3 -155.31,155.3l-211.21 0c-85.75,0 -155.31,-69.55 -155.31,-155.3zm1213.02 -92.8l842.66 -1334.69 -529.29 0c-85.75,0 -155.3,-69.56 -155.3,-155.31l0 -193.81c0,-85.75 69.55,-155.31 155.3,-155.31l1168.27 0c85.75,0 155.3,69.56 155.3,155.31 0,34.6 -11.32,66.59 -30.49,92.41l-833.05 1327.63 668.06 0c85.75,0 155.31,69.55 155.31,155.3l0 201.27c0,85.75 -69.56,155.3 -155.31,155.3l-1316.91 0c-85.75,0 -155.3,-69.55 -155.3,-155.3 0,-34.78 11.44,-66.92 30.75,-92.8z"/>
   <path class="fil0" d="M6665.11 4669.2c0,-82.09 29.38,-152.58 88.07,-211.36l-0.29 -0.29c28.43,-28.44 60.86,-50.25 97.22,-65.42 36.34,-15.2 74.58,-22.77 114.43,-22.77 40.21,0 78.36,7.39 114.49,22.04 35.65,14.49 67.99,35.92 97.02,64.09l0.88 0.88c29.43,29.06 51.68,61.48 66.56,96.97 15.26,36.42 22.95,75.07 22.95,115.86 0,40.21 -7.6,78.36 -22.69,114.45l-0.2 0.5c-14.79,35.75 -37.13,68.06 -66.68,96.7l-1.88 1.76c-28.76,27.21 -61.07,47.9 -97.05,61.96 -35.89,14.08 -73.6,21.16 -113.4,21.16 -38.68,0 -76.42,-7.28 -112.78,-21.72 -36.45,-14.44 -69.03,-35.57 -97.46,-63.16l-0.83 -0.82c-28.76,-28.32 -50.71,-60.54 -65.71,-96.38 -15.02,-36.15 -22.65,-74.3 -22.65,-114.45z"/>
   <path class="fil1" d="M7566.37 4701.01l494.62 -854.95 -461.37 -753.93c-44.55,-73.02 -21.45,-168.37 51.56,-212.92 25.24,-15.41 53.12,-22.72 80.68,-22.69l0 -0.38 253.44 0c61.25,0 114.2,35.48 139.49,86.99l238.95 424.36 234.02 -430.06c28.02,-51.5 81.08,-80.67 135.88,-80.73l0 -0.56 240.18 0c85.75,0 155.3,69.56 155.3,155.31 0,32.34 -9.89,62.39 -26.82,87.25l-451.22 763.3 517.93 845.38c44.54,73.02 21.45,168.37 -51.57,212.92 -25.24,15.4 -53.12,22.71 -80.67,22.68l0 0.38 -248.49 0c-60.34,0 -112.66,-34.42 -138.37,-84.72l-296.12 -517.52 -281.68 520.34c-27.93,51.97 -81.32,81.52 -136.49,81.58l0 0.32 -240.62 0c-85.75,0 -155.31,-69.55 -155.31,-155.3 0,-32.26 9.83,-62.22 26.68,-87.05z"/>
   <path class="fil2" d="M9850.04 4788.06l0 -768.99 -577.61 -925.74c-45.2,-72.67 -22.92,-168.31 49.74,-213.5 25.53,-15.88 53.88,-23.42 81.88,-23.39l243.49 -0.3c59.29,0 110.82,33.25 137,82.09l327.55 543.31 329.83 -549.56c28.97,-48.43 80.24,-75.31 132.86,-75.34l0 -0.5 243.08 0c85.76,0 155.31,69.56 155.31,155.31 0,33.6 -10.68,64.74 -28.85,90.15l-572.45 917.47 0 768.99c0,85.75 -69.55,155.3 -155.31,155.3l-211.21 0c-85.75,0 -155.31,-69.55 -155.31,-155.3z"/>
   <path class="fil3" d="M11063.06 4695.26l842.66 -1334.69 -529.29 0c-85.75,0 -155.3,-69.56 -155.3,-155.31l0 -193.81c0,-85.75 69.55,-155.31 155.3,-155.31l1168.27 0c85.75,0 155.3,69.56 155.3,155.31 0,34.6 -11.32,66.59 -30.49,92.41l-833.05 1327.63 668.06 0c85.75,0 155.31,69.55 155.31,155.3l0 201.27c0,85.75 -69.56,155.3 -155.31,155.3l-1316.91 0c-128.95,0 -199.68,-147.38 -124.55,-248.1z"/>
   <path class="fil2" d="M3453.56 1895.42c42.84,0 84.31,-3.93 124.08,-11.76 41.47,-8.37 80.26,-20.08 116.01,-35.13l0 -0.62c39.82,-16.73 76.12,-36.21 108.73,-58.34 32.81,-22.28 65.74,-49.95 98.61,-82.82 31.72,-31.73 58.72,-64.07 80.76,-96.88 23.04,-34.25 42.47,-70.4 58.14,-108.35 15.52,-37.65 27.35,-77.01 35.3,-117.89l0.12 -0.58c7.72,-40.24 11.65,-82.41 11.65,-126.4 0,-45.02 -3.96,-88.1 -11.88,-128.99 -8.04,-41.61 -19.99,-81.7 -35.66,-119.94 -16.02,-39.15 -35.57,-75.86 -58.4,-110.05 -22.86,-34.25 -49.54,-66.56 -79.77,-96.85 -30.05,-30.02 -62.66,-56.87 -97.7,-80.47 -34.24,-23.07 -70.34,-42.49 -107.97,-58.11 -37.41,-15.58 -76.39,-27.38 -116.68,-35.27 -39.94,-7.84 -81.79,-11.8 -125.34,-11.8 -44,0 -86.17,3.93 -126.37,11.77l-5.26 0.91c-39.21,7.95 -77.03,19.46 -113.25,34.39 -38.24,15.76 -73.98,34.99 -107.06,57.49 -32.81,22.34 -64.27,48.9 -94.23,79.6l-1.56 1.55c-30.08,30.46 -56.76,63.13 -79.85,97.84 -23.92,35.93 -43.53,72.52 -58.76,109.74 -15.32,37.44 -27.11,77.44 -35.27,119.82 -7.84,40.56 -11.77,83.41 -11.77,128.37 0,44.63 3.84,87.07 11.53,126.95 7.84,40.71 19.4,79.59 34.63,116.57 15.03,36.48 34.43,72.31 58.08,107.41l4.99 7.93c21.86,31.52 47.4,62.01 76.45,91.53l0.29 -0.29c32.43,32.43 65.65,60.28 99.49,83.32 34.72,23.71 70.35,43.25 106.68,58.6l0.12 -0.32c37.3,15.61 76.1,27.41 116.1,35.31 39.79,7.83 81.55,11.76 125.02,11.76zm1183.58 -638.77c0,78.33 -7.43,155.1 -22.19,230.26 -14.64,74.77 -36.8,147.53 -66.23,218.17 -29.35,70.66 -65.63,137.55 -108.71,200.53 -42.76,62.48 -92.32,121.14 -148.55,175.85 -55.74,54.14 -116.01,102.3 -180.73,144.39 -65.18,42.4 -133.62,78.18 -205.05,107.29 -75.68,27.97 -142.36,50.48 -222.07,66 -78.77,13.71 -149.82,22.25 -230.05,22.25 -77.36,0 -153.93,-7.43 -229.71,-22.25 -75.13,-14.7 -148.82,-36.71 -221.07,-66l-10.74 -4.81c-69.06,-29.06 -133.8,-63.22 -193.9,-102.48l-8.81 -6.2c-61.01,-40.64 -118.06,-86.75 -170.97,-138.19 -55.32,-53.86 -104.98,-112.67 -148.8,-176.44l-0.29 0.21c-43.14,-62.78 -79.74,-129.75 -109.82,-200.92 -30.22,-71.93 -52.71,-144.77 -67.23,-218.4 -14.82,-74.84 -22.25,-151.32 -22.25,-229.26 0,-78.36 7.43,-155.13 22.25,-230.38 14.73,-74.95 36.98,-147.94 66.62,-218.93l5.1 -11.04c29.32,-67.61 64.24,-131 104.74,-190.08 43.09,-62.83 92.98,-121.94 149.68,-177.05 55.26,-53.77 115.16,-101.58 179.49,-143.31 64.47,-41.79 132.85,-77.24 205.08,-106.15 72.51,-29.14 146.44,-51.09 221.63,-65.68 75.8,-14.73 152.22,-22.13 229,-22.13 77.3,0 154.13,7.43 230.43,22.19 74.46,14.38 148.41,36.3 221.84,65.62l0.53 0.21c72.28,28.7 140.81,64.15 205.46,106.03 64.36,41.64 124.32,89.42 179.64,143.22 56.23,54.67 105.76,113.39 148.46,175.93 43.15,63.22 79.48,130.28 108.8,200.89l3.25 8.54c28,69.02 49.07,139.28 62.98,210.71 14.76,75.54 22.19,152.67 22.19,231.41z"/>
  </g>
 </g>
</svg>
