<?xml version="1.0" encoding="UTF-8"?>
<!DOCTYPE svg PUBLIC "-//W3C//DTD SVG 1.1//EN" "http://www.w3.org/Graphics/SVG/1.1/DTD/svg11.dtd">
<!-- Creator: CorelDRAW 2018 (64-Bit Evaluation Version) -->
<svg xmlns="http://www.w3.org/2000/svg" xml:space="preserve" width="100%" height="100%" version="1.1" style="shape-rendering:geometricPrecision; text-rendering:geometricPrecision; image-rendering:optimizeQuality; fill-rule:evenodd; clip-rule:evenodd"
viewBox="0 0 12700 12700"
 xmlns:xlink="http://www.w3.org/1999/xlink">
 <defs>
  <style type="text/css">
   <![CDATA[
    .fil0 {fill:white}
   ]]>
  </style>
 </defs>
 <g id="Layer_x0020_1">
  <metadata id="CorelCorpID_0Corel-Layer"/>
  <path class="fil0" d="M4795.89 7372.18c-465.94,59.86 -890.66,148.85 -1254.83,266.94 -162.31,52.59 -347.34,91.85 -498.92,92.71 -150.52,0.77 -275.87,-37.09 -339.57,-134.2 -227.41,-346.4 -427.83,-712.32 -571.76,-1101.02 -145.01,-391.43 -232.42,-805.04 -232.42,-1243.85 0,-254.2 25.81,-504.77 75.11,-749.19 42.68,-211.53 102.58,-416.43 178.11,-613.25 -228.65,-97.8 -425.14,-255.83 -569.16,-453.94 -163.12,-224.34 -259.33,-500.03 -259.33,-797.9 0,-375.92 153.29,-716.51 401.09,-963.16 247.58,-246.51 589.45,-398.99 966.7,-398.99 253.99,0 492.26,69.34 696.52,189.95 176.27,104.07 327.09,246.6 440.82,415.78 348.49,-220.49 732.57,-396.56 1142.42,-519.04 887.75,-265.32 1872.99,-265.32 2760.78,0 409.85,122.48 793.93,298.55 1142.42,519.04 113.73,-169.18 264.55,-311.71 440.82,-415.78 204.26,-120.61 442.53,-189.95 696.52,-189.95 377.25,0 719.12,152.48 966.7,398.99 247.8,246.65 401.09,587.24 401.09,963.16 0,297.87 -96.21,573.56 -259.33,797.9 -144.02,198.11 -340.51,356.14 -569.16,453.94 75.53,196.82 135.43,401.72 178.11,613.25 49.3,244.42 75.11,494.99 75.11,749.19 0,438.81 -87.41,852.42 -232.42,1243.85 -143.93,388.7 -344.35,754.62 -571.76,1101.02 -63.7,97.11 -189.05,134.97 -339.57,134.2 -151.58,-0.86 -336.61,-40.12 -498.92,-92.71 -364.17,-118.09 -788.89,-207.08 -1254.83,-266.94 -963.71,-123.73 -2146.63,-123.73 -3110.34,0zm1364.75 -2629.19c-195.54,11.83 -502.72,62.63 -488.97,290.39 7.31,121.25 100.1,254.84 227.33,361.65 303.13,254.59 600.4,255.02 904.12,0 127.23,-106.81 220.02,-240.4 227.33,-361.65 13.75,-227.76 -293.43,-278.56 -488.97,-290.39 -91.73,-5.51 -289.11,-5.51 -380.84,0zm-1859.02 5665.24c-456.84,-389.72 -686.14,-969.09 -686.14,-1689.96 0,-156.07 -126.54,-282.62 -282.61,-282.62 -156.07,0 -282.61,126.55 -282.61,282.62 0,889.75 295.73,1615.71 884.88,2118.3 1156.99,987.17 3674.85,987.17 4831.84,0 589.15,-502.59 884.88,-1228.55 884.88,-2118.3 0,-156.07 -126.54,-282.62 -282.61,-282.62 -156.07,0 -282.61,126.55 -282.61,282.62 0,720.87 -229.3,1300.24 -686.14,1689.96 -942.95,804.52 -3155.93,804.52 -4098.88,0zm2966.54 -1253.42c-5.47,-93.26 -85.58,-164.4 -178.84,-158.93 -93.27,5.47 -164.4,85.58 -158.93,178.84 25.42,409.08 -314.57,477.9 -508.11,489.95 -89.25,4.45 -33.32,4.45 -122.57,0 -193.54,-12.05 -553.4,-80.87 -527.98,-489.95 5.47,-93.26 -65.66,-173.37 -158.93,-178.84 -93.26,-5.47 -173.37,65.67 -178.84,158.93 -44,707.42 508.66,826.66 845.88,847.63 94.5,2.05 67.84,1.29 162.35,0 337.17,-20.97 869.97,-140.21 825.97,-847.63zm602.61 -949.14c-151.75,0 -275.05,123.3 -275.05,275.05 0,151.54 123.73,275.06 275.05,275.06 151.16,0 275.05,-123.9 275.05,-275.06 0,-151.28 -123.68,-275.05 -275.05,-275.05zm1184.93 -4402.9c-205.24,0 -373.06,167.82 -373.06,373.07 0,205.24 167.82,373.06 373.06,373.06 205.25,0 373.06,-167.78 373.06,-373.06 0,-205.25 -167.77,-373.07 -373.06,-373.07zm-135.6 -327.77c472.05,0 853.44,381.39 853.44,853.44 0,471.54 -381.82,853.44 -853.44,853.44 -471.41,0 -853.44,-382.03 -853.44,-853.44 0,-471.62 381.6,-853.44 853.44,-853.44zm904.15 -792.13c-94.29,-106.08 -197.46,-208.02 -306.84,-305.64 -79.67,-66.4 -118.13,-186.49 -35.84,-267.11 122.7,-120.18 291.54,-172.94 465.77,-160.26 178.33,12.99 362.17,94.55 510.07,242.46 148.34,148.33 230.62,333.41 243.65,512.55 12.61,173.54 -40.07,341.45 -161.02,462.4 -151.45,151.45 -250.14,122.18 -313.97,58.48 -46.7,-46.82 -84.04,-110.31 -110.06,-154.7 -78.87,-134.66 -188.28,-271.8 -291.76,-388.18zm-4992.9 5522.8c151.75,0 275.05,123.3 275.05,275.05 0,151.54 -123.73,275.06 -275.05,275.06 -151.16,0 -275.05,-123.9 -275.05,-275.06 0,-151.28 123.68,-275.05 275.05,-275.05zm-1184.93 -4402.9c205.24,0 373.06,167.82 373.06,373.07 0,205.24 -167.82,373.06 -373.06,373.06 -205.25,0 -373.06,-167.78 -373.06,-373.06 0,-205.25 167.77,-373.07 373.06,-373.07zm135.6 -327.77c-472.05,0 -853.44,381.39 -853.44,853.44 0,471.54 381.82,853.44 853.44,853.44 471.41,0 853.44,-382.03 853.44,-853.44 0,-471.62 -381.6,-853.44 -853.44,-853.44zm-904.15 -792.13c94.29,-106.08 197.46,-208.02 306.84,-305.64 79.67,-66.4 118.13,-186.49 35.84,-267.11 -122.7,-120.18 -291.54,-172.94 -465.77,-160.26 -178.33,12.99 -362.17,94.55 -510.07,242.46 -148.34,148.33 -230.62,333.41 -243.65,512.55 -12.61,173.54 40.07,341.45 161.02,462.4 151.45,151.45 250.14,122.18 313.97,58.48 46.7,-46.82 84.04,-110.31 110.06,-154.7 78.87,-134.66 188.28,-271.8 291.76,-388.18z"/>
 </g>
</svg>
