<?xml version="1.0" encoding="UTF-8"?>
<!DOCTYPE svg PUBLIC "-//W3C//DTD SVG 1.1//EN" "http://www.w3.org/Graphics/SVG/1.1/DTD/svg11.dtd">
<!-- Creator: CorelDRAW 2018 (64-Bit Evaluation Version) -->
<svg xmlns="http://www.w3.org/2000/svg" xml:space="preserve" width="100%" height="100%" version="1.1" style="shape-rendering:geometricPrecision; text-rendering:geometricPrecision; image-rendering:optimizeQuality; fill-rule:evenodd; clip-rule:evenodd"
viewBox="0 0 12700 12700"
 xmlns:xlink="http://www.w3.org/1999/xlink">
 <defs>
  <style type="text/css">
   <![CDATA[
    .fil0 {fill:white}
   ]]>
  </style>
 </defs>
 <g id="Layer_x0020_1">
  <metadata id="CorelCorpID_0Corel-Layer"/>
  <path class="fil0" d="M4827.54 7351.79c-456.45,58.65 -872.52,145.82 -1229.28,261.5 -159.01,51.52 -340.28,90 -488.78,90.83 -147.45,0.75 -270.25,-36.33 -332.65,-131.46 -222.78,-339.36 -419.13,-697.84 -560.13,-1078.62 -142.05,-383.47 -227.68,-788.65 -227.68,-1218.53 0,-249.03 25.27,-494.5 73.57,-733.94 41.82,-207.22 100.5,-407.95 174.49,-600.77 -224,-95.8 -416.48,-250.62 -557.57,-444.71 -159.8,-219.77 -254.06,-489.85 -254.06,-781.65 0,-368.27 150.18,-701.94 392.93,-943.55 242.54,-241.5 577.46,-390.88 947.03,-390.88 248.82,0 482.24,67.94 682.33,186.09 172.7,101.96 320.44,241.58 431.86,407.32 341.39,-216.02 717.66,-388.48 1119.16,-508.48 869.69,-259.92 1834.87,-259.92 2704.6,0 401.5,120 777.77,292.46 1119.16,508.48 111.42,-165.74 259.16,-305.36 431.86,-407.32 200.09,-118.15 433.51,-186.09 682.33,-186.09 369.57,0 704.49,149.38 947.03,390.88 242.75,241.61 392.93,575.28 392.93,943.55 0,291.8 -94.26,561.88 -254.06,781.65 -141.09,194.09 -333.57,348.91 -557.57,444.71 73.99,192.82 132.67,393.55 174.49,600.77 48.3,239.44 73.57,484.91 73.57,733.94 0,429.88 -85.63,835.06 -227.68,1218.53 -141,380.78 -337.35,739.26 -560.13,1078.62 -62.4,95.13 -185.2,132.21 -332.65,131.46 -148.5,-0.83 -329.77,-39.31 -488.78,-90.83 -356.76,-115.68 -772.83,-202.85 -1229.28,-261.5 -944.1,-121.2 -2102.94,-121.2 -3047.04,0zm3012.3 527.67c308.36,0 558.32,249.95 558.32,558.32 0,308.36 -249.96,558.32 -558.32,558.32 -308.36,0 -558.32,-249.96 -558.32,-558.32 0,-308.37 249.96,-558.32 558.32,-558.32zm-2977.56 0c308.36,0 558.32,249.95 558.32,558.32 0,308.36 -249.96,558.32 -558.32,558.32 -308.36,0 -558.32,-249.96 -558.32,-558.32 0,-308.37 249.96,-558.32 558.32,-558.32zm1302.24 -3103.34c-191.57,11.58 -492.5,61.35 -479.02,284.47 7.16,118.79 98.06,249.66 222.71,354.29 296.95,249.42 588.16,249.83 885.7,0 124.65,-104.63 215.55,-235.5 222.71,-354.29 13.48,-223.12 -287.45,-272.89 -479.02,-284.47 -89.85,-5.41 -283.23,-5.41 -373.08,0zm-1821.19 5549.92c-447.53,-381.78 -672.16,-949.36 -672.16,-1655.56 0,-152.9 -123.98,-276.86 -276.87,-276.86 -152.89,0 -276.86,123.96 -276.86,276.86 0,871.64 289.71,1582.82 866.87,2075.19 1133.44,967.07 3600.06,967.07 4733.5,0 577.16,-492.37 866.87,-1203.55 866.87,-2075.19 0,-152.9 -123.97,-276.86 -276.86,-276.86 -152.89,0 -276.87,123.96 -276.87,276.86 0,706.2 -224.63,1273.78 -672.16,1655.56 -923.76,788.16 -3091.7,788.16 -4015.46,0zm2906.16 -1227.9c-5.35,-91.36 -83.83,-161.05 -175.2,-155.69 -91.36,5.36 -161.05,83.83 -155.69,175.19 24.9,400.75 -308.18,468.18 -497.77,479.98 -87.43,4.35 -32.64,4.35 -120.08,0 -189.6,-11.8 -542.13,-79.23 -517.23,-479.98 5.36,-91.36 -64.33,-169.83 -155.69,-175.19 -91.37,-5.36 -169.85,64.33 -175.2,155.69 -43.11,693.02 498.31,809.83 828.66,830.38 92.58,2.01 66.47,1.26 159.04,0 330.32,-20.55 852.27,-137.36 809.16,-830.38zm1618.32 -5564.21c462.45,0 836.08,373.63 836.08,836.08 0,461.93 -374.06,836.07 -836.08,836.07 -461.82,0 -836.07,-374.26 -836.07,-836.07 0,-462.03 373.83,-836.08 836.07,-836.08zm885.75 -776c-92.36,-103.92 -193.45,-203.8 -300.59,-299.43 -78.05,-65.04 -115.72,-182.69 -35.12,-261.67 120.21,-117.74 285.62,-169.43 456.29,-156.99 174.7,12.72 354.8,92.63 499.69,237.52 145.33,145.31 225.94,326.63 238.7,502.12 12.35,170.01 -39.26,334.5 -157.75,452.98 -148.37,148.37 -245.06,119.7 -307.59,57.3 -45.74,-45.87 -82.33,-108.06 -107.81,-151.56 -77.26,-131.91 -184.45,-266.27 -285.82,-380.27zm-5919.25 776c-462.45,0 -836.08,373.63 -836.08,836.08 0,461.93 374.06,836.07 836.08,836.07 461.82,0 836.07,-374.26 836.07,-836.07 0,-462.03 -373.83,-836.08 -836.07,-836.08zm-885.75 -776c92.36,-103.92 193.45,-203.8 300.59,-299.43 78.05,-65.04 115.72,-182.69 35.12,-261.67 -120.21,-117.74 -285.62,-169.43 -456.29,-156.99 -174.7,12.72 -354.8,92.63 -499.69,237.52 -145.33,145.31 -225.94,326.63 -238.7,502.12 -12.35,170.01 39.26,334.5 157.75,452.98 148.37,148.37 245.06,119.7 307.59,57.3 45.74,-45.87 82.33,-108.06 107.81,-151.56 77.26,-131.91 184.45,-266.27 285.82,-380.27z"/>
 </g>
</svg>
