<?xml version="1.0" encoding="UTF-8"?>
<!DOCTYPE svg PUBLIC "-//W3C//DTD SVG 1.1//EN" "http://www.w3.org/Graphics/SVG/1.1/DTD/svg11.dtd">
<!-- Creator: CorelDRAW 2018 (64-Bit Evaluation Version) -->
<svg xmlns="http://www.w3.org/2000/svg" xml:space="preserve" width="100%" height="100%" version="1.1" style="shape-rendering:geometricPrecision; text-rendering:geometricPrecision; image-rendering:optimizeQuality; fill-rule:evenodd; clip-rule:evenodd"
viewBox="0 0 45720 22860"
 xmlns:xlink="http://www.w3.org/1999/xlink">
 <defs>
  <style type="text/css">
   <![CDATA[
    .fil7 {fill:yellow}
    .fil4 {fill:#FA8A75}
    .fil2 {fill:#F77594}
    .fil6 {fill:#EB4FB3}
    .fil3 {fill:#9C70CC}
    .fil5 {fill:#578AD6}
    .fil1 {fill:#003896}
    .fil0 {fill:url(#id0)}
   ]]>
  </style>
  <linearGradient id="id0" gradientUnits="userSpaceOnUse" x1="22852.46" y1="22860" x2="22852.46" y2="1655">
   <stop offset="0" style="stop-opacity:1; stop-color:black"/>
   <stop offset="0.341176" style="stop-opacity:1; stop-color:black"/>
   <stop offset="0.368627" style="stop-opacity:1; stop-color:#003896"/>
   <stop offset="0.54902" style="stop-opacity:1; stop-color:#578AD6"/>
   <stop offset="0.709804" style="stop-opacity:1; stop-color:#F77594"/>
   <stop offset="0.858824" style="stop-opacity:1; stop-color:#FA8A75"/>
   <stop offset="1" style="stop-opacity:1; stop-color:#EB4FB3"/>
  </linearGradient>
 </defs>
 <g id="Layer_x0020_1">
  <metadata id="CorelCorpID_0Corel-Layer"/>
  <path class="fil0" d="M0.81 22860c14390.53,-2299.51 30922.55,0 45703.3,0l0 -21205 -45703.3 0 0 21205z"/>
  <path class="fil1" d="M45719.19 19694.13c-2289.79,214.19 -8022.53,-26.95 -10390.58,-335.34 -460.94,-60.02 -941.82,-94.63 -1410.57,-145.94 -935.07,-102.34 -1857.36,-194.07 -2773.72,-319.04 -908.71,-123.94 -1862.15,-193.05 -2773.45,-330.09 -461.07,-69.34 -921.2,-114.12 -1367.67,-183.79 -692.06,-107.99 -1944.44,-333.23 -2605.43,-499.53 -179.62,-45.19 -1167.27,-283.62 -1274.15,-273.04 -82.87,-64.75 -2629.9,-478.64 -2838.13,-513.66 -198.44,-33.36 -363.91,-77.69 -561.86,-112.69 -385.46,-68.15 -765.39,-114.1 -1169.38,-157.54 -795.51,-85.54 -1578.75,-260.9 -2369.53,-314.56 -419.43,-28.47 -858.9,-18.63 -1284.4,-48.27 -1429.53,-99.56 -2542.44,66.19 -3870.31,82.02 -898.03,10.69 -1702.38,62 -2566.02,132.63 -1023.34,83.68 -1308.8,15.35 -2448.68,231.68 -184.9,35.09 -2080.49,368.9 -2192.47,462.3 -109.11,-6.98 -768.49,181.38 -936.81,221.19 -318.66,75.38 -644.8,145.98 -958.91,221.22 -632.53,151.54 -1288.51,294.15 -1927.12,416.67l0 -4830.32 544.32 154.16c736.3,188.72 1862.7,317.5 2680.63,370.58 969.08,62.89 2056.71,28.88 3039.36,28.03 1020.61,-0.88 2000.07,-36.63 3019.19,-46.35 491.52,-4.7 958.56,-63.17 1437.16,-82.14 474.35,-18.8 947.64,-53.7 1418.63,-97.72 944.26,-88.25 1942.33,-90.18 2895.67,-157.5 475.81,-33.59 962.57,-59.27 1436.15,-92.98 477.08,-33.95 941.72,-84.1 1419.29,-97.78 747.19,-21.42 2267.35,-5.07 3012.25,40.18 1808.03,109.84 3800.09,179.9 5567,512.84 846.11,159.43 1661.54,361.83 2528.9,512.89 749.69,130.55 1867.61,372.04 2571.41,467.52 443.76,60.2 868.19,131.45 1314.76,197.38 433.35,63.98 894.63,114.14 1316.24,197.16 1198.24,235.95 4176.8,479.67 5562,534.51 324.2,12.83 971.47,27.68 1292.22,62.82 308.6,33.81 2828.36,60.46 3185.21,48.3 487.57,-16.62 987.95,-17.67 1478.8,-30.28 -17.61,1274.39 0,2535.1 0,3774.48z"/>
  <path class="fil2" d="M34525.48 5196.32l1292.77 228.14c444.38,81.62 890.37,110.94 1328.71,183.73 1159.53,192.57 1498.12,260.45 2690.85,335.11 1192.83,74.67 1816.18,53.04 2986.45,48.94 212.98,-0.75 468.9,-30.27 675.07,-44.42 498.13,-34.22 1922.81,69.24 2219.86,-74.52l0 1226.05c-251.08,110.39 -2293.81,169.65 -2732.36,197.58 -472.14,30.05 -868.61,85.11 -1375.38,86.75 -229.87,0.75 -441.53,-34.62 -660.58,-51.04 -624.17,-46.77 -1482.19,-18.97 -2132.69,-19.39 -471.4,-0.31 -2259.77,-107.09 -2730.23,-159.39 -428.61,-47.63 -839.18,-118.54 -1263.4,-163.71 -448.06,-47.71 -910.16,-54.24 -1348.98,-105.22 -419.28,-48.71 -841.25,-108.93 -1258.67,-172.9 -423.99,-64.97 -891.84,-74.85 -1288.94,-160.06 -592.69,-127.17 -764.92,-92.59 -1258.74,-176.8 -400.39,-68.26 -811.33,-160.17 -1213.76,-232.29 -364.44,-65.31 -719.82,-172.35 -1170.94,-253.64 -424.66,-76.54 -804.19,-167.97 -1206.3,-247.01 -408.89,-80.36 -831.25,-130.21 -1246.98,-181.86 -440.16,-54.67 -838.74,-113.63 -1291.35,-158.94 -228.33,-22.86 -458.94,-37.96 -681.13,-56.22 -221.46,-18.2 -418.78,-53.98 -644.61,-72.59 -937.92,-77.33 -1839.42,-90.72 -2805.06,-90.81 -897.85,-0.09 -1819.11,108.33 -2668.08,218.35 -336.04,43.54 -825.22,183.93 -1164,284.05 -369.71,109.28 -751.6,182.56 -1132.16,296.78 -361.16,108.41 -717.1,246.11 -1091.2,351.64 -641.85,181.05 -488.65,153.86 -1041.3,381.65 -773.42,318.8 -1326.92,512.82 -2174.14,695.63 -1646.94,355.37 -2311.78,358.76 -3914.02,424.11 -474.79,19.37 -970.5,-9.2 -1448.71,1.87 109.5,41.92 969.8,185.65 1180.12,230.48 656.25,139.9 1742.01,287.96 2421.06,359.48 695.42,73.26 2614.68,62.82 3371.55,-1.11 336.95,-28.47 1058.41,-11.12 1347.19,-48.29 610.44,-78.59 1420.7,-68.72 2022.29,-31.75l1936.07 152.92c216.46,17.07 436.18,24.85 650.29,36.45 651.99,35.33 1333.93,106.82 1955.55,140.74 227.67,12.43 441.58,19.93 666.44,38.24 416.01,33.89 827.53,114.99 1239.69,147.37 414.67,32.59 824.02,107.98 1245.91,149.05 403.81,39.3 832.22,99.36 1239.42,144.94 422.3,47.28 851.77,75.57 1275.65,116.79 426.94,41.51 847.55,104.29 1269.1,144.01 400.66,37.76 803.41,125.11 1211.27,181.19 383.43,52.72 779.97,158.84 1179.39,196.55 1469.34,138.71 2531.05,166.06 4039.79,167.18 922.63,0.7 3118.52,-23.61 4020.37,-173.61 639.91,-106.44 1211.43,-163.99 1849.32,-241.56 207.02,-25.17 392.11,-70.05 599.91,-93.18 837.26,-93.19 1598.53,-266.86 2404.47,-373.37 404.41,-53.46 788.04,-144.74 1197.26,-189.03 440.86,-47.71 2309.33,-240.91 2621.6,-113.43l0 163.41 0 2926.92 0 2696.02 -21.81 1.56 -4.24 -2264.56c-397.28,-68.53 -857.7,-191.99 -1257.9,-287.27 -423.54,-100.83 -871.27,-166.55 -1314.35,-252.94 -924,-180.15 -1879.37,-252.34 -2845.16,-315.81 -478.47,-31.44 -973.79,-85.62 -1457.88,-101.25 -1562.88,-50.48 -2900.25,-162.04 -4455.92,-266.4 -490.72,-32.92 -984.08,-51.76 -1478.9,-75.95 -487.47,-23.84 -975.2,-74.41 -1459.42,-116.13 -488.42,-42.09 -992.94,-56.16 -1473.89,-115.8 -1728.16,-214.29 -2617.26,-291.09 -4441.2,-261.26 -246.01,4.02 -488.82,32.76 -738.83,32.65 -652.11,-0.29 -1680.11,36.63 -2320.29,70.93 -505.92,27.12 -966.78,61.16 -1479.37,60.65 -525.32,-0.53 -1025.94,45.24 -1540.4,43.73 -527.63,-1.55 -1053.84,0.91 -1581.48,-6.75 -513.85,-7.46 -1019.13,53.18 -1519.12,62.03 -518.56,9.19 -1017.79,31.49 -1541.16,32.08 -524.67,0.61 -1039.13,-20.86 -1561.4,-32.13 -2280.33,-49.25 -3505.41,-88.14 -5759.81,-512.69 -439.19,-82.69 -865.72,-195.56 -1310.72,-266.08 -426.3,-67.55 -887.94,-172.42 -1304.9,-263.95 -435.09,-95.49 -825.72,-222.81 -1256.42,-315.21 -1430.86,-306.94 -1129.7,-266.92 -2430.89,-703.59 -536.97,-180.22 -594.5,-173.05 -1163.73,-406.4l0 -2242.52c1834.13,6.05 3601.65,22.97 5385.89,-231.24 806.88,-114.95 1635.75,-267.76 2442.38,-384.89 402.93,-58.51 794.41,-130.42 1187.77,-218.65 320.6,-71.89 882.32,-117.42 1150.74,-223.8 227.19,-33.29 466.47,-107.35 697.17,-152.24 243,-47.28 483.37,-71.91 722.54,-116.64 932.39,-174.38 1961.04,-314.61 2913.15,-476.26 496.75,-84.33 976.38,-145.65 1485.69,-209.24 515.9,-64.41 1042.81,-64.65 1554.38,-130.78 504.31,-65.19 1065.74,-109.33 1569.57,-120.91 701.6,-16.14 2769.88,-62.19 3362.05,-18.78 1056.89,77.48 2084.21,123.35 3122.44,256.52 500.65,64.22 1012.02,159.48 1509.68,192.59 269.2,17.91 497.53,38.41 759.32,75 244.84,34.23 476.08,95.9 730.09,127.97 514.99,65.03 1010.71,110.96 1519.17,178.64 241.6,32.16 483.36,76.63 727.01,111.52 797.74,114.25 1395.94,230.5 2184.97,367.9 242.5,42.22 484.95,70.07 730.61,108.2 245.13,38.07 535.84,85.63 770.86,102.17z"/>
  <path class="fil3" d="M45719.19 7099.35l0 1576.6c-312.27,-127.48 -2180.74,65.72 -2621.6,113.43 -409.22,44.29 -792.85,135.57 -1197.26,189.03 -805.94,106.51 -1567.21,280.18 -2404.47,373.37 -207.8,23.13 -392.89,68.01 -599.91,93.18 -637.89,77.57 -1209.41,135.12 -1849.32,241.56 -901.85,150 -3097.74,174.31 -4020.37,173.61 -1508.74,-1.12 -2570.45,-28.47 -4039.79,-167.18 -399.42,-37.71 -795.96,-143.83 -1179.39,-196.55 -407.86,-56.08 -810.61,-143.43 -1211.27,-181.19 -421.55,-39.72 -842.16,-102.5 -1269.1,-144.01 -423.88,-41.22 -853.35,-69.51 -1275.65,-116.79 -407.2,-45.58 -835.61,-105.64 -1239.42,-144.94 -421.89,-41.07 -831.24,-116.46 -1245.91,-149.05 -412.16,-32.38 -823.68,-113.48 -1239.69,-147.37 -224.86,-18.31 -438.77,-25.81 -666.44,-38.24 -621.62,-33.92 -1303.56,-105.41 -1955.55,-140.74 -214.11,-11.6 -433.83,-19.38 -650.29,-36.45l-1936.07 -152.92c-601.59,-36.97 -1411.85,-46.84 -2022.29,31.75 -288.78,37.17 -1010.24,19.82 -1347.19,48.29 -756.87,63.93 -2676.13,74.37 -3371.55,1.11 -679.05,-71.52 -1764.81,-219.58 -2421.06,-359.48 -210.32,-44.83 -1070.62,-188.56 -1180.12,-230.48 478.21,-11.07 973.92,17.5 1448.71,-1.87 1602.24,-65.35 2267.08,-68.74 3914.02,-424.11 847.22,-182.81 1400.72,-376.83 2174.14,-695.63 552.65,-227.79 399.45,-200.6 1041.3,-381.65 374.1,-105.53 730.04,-243.23 1091.2,-351.64 380.56,-114.22 762.45,-187.5 1132.16,-296.78 338.78,-100.12 827.96,-240.51 1164,-284.05 848.97,-110.02 1770.23,-218.44 2668.08,-218.35 965.64,0.09 1867.14,13.48 2805.06,90.81 225.83,18.61 423.15,54.39 644.61,72.59 222.19,18.26 452.8,33.36 681.13,56.22 452.61,45.31 851.19,104.27 1291.35,158.94 415.73,51.65 838.09,101.5 1246.98,181.86 402.11,79.04 781.64,170.47 1206.3,247.01 451.12,81.29 806.5,188.33 1170.94,253.64 402.43,72.12 813.37,164.03 1213.76,232.29 493.82,84.21 666.05,49.63 1258.74,176.8 397.1,85.21 864.95,95.09 1288.94,160.06 417.42,63.97 839.39,124.19 1258.67,172.9 438.82,50.98 900.92,57.51 1348.98,105.22 424.22,45.17 834.79,116.08 1263.4,163.71 470.46,52.3 2258.83,159.08 2730.23,159.39 650.5,0.42 1508.52,-27.38 2132.69,19.39 219.05,16.42 430.71,51.79 660.58,51.04 506.77,-1.64 903.24,-56.7 1375.38,-86.75 438.55,-27.93 2481.28,-87.19 2732.36,-197.58z"/>
  <path class="fil4" d="M45719.19 5687.92l0 185.38c-297.05,143.76 -1721.73,40.3 -2219.86,74.52 -206.17,14.15 -462.09,43.67 -675.07,44.42 -1170.27,4.1 -1793.62,25.73 -2986.45,-48.94 -1192.73,-74.66 -1531.32,-142.54 -2690.85,-335.11 -438.34,-72.79 -884.33,-102.11 -1328.71,-183.73l-1292.77 -228.14c-235.02,-16.54 -525.73,-64.1 -770.86,-102.17 -245.66,-38.13 -488.11,-65.98 -730.61,-108.2 -789.03,-137.4 -1387.23,-253.65 -2184.97,-367.9 -243.65,-34.89 -485.41,-79.36 -727.01,-111.52 -508.46,-67.68 -1004.18,-113.61 -1519.17,-178.64 -254.01,-32.07 -485.25,-93.74 -730.09,-127.97 -261.79,-36.59 -490.12,-57.09 -759.32,-75 -497.66,-33.11 -1009.03,-128.37 -1509.68,-192.59 -1038.23,-133.17 -2065.55,-179.04 -3122.44,-256.52 -592.17,-43.41 -2660.45,2.64 -3362.05,18.78 -503.83,11.58 -1065.26,55.72 -1569.57,120.91 -511.57,66.13 -1038.48,66.37 -1554.38,130.78 -509.31,63.59 -988.94,124.91 -1485.69,209.24 -952.11,161.65 -1980.76,301.88 -2913.15,476.26 -239.17,44.73 -479.54,69.36 -722.54,116.64 -230.7,44.89 -469.98,118.95 -697.17,152.24 -268.42,106.38 -830.14,151.91 -1150.74,223.8 -393.36,88.23 -784.84,160.14 -1187.77,218.65 -806.63,117.13 -1635.5,269.94 -2442.38,384.89 -1784.24,254.21 -3551.76,237.29 -5385.89,231.24l0 -1894.86c893.81,-160.77 1775.29,-368.51 2666.36,-526.17 458.43,-81.1 894.83,-158.57 1363.03,-233.04 898.4,-142.88 1970.25,-239.29 2795.56,-392.09 916.03,-169.58 1825.39,-343.96 2763.93,-435.15 469.54,-45.63 941.64,-118.37 1401.69,-187.52 934.25,-140.46 1849.55,-306.59 2811.45,-381.44 241.79,-18.82 480.82,-71.89 718.77,-80.94 642.98,-24.45 1718.02,20.38 2342.59,67.13 510.49,38.21 1045.89,-6.93 1568.2,33.52 475.19,36.78 976.72,94.45 1450.72,144.27 905.22,95.11 1845.16,279.36 2734.94,454.66 737.56,145.31 1992.43,426.96 2673.02,509.27 465.43,56.28 943.24,114.08 1398.78,198.87 469.67,87.4 963.43,84.62 1430.89,163.58 1054.93,178.2 1829.41,182.48 2867.83,323.98 531.59,72.42 1613.97,161.32 2200.37,199.24 792.02,51.21 1377.42,146.67 2220.62,164.65 499.16,10.66 1003.84,72.47 1499.73,100.15l1521.63 80.63c732.61,87.65 972,0.73 1538.84,20.63 153.35,5.37 212.73,30.27 375.28,11 133.86,-15.85 250.26,-12.94 384.07,-12.93 266.82,0.01 500.97,-32.48 759.86,-42.74 257.8,-10.21 509.42,-1.43 765.57,-17.92 571.1,-36.76 2326.4,-246.61 2776.31,-419.86 276.94,-106.63 334.06,-121.71 661.9,-127.91 22.16,297.22 7.02,1353.5 4.03,1779.67 -0.56,78.52 -11.71,166.63 23.22,230z"/>
  <path class="fil5" d="M45719.19 15939.79c-490.85,12.61 -991.23,-6.48 -1478.8,10.14 -356.85,12.16 -2876.61,-14.49 -3185.21,-48.3 -320.75,-35.14 -968.02,-49.99 -1292.22,-62.82 -1385.2,-54.84 -4363.76,-298.56 -5562,-534.51 -421.61,-83.02 -882.89,-133.18 -1316.24,-197.16 -446.57,-65.93 -871,-137.18 -1314.76,-197.38 -703.8,-95.48 -1821.72,-336.97 -2571.41,-467.52 -867.36,-151.06 -1682.79,-353.46 -2528.9,-512.89 -1766.91,-332.94 -3758.97,-403 -5567,-512.84 -744.9,-45.25 -2265.06,-61.6 -3012.25,-40.18 -477.57,13.68 -942.21,63.83 -1419.29,97.78 -473.58,33.71 -960.34,59.39 -1436.15,92.98 -953.34,67.32 -1951.41,69.25 -2895.67,157.5 -470.99,44.02 -944.28,78.92 -1418.63,97.72 -478.6,18.97 -945.64,77.44 -1437.16,82.14 -1019.12,9.72 -1998.58,45.47 -3019.19,46.35 -982.65,0.85 -2070.28,34.86 -3039.36,-28.03 -817.93,-53.08 -1944.33,-181.86 -2680.63,-370.58l-544.32 -154.16 0 -5196.27c569.23,233.35 626.76,226.18 1163.73,406.4 1301.19,436.67 1000.03,396.65 2430.89,703.59 430.7,92.4 821.33,219.72 1256.42,315.21 416.96,91.53 878.6,196.4 1304.9,263.95 445,70.52 871.53,183.39 1310.72,266.08 2254.4,424.55 3479.48,463.44 5759.81,512.69 522.27,11.27 1036.73,32.74 1561.4,32.13 523.37,-0.59 1022.6,-22.89 1541.16,-32.08 499.99,-8.85 1005.27,-69.49 1519.12,-62.03 527.64,7.66 1053.85,5.2 1581.48,6.75 514.46,1.51 1015.08,-44.26 1540.4,-43.73 512.59,0.51 973.45,-33.53 1479.37,-60.65 640.18,-34.3 1668.18,-71.22 2320.29,-70.93 250.01,0.11 492.82,-28.63 738.83,-32.65 1823.94,-29.83 2713.04,46.97 4441.2,261.26 480.95,59.64 985.47,73.71 1473.89,115.8 484.22,41.72 971.95,92.29 1459.42,116.13 494.82,24.19 988.18,43.03 1478.9,75.95 1555.67,104.36 2893.04,215.92 4455.92,266.4 484.09,15.63 979.41,69.81 1457.88,101.25 965.79,63.47 1921.16,135.66 2845.16,315.81 443.08,86.39 890.81,152.11 1314.35,252.94 400.2,95.28 886.67,218.74 1283.95,287.27l0 3740.49z"/>
  <path class="fil6" d="M45720 74.08c7.85,112.16 -46.38,3146.97 -8.98,3235.53 1.53,3.59 4.78,9.86 8.17,14.16l0 2364.15c-34.93,-63.37 -23.78,-151.48 -23.22,-230 2.99,-426.17 18.13,-1482.45 -4.03,-1779.67 -327.84,6.2 -384.96,21.28 -661.9,127.91 -449.91,173.25 -2205.21,383.1 -2776.31,419.86 -256.15,16.49 -507.77,7.71 -765.57,17.92 -258.89,10.26 -493.04,42.75 -759.86,42.74 -133.81,-0.01 -250.21,-2.92 -384.07,12.93 -162.55,19.27 -221.93,-5.63 -375.28,-11 -566.84,-19.9 -806.23,67.02 -1538.84,-20.63l-1521.63 -80.63c-495.89,-27.68 -1000.57,-89.49 -1499.73,-100.15 -843.2,-17.98 -1428.6,-113.44 -2220.62,-164.65 -586.4,-37.92 -1668.78,-126.82 -2200.37,-199.24 -1038.42,-141.5 -1812.9,-145.78 -2867.83,-323.98 -467.46,-78.96 -961.22,-76.18 -1430.89,-163.58 -455.54,-84.79 -933.35,-142.59 -1398.78,-198.87 -680.59,-82.31 -1935.46,-363.96 -2673.02,-509.27 -889.78,-175.3 -1829.72,-359.55 -2734.94,-454.66 -474,-49.82 -975.53,-107.49 -1450.72,-144.27 -522.31,-40.45 -1057.71,4.69 -1568.2,-33.52 -624.57,-46.75 -1699.61,-91.58 -2342.59,-67.13 -237.95,9.05 -476.98,62.12 -718.77,80.94 -961.9,74.85 -1877.2,240.98 -2811.45,381.44 -460.05,69.15 -932.15,141.89 -1401.69,187.52 -938.54,91.19 -1847.9,265.57 -2763.93,435.15 -825.31,152.8 -1897.16,249.21 -2795.56,392.09 -468.2,74.47 -904.6,151.94 -1363.03,233.04 -891.07,157.66 -1772.55,365.4 -2666.36,526.17l0 -2594.65c13244.93,-4180.49 29132.04,2573.86 45720,-1395.65z"/>
  <path class="fil7" d="M20882.6 7174.45c193.58,51.68 328.36,-18.59 391.4,-237.68 -10.87,221.75 128.64,337.48 370.18,381.28 -277.59,-16.9 -424.97,74.7 -424.04,289.9 -14.84,-174.56 -96.34,-328.6 -337.54,-433.5z"/>
  <path class="fil7" d="M25242.21 7551.81c134.06,35.79 227.39,-12.88 271.04,-164.59 -7.52,153.55 89.09,233.7 256.35,264.03 -192.22,-11.7 -294.29,51.73 -293.64,200.75 -10.28,-120.88 -66.72,-227.55 -233.75,-300.19z"/>
  <path class="fil7" d="M27180.75 7402.44c82.24,21.96 139.51,-7.9 166.29,-100.98 -4.62,94.21 54.65,143.38 157.27,161.99 -117.93,-7.18 -180.55,31.74 -180.15,123.16 -6.31,-74.16 -40.93,-139.6 -143.41,-184.17z"/>
  <path class="fil7" d="M18791.95 6897.31c22.04,-250.5 118.48,-362.81 417.35,-449.26 -322.07,-21.79 -390.53,-185.28 -418.08,-371.63 -81.97,214.99 -17.62,295.84 -326.15,376.57 253.61,69.2 291.32,270.76 326.88,444.32z"/>
  <path class="fil7" d="M22666.2 7403.36c-11.02,125.25 -59.24,181.41 -208.67,224.63 161.03,10.9 195.26,92.64 209.04,185.82 40.98,-107.5 8.8,-147.92 163.07,-188.29 -126.8,-34.6 -145.66,-135.38 -163.44,-222.16z"/>
  <path class="fil7" d="M24832.78 6899.36c11.02,125.26 59.24,181.41 208.67,224.63 -161.03,10.9 -195.26,92.64 -209.03,185.82 -40.99,-107.5 -8.81,-147.92 -163.08,-188.29 126.81,-34.59 145.66,-135.37 163.44,-222.16z"/>
  <path class="fil7" d="M16927.56 7149.49c118.77,31.71 201.46,-11.4 240.14,-145.82 -6.67,136.05 78.92,207.05 227.11,233.93 -170.3,-10.37 -260.73,45.83 -260.16,177.85 -9.1,-107.09 -59.1,-201.6 -207.09,-265.96z"/>
  <path class="fil7" d="M16487.99 18930.87c-215.64,57.57 -365.78,-20.71 -435.99,-264.76 12.1,247.01 -143.3,375.92 -412.35,424.72 309.2,-18.83 473.37,83.21 472.34,322.92 16.53,-194.45 107.31,-366.03 376,-482.88z"/>
  <path class="fil7" d="M9472.35 19184.83c-91.62,24.46 -155.4,-8.8 -185.24,-112.49 5.15,104.95 -60.88,159.72 -175.19,180.45 131.37,-8 201.12,35.35 200.68,137.19 7.03,-82.61 45.6,-155.51 159.75,-205.15z"/>
  <path class="fil7" d="M11288.54 18070.11c-12.28,139.52 -65.99,202.07 -232.45,250.22 179.38,12.14 217.51,103.2 232.86,206.99 45.65,-119.75 9.81,-164.78 181.65,-209.74 -141.25,-38.54 -162.26,-150.8 -182.06,-247.47z"/>
  <path class="fil7" d="M23063.48 19725.78c-7.39,83.96 -39.71,121.6 -139.88,150.58 107.94,7.31 130.89,62.1 140.13,124.56 27.47,-72.06 5.9,-99.16 109.31,-126.22 -85,-23.19 -97.64,-90.75 -109.56,-148.92z"/>
  <path class="fil7" d="M26423.73 19162.59c-7.39,83.96 -39.71,121.6 -139.89,150.58 107.95,7.3 130.9,62.1 140.13,124.56 27.47,-72.06 5.91,-99.16 109.32,-126.22 -85.01,-23.19 -97.65,-90.75 -109.56,-148.92z"/>
  <path class="fil7" d="M25256.04 19672.1c-132.3,35.32 -224.41,-12.7 -267.49,-162.43 7.42,151.55 -87.91,230.64 -252.99,260.57 189.71,-11.55 290.43,51.06 289.8,198.12 10.14,-119.29 65.84,-224.57 230.68,-296.26z"/>
  <path class="fil7" d="M22025.81 18835.81c-12.28,139.52 -65.99,202.07 -232.44,250.22 179.37,12.14 217.5,103.19 232.85,206.98 45.65,-119.74 9.81,-164.77 181.65,-209.74 -141.25,-38.53 -162.26,-150.79 -182.06,-247.46z"/>
  <path class="fil7" d="M17168.74 18224.17c-12.28,139.52 -65.99,202.07 -232.45,250.22 179.38,12.13 217.51,103.19 232.85,206.98 45.66,-119.74 9.81,-164.77 181.65,-209.74 -141.25,-38.53 -162.25,-150.8 -182.05,-247.46z"/>
  <path class="fil7" d="M45181.12 20942.84c91.62,-24.46 155.41,8.8 185.24,112.49 -5.14,-104.95 60.88,-159.72 175.19,-180.45 -131.37,8 -201.12,-35.35 -200.68,-137.19 -7.02,82.61 -45.59,155.51 -159.75,205.15z"/>
  <path class="fil7" d="M43364.93 22057.56c12.28,-139.52 65.99,-202.07 232.45,-250.22 -179.38,-12.14 -217.51,-103.2 -232.85,-206.99 -45.65,119.75 -9.81,164.78 -181.65,209.74 141.25,38.54 162.25,150.8 182.05,247.47z"/>
  <path class="fil7" d="M34052.12 20626.47c132.3,-35.32 224.41,12.7 267.49,162.43 -7.43,-151.54 87.91,-230.63 252.98,-260.57 -189.7,11.55 -290.43,-51.05 -289.79,-198.12 -10.14,119.3 -65.84,224.57 -230.68,296.26z"/>
  <path class="fil7" d="M41498.28 22395.35c24.56,-279.04 131.98,-404.14 464.9,-500.44 -358.76,-24.28 -435.02,-206.39 -465.71,-413.97 -91.3,239.49 -19.62,329.55 -363.3,419.48 282.5,77.07 324.51,301.6 364.11,494.93z"/>
  <path class="fil7" d="M28229.75 20965.08c7.39,-83.96 39.71,-121.6 139.88,-150.58 -107.95,-7.3 -130.89,-62.1 -140.13,-124.56 -27.47,72.06 -5.9,99.16 -109.31,126.22 85,23.19 97.64,90.75 109.56,148.92z"/>
  <path class="fil7" d="M29397.43 20455.57c132.3,-35.32 224.42,12.7 267.49,162.43 -7.42,-151.55 87.92,-230.64 252.99,-260.57 -189.7,11.55 -290.43,-51.06 -289.79,-198.12 -10.15,119.29 -65.84,224.57 -230.69,296.26z"/>
  <path class="fil7" d="M32627.66 21291.86c12.28,-139.52 65.99,-202.07 232.45,-250.22 -179.38,-12.14 -217.51,-103.19 -232.85,-206.98 -45.65,119.74 -9.81,164.77 -181.65,209.74 141.25,38.53 162.25,150.79 182.05,247.46z"/>
  <path class="fil7" d="M37376.13 20482.1c7.39,-83.96 39.71,-121.6 139.89,-150.58 -107.95,-7.31 -130.9,-62.1 -140.13,-124.56 -27.48,72.06 -5.91,99.16 -109.32,126.22 85.01,23.19 97.65,90.74 109.56,148.92z"/>
  <path class="fil7" d="M34249.38 8425.55c193.59,-51.68 328.37,18.59 391.4,237.68 -10.86,-221.75 128.64,-337.48 370.18,-381.28 -277.58,16.9 -424.96,-74.7 -424.03,-289.9 -14.85,174.56 -96.34,328.6 -337.55,433.5z"/>
  <path class="fil7" d="M38609 8048.19c134.05,-35.79 227.39,12.88 271.04,164.59 -7.52,-153.55 89.08,-233.7 256.35,-264.03 -192.23,11.7 -294.29,-51.73 -293.65,-200.75 -10.28,120.88 -66.71,227.55 -233.74,300.19z"/>
  <path class="fil7" d="M40547.53 8197.56c82.25,-21.96 139.51,7.9 166.3,100.98 -4.62,-94.21 54.65,-143.38 157.27,-161.99 -117.93,7.18 -180.55,-31.74 -180.16,-123.16 -6.3,74.16 -40.93,139.6 -143.41,184.17z"/>
  <path class="fil7" d="M36032.99 8196.64c-11.02,-125.25 -59.24,-181.41 -208.67,-224.63 161.03,-10.9 195.26,-92.64 209.03,-185.82 40.99,107.5 8.81,147.92 163.08,188.29 -126.81,34.6 -145.66,135.38 -163.44,222.16z"/>
  <path class="fil7" d="M38199.57 8700.64c11.02,-125.26 59.24,-181.41 208.67,-224.63 -161.03,-10.9 -195.26,-92.64 -209.04,-185.82 -40.98,107.5 -8.81,147.92 -163.07,188.29 126.8,34.59 145.66,135.37 163.44,222.16z"/>
  <path class="fil7" d="M30294.35 8450.51c118.77,-31.71 201.46,11.4 240.13,145.82 -6.66,-136.05 78.93,-207.05 227.12,-233.93 -170.31,10.37 -260.73,-45.83 -260.16,-177.85 -9.11,107.09 -59.1,201.6 -207.09,265.96z"/>
  <path class="fil7" d="M1022.05 19154.38c-12.28,139.52 -65.99,202.07 -232.44,250.22 179.37,12.14 217.5,103.2 232.85,206.99 45.65,-119.75 9.81,-164.78 181.65,-209.74 -141.25,-38.54 -162.26,-150.8 -182.06,-247.47z"/>
  <path class="fil7" d="M10334.87 20585.47c-132.3,35.32 -224.41,-12.7 -267.49,-162.43 7.42,151.54 -87.92,230.63 -252.99,260.57 189.71,-11.55 290.43,51.05 289.8,198.12 10.14,-119.3 65.83,-224.57 230.68,-296.26z"/>
  <path class="fil7" d="M2888.7 18816.59c-24.55,279.04 -131.97,404.14 -464.89,500.44 358.75,24.28 435.02,206.39 465.7,413.97 91.31,-239.49 19.63,-329.55 363.31,-419.48 -282.5,-77.07 -324.51,-301.6 -364.12,-494.93z"/>
  <path class="fil7" d="M12796.99 20810.05c-7.39,83.96 -39.71,121.6 -139.88,150.58 107.95,7.31 130.89,62.1 140.13,124.56 27.47,-72.06 5.9,-99.16 109.31,-126.22 -85,-23.19 -97.64,-90.75 -109.56,-148.92z"/>
  <path class="fil7" d="M3934.67 19461.58c-7.39,83.96 -39.71,121.6 -139.88,150.58 107.94,7.31 130.89,62.1 140.12,124.56 27.48,-72.06 5.91,-99.16 109.32,-126.22 -85,-23.19 -97.64,-90.75 -109.56,-148.92z"/>
  <path class="fil7" d="M14989.55 20756.37c-132.3,35.32 -224.41,-12.7 -267.49,-162.43 7.43,151.55 -87.91,230.64 -252.98,260.57 189.7,-11.55 290.42,51.06 289.79,198.12 10.14,-119.29 65.84,-224.57 230.68,-296.26z"/>
  <path class="fil7" d="M7010.85 20729.84c-7.39,83.96 -39.71,121.6 -139.88,150.58 107.95,7.31 130.89,62.1 140.13,124.56 27.47,-72.06 5.9,-99.16 109.31,-126.22 -85,-23.19 -97.64,-90.74 -109.56,-148.92z"/>
  <path class="fil7" d="M6902.25 19308.44c-12.28,139.52 -65.99,202.07 -232.45,250.22 179.38,12.13 217.51,103.19 232.85,206.98 45.66,-119.74 9.82,-164.77 181.65,-209.74 -141.24,-38.53 -162.25,-150.8 -182.05,-247.46z"/>
  <path class="fil7" d="M34914.64 22027.11c91.61,-24.46 155.4,8.8 185.23,112.49 -5.14,-104.95 60.88,-159.72 175.19,-180.45 -131.37,8 -201.12,-35.35 -200.68,-137.19 -7.02,82.61 -45.59,155.51 -159.74,205.15z"/>
  <path class="fil7" d="M30185.83 22834.63c7.39,-83.96 39.71,-121.6 139.88,-150.58 -107.95,-7.31 -130.89,-62.1 -140.13,-124.56 -27.47,72.06 -5.9,99.16 -109.31,126.22 85,23.19 97.64,90.75 109.56,148.92z"/>
  <path class="fil7" d="M17919.79 21788.97c7.39,-83.96 39.71,-121.6 139.88,-150.58 -107.94,-7.3 -130.89,-62.1 -140.12,-124.56 -27.48,72.06 -5.91,99.16 -109.32,126.22 85,23.19 97.64,90.75 109.56,148.92z"/>
  <path class="fil7" d="M19130.95 21539.84c132.3,-35.32 224.41,12.7 267.49,162.43 -7.43,-151.55 87.91,-230.64 252.98,-260.57 -189.7,11.55 -290.43,-51.06 -289.79,-198.12 -10.15,119.29 -65.84,224.57 -230.68,296.26z"/>
  <path class="fil7" d="M22361.18 22376.13c12.27,-139.52 65.98,-202.07 232.44,-250.22 -179.38,-12.14 -217.51,-103.19 -232.85,-206.98 -45.65,119.74 -9.81,164.77 -181.65,209.74 141.25,38.53 162.25,150.79 182.06,247.46z"/>
  <path class="fil7" d="M2368.94 20619.7c-215.64,57.57 -365.78,-20.71 -435.99,-264.76 12.1,247.01 -143.3,375.92 -412.35,424.72 309.2,-18.83 473.37,83.21 472.34,322.92 16.53,-194.45 107.31,-366.03 376,-482.88z"/>
  <path class="fil7" d="M4969.77 21860.78c17.11,-194.41 91.96,-281.57 323.91,-348.67 -249.96,-16.92 -303.09,-143.8 -324.47,-288.42 -63.62,166.85 -13.67,229.6 -253.13,292.26 196.83,53.7 226.1,210.13 253.69,344.83z"/>
  <path class="fil7" d="M538.99 20894.87c-7.39,83.96 -39.72,121.6 -139.89,150.58 107.95,7.31 130.9,62.1 140.13,124.56 27.47,-72.06 5.9,-99.16 109.32,-126.22 -85.01,-23.19 -97.65,-90.75 -109.56,-148.92z"/>
  <path class="fil7" d="M3615.17 22163.13c-7.39,83.96 -39.71,121.6 -139.88,150.58 107.94,7.31 130.89,62.1 140.12,124.56 27.48,-72.06 5.91,-99.16 109.32,-126.22 -85,-23.19 -97.64,-90.74 -109.56,-148.92z"/>
  <path class="fil7" d="M3506.56 20741.73c-12.27,139.52 -65.98,202.07 -232.44,250.22 179.37,12.13 217.51,103.19 232.85,206.98 45.65,-119.74 9.81,-164.77 181.65,-209.74 -141.25,-38.53 -162.25,-150.8 -182.06,-247.46z"/>
  <path class="fil7" d="M9246.9 21897.89c-7.39,83.96 -39.71,121.6 -139.89,150.58 107.95,7.31 130.9,62.1 140.13,124.56 27.48,-72.06 5.91,-99.16 109.32,-126.22 -85.01,-23.19 -97.65,-90.74 -109.56,-148.92z"/>
  <path class="fil7" d="M15759.16 21776.49c-7.38,83.96 -39.71,121.6 -139.88,150.58 107.95,7.3 130.9,62.1 140.13,124.56 27.47,-72.06 5.9,-99.16 109.31,-126.22 -85,-23.19 -97.64,-90.75 -109.56,-148.92z"/>
  <path class="fil7" d="M17045.01 22263.33c-7.39,83.96 -39.72,121.6 -139.89,150.58 107.95,7.3 130.9,62.1 140.13,124.56 27.47,-72.06 5.9,-99.16 109.31,-126.22 -85,-23.19 -97.64,-90.75 -109.55,-148.92z"/>
  <path class="fil7" d="M11724.41 22030.46c11.93,135.64 64.15,196.45 225.98,243.26 -174.39,11.8 -211.46,100.33 -226.38,201.23 -44.38,-116.41 -9.54,-160.19 -176.6,-203.9 137.32,-37.47 157.74,-146.61 177,-240.59z"/>
 </g>
</svg>
