<?xml version="1.0" encoding="UTF-8"?>
<!DOCTYPE svg PUBLIC "-//W3C//DTD SVG 1.1//EN" "http://www.w3.org/Graphics/SVG/1.1/DTD/svg11.dtd">
<!-- Creator: CorelDRAW 2018 (64-Bit Evaluation Version) -->
<svg xmlns="http://www.w3.org/2000/svg" xml:space="preserve" width="100%" height="100%" version="1.1" style="shape-rendering:geometricPrecision; text-rendering:geometricPrecision; image-rendering:optimizeQuality; fill-rule:evenodd; clip-rule:evenodd"
viewBox="0 0 22860 40640"
 xmlns:xlink="http://www.w3.org/1999/xlink">
 <defs>
  <style type="text/css">
   <![CDATA[
    .str3 {stroke:#666666;stroke-width:20;stroke-miterlimit:22.9256}
    .str1 {stroke:gray;stroke-width:20;stroke-miterlimit:22.9256}
    .str2 {stroke:#E6E6E6;stroke-width:20;stroke-miterlimit:22.9256}
    .str0 {stroke:yellow;stroke-width:20;stroke-miterlimit:22.9256}
    .str4 {stroke:#666666;stroke-width:20;stroke-linecap:round;stroke-miterlimit:22.9256}
    .fil14 {fill:none}
    .fil10 {fill:#FCDC5D}
    .fil2 {fill:black}
    .fil7 {fill:#FCA78B}
    .fil11 {fill:#FE7D88}
    .fil6 {fill:#FE9187}
    .fil8 {fill:#FEBCA2}
    .fil12 {fill:#FFB833}
    .fil13 {fill:#FFC552}
    .fil5 {fill:yellow}
    .fil9 {fill:#FA8F6B}
    .fil3 {fill:#E0457A}
    .fil4 {fill:#EB4FB3}
    .fil1 {fill:#704FBF}
    .fil0 {fill:url(#id0)}
   ]]>
  </style>
  <linearGradient id="id0" gradientUnits="userSpaceOnUse" x1="11430.01" y1="40640" x2="11430.01" y2="10337.49">
   <stop offset="0" style="stop-opacity:1; stop-color:#FFFC00"/>
   <stop offset="0.101961" style="stop-opacity:1; stop-color:#FFFB01"/>
   <stop offset="0.490196" style="stop-opacity:1; stop-color:#FA8F6B"/>
   <stop offset="1" style="stop-opacity:1; stop-color:#EB4FB3"/>
  </linearGradient>
 </defs>
 <g id="Layer_x0020_1">
  <metadata id="CorelCorpID_0Corel-Layer"/>
  <rect class="fil0" x="-0.01" y="10337.48" width="22860" height="30302.51"/>
  <rect class="fil1" y="5409.9" width="22860" height="6189.14"/>
  <path class="fil2" d="M-0 0l22860 0 0 8390.77c-2977.67,-2067.51 -8265.47,-3446.21 -12650.12,-2814.3 -4357.41,627.99 -794.47,1914.59 -1414.54,3273.41 -1374.59,3012.28 -6228.92,247.77 -8795.34,-459.11l0 -8390.77z"/>
  <path class="fil3" d="M-0 14790.59c2368.14,308.5 5203.33,-340.82 6347.7,-618.6 3833.82,-930.8 6841.58,-1257.96 10718.95,-246.91 119.59,31.19 239.77,48.36 361.27,81.31 115.36,31.3 235,82.93 348.6,106.14 134.21,74.16 415.08,105.9 575.38,156.02 196.68,61.51 392.42,111.64 593.9,152.43 403.32,81.66 817.76,188.18 1221.2,268.32 892.14,177.22 1775.91,165.43 2693,161.21l0 -1320.99c-446.92,-112.08 -887.66,-256.89 -1333.21,-366.81 -229.21,-56.53 -447.42,-110.54 -681.52,-162.46 -449.21,-99.6 -985.14,-166.81 -1397.81,-273.34 -458.02,-118.22 -912.71,-239.79 -1381.99,-303.36 -234.77,-31.81 -470.82,-82.52 -700.86,-130.73 -467.13,-97.91 -924.78,-213.73 -1405.75,-265.91 -120.89,-13.12 -240.41,-50.12 -359.38,-56.43 -321.5,-17.04 -859.03,14.21 -1171.32,46.8 -255.25,26.64 -522.96,-4.83 -784.11,23.37 -237.6,25.63 -488.37,65.84 -725.38,100.57 -452.62,66.31 -922.59,194.75 -1367.49,316.96 -368.79,101.31 -996.24,297.66 -1336.53,355.04 -232.72,39.23 -471.63,79.52 -699.41,138.63 -234.84,60.94 -481.72,59 -715.46,114.05 -527.47,124.22 -914.72,127.21 -1433.94,225.85 -265.8,50.49 -806.99,112.47 -1100.2,138.9 -396.02,35.7 -688.72,102.25 -1110.33,114.79 -249.58,7.42 -501.93,50.52 -749.88,69.82l-760.83 56.21c-366.31,61.1 -486.01,0.5 -769.43,14.37 -76.68,3.75 -106.37,21.11 -187.64,7.68 -66.94,-11.05 -125.14,-9.03 -192.04,-9.02 -133.42,0.01 -250.49,-22.64 -379.94,-29.8 -128.9,-7.11 -254.71,-0.99 -382.79,-12.49 -285.56,-25.63 -1163.22,-171.92 -1388.18,-292.7 -138.47,-74.34 -167.03,-84.85 -330.96,-89.17 -24.94,466.57 -13.62,1042.27 -13.62,1530.25z"/>
  <path class="fil1" d="M22647.12 12509.9c81.91,24.23 152.34,83.27 212.88,125.68l0 -1036.54c-83.52,-41.59 -159.78,-118.19 -182.59,-134.37 -135.93,-96.38 -465.96,-338.95 -590.23,-392.97 -46,-20 -73.74,-25.78 -117.2,-48.84l-344.93 -127.48c-72.2,-16.93 -157.48,-63.99 -226.26,-98.64 -36.33,-18.31 -78.95,-23.81 -111.7,-43.32 -31.94,-19.02 -71.55,-29.59 -102.9,-57.33l-21184.19 0 0 1585.32 0 731.81c1.69,-3 3.32,-7.37 4.08,-9.88 18.71,-61.73 8.06,-92.21 11.99,-170.39 202.41,93.66 290.24,155.69 528.22,178.48 172.72,16.53 334.3,77.36 579.71,102.61 417.03,42.9 834.1,45.73 1246.33,95.98 290.44,35.4 994.48,92.68 1266.14,51.9 385.91,-57.94 771.31,-137.13 1154.08,-217.19 492.98,-103.1 698.1,-129.95 1196.71,-165.66 408.81,-29.29 816.59,-87.73 1213.78,-136.94 601.95,-74.58 1161.69,-201.59 1764.95,-278.32 94.2,-11.98 551.24,-99 589.48,-92.42 18.71,-22.3 7.13,-11.39 45.26,-21.18l141.16 -33.56c61.96,-14.86 119.13,-23.77 184.64,-39.74 129.65,-31.63 240.5,-63.69 369.01,-99.35 246.3,-68.33 484.05,-138.8 727.7,-208.85 122.87,-35.34 249.35,-60.47 366.78,-98.49 318.45,-103.1 761.6,-219.66 1093.69,-312.79 239.84,-67.25 477.82,-147.67 727.74,-208.66 564.65,-137.8 980.38,-205.26 1543.7,-297.18 578.81,-94.46 2022.1,-40.64 2561.4,38.04 268.74,39.2 544.61,49.67 806.09,108.14 246.54,55.13 518.36,113.5 765.16,153.64 253.57,41.24 508.55,110.05 756.75,173.45 249.2,63.64 474.43,146.06 718.34,222.05 192.85,60.07 1370.59,372.07 1440.87,423.97 79.52,6.67 344.18,112.57 429.71,151.65 137.59,62.86 278.31,116.88 413.65,187.37z"/>
  <path class="fil4" d="M21803.76 12170.88c-70.28,-51.9 -1248.02,-363.9 -1440.87,-423.97 -243.91,-75.99 -469.14,-158.41 -718.34,-222.05 -248.2,-63.4 -503.18,-132.21 -756.75,-173.45 -246.8,-40.14 -518.62,-98.51 -765.16,-153.64 -261.48,-58.47 -537.35,-68.94 -806.09,-108.14 -539.3,-78.68 -1982.59,-132.5 -2561.4,-38.04 -563.32,91.92 -979.05,159.38 -1543.7,297.18 -249.92,60.99 -487.9,141.41 -727.74,208.66 -332.09,93.13 -775.24,209.69 -1093.69,312.79 -117.43,38.02 -243.91,63.15 -366.78,98.49 -243.65,70.05 -481.4,140.52 -727.7,208.85 -128.51,35.66 -239.36,67.72 -369.01,99.35 -65.51,15.97 -122.68,24.88 -184.64,39.74l-141.16 33.56c-38.13,9.79 -26.55,-1.12 -45.26,21.18 -38.24,-6.58 -495.28,80.44 -589.48,92.42 -603.26,76.73 -1163,203.74 -1764.95,278.32 -397.19,49.21 -804.97,107.65 -1213.78,136.94 -498.61,35.71 -703.73,62.56 -1196.71,165.66 -382.77,80.06 -768.17,159.25 -1154.08,217.19 -271.66,40.78 -975.7,-16.5 -1266.14,-51.9 -412.23,-50.25 -829.3,-53.08 -1246.33,-95.98 -245.41,-25.25 -406.99,-86.08 -579.71,-102.61 -237.98,-22.79 -325.81,-84.82 -528.22,-178.48 -3.93,78.18 6.72,108.66 -11.99,170.39 -0.76,2.51 -2.39,6.88 -4.08,9.88l0 1648.14c17.46,-44.18 11.89,-105.61 11.61,-160.34 -1.5,-297.11 -9.07,-1033.47 2.01,-1240.68 163.93,4.32 192.49,14.83 330.96,89.17 224.96,120.78 1102.62,267.07 1388.18,292.7 128.08,11.5 253.89,5.38 382.79,12.49 129.45,7.16 246.52,29.81 379.94,29.8 66.9,-0.01 125.1,-2.03 192.04,9.02 81.27,13.43 110.96,-3.93 187.64,-7.68 283.42,-13.87 403.12,46.73 769.43,-14.37l760.83 -56.21c247.95,-19.3 500.3,-62.4 749.88,-69.82 421.61,-12.54 714.31,-79.09 1110.33,-114.79 293.21,-26.43 834.4,-88.41 1100.2,-138.9 519.22,-98.64 906.47,-101.63 1433.94,-225.85 233.74,-55.05 480.62,-53.11 715.46,-114.05 227.78,-59.11 466.69,-99.4 699.41,-138.63 340.29,-57.38 967.74,-253.73 1336.53,-355.04 444.9,-122.21 914.87,-250.65 1367.49,-316.96 237.01,-34.73 487.78,-74.94 725.38,-100.57 261.15,-28.2 528.86,3.27 784.11,-23.37 312.29,-32.59 849.82,-63.84 1171.32,-46.8 118.97,6.31 238.49,43.31 359.38,56.43 480.97,52.18 938.62,168 1405.75,265.91 230.04,48.21 466.09,98.92 700.86,130.73 469.28,63.57 923.97,185.14 1381.99,303.36 412.67,106.53 948.6,173.74 1397.81,273.34 234.1,51.92 452.31,105.93 681.52,162.46 445.55,109.92 886.29,254.73 1333.21,366.81l0 -893.94c-60.54,-42.41 -130.97,-101.45 -212.88,-125.68 -135.34,-70.49 -276.06,-124.51 -413.65,-187.37 -85.53,-39.08 -350.19,-144.98 -429.71,-151.65z"/>
  <path class="fil5" d="M6366.17 12320.75c126.86,47.22 215.19,-16.99 256.5,-217.17 -7.12,202.61 84.3,308.35 242.59,348.37 -181.91,-15.44 -278.49,68.26 -277.89,264.88 -9.72,-159.49 -63.13,-300.24 -221.2,-396.08z"/>
  <path class="fil5" d="M4778.43 11762.2c67.6,25.16 114.67,-9.06 136.68,-115.73 -3.79,107.97 44.93,164.32 129.27,185.64 -96.93,-8.23 -148.4,36.38 -148.08,141.15 -5.18,-84.99 -33.64,-159.99 -117.87,-211.06z"/>
  <path class="fil5" d="M3328 11556.53c9.73,-154.2 52.31,-223.33 184.26,-276.55 -142.19,-13.41 -172.42,-114.05 -184.58,-228.76 -36.19,132.34 -7.78,182.11 -144,231.81 111.97,42.59 128.62,166.66 144.32,273.5z"/>
  <path class="fil5" d="M8797.17 11405.31c-7.22,114.44 -38.82,165.75 -136.75,205.24 105.53,9.96 127.97,84.65 136.99,169.78 26.86,-98.22 5.77,-135.15 106.87,-172.04 -83.1,-31.61 -95.46,-123.69 -107.11,-202.98z"/>
  <path class="fil5" d="M10712.49 11643.89c8.31,131.69 44.67,190.74 157.36,236.19 -121.44,11.45 -147.25,97.4 -157.64,195.37 -30.9,-113.03 -6.64,-155.53 -122.98,-197.97 95.63,-36.38 109.85,-142.34 123.26,-233.59z"/>
  <path class="fil5" d="M1168.51 12262.12c155.67,57.94 264.05,-20.85 314.74,-266.48 -8.74,248.61 103.44,378.36 297.67,427.47 -223.22,-18.94 -341.73,83.76 -340.98,325.02 -11.94,-195.7 -77.47,-368.4 -271.43,-486.01z"/>
  <path class="fil5" d="M7564.86 11255.22c-82.65,-30.77 -140.2,11.06 -167.11,141.48 4.64,-132 -54.92,-200.89 -158.04,-226.96 118.51,10.06 181.43,-44.47 181.04,-172.57 6.33,103.91 41.13,195.6 144.11,258.05z"/>
  <path class="fil5" d="M11596.1 11099.68c-62.16,-23.14 -105.43,8.32 -125.67,106.39 3.49,-99.26 -41.3,-151.07 -118.84,-170.67 89.12,7.56 136.43,-33.44 136.14,-129.77 4.76,78.14 30.93,147.09 108.37,194.05z"/>
  <path class="fil5" d="M7815.18 12330.77c63.43,23.61 107.6,-8.5 128.25,-108.59 -3.56,101.31 42.15,154.18 121.3,174.19 -90.96,-7.72 -139.25,34.13 -138.95,132.44 -4.86,-79.75 -31.56,-150.12 -110.6,-198.04z"/>
  <path class="fil5" d="M8908.39 11907.56c48.26,17.96 81.87,-6.46 97.58,-82.62 -2.71,77.08 32.07,117.31 92.29,132.53 -69.2,-5.87 -105.95,25.97 -105.72,100.77 -3.7,-60.67 -24.01,-114.22 -84.15,-150.68z"/>
  <path class="fil5" d="M3066.36 12468.01c-67.6,25.16 -114.67,-9.06 -136.68,-115.73 3.79,107.97 -44.93,164.32 -129.27,185.64 96.93,-8.22 148.4,36.38 148.08,141.15 5.18,-84.99 33.64,-159.99 117.87,-211.06z"/>
  <path class="fil6" d="M-0 18853.65c4058.43,-431.58 8685.01,-888.95 12717.07,-118.11 99.23,18.97 181.96,44.17 280.94,64.06 192.74,38.74 382.7,64.86 584.7,89.55 397.76,48.63 789.39,148.32 1184.79,178.82 209.71,16.18 429.45,10.59 642.21,27.44 714.78,56.6 1271.24,-37.63 1935.19,-46.62 449.02,-6.08 851.2,-35.25 1283.03,-75.4 511.68,-47.57 654.41,-8.73 1224.36,-131.7 92.45,-19.95 1040.26,-209.7 1096.26,-262.79 54.55,3.96 384.25,-103.11 468.41,-125.74 159.33,-42.85 322.4,-82.98 479.46,-125.75 316.27,-86.14 644.27,-167.21 963.58,-236.86l0 2745.81 -272.17 -87.64c-368.15,-107.28 -931.36,-180.48 -1340.33,-210.66 -484.55,-35.75 -1028.38,-16.41 -1519.71,-15.93 -510.31,0.5 -1000.05,20.82 -1509.62,26.35 -245.77,2.67 -479.29,35.91 -718.59,46.7 -237.18,10.68 -473.83,30.52 -709.33,55.54 -472.14,50.17 -971.18,51.27 -1447.87,89.53 -237.9,19.1 -481.29,33.7 -718.08,52.86 -238.54,19.3 -470.87,47.8 -709.66,55.58 -373.6,12.18 -1133.69,2.88 -1506.15,-22.84 -904.03,-62.44 -1900.08,-102.27 -2783.55,-291.53 -423.06,-90.62 -830.79,-205.68 -1264.47,-291.55 -374.85,-74.21 -933.82,-211.48 -1285.73,-265.76 -221.88,-34.22 -434.1,-74.72 -657.39,-112.2 -216.68,-36.37 -447.33,-64.89 -658.14,-112.08 -599.12,-134.12 -2088.43,-272.67 -2781.04,-303.84 -162.11,-7.29 -485.75,-15.74 -646.13,-35.71 -154.3,-19.22 -1414.2,-34.37 -1592.63,-27.45 -243.79,9.44 -493.98,10.04 -739.41,17.2 8.8,-724.43 0,-188.71 0,-549.28z"/>
  <path class="fil7" d="M5596.95 25498.64l-646.39 -129.69c-222.2,-46.4 -445.2,-63.06 -664.37,-104.44 -579.78,-109.47 -749.07,-148.06 -1345.45,-190.5 -596.43,-42.45 -908.1,-30.15 -1493.25,-27.82 -106.49,0.43 -234.45,17.21 -337.54,25.26 -249.07,19.45 -961.42,-39.37 -1109.95,42.36l0 -696.96c125.54,-62.75 1146.92,-96.43 1366.2,-112.31 236.08,-17.08 434.31,-48.38 687.71,-49.32 114.93,-0.42 220.76,19.68 330.29,29.02 312.09,26.59 741.11,10.78 1066.37,11.02 235.7,0.18 1129.9,60.88 1365.13,90.61 214.31,27.07 419.6,67.38 631.72,93.06 224.03,27.12 455.08,30.83 674.5,59.81 209.64,27.69 420.63,61.92 629.34,98.28 212,36.94 445.93,42.55 644.49,90.99 296.34,72.29 382.46,52.63 629.38,100.5 200.19,38.81 405.67,91.05 606.89,132.05 182.22,37.13 359.91,97.97 585.48,144.18 212.33,43.51 402.1,95.49 603.16,140.42 204.45,45.68 415.63,74.01 623.5,103.37 220.08,31.08 419.37,64.6 645.69,90.36 114.16,12.99 229.47,21.57 340.56,31.95 110.74,10.35 209.4,30.69 322.32,41.27 468.97,43.95 919.72,51.57 1402.55,51.62 448.93,0.05 909.57,-61.58 1334.06,-124.12 168.03,-24.75 412.62,-104.56 582.02,-161.47 184.86,-62.12 375.8,-103.78 566.09,-168.71 180.58,-61.62 358.55,-139.9 545.61,-199.89 320.93,-102.91 244.33,-87.46 520.66,-216.95 386.71,-181.22 663.47,-291.51 1087.09,-395.43 823.48,-202.01 1155.9,-203.94 1957.04,-241.09 237.4,-11.01 485.26,5.24 724.37,-1.06 -54.75,-23.83 -484.91,-105.53 -590.07,-131.02 -328.14,-79.52 -871.03,-163.69 -1210.55,-204.35 -347.72,-41.64 -1307.37,-35.7 -1685.81,0.64 -168.48,16.18 -529.22,6.32 -673.61,27.45 -305.22,44.68 -710.36,39.06 -1011.16,18.05l-968.05 -86.93c-108.23,-9.71 -218.1,-14.12 -325.15,-20.72 -326,-20.09 -666.98,-60.72 -977.8,-80.01 -113.83,-7.06 -220.79,-11.32 -333.22,-21.73 -208.01,-19.27 -413.77,-65.37 -619.85,-83.77 -207.34,-18.53 -412.02,-61.39 -622.97,-84.73 -201.91,-22.34 -416.12,-56.48 -619.72,-82.39 -211.16,-26.88 -425.9,-42.96 -637.84,-66.39 -213.47,-23.6 -423.78,-59.29 -634.56,-81.87 -200.33,-21.46 -401.71,-71.12 -605.65,-103 -191.72,-29.96 -389.99,-90.29 -589.7,-111.72 -734.68,-78.86 -1265.55,-94.4 -2019.94,-95.04 -461.32,-0.4 -1559.28,13.42 -2010.21,98.69 -319.97,60.51 -605.73,93.22 -924.68,137.31 -103.51,14.31 -196.06,39.83 -299.96,52.98 -418.64,52.97 -799.28,151.69 -1202.26,212.24 -202.21,30.39 -394.03,82.28 -598.64,107.45 -220.43,27.12 -1154.68,136.95 -1310.82,64.48l0 -92.89 0 -1663.81 0 -1532.56 10.91 -0.89 2.12 1287.29c198.64,38.96 428.85,109.14 628.96,163.31 211.77,57.32 435.64,94.67 657.18,143.78 462.01,102.41 939.71,143.44 1422.61,179.52 239.24,17.87 486.9,48.67 728.95,57.56 781.45,28.69 1450.15,92.11 2228,151.43 245.36,18.72 492.05,29.42 739.46,43.18 243.74,13.55 487.61,42.3 729.72,66.01 244.22,23.93 496.49,31.93 736.96,65.83 864.1,121.81 1308.66,165.47 2220.64,148.51 123.01,-2.28 244.42,-18.62 369.42,-18.56 326.06,0.17 840.08,-20.82 1160.17,-40.32 252.96,-15.41 483.4,-34.76 739.7,-34.47 262.66,0.3 512.98,-25.72 770.21,-24.86 263.82,0.88 526.93,-0.52 790.76,3.83 256.92,4.24 509.57,-30.22 759.57,-35.26 259.29,-5.22 508.9,-17.9 770.59,-18.23 262.34,-0.35 519.58,11.85 780.72,18.26 1140.18,28 1752.73,50.11 2879.96,291.44 219.59,47.01 432.86,111.17 655.36,151.25 213.16,38.41 443.98,98.02 652.47,150.05 217.54,54.28 412.87,126.65 628.22,179.18 715.44,174.48 564.86,151.73 1215.46,399.96 268.5,102.44 297.26,98.37 581.88,231.02l0 1274.76c-917.08,-3.44 -1800.86,-13.06 -2692.99,131.45 -403.45,65.34 -817.89,152.21 -1221.21,218.79 -201.47,33.26 -397.22,74.14 -593.9,124.29 -160.3,40.87 -441.17,66.75 -575.38,127.22 -113.6,18.93 -233.24,61.03 -348.59,86.55 -121.5,26.87 -241.69,40.87 -361.28,66.3 -466.2,99.12 -980.54,178.84 -1456.6,270.73 -248.38,47.94 -488.2,82.8 -742.86,118.94 -257.95,36.62 -521.41,36.75 -777.2,74.34 -252.16,37.06 -532.88,62.15 -784.8,68.73 -350.81,9.18 -1384.96,35.36 -1681.05,10.68 -528.46,-44.04 -1042.13,-70.11 -1561.25,-145.82 -250.33,-36.5 -506.02,-90.65 -754.86,-109.47 -134.6,-10.18 -248.76,-21.84 -379.66,-42.64 -122.42,-19.46 -238.05,-54.51 -365.05,-72.75 -257.5,-36.96 -505.37,-63.07 -759.6,-101.54 -120.81,-18.29 -241.69,-43.56 -363.52,-63.39 -398.87,-64.95 -697.98,-131.04 -1092.5,-209.14 -121.25,-24 -242.48,-39.83 -365.31,-61.51 -122.56,-21.64 -267.92,-48.67 -385.44,-58.07z"/>
  <path class="fil6" d="M-0 23941.77l0 -624.92c156.14,50.53 1090.39,-26.05 1310.82,-44.96 204.61,-17.55 396.43,-53.73 598.64,-74.92 402.98,-42.22 783.62,-111.06 1202.26,-147.99 103.9,-9.17 196.45,-26.96 299.96,-36.94 318.95,-30.75 604.71,-53.56 924.68,-95.75 450.93,-59.45 1548.89,-69.09 2010.21,-68.81 754.39,0.44 1285.26,11.28 2019.94,66.27 199.71,14.94 397.98,57 589.7,77.9 203.94,22.23 405.32,56.85 605.65,71.82 210.78,15.74 421.09,40.63 634.56,57.08 211.94,16.34 426.68,27.55 637.84,46.29 203.6,18.07 417.81,41.88 619.72,57.46 210.95,16.27 415.63,46.16 622.97,59.07 206.08,12.84 411.84,44.98 619.85,58.42 112.43,7.25 219.39,10.23 333.22,15.15 310.82,13.45 651.8,41.78 977.8,55.79 107.05,4.6 216.92,7.68 325.15,14.45l968.05 60.61c300.8,14.65 705.94,18.57 1011.16,-12.58 144.39,-14.74 505.13,-7.86 673.61,-19.14 378.44,-25.34 1338.09,-29.48 1685.81,-0.45 339.52,28.35 882.41,87.04 1210.55,142.49 105.16,17.77 535.32,74.74 590.07,91.36 -239.11,4.39 -486.97,-6.94 -724.37,0.74 -801.14,25.9 -1133.56,27.25 -1957.04,168.1 -423.62,72.47 -700.38,149.37 -1087.09,275.73 -276.33,90.29 -199.73,79.52 -520.66,151.28 -187.06,41.83 -365.03,96.41 -545.61,139.38 -190.29,45.27 -381.23,74.32 -566.09,117.63 -169.4,39.69 -413.99,95.34 -582.02,112.59 -424.49,43.61 -885.13,86.59 -1334.06,86.55 -482.83,-0.03 -933.58,-5.34 -1402.55,-35.99 -112.92,-7.38 -211.58,-21.56 -322.32,-28.77 -111.09,-7.24 -226.4,-13.23 -340.56,-22.29 -226.32,-17.96 -425.61,-41.33 -645.69,-63 -207.87,-20.47 -419.05,-40.23 -623.5,-72.08 -201.06,-31.33 -390.83,-67.57 -603.16,-97.91 -225.57,-32.22 -403.26,-74.65 -585.48,-100.54 -201.22,-28.58 -406.7,-65.01 -606.89,-92.07 -246.92,-33.38 -333.04,-19.67 -629.38,-70.08 -198.56,-33.78 -432.49,-37.69 -644.49,-63.44 -208.71,-25.36 -419.7,-49.23 -629.34,-68.53 -219.42,-20.21 -450.47,-22.8 -674.5,-41.71 -212.12,-17.91 -417.41,-46.01 -631.72,-64.89 -235.23,-20.73 -1129.43,-63.06 -1365.13,-63.18 -325.26,-0.16 -754.28,10.85 -1066.37,-7.68 -109.53,-6.51 -215.36,-20.53 -330.29,-20.24 -253.4,0.66 -451.63,22.48 -687.71,34.39 -219.28,11.07 -1240.66,34.56 -1366.2,78.31z"/>
  <path class="fil8" d="M-0 19391.49c245.43,-7.17 495.62,3.68 739.41,-5.76 178.43,-6.92 1438.33,8.23 1592.63,27.45 160.38,19.97 484.02,28.42 646.13,35.71 692.61,31.17 2181.92,169.72 2781.04,303.84 210.81,47.19 441.46,75.71 658.14,112.08 223.29,37.48 435.51,77.98 657.39,112.2 351.91,54.28 910.88,191.55 1285.73,265.76 433.68,85.87 841.41,200.93 1264.47,291.55 883.47,189.26 1879.52,229.09 2783.55,291.53 372.46,25.72 1132.55,35.02 1506.15,22.84 238.79,-7.78 471.12,-36.28 709.66,-55.58 236.79,-19.16 480.18,-33.76 718.08,-52.86 476.69,-38.26 975.73,-39.36 1447.87,-89.53 235.5,-25.02 472.15,-44.86 709.33,-55.54 239.3,-10.79 472.82,-44.03 718.59,-46.7 509.57,-5.53 999.31,-25.85 1509.62,-26.35 491.33,-0.48 1035.16,-19.82 1519.71,15.93 408.97,30.18 972.18,103.38 1340.33,210.66l272.17 87.64 0 2953.83c-284.62,-132.65 -313.38,-128.58 -581.88,-231.02 -650.6,-248.23 -500.02,-225.48 -1215.46,-399.96 -215.35,-52.53 -410.68,-124.9 -628.22,-179.18 -208.49,-52.03 -439.31,-111.64 -652.47,-150.05 -222.5,-40.08 -435.77,-104.24 -655.36,-151.25 -1127.23,-241.33 -1739.78,-263.44 -2879.96,-291.44 -261.14,-6.41 -518.38,-18.61 -780.72,-18.26 -261.69,0.33 -511.3,13.01 -770.59,18.23 -250,5.04 -502.65,39.5 -759.57,35.26 -263.83,-4.35 -526.94,-2.95 -790.76,-3.83 -257.23,-0.86 -507.55,25.16 -770.21,24.86 -256.3,-0.29 -486.74,19.06 -739.7,34.47 -320.09,19.5 -834.11,40.49 -1160.17,40.32 -125,-0.06 -246.41,16.28 -369.42,18.56 -911.98,16.96 -1356.54,-26.7 -2220.64,-148.51 -240.47,-33.9 -492.74,-41.9 -736.96,-65.83 -242.11,-23.71 -485.98,-52.46 -729.72,-66.01 -247.41,-13.76 -494.1,-24.46 -739.46,-43.18 -777.85,-59.32 -1446.55,-122.74 -2228,-151.43 -242.05,-8.89 -489.71,-39.69 -728.95,-57.56 -482.9,-36.08 -960.6,-77.11 -1422.61,-179.52 -221.54,-49.11 -445.41,-86.46 -657.18,-143.78 -200.11,-54.17 -443.35,-124.35 -641.99,-163.31l0 -2126.28z"/>
  <path class="fil3" d="M22860 29279.79l0 -624.92c-156.14,50.53 -1090.39,-26.05 -1310.82,-44.96 -204.61,-17.55 -396.43,-53.73 -598.64,-74.92 -402.98,-42.22 -783.62,-111.06 -1202.26,-148 -103.9,-9.17 -196.45,-26.95 -299.96,-36.93 -318.95,-30.75 -604.71,-53.56 -924.68,-95.75 -450.93,-59.46 -1548.89,-69.09 -2010.21,-68.82 -754.39,0.45 -1285.26,11.29 -2019.94,66.27 -199.71,14.95 -397.98,57.01 -589.7,77.91 -203.94,22.23 -405.32,56.85 -605.65,71.82 -210.78,15.74 -421.09,40.63 -634.56,57.08 -211.94,16.34 -426.68,27.55 -637.84,46.29 -203.6,18.07 -417.81,41.88 -619.72,57.45 -210.95,16.28 -415.63,46.16 -622.97,59.08 -206.08,12.84 -411.84,44.98 -619.85,58.41 -112.43,7.26 -219.39,10.23 -333.22,15.16 -310.82,13.45 -651.8,41.78 -977.8,55.79 -107.05,4.6 -216.92,7.68 -325.15,14.44l-968.05 60.62c-300.8,14.65 -705.94,18.57 -1011.16,-12.58 -144.39,-14.74 -505.13,-7.86 -673.61,-19.15 -378.44,-25.34 -1338.09,-29.47 -1685.81,-0.44 -339.52,28.35 -882.41,87.04 -1210.55,142.49 -105.16,17.77 -535.32,74.74 -590.07,91.36 239.11,4.39 486.97,-6.94 724.37,0.74 801.14,25.9 1133.56,27.25 1957.04,168.1 423.62,72.46 700.38,149.37 1087.09,275.73 276.33,90.29 199.73,79.52 520.66,151.28 187.06,41.83 365.03,96.41 545.61,139.38 190.29,45.27 381.23,74.32 566.09,117.63 169.4,39.69 413.99,95.34 582.02,112.59 424.49,43.61 885.13,86.58 1334.06,86.55 482.83,-0.04 933.58,-5.34 1402.55,-35.99 112.92,-7.38 211.58,-21.56 322.32,-28.78 111.09,-7.24 226.4,-13.22 340.56,-22.28 226.32,-17.96 425.61,-41.33 645.69,-63 207.87,-20.48 419.05,-40.23 623.5,-72.09 201.06,-31.32 390.83,-67.57 603.16,-97.9 225.57,-32.22 403.26,-74.65 585.48,-100.54 201.22,-28.59 406.7,-65.01 606.89,-92.07 246.92,-33.38 333.04,-19.67 629.38,-70.08 198.56,-33.78 432.49,-37.69 644.49,-63.45 208.71,-25.35 419.7,-49.22 629.34,-68.53 219.42,-20.2 450.47,-22.79 674.5,-41.7 212.12,-17.91 417.41,-46.01 631.72,-64.89 235.23,-20.73 1129.43,-63.06 1365.13,-63.18 325.26,-0.17 754.28,10.85 1066.37,-7.69 109.53,-6.51 215.36,-20.53 330.29,-20.23 253.4,0.65 451.63,22.48 687.71,34.39 219.28,11.07 1240.66,34.56 1366.2,78.31z"/>
  <path class="fil9" d="M22860 25752.24c-245.43,-5 -495.62,2.57 -739.41,-4.02 -178.43,-4.82 -1438.33,5.74 -1592.63,19.14 -160.38,13.93 -484.02,19.82 -646.13,24.91 -692.61,21.73 -2181.92,118.34 -2781.04,211.86 -210.81,32.91 -441.46,52.79 -658.14,78.15 -223.29,26.13 -435.51,54.37 -657.39,78.23 -351.91,37.85 -910.88,133.57 -1285.73,185.32 -433.68,59.87 -841.41,140.1 -1264.47,203.29 -883.47,131.97 -1879.52,159.74 -2783.55,203.28 -372.46,17.93 -1132.55,24.41 -1506.15,15.92 -238.79,-5.42 -471.12,-25.3 -709.66,-38.75 -236.79,-13.37 -480.18,-23.54 -718.08,-36.86 -476.69,-26.68 -975.73,-27.45 -1447.87,-62.43 -235.5,-17.45 -472.15,-31.28 -709.33,-38.73 -239.3,-7.52 -472.82,-30.7 -718.59,-32.56 -509.57,-3.85 -999.31,-18.02 -1509.62,-18.37 -491.33,-0.34 -1035.16,-13.82 -1519.71,11.11 -408.97,21.04 -972.18,72.08 -1340.33,146.89l-272.17 61.1 0 2059.66c284.62,-92.49 313.38,-89.65 581.88,-161.09 650.6,-173.08 500.02,-157.22 1215.46,-278.88 215.35,-36.63 410.68,-87.09 628.22,-124.94 208.49,-36.28 439.31,-77.85 652.47,-104.62 222.5,-27.95 435.77,-72.69 655.36,-105.47 1127.23,-168.28 1739.78,-183.7 2879.96,-203.21 261.14,-4.47 518.38,-12.98 780.72,-12.74 261.69,0.23 511.3,9.07 770.59,12.72 250,3.5 502.65,27.54 759.57,24.58 263.83,-3.04 526.94,-2.06 790.76,-2.67 257.23,-0.6 507.55,17.54 770.21,17.33 256.3,-0.2 486.74,13.29 739.7,24.04 320.09,13.59 834.11,28.23 1160.17,28.11 125,-0.04 246.41,11.35 369.42,12.95 911.98,11.82 1356.54,-18.62 2220.64,-103.56 240.47,-23.64 492.74,-29.22 736.96,-45.9 242.11,-16.54 485.98,-36.58 729.72,-46.03 247.41,-9.59 494.1,-17.06 739.46,-30.11 777.85,-41.36 1446.55,-85.58 2228,-105.59 242.05,-6.2 489.71,-27.67 728.95,-40.13 482.9,-25.16 960.6,-53.77 1422.61,-125.18 221.54,-34.24 445.41,-60.29 657.18,-100.26 200.11,-37.77 443.35,-86.7 641.99,-113.87l0 -1482.62z"/>
  <path class="fil10" d="M-0 35413.64c245.43,-5 495.62,2.56 739.41,-4.02 178.43,-4.82 1438.33,5.74 1592.63,19.14 160.38,13.93 484.02,19.82 646.13,24.9 692.61,21.74 2181.92,118.34 2781.04,211.87 210.81,32.9 441.46,52.78 658.14,78.14 223.29,26.14 435.51,54.38 657.39,78.24 351.91,37.85 910.88,133.57 1285.73,185.31 433.68,59.88 841.41,140.11 1264.47,203.3 883.47,131.97 1879.52,159.74 2783.55,203.28 372.46,17.93 1132.55,24.41 1506.15,15.92 238.79,-5.42 471.12,-25.3 709.66,-38.76 236.79,-13.36 480.18,-23.54 718.08,-36.85 476.69,-26.68 975.73,-27.45 1447.87,-62.43 235.5,-17.45 472.15,-31.28 709.33,-38.73 239.3,-7.52 472.82,-30.7 718.59,-32.56 509.57,-3.86 999.31,-18.03 1509.62,-18.37 491.33,-0.34 1035.16,-13.82 1519.71,11.11 408.97,21.04 972.18,72.08 1340.33,146.88l272.17 61.11 0 2059.66c-284.62,-92.5 -313.38,-89.66 -581.88,-161.09 -650.6,-173.08 -500.02,-157.22 -1215.46,-278.88 -215.35,-36.63 -410.68,-87.09 -628.22,-124.94 -208.49,-36.28 -439.31,-77.85 -652.47,-104.63 -222.5,-27.95 -435.77,-72.68 -655.36,-105.46 -1127.23,-168.28 -1739.78,-183.7 -2879.96,-203.22 -261.14,-4.47 -518.38,-12.98 -780.72,-12.73 -261.69,0.23 -511.3,9.07 -770.59,12.71 -250,3.51 -502.65,27.55 -759.57,24.59 -263.83,-3.04 -526.94,-2.06 -790.76,-2.67 -257.23,-0.6 -507.55,17.54 -770.21,17.33 -256.3,-0.2 -486.74,13.29 -739.7,24.04 -320.09,13.59 -834.11,28.23 -1160.17,28.11 -125,-0.04 -246.41,11.35 -369.42,12.94 -911.98,11.83 -1356.54,-18.61 -2220.64,-103.55 -240.47,-23.64 -492.74,-29.22 -736.96,-45.9 -242.11,-16.54 -485.98,-36.58 -729.72,-46.03 -247.41,-9.59 -494.1,-17.06 -739.46,-30.11 -777.85,-41.36 -1446.55,-85.58 -2228,-105.59 -242.05,-6.2 -489.71,-27.67 -728.95,-40.13 -482.9,-25.16 -960.6,-53.78 -1422.61,-125.18 -221.54,-34.24 -445.41,-60.29 -657.18,-100.26 -200.11,-37.77 -443.35,-86.7 -641.99,-113.87l0 -1482.62z"/>
  <path class="fil9" d="M-0 30172.13c1144.92,-84.9 4011.34,10.68 5195.38,132.92 230.48,23.79 470.92,37.51 705.3,57.84 467.54,40.57 928.69,76.93 1386.88,126.46 454.37,49.13 931.09,76.52 1386.75,130.84 230.54,27.49 460.61,45.24 683.85,72.85 346.04,42.81 972.24,132.08 1302.74,198 89.81,17.91 583.64,112.42 637.08,108.23 41.44,25.66 1314.98,189.72 1419.09,203.6 99.23,13.22 181.96,30.79 280.94,44.66 192.74,27.02 382.7,45.23 584.7,62.45 397.76,33.9 789.39,103.41 1184.79,124.68 209.71,11.29 429.45,7.39 642.21,19.13 714.78,39.47 1271.24,-26.23 1935.19,-32.51 449.02,-4.23 851.2,-24.57 1283.03,-52.57 511.68,-33.17 654.41,-6.08 1224.36,-91.83 92.45,-13.91 1040.26,-146.22 1096.26,-183.24 54.55,2.76 384.25,-71.89 468.41,-87.67 159.33,-29.88 322.4,-57.87 479.46,-87.69 316.27,-60.07 644.27,-116.59 963.58,-165.16l0 1914.61 -272.17 -61.11c-368.15,-74.8 -931.36,-125.84 -1340.33,-146.89 -484.55,-24.92 -1028.38,-11.44 -1519.71,-11.11 -510.31,0.35 -1000.05,14.52 -1509.62,18.38 -245.77,1.86 -479.29,25.04 -718.59,32.56 -237.18,7.45 -473.83,21.28 -709.33,38.73 -472.14,34.98 -971.18,35.74 -1447.87,62.43 -237.9,13.31 -481.29,23.49 -718.08,36.85 -238.54,13.46 -470.87,33.33 -709.66,38.76 -373.6,8.49 -1133.69,2.01 -1506.15,-15.93 -904.03,-43.53 -1900.08,-71.31 -2783.55,-203.28 -423.06,-63.19 -830.79,-143.41 -1264.47,-203.29 -374.85,-51.74 -933.82,-147.46 -1285.73,-185.31 -221.88,-23.86 -434.1,-52.1 -657.39,-78.24 -216.68,-25.36 -447.33,-45.24 -658.14,-78.14 -599.12,-93.53 -2088.43,-190.13 -2781.04,-211.87 -162.11,-5.09 -485.75,-10.97 -646.13,-24.9 -154.3,-13.4 -1414.2,-23.96 -1592.63,-19.14 -243.79,6.58 -493.98,7 -739.41,12 8.8,-505.14 0,-1004.84 0,-1496.1z"/>
  <path class="fil6" d="M8481.96 14772.26c5420.99,285.01 10096.9,2244.08 14361.97,1717.94 30.35,603.64 16.07,1218.38 16.07,1828.41 -17.46,-44.18 -11.89,-105.61 -11.61,-160.34 1.5,-297.11 9.07,-1033.47 -2.01,-1240.68 -6049.22,159.54 -8653.25,-641.8 -14414.54,-1243.06 -2487.38,-259.57 -5883.42,873.15 -8431.84,1512.24l0 -893.94c1899.55,-813.67 6575,-1475.6 8481.96,-1520.57z"/>
  <path class="fil3" d="M22846.38 16917.59c-6049.22,159.54 -8653.25,-641.8 -14414.54,-1243.06 -2487.38,-259.57 -5883.42,873.15 -8431.84,1512.24l0 70.55c1144.91,-121.75 4011.33,15.32 5195.38,190.63 230.47,34.12 470.92,53.79 705.3,82.96 467.54,58.17 928.69,110.32 1386.88,181.36 454.36,70.45 931.09,109.74 1386.75,187.64 230.54,39.41 460.61,64.87 683.85,104.47 346.03,61.39 972.23,189.43 1302.73,283.96 89.82,25.69 583.65,161.23 637.09,155.21 41.44,36.81 1314.98,272.09 1419.1,291.99 99.22,18.97 181.96,44.17 280.93,64.06 192.74,38.74 382.71,64.86 584.7,89.56 397.77,48.62 789.39,148.31 1184.79,178.81 209.72,16.18 429.46,10.59 642.21,27.44 714.78,56.59 1271.24,-37.63 1935.19,-46.63 449.02,-6.07 851.2,-35.24 1283.03,-75.39 511.68,-47.57 654.41,-8.73 1224.36,-131.7 92.46,-19.95 1040.27,-209.7 1096.26,-262.79 54.55,3.96 384.25,-103.11 468.41,-125.74 159.33,-42.85 322.41,-82.98 479.47,-125.75 312.56,-85.14 636.57,-165.31 952.34,-234.41 2.05,-328.03 7.95,-982.07 -2.39,-1175.41z"/>
  <path class="fil11" d="M17066.65 13925.08c-3877.37,-1011.05 -6885.13,-683.89 -10718.95,246.91 -1144.37,277.78 -3979.56,927.1 -6347.7,618.6l0 1502.24c1899.55,-813.67 6575,-1475.6 8481.96,-1520.57 5420.99,285.01 10096.9,2244.08 14361.97,1717.94 8.28,164.67 13.24,330.16 16.07,496.16l0 -2135.85c-917.09,4.22 -1800.86,16.01 -2693,-161.21 -403.44,-80.14 -817.88,-186.66 -1221.2,-268.32 -201.48,-40.79 -397.22,-90.92 -593.9,-152.43 -160.3,-50.12 -441.17,-81.86 -575.38,-156.02 -113.6,-23.21 -233.24,-74.84 -348.6,-106.14 -121.5,-32.95 -241.68,-50.12 -361.27,-81.31z"/>
  <path class="fil5" d="M21292.42 11068.73c87.85,32.71 149.01,-11.76 177.62,-150.38 -4.93,140.3 58.38,213.53 167.99,241.25 -125.97,-10.7 -192.85,47.26 -192.43,183.42 -6.74,-110.45 -43.72,-207.91 -153.18,-274.29z"/>
  <path class="fil4" d="M-0 18853.65c4016.6,-427.13 8589.69,-879.52 12592.19,-141.56 -346.41,-64.99 -1259.23,-237.47 -1294.21,-268.54 -53.44,6.02 -547.27,-129.52 -637.09,-155.21 -330.5,-94.53 -956.7,-222.57 -1302.73,-283.96 -223.24,-39.6 -453.31,-65.06 -683.85,-104.47 -455.66,-77.9 -932.39,-117.19 -1386.75,-187.64 -458.19,-71.04 -919.34,-123.19 -1386.88,-181.36 -234.38,-29.17 -474.83,-48.84 -705.3,-82.96 -1184.05,-175.31 -4050.47,-312.38 -5195.38,-190.63l0 1596.33z"/>
  <path class="fil12" d="M1612.5 26551.73c484.55,-24.93 1028.38,-11.45 1519.71,-11.11 510.31,0.35 1000.05,14.51 1509.62,18.37 245.77,1.86 479.29,25.04 718.59,32.56 237.18,7.45 473.83,21.29 709.33,38.73 472.14,34.98 971.18,35.75 1447.87,62.43 237.9,13.32 481.29,23.5 718.08,36.86 238.54,13.45 470.87,33.33 709.66,38.75 373.6,8.5 1133.69,2.01 1506.15,-15.92 904.03,-43.54 1900.08,-71.31 2783.55,-203.28 423.06,-63.19 830.79,-143.42 1264.47,-203.3 374.85,-51.74 933.82,-147.46 1285.73,-185.31 221.88,-23.86 434.1,-52.1 657.39,-78.23 216.68,-25.36 447.33,-45.25 658.14,-78.15 599.12,-93.52 2088.43,-190.13 2781.04,-211.86 162.11,-5.09 485.75,-10.98 646.13,-24.9 154.3,-13.41 1414.2,-23.97 1592.63,-19.15 243.79,6.59 493.98,-0.98 739.41,4.02l0 -1358.56c-917.08,-2.4 -1800.85,-9.1 -2692.99,91.66 -403.45,45.56 -817.89,106.13 -1221.21,152.56 -201.47,23.19 -397.22,51.7 -593.9,86.66 -160.3,28.5 -441.17,46.55 -575.38,88.71 -113.59,13.2 -233.24,42.56 -348.59,60.35 -121.5,18.74 -241.69,28.5 -361.27,46.23 -466.21,69.12 -980.54,124.7 -1456.6,188.78 -248.38,33.43 -488.2,57.73 -742.87,82.93 -257.95,25.54 -521.41,25.63 -777.2,51.85 -252.16,25.83 -532.88,43.32 -784.8,47.92 -350.8,6.39 -1384.96,24.65 -1681.05,7.44 -528.46,-30.71 -1042.13,-48.89 -1561.26,-101.68 -250.32,-25.45 -506.01,-63.21 -754.85,-76.34 -134.6,-7.1 -248.77,-15.22 -379.66,-29.72 -122.43,-13.57 -238.05,-38.01 -365.06,-50.72 -257.5,-25.78 -505.36,-43.99 -759.6,-70.81 -120.8,-12.75 -241.68,-30.38 -363.51,-44.21 -398.87,-45.28 -697.98,-91.36 -1092.5,-145.82 -121.25,-16.74 -242.48,-27.77 -365.31,-42.89 -122.57,-15.09 -267.93,-33.94 -385.44,-40.49l-646.39 -90.43c-222.2,-32.36 -445.2,-43.98 -664.37,-72.83 -579.78,-76.33 -749.07,-103.24 -1345.45,-132.83 -596.43,-29.59 -908.11,-21.02 -1493.26,-19.4 -106.49,0.3 -234.45,12 -337.53,17.61 -249.08,13.57 -961.43,-27.45 -1109.95,29.53l0 2331.98 272.17 -61.11c368.15,-74.8 931.36,-125.84 1340.33,-146.88z"/>
  <path class="fil11" d="M3078.03 28149.84c-213.16,26.79 -443.98,68.35 -652.47,104.63 -217.54,37.85 -412.87,88.31 -628.22,124.94 -715.44,121.66 -564.86,105.8 -1215.46,278.89 -268.5,71.42 -297.26,68.59 -581.88,161.08l0 1352.75c1144.92,-84.9 4011.34,10.68 5195.38,132.92 230.48,23.79 470.92,37.51 705.3,57.84 467.54,40.57 928.69,76.93 1386.88,126.46 454.37,49.13 931.09,76.52 1386.75,130.84 230.54,27.49 460.61,45.24 683.85,72.85 346.04,42.8 972.24,132.08 1302.74,198 89.81,17.91 583.64,112.42 637.08,108.22 41.44,25.67 1314.98,189.73 1419.09,203.6 99.23,13.23 181.96,30.8 280.94,44.67 192.74,27.01 382.7,45.23 584.7,62.44 397.76,33.91 789.39,103.42 1184.79,124.69 209.71,11.28 429.45,7.39 642.21,19.13 714.78,39.47 1271.24,-26.23 1935.19,-32.5 449.02,-4.24 851.2,-24.58 1283.03,-52.58 511.68,-33.17 654.41,-6.09 1224.36,-91.83 92.45,-13.91 1040.26,-146.22 1096.26,-183.24 54.55,2.76 384.25,-71.9 468.41,-87.68 159.33,-29.87 322.4,-57.86 479.46,-87.68 316.27,-60.06 644.27,-116.59 963.58,-165.16l0 -1473.33c-125.54,-43.75 -1146.92,-67.24 -1366.2,-78.31 -236.08,-11.91 -434.31,-33.74 -687.71,-34.39 -114.93,-0.29 -220.76,13.72 -330.29,20.23 -312.09,18.54 -741.11,7.52 -1066.37,7.69 -235.7,0.12 -1129.9,42.45 -1365.13,63.18 -214.31,18.87 -419.6,46.98 -631.72,64.89 -224.03,18.91 -455.08,21.5 -674.5,41.7 -209.64,19.31 -420.63,43.18 -629.34,68.53 -212,25.76 -445.93,29.67 -644.49,63.45 -296.34,50.4 -382.46,36.7 -629.38,70.07 -200.19,27.07 -405.67,63.49 -606.89,92.08 -182.22,25.89 -359.91,68.31 -585.48,100.53 -212.33,30.34 -402.1,66.59 -603.16,97.92 -204.45,31.85 -415.63,51.6 -623.5,72.08 -220.08,21.67 -419.37,45.04 -645.69,63 -114.16,9.06 -229.47,15.04 -340.56,22.28 -110.74,7.22 -209.4,21.4 -322.32,28.78 -468.97,30.64 -919.72,35.96 -1402.55,35.99 -448.93,0.04 -909.57,-42.94 -1334.06,-86.55 -168.03,-17.25 -412.62,-72.9 -582.02,-112.59 -184.86,-43.31 -375.8,-72.36 -566.09,-117.63 -180.58,-42.97 -358.55,-97.55 -545.61,-139.38 -320.93,-71.76 -244.33,-60.99 -520.66,-151.28 -386.71,-126.36 -663.47,-203.27 -1087.09,-275.73 -823.48,-140.86 -1155.9,-142.2 -1957.04,-168.11 -237.4,-7.67 -485.26,3.66 -724.37,-0.73 54.75,-16.62 484.91,-73.59 590.07,-91.36 328.14,-55.45 871.03,-114.14 1210.55,-142.49 347.72,-29.04 1307.37,-24.9 1685.81,0.44 168.48,11.29 529.22,4.41 673.61,19.14 305.22,31.16 710.36,27.24 1011.16,12.59l968.05 -60.61c108.23,-6.78 218.1,-9.85 325.15,-14.45 326,-14.01 666.98,-42.34 977.8,-55.79 113.83,-4.92 220.79,-7.9 333.22,-15.15 208.01,-13.44 413.77,-45.59 619.85,-58.42 207.34,-12.92 412.02,-42.8 622.97,-59.08 201.91,-15.57 416.12,-39.38 619.72,-57.45 211.16,-18.74 425.9,-29.95 637.84,-46.29 213.47,-16.45 423.78,-41.34 634.56,-57.08 200.33,-14.97 401.71,-49.6 605.65,-71.82 191.72,-20.9 389.99,-62.96 589.7,-77.91 734.68,-54.98 1265.55,-65.82 2019.94,-66.26 461.32,-0.28 1559.28,9.35 2010.21,68.81 319.97,42.19 605.73,65 924.68,95.74 103.51,9.98 196.06,27.78 299.96,36.95 418.64,36.93 799.28,105.77 1202.26,147.99 202.21,21.19 394.03,57.37 598.64,74.92 220.43,18.91 1154.68,95.49 1310.82,44.96l0 -1420.01c-198.64,27.17 -441.88,76.1 -641.99,113.87 -211.77,39.97 -435.64,66.02 -657.18,100.26 -462.01,71.41 -939.71,100.02 -1422.61,125.18 -239.24,12.46 -486.9,33.93 -728.95,40.13 -781.45,20.01 -1450.15,64.23 -2228,105.59 -245.36,13.05 -492.05,20.52 -739.46,30.11 -243.74,9.45 -487.61,29.49 -729.72,46.03 -244.22,16.68 208.19,-252.74 208.19,-252.74 -4265.28,723.15 -8204.82,-93.37 -12186.89,501.09 -219.59,32.78 -432.86,77.52 -655.36,105.46z"/>
  <path class="fil9" d="M22860 33316.96c-4058.43,-300.93 -8685.01,-619.84 -12717.07,-82.35 -99.23,13.23 -181.96,30.8 -280.94,44.67 -192.74,27.01 -382.7,45.22 -584.7,62.44 -397.76,33.91 -789.39,103.42 -1184.79,124.69 -209.71,11.28 -429.45,7.38 -642.21,19.13 -714.78,39.47 -1271.24,-26.24 -1935.19,-32.51 -449.02,-4.24 -851.2,-24.58 -1283.03,-52.57 -511.68,-33.17 -654.41,-6.09 -1224.36,-91.84 -92.45,-13.9 -1040.26,-146.21 -1096.26,-183.24 -54.55,2.77 -384.25,-71.89 -468.41,-87.67 -159.33,-29.88 -322.4,-57.86 -479.46,-87.69 -316.27,-60.06 -644.27,-116.59 -963.58,-165.15l0 1914.61 272.17 -61.11c368.15,-74.81 931.36,-125.85 1340.33,-146.9 484.55,-24.92 1028.38,-11.44 1519.71,-11.1 510.31,0.35 1000.05,14.52 1509.62,18.37 245.77,1.86 479.29,25.04 718.59,32.57 237.18,7.44 473.83,21.27 709.33,38.72 472.14,34.98 971.18,35.75 1447.87,62.43 237.9,13.32 481.29,23.49 718.08,36.86 238.54,13.45 470.87,33.33 709.66,38.75 373.6,8.49 1133.69,2.01 1506.15,-15.92 904.03,-43.54 1900.08,-71.32 2783.55,-203.28 423.06,-63.19 830.79,-143.42 1264.47,-203.29 374.85,-51.75 933.82,-147.46 1285.73,-185.32 221.88,-23.86 434.1,-52.09 657.39,-78.23 216.68,-25.36 447.33,-45.25 658.14,-78.15 599.12,-93.52 2088.43,-190.13 2781.04,-211.86 162.11,-5.09 485.75,-10.98 646.13,-24.91 154.3,-13.4 1414.2,-23.96 1592.63,-19.13 243.79,6.58 493.98,6.99 739.41,11.99 -8.8,-505.14 0,-131.59 0,-383.01z"/>
  <path class="fil13" d="M22860 35451.68l0 -430.05c-2397.7,293.08 -1777.65,-232.1 -3491.09,-275.65 -1619.03,-31.94 -915.74,590.67 -12515.54,469.2 -84.66,12.24 -430.97,51.44 -475.05,62.88 192.5,3.02 903.58,69.02 1094.7,74.3 10951.83,919.85 10479.84,-653.43 12609.01,40.98 1523.77,540.96 2241.57,99.08 2777.97,58.34z"/>
  <path class="fil11" d="M2978.17 31700.27c-162.11,-5.08 -485.75,-10.97 -646.13,-24.9 -154.3,-13.4 -1414.2,-23.97 -1592.63,-19.14 -243.79,6.58 -493.98,7 -739.41,11.99l0 1116.65c319.31,48.56 647.31,105.09 963.58,165.16 157.06,29.82 320.13,57.8 479.46,87.68 84.16,15.78 413.86,90.44 468.41,87.68 56,37.01 1003.81,169.32 1096.26,183.23 569.95,85.75 712.68,58.67 1224.36,91.84 431.83,27.99 834.01,48.33 1283.03,52.57 663.95,6.27 1220.41,71.98 1935.19,32.51 212.76,-11.75 432.5,-7.85 642.21,-19.13 395.4,-21.27 787.03,-90.78 1184.79,-124.69 202,-17.22 391.96,-35.43 584.7,-62.44 98.98,-13.87 181.71,-31.44 280.94,-44.67 4032.06,-537.5 8658.64,-218.58 12717.07,82.35l0 -649.23 -272.17 -61.11c-368.15,-74.8 -931.36,-125.85 -1340.33,-146.89 -484.55,-24.93 -1028.38,-11.44 -1519.71,-11.11 -510.31,0.35 -1000.05,14.52 -1509.62,18.38 -245.77,1.86 -479.29,25.04 -718.59,32.56 -237.18,7.45 -473.83,21.28 -709.33,38.73 -472.14,34.98 -971.18,35.75 -1447.87,62.42 -237.9,13.32 -481.29,23.5 -718.08,36.86 -238.54,13.46 -470.87,33.33 -709.66,38.76 -373.6,8.49 -1133.69,2.01 -1506.15,-15.93 -904.03,-43.54 -1900.08,-71.31 -2783.55,-203.28 -423.06,-63.18 -830.79,-143.41 -1264.47,-203.29 -374.85,-51.75 -933.82,-147.46 -1285.73,-185.31 -221.88,-23.86 -434.1,-52.1 -657.39,-78.24 -216.68,-25.36 -447.33,-45.24 -658.14,-78.15 -599.12,-93.52 -2088.43,-190.13 -2781.04,-211.86z"/>
  <path class="fil5" d="M12359.44 29376.92c62,-25.71 114.44,-8.12 155.21,62.31 -23.08,-73.59 14.76,-118.33 93.92,-143.5 -93.9,17.76 -152.52,-6.41 -170.98,-78.33 10.13,58.95 -4.43,113.96 -78.15,159.52z"/>
  <path class="fil5" d="M16377.1 29119.67c-27.61,-77.61 -67.89,-108.86 -171.31,-123.72 102.03,-20.01 110.72,-74.05 104.35,-133.58 44.02,64.02 29.89,92 135.96,104.67 -76.09,32.06 -71.75,96.78 -69,152.63z"/>
  <path class="fil5" d="M19185.49 28979.65c-57,23.63 -105.21,7.46 -142.69,-57.29 21.21,67.66 -13.57,108.79 -86.35,131.93 86.33,-16.32 140.23,5.9 157.19,72.01 -9.31,-54.19 4.08,-104.76 71.85,-146.65z"/>
  <path class="fil5" d="M15245.18 28607.49c58.18,-24.13 107.38,-7.62 145.63,58.46 -21.65,-69.05 13.85,-111.03 88.13,-134.65 -88.1,16.66 -143.11,-6.01 -160.43,-73.49 9.5,55.31 -4.16,106.93 -73.33,149.68z"/>
  <path class="fil5" d="M16396.53 28761.23c44.26,-18.36 81.7,-5.8 110.8,44.48 -16.47,-52.53 10.54,-84.48 67.05,-102.45 -67.03,12.68 -108.89,-4.57 -122.06,-55.92 7.23,42.09 -3.16,81.36 -55.79,113.89z"/>
  <path class="fil5" d="M10548.62 29106.63c-71.02,-8.82 -111.2,20.54 -113.74,96.46 -15.61,-74.54 -73.64,-107.1 -160.44,-111.2 96.84,-6.46 139.48,-43.49 120.39,-115.32 20.33,57.65 61.77,105.55 153.79,130.06z"/>
  <path class="fil5" d="M18452.27 17702.43c-15.42,-131.06 9.78,-195.66 112.5,-260.56 -121.52,10.48 -162.32,-69.45 -190.09,-163.97 -10.16,116.73 21.33,154.2 -85.52,216.8 100.6,18.66 133.57,120.36 163.11,207.73z"/>
  <path class="fil5" d="M15425.22 18648.78c-75.8,45.08 -139.91,14.23 -189.75,-109.25 28.21,129.03 -18.04,207.48 -114.83,251.61 114.8,-31.13 186.47,11.24 209.03,137.33 -12.38,-103.36 5.42,-199.8 95.55,-279.69z"/>
  <path class="fil5" d="M19419.09 18079.52c-57,33.89 -105.21,10.7 -142.69,-82.16 21.21,97.03 -13.57,156.02 -86.35,189.2 86.33,-23.41 140.23,8.46 157.19,103.28 -9.31,-77.73 4.08,-150.25 71.85,-210.32z"/>
  <path class="fil5" d="M16630.13 17766.27c44.26,-26.32 81.7,-8.31 110.8,63.8 -16.47,-75.35 10.54,-121.16 67.05,-146.93 -67.03,18.18 -108.89,-6.56 -122.06,-80.19 7.23,60.35 -3.16,116.67 -55.79,163.32z"/>
  <path class="fil4" d="M22860 28654.87c-2835.55,220.64 -2545.79,-435.05 -5554.25,-462.11 -2342.66,-21.07 -4196.13,647.92 -7475.77,502.2 3884.39,-499.6 3926.26,-833.99 5841.45,-1118.65 4050.17,-558.07 3878.49,449.42 7188.57,-541.88l0 1620.44z"/>
  <path class="fil5" d="M11569.78 16714c-116.35,69.19 -214.76,21.85 -291.26,-167.69 43.3,198.05 -27.69,318.47 -176.25,386.2 176.2,-47.78 286.22,17.26 320.85,210.8 -19.01,-158.65 8.32,-306.69 146.66,-429.31z"/>
  <path class="fil5" d="M9014.09 16248.95c27.61,111.3 67.89,156.11 171.31,177.42 -102.03,28.7 -110.72,106.2 -104.35,191.57 -44.02,-91.81 -29.89,-131.93 -135.96,-150.1 76.09,-45.99 71.75,-138.79 69,-218.89z"/>
  <path class="fil5" d="M6205.7 16449.75c57,-33.89 105.21,-10.7 142.69,82.16 -21.21,-97.03 13.57,-156.02 86.35,-189.2 -86.33,23.41 -140.23,-8.46 -157.19,-103.28 9.31,77.73 -4.08,150.25 -71.85,210.32z"/>
  <path class="fil5" d="M8063.09 16998.54c-75.8,45.08 -139.91,14.23 -189.75,-109.25 28.21,129.03 -18.04,207.48 -114.83,251.61 114.8,-31.13 186.47,11.24 209.03,137.33 -12.38,-103.36 5.42,-199.8 95.55,-279.69z"/>
  <path class="fil5" d="M1811.47 14122.88c15.42,131.06 -9.78,195.66 -112.5,260.56 121.52,-10.48 162.32,69.45 190.09,163.97 10.16,-116.73 -21.33,-154.2 85.52,-216.8 -100.6,-18.66 -133.57,-120.36 -163.11,-207.73z"/>
  <path class="fil5" d="M15500.33 12752.8c-58.18,34.59 -107.38,10.92 -145.63,-83.85 21.65,99.03 -13.85,159.23 -88.13,193.1 88.1,-23.89 143.11,8.63 160.43,105.4 -9.5,-79.32 4.16,-153.34 73.33,-214.65z"/>
  <path class="fil5" d="M3633.61 14059.04c-44.26,26.32 -81.7,8.31 -110.8,-63.8 16.47,75.35 -10.54,121.16 -67.05,146.93 67.03,-18.18 108.89,6.56 122.06,80.19 -7.23,-60.35 3.16,-116.67 55.79,-163.32z"/>
  <path class="fil5" d="M19036.25 14042.51c-27.61,-111.3 -67.89,-156.11 -171.31,-177.42 102.03,-28.7 110.72,-106.2 104.35,-191.57 44.02,91.81 29.89,131.93 135.96,150.1 -76.09,45.99 -71.75,138.79 -69,218.89z"/>
  <path class="fil5" d="M22551.15 14033.2c-57,33.89 -105.21,10.7 -142.69,-82.16 21.21,97.03 -13.57,156.02 -86.35,189.2 86.33,-23.41 140.23,8.46 157.19,103.28 -9.31,-77.73 4.08,-150.25 71.85,-210.32z"/>
  <path class="fil5" d="M20461.99 13659.82c44.26,-26.32 81.7,-8.31 110.8,63.8 -16.47,-75.35 10.54,-121.16 67.05,-146.93 -67.03,18.18 -108.89,-6.56 -122.06,-80.19 7.23,60.35 -3.16,116.67 -55.79,163.32z"/>
  <polyline class="fil14 str0" points="3347.97,11303.88 4911.41,11809.87 7402.28,11196.94 6615.72,12410.21 7939.96,12375.5 7402.28,11196.94 "/>
  <polyline class="fil14 str0" points="18985.09,13858.02 20550.91,13610.06 22436.63,14097.28 "/>
  <polygon class="fil14 str0" points="16719.05,17716.51 18426.96,17490.17 19304.57,18143.6 15272.93,18734 "/>
  <line class="fil14 str0" x1="16719.05" y1="17716.51" x2="11336.03" y2= "16844.81" />
  <line class="fil14 str0" x1="1836.78" y1="14335.15" x2="3544.69" y2= "14108.8" />
  <polygon class="fil14 str0" points="8782.35,11592.82 9003.33,11941.59 10729.55,11859.67 11473.83,11055.85 "/>
  <path class="fil7" d="M20082.03 35393.34c-2129.17,-694.41 -1657.18,878.87 -12609.01,-40.98 -191.12,-5.28 -902.2,-71.28 -1094.7,-74.3 44.08,-11.44 390.39,-50.64 475.05,-62.87 11599.8,121.46 10896.51,-501.15 12515.54,-469.21 1713.44,43.55 1093.39,568.73 3491.09,275.65l0 -1321.66c-245.43,-4.99 -495.62,-5.41 -739.41,-12 -178.43,-4.82 -1438.33,5.74 -1592.63,19.14 -160.38,13.93 -484.02,19.82 -646.13,24.9 -692.61,21.74 -2181.92,118.35 -2781.04,211.87 -210.81,32.9 -441.46,52.79 -658.14,78.15 -223.29,26.13 -435.51,54.37 -657.39,78.23 -351.91,37.85 -910.88,133.57 -1285.73,185.31 -433.68,59.88 -841.41,140.11 -1264.47,203.3 -883.47,131.97 -1879.52,159.74 -2783.55,203.28 -372.46,17.93 -1132.55,24.42 -1506.15,15.92 -238.79,-5.42 -471.12,-25.3 -709.66,-38.75 -236.79,-13.36 -480.18,-23.54 -718.08,-36.86 -476.69,-26.68 -975.73,-27.45 -1447.87,-62.43 -235.5,-17.45 -472.15,-31.28 -709.33,-38.73 -239.3,-7.52 -472.82,-30.7 -718.59,-32.56 -509.57,-3.86 -999.31,-18.02 -1509.62,-18.37 -491.33,-0.34 -1035.16,-13.82 -1519.71,11.11 -408.97,21.04 -972.18,72.08 -1340.33,146.88l-272.17 61.11 0 714.17c245.43,-5 495.62,2.57 739.41,-4.02 178.43,-4.82 1438.33,5.74 1592.63,19.14 160.38,13.93 484.02,19.82 646.13,24.9 692.61,21.74 2181.92,118.35 2781.04,211.87 210.81,32.9 441.46,52.79 658.14,78.15 223.29,26.13 435.51,54.37 657.39,78.23 351.91,37.85 910.88,133.57 1285.73,185.31 433.68,59.88 841.41,140.11 1264.47,203.3 883.47,131.96 1879.52,159.74 2783.55,203.27 372.46,17.94 1132.55,24.42 1506.15,15.93 238.79,-5.42 471.12,-25.3 709.66,-38.75 236.79,-13.36 480.18,-23.54 718.08,-36.86 476.69,-26.68 975.73,-27.45 1447.87,-62.43 235.5,-17.45 472.15,-31.28 709.33,-38.73 239.3,-7.52 472.82,-30.7 718.59,-32.56 509.57,-3.86 999.31,-18.03 1509.62,-18.37 491.33,-0.34 1035.16,-13.82 1519.71,11.1 408.97,21.05 972.18,72.09 1340.33,146.89l272.17 61.11 0 -969.44c-536.4,40.74 -1254.2,482.62 -2777.97,-58.34z"/>
  <path class="fil5" d="M15277.59 10249.11c27.61,111.3 67.89,156.11 171.31,177.42 -102.03,28.7 -110.72,106.2 -104.35,191.57 -44.02,-91.81 -29.89,-131.93 -135.96,-150.1 76.09,-45.99 71.75,-138.79 69,-218.89z"/>
  <path class="fil5" d="M12754.49 6233.53c57,-33.89 105.21,-10.7 142.69,82.16 -21.21,-97.03 13.57,-156.02 86.35,-189.2 -86.33,23.41 -140.23,-8.46 -157.19,-103.28 9.31,77.73 -4.08,150.25 -71.85,210.32z"/>
  <path class="fil5" d="M14537.33 8412.5c-75.8,45.08 -139.91,14.23 -189.75,-109.25 28.21,129.03 -18.04,207.48 -114.83,251.61 114.8,-31.13 186.47,11.24 209.03,137.33 -12.38,-103.36 5.42,-199.8 95.55,-279.69z"/>
  <path class="fil5" d="M9819.23 6477.41c27.61,-111.3 67.89,-156.11 171.31,-177.42 -102.03,-28.7 -110.72,-106.2 -104.35,-191.57 -44.02,91.81 -29.89,131.93 -135.96,150.1 76.09,45.99 71.75,138.79 69,218.89z"/>
  <path class="fil5" d="M6125.78 8782.96c57,33.89 105.21,10.7 142.69,-82.16 -21.21,97.03 13.57,156.02 86.35,189.2 -86.33,-23.41 -140.23,8.46 -157.19,103.28 9.31,-77.73 -4.08,-150.25 -71.85,-210.32z"/>
  <path class="fil5" d="M8567.7 9173.12c-75.8,-45.08 -139.91,-14.23 -189.75,109.25 28.21,-129.03 -18.04,-207.48 -114.83,-251.61 114.8,31.13 186.47,-11.24 209.03,-137.33 -12.38,103.36 5.42,199.8 95.55,279.69z"/>
  <path class="fil5" d="M10552.4 9616.28c155.67,57.94 264.05,-20.85 314.74,-266.48 -8.74,248.61 103.44,378.36 297.67,427.47 -223.22,-18.94 -341.73,83.76 -340.98,325.02 -11.94,-195.7 -77.47,-368.4 -271.43,-486.01z"/>
  <path class="fil5" d="M12450.25 9822.17c-67.6,25.16 -114.67,-9.06 -136.68,-115.73 3.79,107.97 -44.93,164.32 -129.27,185.64 96.93,-8.22 148.4,36.38 148.08,141.15 5.18,-84.99 33.64,-159.99 117.87,-211.06z"/>
  <path class="fil5" d="M17051.97 9567.78c87.85,32.71 149.01,-11.76 177.62,-150.38 -4.93,140.3 58.38,213.53 167.99,241.25 -125.97,-10.7 -192.85,47.26 -192.43,183.42 -6.74,-110.45 -43.72,-207.91 -153.18,-274.29z"/>
  <path class="fil5" d="M16896.82 6933.96c-34.4,138.64 -84.57,194.47 -213.4,221.02 127.11,35.75 137.93,132.29 129.99,238.64 54.84,-114.37 37.24,-164.35 169.37,-186.99 -94.79,-57.28 -89.38,-172.89 -85.96,-272.67z"/>
  <path class="fil5" d="M21275.38 6945.56c-71.01,-42.22 -131.06,-13.33 -177.75,102.35 26.43,-120.87 -16.9,-194.36 -107.56,-235.7 107.53,29.16 174.67,-10.53 195.81,-128.65 -11.6,96.83 5.07,187.17 89.5,262z"/>
  <path class="fil5" d="M18672.88 7410.68c55.14,32.79 101.78,10.35 138.03,-79.47 -20.52,93.86 13.13,150.92 83.53,183.03 -83.51,-22.65 -135.64,8.17 -152.06,99.9 9.01,-75.19 -3.94,-145.35 -69.5,-203.46z"/>
  <polyline class="fil14 str0" points="16833.09,7163.78 18783.65,7472.67 21132.72,6865.73 "/>
  <path class="fil5" d="M7121.37 7569.46c-126.86,-47.22 -215.19,16.99 -256.5,217.17 7.12,-202.61 -84.3,-308.35 -242.59,-348.37 181.91,15.44 278.49,-68.26 277.89,-264.88 9.72,159.49 63.13,300.24 221.2,396.08z"/>
  <path class="fil5" d="M3315.55 7361.01c7.22,-114.44 38.82,-165.75 136.75,-205.24 -105.53,-9.96 -127.97,-84.65 -136.99,-169.78 -26.86,98.22 -5.77,135.15 -106.87,172.04 83.1,31.61 95.46,123.69 107.11,202.98z"/>
  <path class="fil5" d="M1748.59 8608.51c-8.31,-131.69 -44.67,-190.74 -157.36,-236.19 121.44,-11.45 147.25,-97.4 157.64,-195.37 30.9,113.03 6.64,155.53 122.98,197.97 -95.63,36.38 -109.85,142.34 -123.26,233.59z"/>
  <path class="fil5" d="M4547.86 7511.1c82.65,30.77 140.2,-11.06 167.11,-141.48 -4.64,132 54.92,200.89 158.04,226.96 -118.51,-10.06 -181.43,44.47 -181.04,172.57 -6.33,-103.91 -41.13,-195.6 -144.11,-258.05z"/>
  <path class="fil5" d="M516.62 7666.64c62.16,23.14 105.43,-8.32 125.67,-106.39 -3.49,99.26 41.3,151.07 118.84,170.67 -89.12,-7.56 -136.43,33.44 -136.14,129.77 -4.76,-78.14 -30.93,-147.09 -108.37,-194.05z"/>
  <path class="fil5" d="M4297.54 6435.55c-63.43,-23.61 -107.6,8.5 -128.25,108.59 3.56,-101.31 -42.15,-154.18 -121.3,-174.19 90.96,7.72 139.25,-34.13 138.95,-132.44 4.86,79.75 31.56,150.12 110.6,198.04z"/>
  <path class="fil5" d="M3204.33 6858.76c-48.26,-17.96 -81.87,6.46 -97.58,82.62 2.71,-77.08 -32.07,-117.31 -92.29,-132.53 69.2,5.87 105.95,-25.97 105.72,-100.77 3.7,60.67 24.01,114.22 84.15,150.68z"/>
  <polygon class="fil14 str0" points="3330.37,7173.5 3109.39,6824.73 1731.54,8392.73 638.89,7710.47 "/>
  <path class="fil5" d="M3178.55 9782.56c-27.61,111.3 -67.89,156.11 -171.31,177.42 102.03,28.7 110.72,106.2 104.35,191.57 44.02,-91.81 29.89,-131.93 135.96,-150.1 -76.09,-45.99 -71.75,-138.79 -69,-218.89z"/>
  <path class="fil5" d="M7374.36 10519.78c-57,-33.89 -105.21,-10.7 -142.69,82.16 21.21,-97.03 -13.57,-156.02 -86.35,-189.2 86.33,23.41 140.23,-8.46 157.19,-103.28 -9.31,77.73 4.08,150.25 71.85,210.32z"/>
  <path class="fil5" d="M4129.55 10532.15c75.8,45.08 139.91,14.23 189.75,-109.25 -28.21,129.03 18.04,207.48 114.83,251.61 -114.8,-31.13 -186.47,11.24 -209.03,137.33 12.38,-103.36 -5.42,-199.8 -95.55,-279.69z"/>
  <path class="fil5" d="M1560.32 9150.04c-155.67,-57.94 -264.05,20.85 -314.74,266.48 8.74,-248.61 -103.44,-378.36 -297.67,-427.47 223.22,18.94 341.73,-83.76 340.98,-325.02 11.94,195.7 77.47,368.4 271.43,486.01z"/>
  <path class="fil5" d="M19651.48 9161.95c62.15,23.14 105.43,-8.32 125.66,-106.39 -3.48,99.26 41.3,151.06 118.85,170.67 -89.12,-7.56 -136.44,33.44 -136.14,129.77 -4.76,-78.14 -30.93,-147.09 -108.37,-194.05z"/>
  <path class="fil5" d="M11010.77 7756.74c15.46,-86.82 -36,-135.94 -169.13,-139.05 130.69,-19.09 187.8,-90.03 194.97,-196.15 11.34,118.39 76.26,170.53 202.21,147.19 -101.09,24.85 -185.06,75.51 -228.05,188.01z"/>
  <path class="fil5" d="M8417.39 6758.17c-11.87,66.63 27.63,104.33 129.8,106.72 -100.3,14.64 -144.13,69.09 -149.63,150.54 -8.7,-90.87 -58.53,-130.88 -155.19,-112.97 77.58,-19.07 142.03,-57.95 175.02,-144.29z"/>
  <path class="fil5" d="M19729.97 10367.81c-62.15,-23.13 -105.43,8.33 -125.66,106.4 3.48,-99.27 -41.3,-151.07 -118.85,-170.68 89.12,7.57 136.44,-33.44 136.14,-129.76 4.76,78.13 30.93,147.09 108.37,194.04z"/>
  <path class="fil5" d="M13556.61 6951.17c82.65,30.77 140.19,-11.06 167.1,-141.48 -4.64,132 54.92,200.89 158.05,226.96 -118.51,-10.06 -181.44,44.47 -181.04,172.57 -6.34,-103.91 -41.13,-195.6 -144.11,-258.05z"/>
  <path class="fil5" d="M14670.73 1229.57c-57,-33.89 -105.21,-10.7 -142.69,82.16 21.21,-97.03 -13.57,-156.02 -86.35,-189.2 86.33,23.41 140.23,-8.46 157.19,-103.28 -9.31,77.73 4.08,150.25 71.85,210.32z"/>
  <path class="fil5" d="M17605.99 1473.45c-27.61,-111.3 -67.89,-156.11 -171.31,-177.42 102.03,-28.7 110.72,-106.2 104.35,-191.57 44.02,91.81 29.89,131.93 135.96,150.1 -76.09,45.99 -71.75,138.79 -69,218.89z"/>
  <path class="fil5" d="M21299.44 3779c-57,33.89 -105.21,10.7 -142.69,-82.16 21.21,97.03 -13.57,156.02 -86.35,189.2 86.33,-23.41 140.23,8.46 157.19,103.28 -9.31,-77.73 4.08,-150.25 71.85,-210.32z"/>
  <path class="fil5" d="M18857.52 4169.16c75.8,-45.08 139.91,-14.23 189.75,109.25 -28.21,-129.03 18.04,-207.48 114.83,-251.61 -114.8,31.13 -186.47,-11.24 -209.03,-137.33 12.38,103.36 -5.42,199.8 -95.55,279.69z"/>
  <path class="fil5" d="M14974.97 4818.21c67.6,25.16 114.67,-9.06 136.68,-115.73 -3.79,107.97 44.93,164.32 129.27,185.64 -96.93,-8.22 -148.4,36.38 -148.08,141.15 -5.18,-84.99 -33.64,-159.99 -117.87,-211.06z"/>
  <path class="fil5" d="M12782.73 3800.76c-87.85,32.71 -149.01,-11.76 -177.62,-150.38 4.93,140.3 -58.38,213.53 -167.99,241.25 125.97,-10.7 192.85,47.26 192.43,183.42 6.74,-110.45 43.72,-207.91 153.18,-274.29z"/>
  <path class="fil5" d="M14444.24 2635.56c34.4,138.64 84.57,194.47 213.4,221.02 -127.11,35.75 -137.93,132.29 -129.99,238.64 -54.84,-114.37 -37.24,-164.35 -169.37,-186.99 94.79,-57.28 89.38,-172.89 85.96,-272.67z"/>
  <path class="fil5" d="M21678.67 1441.61c126.86,-47.22 215.19,16.99 256.5,217.17 -7.12,-202.61 84.3,-308.35 242.59,-348.37 -181.91,15.44 -278.49,-68.26 -277.89,-264.88 -9.72,159.49 -63.13,300.24 -221.2,396.08z"/>
  <path class="fil5" d="M19007.83 1754.21c11.87,66.63 -27.63,104.33 -129.8,106.72 100.3,14.64 144.13,69.09 149.63,150.54 8.7,-90.87 58.53,-130.88 155.19,-112.97 -77.58,-19.07 -142.03,-57.95 -175.02,-144.29z"/>
  <path class="fil5" d="M7469.93 3175.01c126.86,47.22 215.19,-16.99 256.5,-217.17 -7.12,202.61 84.3,308.35 242.59,348.37 -181.91,-15.44 -278.49,68.26 -277.89,264.88 -9.72,-159.49 -63.13,-300.24 -221.2,-396.08z"/>
  <path class="fil5" d="M8668.62 2109.48c-82.65,-30.77 -140.2,11.06 -167.11,141.48 4.64,-132 -54.92,-200.89 -158.04,-226.96 118.51,10.06 181.43,-44.47 181.04,-172.57 6.33,103.91 41.13,195.6 144.11,258.05z"/>
  <path class="fil5" d="M8918.94 3185.03c63.43,23.61 107.6,-8.5 128.25,-108.59 -3.56,101.31 42.15,154.18 121.3,174.19 -90.96,-7.72 -139.25,34.13 -138.95,132.44 -4.86,-79.75 -31.56,-150.12 -110.6,-198.04z"/>
  <path class="fil5" d="M1520.5 3115.06c-27.61,111.3 -67.89,156.11 -171.31,177.42 102.03,28.7 110.72,106.2 104.35,191.57 44.02,-91.81 29.89,-131.93 135.96,-150.1 -76.09,-45.99 -71.75,-138.79 -69,-218.89z"/>
  <path class="fil5" d="M2471.5 3864.65c75.8,45.08 139.91,14.23 189.75,-109.25 -28.21,129.03 18.04,207.48 114.83,251.61 -114.8,-31.13 -186.47,11.24 -209.03,137.33 12.38,-103.36 -5.42,-199.8 -95.55,-279.69z"/>
  <path class="fil5" d="M6232.61 5251.29c-11.87,66.63 27.63,104.33 129.8,106.72 -100.3,14.64 -144.13,69.09 -149.63,150.54 -8.7,-90.87 -58.53,-130.88 -155.19,-112.97 77.58,-19.07 142.03,-57.95 175.02,-144.29z"/>
  <path class="fil5" d="M7853.13 4786.97c63.43,23.61 107.59,-8.49 128.25,-108.58 -3.56,101.3 42.15,154.17 121.3,174.18 -90.96,-7.72 -139.25,34.13 -138.95,132.44 -4.86,-79.74 -31.57,-150.11 -110.6,-198.04z"/>
  <path class="fil5" d="M8212.83 4026.87c27.61,111.3 67.89,156.11 171.31,177.42 -102.03,28.7 -110.72,106.2 -104.35,191.57 -44.02,-91.81 -29.89,-131.93 -135.96,-150.1 76.09,-45.99 71.75,-138.79 69,-218.89z"/>
  <path class="fil5" d="M4519.38 1721.32c57,-33.89 105.21,-10.7 142.69,82.16 -21.21,-97.03 13.57,-156.02 86.35,-189.2 -86.33,23.41 -140.23,-8.46 -157.19,-103.28 9.31,77.73 -4.08,150.25 -71.85,210.32z"/>
  <path class="fil5" d="M6961.3 1331.16c-75.8,45.08 -139.91,14.23 -189.75,-109.25 28.21,129.03 -18.04,207.48 -114.83,251.61 114.8,-31.13 186.47,11.24 209.03,137.33 -12.38,-103.36 5.42,-199.8 95.55,-279.69z"/>
  <path class="fil5" d="M4140.15 4058.71c-126.86,47.22 -215.19,-16.99 -256.5,-217.17 7.12,202.61 -84.3,308.35 -242.59,348.37 181.91,-15.44 278.49,68.26 277.89,264.88 9.72,-159.49 63.13,-300.24 221.2,-396.08z"/>
  <path class="fil5" d="M6810.99 3746.11c-11.87,-66.63 27.63,-104.33 129.8,-106.72 -100.3,-14.64 -144.13,-69.09 -149.63,-150.54 -8.7,90.87 -58.53,130.88 -155.19,112.97 77.58,19.07 142.03,57.95 175.02,144.29z"/>
  <path class="fil5" d="M2164.11 308.26c-87.85,32.71 -149.01,-11.76 -177.62,-150.38 4.93,140.3 -58.38,213.53 -167.99,241.25 125.97,-10.7 192.85,47.26 192.43,183.42 6.74,-110.45 43.72,-207.91 153.18,-274.29z"/>
  <path class="fil5" d="M11755.61 493.55c57,-33.89 105.21,-10.7 142.69,82.16 -21.21,-97.03 13.57,-156.02 86.35,-189.2 -86.33,23.41 -140.23,-8.46 -157.19,-103.28 9.31,77.73 -4.08,150.25 -71.85,210.32z"/>
  <path class="fil5" d="M12001.45 2379.07c-75.8,45.08 -139.91,14.23 -189.75,-109.25 28.21,129.03 -18.04,207.48 -114.83,251.61 114.8,-31.13 186.47,11.24 209.03,137.33 -12.38,-103.36 5.42,-199.8 95.55,-279.69z"/>
  <path class="fil5" d="M10761.32 1524.05c15.46,-86.82 -36,-135.94 -169.13,-139.05 130.69,-19.09 187.8,-90.03 194.97,-196.15 11.34,118.39 76.26,170.53 202.21,147.19 -101.09,24.85 -185.06,75.51 -228.05,188.01z"/>
  <polyline class="fil14 str0" points="8506.05,2051.2 9043.72,3229.76 8263.99,4211.37 "/>
  <polyline class="fil14 str0" points="7719.48,3264.47 9043.72,3229.76 12609.92,3862.72 14507.96,2865.39 "/>
  <path class="fil14 str1" d="M13925.24 3573.03c-52.89,105.78 -66.06,59.85 -123.47,158.76 -46.94,80.88 -374.86,341.76 -467.43,388.05 -78,39 -44,22.71 -88.2,61.74 -195.28,172.43 -341.8,71.14 -246.94,396.87 19.31,66.3 43.42,348.83 -35.28,361.6 -27.9,4.53 -231.18,-84.19 -238.12,-88.19l-61.74 -44.1c-193.53,-116.52 -524.98,-168.99 -732.02,-255.77 -113.45,-47.55 -208.17,-78.18 -317.5,-123.47 -119.41,-49.47 -179.22,-50.1 -308.68,-105.83 -209.6,-90.24 -535.71,-107.94 -740.83,-255.77l-44.1 -44.09c-1.97,-1.42 -256.86,-127.45 -299.86,-149.93 -241.05,-126.02 -631.04,-229.31 -908.41,-229.31 -83.69,0 -163.52,-26.43 -176.38,52.92 -14.35,88.5 -89.91,-34.02 -158.76,132.29 -61.8,149.28 -200.06,286.29 -264.58,432.15 -94.99,214.74 -262.13,388.06 -502.71,388.06 -31.18,0 -194.03,-147.92 -229.3,-185.21 -40.79,-43.12 -4.91,-70.71 -114.66,-44.1 -202.27,49.04 -138.64,101.95 -70.55,238.13 -104.85,0 -176.59,-326.21 -123.48,-352.78 0,-123.66 3.78,-79.05 44.1,-176.39 30.19,-72.89 309.23,-154.78 388.06,-167.57 115.48,-18.74 35.04,-70.55 79.37,-70.55 0,-44.18 126.59,-194.03 158.75,-194.03 63.77,-85.03 93.79,-58.49 132.3,-97.02 14.7,-14.71 102.42,-121.78 17.63,-79.37 -27.22,13.62 -300.69,6.89 -388.05,17.64 -54.74,6.74 -48.99,66.39 -52.92,79.37 -10.74,35.47 -114.19,123.01 -141.11,149.93 -24.56,24.56 -437.58,25.47 -537.99,-97.01 -113.27,-138.17 -11.22,-220.49 -141.11,-220.49 -149.47,0 -99.89,182.62 -44.1,246.95 109.11,125.82 -95.58,-51.3 -97.01,-52.92 -30.94,-35.05 -100.9,-197.14 -105.83,-246.94 -15.12,-152.66 11.75,-128.62 44.09,-238.13 23.66,-80.15 -8.4,-84.41 61.74,-194.03 180.2,-281.63 192.86,-224.32 449.79,-352.78 57.83,-28.91 116.93,-111.95 158.75,-26.45 22.11,45.2 180.53,182.86 220.49,202.84 206.06,103.03 380.39,167.57 608.54,167.57 0,-80.47 -229.3,-313.15 -229.3,-317.5 -103.73,-69.16 -252.72,-59.12 -264.59,-132.29 -33.14,-204.21 61.74,-228.51 61.74,-176.39 0,-14.98 -84.76,-165.37 -97.02,-185.21 -7.87,-12.74 -61.73,-60.16 -61.73,-61.73 -179.21,0 -306.58,38.77 -326.32,238.12 -13.92,140.54 96.61,-298.43 97.01,-299.86 56.16,-202.75 22.03,-157.58 123.47,-352.78 38.64,-74.36 188.3,-169.75 264.59,-229.3 87.14,-68.02 426.7,-21.63 520.35,8.82 194.18,63.14 219.4,109.49 238.12,326.32 10.27,118.93 55.62,174.17 70.56,246.94 40.09,195.32 175.53,327.46 246.94,529.17 28.15,79.51 35.89,67.32 52.92,105.83 62.3,140.83 69.32,95.16 141.11,202.85 391.21,142.22 484.82,49.44 815.84,97.03 162.11,23.31 167.72,35.28 343.96,35.28 213.21,0 1159.53,-31.1 1261.18,70.55 103.12,103.12 88.29,-31.74 229.31,97.02 37.22,33.99 142.59,132.29 194.03,132.29 19.26,57.77 44.09,39.49 44.09,105.83 84.66,0 78.85,-89.63 176.39,-149.93 136.38,-84.31 -25.89,-20.07 176.39,-88.19 130.28,-43.87 273.09,-157.78 317.5,-291.05 28.04,-84.15 32,-29.07 97.02,-141.11 72.11,-124.25 103.49,-96.82 176.39,-194.03 115.92,-154.56 49.25,-64.17 167.57,-167.57 60.88,-53.2 134.3,-170.96 211.66,-211.66 156.47,-82.32 -23.81,-43.88 167.57,-114.66 23.4,-8.65 158.56,-74.87 185.21,-97.01"/>
  <polygon class="fil14 str2" points="13257.54,7178.51 13103.49,7200.97 13117.42,7411.66 12975.62,7465.49 12939.31,7135.04 13365.42,6693.29 12778.99,5753.49 13079.75,5591.73 13638.08,6564.33 14349.57,6429.39 14541.63,6598.96 14470.56,6701.39 14293.56,6641.95 14086.55,6767.65 16294.01,10417.72 16078.4,11827.79 14705.12,11175.5 "/>
  <path class="fil5" d="M13662.22 7357.43c-34.94,13 -59.26,-4.68 -70.64,-59.81 1.96,55.8 -23.21,84.92 -66.81,95.94 50.1,-4.25 76.7,18.8 76.53,72.95 2.68,-43.93 17.39,-82.69 60.92,-109.08z"/>
  <path class="fil5" d="M15912.83 11524.6c27.61,111.3 67.89,156.11 171.31,177.42 -102.03,28.7 -110.72,106.2 -104.35,191.57 -44.02,-91.81 -29.89,-131.93 -135.96,-150.1 76.09,-45.99 71.75,-138.79 69,-218.89z"/>
  <path class="fil5" d="M16028.89 10218c27.61,111.3 67.89,156.11 171.31,177.42 -102.03,28.7 -110.72,106.2 -104.35,191.57 -44.02,-91.81 -29.89,-131.93 -135.96,-150.1 76.09,-45.99 71.75,-138.79 69,-218.89z"/>
  <path class="fil5" d="M13091.07 5658.15c-27.61,111.3 -67.89,156.11 -171.31,177.42 102.03,28.7 110.72,106.2 104.35,191.57 44.02,-91.81 29.89,-131.93 135.96,-150.1 -76.09,-45.99 -71.75,-138.79 -69,-218.89z"/>
  <polyline class="fil14 str0" points="13039.91,5842.65 13719.18,7009.46 14385.04,8497.72 15328.74,10433.61 16080.04,10402.5 15963.98,11709.1 "/>
  <circle class="fil14 str3" cx="6873.24" cy="7472.48" r="447.59"/>
  <path class="fil14 str4" d="M6019.95 6689.75c885.84,161.66 1596.99,-64.15 1629.78,1534.64 -1430.98,-43.34 -1510.88,-576.64 -1629.78,-1534.64z"/>
  <line class="fil14 str4" x1="6831.35" y1="6914.65" x2="7056.24" y2= "6279.65" />
  <line class="fil14 str4" x1="7267.91" y1="7091.04" x2="7858.82" y2= "6531" />
  <line class="fil14 str4" x1="7448.71" y1="7448.23" x2="8123.4" y2= "7311.53" />
 </g>
</svg>
