<?xml version="1.0" encoding="UTF-8"?>
<!DOCTYPE svg PUBLIC "-//W3C//DTD SVG 1.1//EN" "http://www.w3.org/Graphics/SVG/1.1/DTD/svg11.dtd">
<!-- Creator: CorelDRAW 2018 (64-Bit Evaluation Version) -->
<svg xmlns="http://www.w3.org/2000/svg" xml:space="preserve" width="100%" height="100%" version="1.1" style="shape-rendering:geometricPrecision; text-rendering:geometricPrecision; image-rendering:optimizeQuality; fill-rule:evenodd; clip-rule:evenodd"
viewBox="0 0 40640 22860"
 xmlns:xlink="http://www.w3.org/1999/xlink">
 <defs>
  <style type="text/css">
   <![CDATA[
    .fil7 {fill:#333333}
    .fil6 {fill:yellow}
    .fil2 {fill:#FCC954}
    .fil1 {fill:#FA8F6B}
    .fil3 {fill:#E0457A}
    .fil5 {fill:#EB4FB3}
    .fil4 {fill:#704FBF}
    .fil0 {fill:url(#id0)}
   ]]>
  </style>
  <linearGradient id="id0" gradientUnits="userSpaceOnUse" x1="11430" y1="0" x2="11430" y2="22860">
   <stop offset="0" style="stop-opacity:1; stop-color:black"/>
   <stop offset="0.811765" style="stop-opacity:1; stop-color:black"/>
   <stop offset="0.831373" style="stop-opacity:1; stop-color:#FCC954"/>
   <stop offset="0.921569" style="stop-opacity:1; stop-color:#E0457A"/>
   <stop offset="0.968627" style="stop-opacity:1; stop-color:#EB4FB3"/>
   <stop offset="1" style="stop-opacity:1; stop-color:#704FBF"/>
  </linearGradient>
 </defs>
 <g id="Layer_x0020_1">
  <metadata id="CorelCorpID_0Corel-Layer"/>
  <rect class="fil0" width="22860" height="22860"/>
  <path class="fil1" d="M17263.05 20154.07l646.39 -118.8c222.19,-42.51 445.19,-57.78 664.37,-95.68 579.77,-100.28 749.07,-135.63 1345.45,-174.51 596.43,-38.88 908.11,-27.62 1493.26,-25.48 106.49,0.39 234.45,15.76 337.53,23.13 249.08,17.82 961.43,-36.06 1109.95,38.81l0 -638.46c-125.54,-57.48 -1146.92,-88.34 -1366.2,-102.89 -236.07,-15.64 -434.31,-44.32 -687.7,-45.17 -114.94,-0.39 -220.77,18.03 -330.3,26.58 -312.1,24.35 -741.11,9.88 -1066.37,10.1 -235.7,0.16 -1129.9,55.76 -1365.14,83 -214.3,24.8 -419.6,61.73 -631.71,85.25 -224.03,24.84 -455.09,28.24 -674.5,54.79 -209.64,25.36 -420.63,56.72 -629.35,90.04 -211.99,33.83 -445.92,38.97 -644.48,83.35 -296.35,66.22 -382.46,48.21 -629.38,92.06 -200.2,35.55 -405.67,83.41 -606.89,120.97 -182.22,34 -359.91,89.74 -585.48,132.08 -212.33,39.85 -402.1,87.46 -603.16,128.62 -204.45,41.85 -415.64,67.81 -623.5,94.71 -220.08,28.46 -419.38,59.17 -645.69,82.76 -114.16,11.91 -229.47,19.77 -340.57,29.28 -110.73,9.48 -209.39,28.11 -322.31,37.8 -468.97,40.27 -919.72,47.24 -1402.56,47.29 -448.93,0.04 -909.56,-56.41 -1334.06,-113.71 -168.02,-22.67 -412.62,-95.78 -582.01,-147.91 -184.86,-56.91 -375.81,-95.07 -566.09,-154.55 -180.58,-56.45 -358.55,-128.16 -545.61,-183.11 -320.93,-94.28 -244.33,-80.12 -520.66,-198.74 -386.72,-166.01 -663.47,-267.05 -1087.09,-362.24 -823.48,-185.06 -1155.91,-186.83 -1957.04,-220.86 -237.4,-10.08 -485.26,4.8 -724.37,-0.97 54.75,-21.83 484.91,-96.67 590.07,-120.02 328.13,-72.85 871.02,-149.95 1210.55,-187.2 347.72,-38.14 1307.36,-32.71 1685.81,0.58 168.47,14.83 529.21,5.79 673.6,25.15 305.23,40.92 710.37,35.78 1011.17,16.53l968.05 -79.63c108.23,-8.89 218.09,-12.94 325.15,-18.98 326,-18.4 666.98,-55.63 977.79,-73.29 113.84,-6.47 220.8,-10.38 333.23,-19.91 208,-17.65 413.77,-59.88 619.85,-76.74 207.34,-16.97 412.02,-56.23 622.97,-77.62 201.91,-20.46 416.12,-51.74 619.72,-75.48 211.15,-24.62 425.9,-39.35 637.84,-60.81 213.47,-21.62 423.78,-54.31 634.56,-74.99 200.33,-19.67 401.71,-65.15 605.65,-94.36 191.71,-27.45 389.99,-82.71 589.7,-102.35 734.68,-72.23 1265.55,-86.47 2019.93,-87.06 461.33,-0.36 1559.29,12.3 2010.22,90.41 319.96,55.43 605.73,85.4 924.68,125.79 103.51,13.11 196.06,36.48 299.96,48.52 418.64,48.53 799.28,138.97 1202.26,194.43 202.21,27.84 394.03,75.37 598.64,98.44 220.43,24.84 1154.68,125.45 1310.82,59.06l0 -85.09 0 -1125.85 0 -398.32 0 -222.56c-196.4,36.19 -447.24,98.38 -641.98,146.67 -211.78,52.5 -435.64,86.73 -657.19,131.71 -462.01,93.81 -939.7,131.41 -1422.61,164.46 -239.24,16.37 -486.9,44.58 -728.95,52.72 -781.46,26.29 -1450.15,84.38 -2228,138.73 -245.36,17.14 -492.05,26.95 -739.46,39.55 -243.75,12.41 -487.62,38.75 -729.73,60.47 -244.21,21.92 -496.48,29.25 -736.96,60.3 -864.09,111.59 -1308.65,151.59 -2220.64,136.05 -123,-2.09 -244.41,-17.06 -369.42,-17 -326.06,0.15 -840.07,-19.08 -1160.16,-36.94 -252.97,-14.12 -483.4,-31.85 -739.7,-31.58 -262.67,0.28 -512.98,-23.56 -770.21,-22.77 -263.83,0.81 -526.94,-0.48 -790.76,3.51 -256.93,3.89 -509.57,-27.69 -759.57,-32.3 -259.29,-4.78 -508.91,-16.4 -770.59,-16.7 -262.35,-0.32 -519.58,10.86 -780.72,16.73 -1140.19,25.64 -1752.74,45.9 -2879.96,266.98 -219.59,43.06 -432.87,101.83 -655.37,138.55 -213.15,35.18 -443.97,89.79 -652.46,137.45 -217.55,49.73 -412.87,116.03 -628.22,164.15 -715.44,159.83 -564.86,138.99 -1215.47,366.38 -268.49,93.85 -297.25,90.12 -581.87,211.63l0 1167.77c917.08,-3.15 1800.85,-11.96 2692.99,120.42 403.45,59.86 817.89,139.43 1221.21,200.43 201.47,30.47 397.22,67.91 593.9,113.86 160.3,37.43 441.17,61.14 575.38,116.54 113.59,17.33 233.24,55.9 348.59,79.28 121.5,24.62 241.69,37.44 361.27,60.74 466.21,90.8 980.54,163.83 1456.6,248 248.38,43.92 488.2,75.85 742.87,108.96 257.95,33.54 521.41,33.67 777.2,68.11 252.16,33.94 532.88,56.93 784.8,62.96 350.8,8.4 1384.96,32.38 1681.05,9.78 528.46,-40.35 1042.13,-64.24 1561.25,-133.58 250.33,-33.44 506.02,-83.05 754.85,-100.29 134.61,-9.33 248.77,-20 379.67,-39.06 122.42,-17.82 238.05,-49.94 365.05,-66.64 257.5,-33.86 505.37,-57.78 759.6,-93.02 120.8,-16.75 241.68,-39.91 363.51,-58.07 398.88,-59.5 697.98,-120.04 1092.51,-191.58 121.25,-21.99 242.48,-36.49 365.31,-56.35 122.56,-19.82 267.92,-44.59 385.44,-53.2z"/>
  <path class="fil2" d="M22860 19163.08l0 -821c-156.14,66.39 -1090.39,-34.22 -1310.82,-59.06 -204.61,-23.07 -396.43,-70.6 -598.64,-98.44 -402.98,-55.47 -783.62,-145.9 -1202.26,-194.43 -103.9,-12.04 -196.45,-35.41 -299.96,-48.52 -318.95,-40.39 -604.71,-70.36 -924.68,-125.79 -450.93,-78.11 -1548.89,-90.77 -2010.21,-90.41 -754.39,0.59 -1285.26,14.83 -2019.94,87.06 -199.71,19.64 -397.98,74.9 -589.7,102.35 -203.94,29.2 -405.32,74.69 -605.65,94.35 -210.78,20.69 -421.09,53.38 -634.56,75 -211.94,21.46 -426.68,36.19 -637.84,60.81 -203.6,23.74 -417.81,55.02 -619.72,75.48 -210.95,21.39 -415.63,60.65 -622.97,77.62 -206.08,16.86 -411.84,59.09 -619.85,76.74 -112.43,9.53 -219.39,13.44 -333.22,19.91 -310.82,17.66 -651.8,54.89 -977.8,73.29 -107.05,6.04 -216.92,10.09 -325.15,18.98l-968.05 79.63c-300.8,19.25 -705.94,24.4 -1011.16,-16.53 -144.39,-19.35 -505.13,-10.32 -673.61,-25.15 -378.44,-33.29 -1338.09,-38.72 -1685.81,-0.58 -339.52,37.25 -882.41,114.35 -1210.55,187.2 -105.16,23.35 -535.32,98.19 -590.07,120.02 239.11,5.77 486.97,-9.11 724.37,0.97 801.14,34.03 1133.56,35.8 1957.04,220.85 423.62,95.2 700.38,196.24 1087.09,362.25 276.33,118.62 199.73,104.46 520.66,198.74 187.06,54.95 365.03,126.66 545.61,183.11 190.29,59.48 381.23,97.64 566.09,154.55 169.4,52.14 413.99,125.24 582.02,147.91 424.49,57.29 885.13,113.75 1334.06,113.7 482.83,-0.04 933.58,-7.02 1402.55,-47.28 112.92,-9.69 211.58,-28.32 322.32,-37.8 111.09,-9.51 226.4,-17.38 340.56,-29.28 226.32,-23.59 425.61,-54.3 645.69,-82.77 207.87,-26.89 419.05,-52.85 623.5,-94.7 201.06,-41.15 390.83,-88.77 603.16,-128.62 225.57,-42.34 403.26,-98.07 585.48,-132.08 201.22,-37.56 406.7,-85.42 606.89,-120.97 246.92,-43.85 333.04,-25.84 629.38,-92.07 198.56,-44.37 432.49,-49.51 644.49,-83.35 208.71,-33.31 419.7,-64.66 629.34,-90.03 219.42,-26.55 450.47,-29.95 674.5,-54.79 212.12,-23.53 417.41,-60.45 631.72,-85.25 235.23,-27.24 1129.43,-82.84 1365.13,-83 325.26,-0.22 754.28,14.26 1066.37,-10.1 109.53,-8.55 215.36,-26.97 330.29,-26.58 253.4,0.86 451.63,29.52 687.71,45.18 219.28,14.54 1240.66,45.4 1366.2,102.88z"/>
  <path class="fil3" d="M22860 19898.07l0 -96.53c-148.53,-74.87 -860.88,-20.99 -1109.95,-38.81 -103.09,-7.37 -231.05,-22.74 -337.54,-23.13 -585.15,-2.13 -896.82,-13.4 -1493.25,25.48 -596.38,38.88 -765.67,74.23 -1345.45,174.51 -219.17,37.91 -442.17,53.17 -664.37,95.68l-646.39 118.8c-117.52,8.61 -262.88,33.37 -385.44,53.2 -122.83,19.86 -244.06,34.36 -365.31,56.34 -394.52,71.55 -693.63,132.09 -1092.5,191.59 -121.83,18.17 -242.71,41.32 -363.52,58.07 -254.23,35.24 -502.1,59.16 -759.6,93.02 -127,16.7 -242.63,48.82 -365.05,66.64 -130.9,19.05 -245.06,29.73 -379.66,39.06 -248.84,17.24 -504.53,66.84 -754.86,100.29 -519.12,69.35 -1032.79,93.23 -1561.25,133.58 -296.09,22.6 -1330.24,-1.38 -1681.05,-9.78 -251.92,-6.03 -532.64,-29.02 -784.8,-62.97 -255.79,-34.43 -519.25,-34.56 -777.2,-68.1 -254.66,-33.11 -494.48,-65.04 -742.86,-108.96 -476.06,-84.17 -990.4,-157.2 -1456.6,-248 -119.59,-23.3 -239.78,-36.12 -361.28,-60.74 -115.35,-23.38 -234.99,-61.95 -348.59,-79.28 -134.21,-55.4 -415.08,-79.11 -575.38,-116.54 -196.68,-45.95 -392.43,-83.39 -593.9,-113.86 -403.32,-61 -817.76,-140.57 -1221.21,-200.43 -892.13,-132.38 -1775.91,-123.57 -2692.99,-120.42l0 986.74c446.91,83.72 887.66,191.89 1333.2,273.99 229.22,42.23 447.43,82.58 681.53,121.36 449.21,74.4 985.14,124.6 1397.81,204.17 458.02,88.31 912.71,179.12 1381.99,226.6 234.77,23.76 470.82,61.64 700.86,97.65 467.13,73.14 924.78,159.66 1405.74,198.63 120.9,9.8 240.42,37.44 359.39,42.15 321.5,12.73 859.03,-10.61 1171.32,-34.96 255.25,-19.89 522.96,3.61 784.11,-17.45 237.6,-19.15 488.37,-49.19 725.38,-75.13 452.62,-49.53 922.59,-145.47 1367.49,-236.76 368.79,-75.67 996.24,-222.34 1336.53,-265.2 232.72,-29.3 471.63,-59.4 699.41,-103.55 234.84,-45.52 481.72,-44.07 715.46,-85.19 527.47,-92.79 914.72,-95.02 1433.94,-168.71 265.8,-37.71 806.99,-84.01 1100.2,-103.75 396.02,-26.67 688.72,-76.38 1110.33,-85.74 249.58,-5.55 501.93,-37.74 749.88,-52.15l760.83 -41.99c366.31,-45.64 486.01,-0.38 769.43,-10.74 76.68,-2.8 106.36,-15.76 187.64,-5.73 66.93,8.25 125.14,6.74 192.04,6.73 133.42,0 250.49,16.92 379.94,22.26 128.9,5.32 254.71,0.75 382.79,9.33 285.56,19.15 1163.22,128.42 1388.18,218.64 138.47,55.53 167.03,63.38 330.96,66.61 11.08,-154.78 3.51,-704.82 2.01,-926.75 -0.28,-40.89 -5.85,-86.77 11.61,-119.77z"/>
  <path class="fil4" d="M212.88 21505.14c-81.91,-18.1 -152.34,-62.2 -212.88,-93.88l0 774.26c83.52,31.07 159.78,88.29 182.59,100.37 135.93,72 465.96,253.19 590.23,293.54 46,14.94 73.74,19.26 117.2,36.49l344.93 95.22c72.2,12.65 157.48,47.79 226.25,73.68 36.34,13.68 78.96,17.78 111.71,32.36 31.93,14.2 71.54,22.1 102.9,42.82l21184.19 0 0 -1184.18 0 -546.64c-1.69,2.24 -3.32,5.51 -4.08,7.37 -18.71,46.12 -8.06,68.88 -11.99,127.28 -202.41,-69.96 -290.24,-116.29 -528.22,-133.31 -172.72,-12.35 -334.3,-57.79 -579.71,-76.65 -417.03,-32.05 -834.1,-34.16 -1246.33,-71.7 -290.44,-26.44 -994.48,-69.22 -1266.14,-38.76 -385.91,43.27 -771.31,102.43 -1154.08,162.23 -492.98,77.02 -698.1,97.07 -1196.71,123.75 -408.81,21.87 -816.59,65.53 -1213.78,102.29 -601.95,55.7 -1161.69,150.58 -1764.95,207.89 -94.2,8.95 -551.24,73.95 -589.48,69.03 -18.71,16.67 -7.13,8.52 -45.26,15.83l-141.16 25.07c-61.96,11.09 -119.13,17.75 -184.64,29.68 -129.65,23.62 -240.5,47.58 -369.01,74.21 -246.3,51.04 -484.05,103.68 -727.7,156.01 -122.87,26.39 -249.35,45.16 -366.78,73.57 -318.45,77.01 -761.6,164.07 -1093.69,233.63 -239.84,50.24 -477.82,110.31 -727.74,155.87 -564.65,102.93 -980.38,153.32 -1543.7,221.98 -578.81,70.56 -2022.1,30.36 -2561.41,-28.41 -268.73,-29.28 -544.6,-37.11 -806.08,-80.78 -246.54,-41.18 -518.36,-84.78 -765.16,-114.76 -253.58,-30.81 -508.55,-82.2 -756.76,-129.56 -249.19,-47.54 -474.42,-109.11 -718.33,-165.87 -192.85,-44.87 -1370.59,-277.92 -1440.87,-316.69 -79.52,-4.98 -344.19,-84.09 -429.71,-113.28 -137.59,-46.95 -278.32,-87.31 -413.65,-139.96z"/>
  <path class="fil5" d="M1056.24 21758.38c70.28,38.77 1248.02,271.82 1440.87,316.69 243.91,56.76 469.14,118.33 718.33,165.87 248.21,47.36 503.18,98.75 756.76,129.56 246.8,29.98 518.62,73.58 765.16,114.76 261.48,43.67 537.35,51.5 806.08,80.78 539.31,58.77 1982.6,98.97 2561.41,28.41 563.32,-68.66 979.05,-119.05 1543.7,-221.98 249.92,-45.56 487.9,-105.63 727.74,-155.87 332.09,-69.56 775.24,-156.62 1093.69,-233.63 117.43,-28.41 243.91,-47.18 366.78,-73.57 243.65,-52.33 481.4,-104.97 727.7,-156.01 128.51,-26.63 239.36,-50.59 369.01,-74.21 65.51,-11.93 122.68,-18.59 184.64,-29.68l141.16 -25.07c38.13,-7.31 26.55,0.84 45.26,-15.83 38.24,4.92 495.28,-60.08 589.48,-69.03 603.26,-57.31 1163,-152.19 1764.95,-207.89 397.19,-36.76 804.97,-80.42 1213.78,-102.29 498.61,-26.68 703.73,-46.73 1196.71,-123.75 382.77,-59.8 768.17,-118.96 1154.08,-162.23 271.66,-30.46 975.7,12.32 1266.14,38.76 412.23,37.54 829.3,39.65 1246.33,71.7 245.41,18.86 406.99,64.3 579.71,76.65 237.98,17.02 325.81,63.35 528.22,133.31 3.93,-58.4 -6.72,-81.16 11.99,-127.28 0.76,-1.86 2.39,-5.13 4.08,-7.37l0 -1231.11c-17.46,33 -11.89,78.88 -11.61,119.77 1.5,221.93 9.07,771.97 -2.01,926.75 -163.93,-3.23 -192.49,-11.08 -330.96,-66.61 -224.96,-90.22 -1102.62,-199.49 -1388.18,-218.64 -128.08,-8.58 -253.89,-4.01 -382.79,-9.33 -129.45,-5.34 -246.52,-22.26 -379.94,-22.26 -66.9,0.01 -125.11,1.52 -192.04,-6.73 -81.28,-10.03 -110.96,2.93 -187.64,5.73 -283.42,10.36 -403.12,-34.9 -769.43,10.74l-760.83 41.99c-247.95,14.41 -500.3,46.6 -749.88,52.15 -421.61,9.36 -714.31,59.07 -1110.33,85.74 -293.21,19.74 -834.4,66.04 -1100.2,103.75 -519.22,73.69 -906.47,75.92 -1433.94,168.71 -233.74,41.12 -480.62,39.67 -715.46,85.19 -227.78,44.15 -466.69,74.25 -699.41,103.55 -340.29,42.86 -967.74,189.53 -1336.53,265.2 -444.9,91.29 -914.87,187.23 -1367.49,236.76 -237.01,25.94 -487.78,55.98 -725.38,75.13 -261.15,21.06 -528.86,-2.44 -784.11,17.45 -312.29,24.35 -849.82,47.69 -1171.32,34.96 -118.97,-4.71 -238.49,-32.35 -359.39,-42.15 -480.96,-38.97 -938.61,-125.49 -1405.74,-198.63 -230.04,-36.01 -466.09,-73.89 -700.86,-97.65 -469.28,-47.48 -923.97,-138.29 -1381.99,-226.6 -412.67,-79.57 -948.6,-129.77 -1397.81,-204.17 -234.1,-38.78 -452.31,-79.13 -681.53,-121.36 -445.54,-82.1 -886.29,-190.27 -1333.2,-273.99l0 667.74c60.54,31.68 130.97,75.78 212.88,93.88 135.33,52.65 276.06,93.01 413.65,139.96 85.52,29.19 350.19,108.3 429.71,113.28z"/>
  <path class="fil3" d="M-0 22185.52l0 674.48 1675.81 0c-31.36,-20.72 -70.97,-28.62 -102.9,-42.82 -32.75,-14.58 -75.37,-18.68 -111.71,-32.36 -68.77,-25.89 -154.05,-61.03 -226.25,-73.68l-344.93 -95.22c-43.46,-17.23 -71.2,-21.55 -117.2,-36.49 -124.27,-40.35 -454.3,-221.54 -590.23,-293.54 -22.81,-12.08 -99.07,-69.3 -182.59,-100.37z"/>
  <path class="fil6" d="M21609.78 13174.74c253.73,67.74 430.38,-24.36 513,-311.51 -14.24,290.63 168.6,442.31 485.18,499.72 -363.82,-22.15 -556.99,97.91 -555.77,379.95 -19.46,-228.78 -126.27,-430.67 -442.41,-568.16z"/>
  <path class="fil6" d="M9354.57 831.01c135.21,36.1 229.34,-12.99 273.37,-166 -7.59,154.87 89.84,235.7 258.54,266.29 -193.87,-11.8 -296.81,52.18 -296.16,202.47 -10.37,-121.91 -67.28,-229.5 -235.75,-302.76z"/>
  <path class="fil6" d="M5359.53 1765.7c19.46,-221.19 104.62,-320.36 368.52,-396.69 -284.39,-19.25 -344.84,-163.61 -369.17,-328.15 -72.38,189.84 -15.55,261.23 -287.99,332.51 223.94,61.1 257.24,239.08 288.64,392.33z"/>
  <path class="fil6" d="M16297.88 1548.78c-14.45,164.16 -77.65,237.75 -273.5,294.41 211.05,14.28 255.92,121.41 273.97,243.53 53.72,-140.89 11.55,-193.87 213.74,-246.78 -166.2,-45.34 -190.91,-177.42 -214.21,-291.16z"/>
  <path class="fil6" d="M1040.55 2777.81c311.33,83.12 528.1,-29.9 629.47,-382.24 -17.47,356.62 206.89,542.74 595.34,613.18 -446.42,-27.18 -683.45,120.14 -681.96,466.22 -23.87,-280.73 -154.93,-528.45 -542.85,-697.16z"/>
  <path class="fil6" d="M13833.25 1333.48c-165.3,-44.13 -280.39,15.87 -334.22,202.95 9.28,-189.35 -109.84,-288.16 -316.09,-325.57 237.03,14.43 362.88,-63.78 362.08,-247.53 12.68,149.05 82.26,280.58 288.23,370.15z"/>
  <path class="fil6" d="M21895.72 1110.37c-124.3,-33.19 -210.84,11.94 -251.32,152.61 6.98,-142.38 -82.6,-216.69 -237.7,-244.82 178.24,10.85 272.88,-47.97 272.28,-186.14 9.53,112.08 61.86,210.99 216.74,278.35z"/>
  <path class="fil6" d="M21224.32 8285.9c126.86,33.87 215.19,-12.19 256.5,-155.76 -7.12,145.32 84.3,221.16 242.59,249.86 -181.91,-11.07 -278.5,48.96 -277.89,189.98 -9.73,-114.39 -63.13,-215.34 -221.2,-284.08z"/>
  <path class="fil6" d="M22130.66 9528.91c96.53,25.77 163.73,-9.27 195.16,-118.51 -5.41,110.57 64.15,168.27 184.59,190.11 -138.42,-8.42 -211.9,37.25 -211.44,144.55 -7.4,-87.04 -48.04,-163.84 -168.31,-216.15z"/>
  <path class="fil6" d="M932.4 7754.25c-135.2,36.1 -229.34,-12.99 -273.37,-166 7.59,154.87 -89.84,235.7 -258.54,266.29 193.87,-11.8 296.81,52.18 296.16,202.47 10.37,-121.91 67.29,-229.5 235.75,-302.76z"/>
  <rect class="fil7" x="1788.44" y="1788.44" width="19283.12" height="19283.12"/>
 </g>
</svg>
