<?xml version="1.0" encoding="UTF-8"?>
<!DOCTYPE svg PUBLIC "-//W3C//DTD SVG 1.1//EN" "http://www.w3.org/Graphics/SVG/1.1/DTD/svg11.dtd">
<!-- Creator: CorelDRAW 2018 (64-Bit Evaluation Version) -->
<svg xmlns="http://www.w3.org/2000/svg" xml:space="preserve" width="100%" height="100%" version="1.1" style="shape-rendering:geometricPrecision; text-rendering:geometricPrecision; image-rendering:optimizeQuality; fill-rule:evenodd; clip-rule:evenodd"
viewBox="0 0 40640 81280"
 xmlns:xlink="http://www.w3.org/1999/xlink">
 <defs>
  <style type="text/css">
   <![CDATA[
    .fil7 {fill:#1A1A1A}
    .fil14 {fill:#9E3F00}
    .fil13 {fill:#E34400}
    .fil12 {fill:#FF6600}
    .fil1 {fill:white}
    .fil3 {fill:#F54029}
    .fil8 {fill:#CF035C}
    .fil0 {fill:#00B394}
    .fil2 {fill:white;fill-opacity:0.168627}
    .fil11 {fill:white;fill-opacity:0.478431}
    .fil4 {fill:black;fill-opacity:0.501961}
    .fil6 {fill:#666666;fill-opacity:0.501961}
    .fil9 {fill:#999999;fill-opacity:0.501961}
    .fil5 {fill:white;fill-opacity:0.501961}
    .fil10 {fill:white;fill-opacity:0.701961}
   ]]>
  </style>
  <mask id="id0">
  <linearGradient id="id1" gradientUnits="userSpaceOnUse" x1="18512.54" y1="38780.03" x2="20929.1" y2="41337.67">
   <stop offset="0" style="stop-opacity:1; stop-color:white"/>
   <stop offset="1" style="stop-opacity:0; stop-color:white"/>
  </linearGradient>
   <rect style="fill:url(#id1)" x="18791.28" y="39168.07" width="2079.29" height="2079.29"/>
  </mask>
    <mask id="id2">
  <linearGradient id="id3" gradientUnits="userSpaceOnUse" x1="8898.83" y1="17301.74" x2="10090.23" y2="18790.99">
   <stop offset="0" style="stop-opacity:1; stop-color:white"/>
   <stop offset="1" style="stop-opacity:0; stop-color:white"/>
  </linearGradient>
     <rect style="fill:url(#id3)" x="8907.08" y="17497.21" width="1040.37" height="1040.37"/>
    </mask>
    <mask id="id4">
  <linearGradient id="id5" gradientUnits="userSpaceOnUse" x1="9562.23" y1="17195.73" x2="9608.06" y2="17997.64">
   <stop offset="0" style="stop-opacity:1; stop-color:white"/>
   <stop offset="1" style="stop-opacity:0; stop-color:white"/>
  </linearGradient>
     <rect style="fill:url(#id5)" x="9022.82" y="17612.95" width="451.99" height="451.99"/>
    </mask>
 </defs>
<symbol id="jewel_circle" viewBox="18393.83 38713.83 3852.34 3852.34">
 <circle id="fill" class="fil0" cx="20320" cy="40640" r="1926.17"/>
 <path id="shine" class="fil1" style="mask:url(#id0)" d="M19830.93 39178.07c568.65,0 1029.64,460.99 1029.64,1029.65 0,568.65 -460.99,1029.64 -1029.64,1029.64 -568.66,0 -1029.65,-460.99 -1029.65,-1029.64 0,-568.66 460.99,-1029.65 1029.65,-1029.65z"/>
 <path id="light" class="fil2" d="M20320 38713.83c945.62,0 1712.21,766.59 1712.21,1712.21 0,945.62 -766.59,1712.21 -1712.21,1712.21 -945.62,0 -1712.21,-766.59 -1712.21,-1712.21 0,-945.62 766.59,-1712.21 1712.21,-1712.21z"/>
</symbol>
<symbol id="square-jewel" viewBox="18901.84 39221.83 2836.33 2836.33">
 <rect id="fill_0" class="fil3" x="18901.84" y="39221.83" width="2836.33" height="2836.33"/>
 <polygon id="dark" class="fil4" points="20320,40639.99 21738.17,42058.16 18901.84,42058.16 "/>
 <polygon id="light_1" class="fil5" points="18901.84,39221.83 20320,40639.99 21738.17,39221.83 "/>
 <polygon id="dark_2" class="fil6" points="20320,40639.99 18901.84,39221.83 18901.84,42058.16 "/>
</symbol>
<symbol id="shine_3" viewBox="15218.02 35538.02 10203.96 10203.96">
 <circle id="red_shine" class="fil7" cx="20320" cy="40640" r="5101.98"/>
</symbol>
<symbol id="star-jewel" viewBox="15151.45 35471.46 10337.09 10337.09">
 <path id="fill_4" class="fil8" d="M15151.45 40473.22c2854.51,92.13 5093.88,2480.81 5001.76,5335.33 92.12,-2854.52 2480.82,-5093.87 5335.33,-5001.76 -2854.51,-92.11 -5093.86,-2480.82 -5001.76,-5335.33 -92.1,2854.51 -2480.82,5093.89 -5335.33,5001.76z"/>
 <path id="dark_5" class="fil6" d="M21646.36 40682.79c-732.53,-23.64 -1345.53,551.04 -1369.16,1283.57l-123.99 3842.19c92.12,-2854.52 2480.82,-5093.87 5335.33,-5001.76l-3842.18 -124z"/>
 <path id="mid" class="fil9" d="M20362.8 39313.64c-23.64,732.53 551.03,1345.51 1283.56,1369.15l3842.18 124c-2854.51,-92.11 -5093.86,-2480.82 -5001.76,-5335.33l-123.98 3842.18z"/>
 <path id="light_6" class="fil10" d="M18993.64 40597.2c732.53,23.64 1345.52,-551.03 1369.16,-1283.56l123.98 -3842.18c-92.1,2854.51 -2480.82,5093.89 -5335.33,5001.76l3842.19 123.98z"/>
 <path id="center" class="fil11" d="M20362.8 39313.64c-23.64,732.53 -636.63,1307.2 -1369.16,1283.56 732.53,23.64 1307.19,636.63 1283.56,1369.16 23.63,-732.53 636.63,-1307.21 1369.16,-1283.57 -732.53,-23.64 -1307.2,-636.62 -1283.56,-1369.15z"/>
</symbol>
 <g id="Layer_x0020_1">
  <metadata id="CorelCorpID_0Corel-Layer"/>
  <g id="jewel_3">
   <rect class="fil12" transform="matrix(0.0963644 -0.439429 0.439429 0.0963644 30801 73263.6)" width="2836.33" height="2836.33"/>
   <polygon class="fil13" points="30801.05,73263.57 31560.89,72777.05 32320.74,72290.53 32047.41,73536.9 "/>
   <polygon class="fil5" points="30801.05,73263.57 31560.89,72777.05 31074.37,72017.21 "/>
  </g>
  <g id="jewel_4">
   <circle class="fil14" cx="9464.81" cy="18054.95" r="569.73"/>
   <path class="fil12" style="mask:url(#id2)" d="M9427.26 17507.21c281.77,0 510.19,228.42 510.19,510.18 0,281.77 -228.42,510.19 -510.19,510.19 -281.76,0 -510.18,-228.42 -510.18,-510.19 0,-281.76 228.42,-510.18 510.18,-510.18z"/>
   <path class="fil1" style="mask:url(#id4)" d="M9248.82 17622.95c119.29,0 215.99,96.7 215.99,216 0,119.29 -96.7,215.99 -215.99,215.99 -119.3,0 -216,-96.7 -216,-215.99 0,-119.3 96.7,-216 216,-216z"/>
  </g>
 </g>
</svg>
