<?xml version="1.0" encoding="UTF-8"?>
<!DOCTYPE svg PUBLIC "-//W3C//DTD SVG 1.1//EN" "http://www.w3.org/Graphics/SVG/1.1/DTD/svg11.dtd">
<!-- Creator: CorelDRAW 2018 (64-Bit Evaluation Version) -->
<svg xmlns="http://www.w3.org/2000/svg" xml:space="preserve" width="100%" height="100%" version="1.1" style="shape-rendering:geometricPrecision; text-rendering:geometricPrecision; image-rendering:optimizeQuality; fill-rule:evenodd; clip-rule:evenodd"
viewBox="0 0 40640 81280"
 xmlns:xlink="http://www.w3.org/1999/xlink">
 <defs>
  <style type="text/css">
   <![CDATA[
    .fil0 {fill:#1A1A1A}
    .fil12 {fill:#333333}
    .fil13 {fill:#999999}
    .fil14 {fill:#9999FF}
    .fil7 {fill:white}
    .fil9 {fill:#F54029}
    .fil1 {fill:#CF035C}
    .fil6 {fill:#00B394}
    .fil8 {fill:white;fill-opacity:0.168627}
    .fil5 {fill:white;fill-opacity:0.478431}
    .fil10 {fill:black;fill-opacity:0.501961}
    .fil2 {fill:#666666;fill-opacity:0.501961}
    .fil3 {fill:#999999;fill-opacity:0.501961}
    .fil11 {fill:white;fill-opacity:0.501961}
    .fil4 {fill:white;fill-opacity:0.701961}
   ]]>
  </style>
  <mask id="id0">
  <linearGradient id="id1" gradientUnits="userSpaceOnUse" x1="18512.54" y1="38780.03" x2="20929.1" y2="41337.67">
   <stop offset="0" style="stop-opacity:1; stop-color:white"/>
   <stop offset="1" style="stop-opacity:0; stop-color:white"/>
  </linearGradient>
   <rect style="fill:url(#id1)" x="18791.28" y="39168.07" width="2079.29" height="2079.29"/>
  </mask>
    <mask id="id2">
  <linearGradient id="id3" gradientUnits="userSpaceOnUse" x1="23127.59" y1="65413.28" x2="25879.26" y2="68852.87">
   <stop offset="0" style="stop-opacity:1; stop-color:white"/>
   <stop offset="1" style="stop-opacity:0; stop-color:white"/>
  </linearGradient>
     <rect style="fill:url(#id3)" x="23159.73" y="65877.82" width="2376.67" height="2376.67"/>
    </mask>
    <mask id="id4">
  <linearGradient id="id5" gradientUnits="userSpaceOnUse" x1="24659.79" y1="65168.44" x2="24765.63" y2="67020.53">
   <stop offset="0" style="stop-opacity:1; stop-color:white"/>
   <stop offset="1" style="stop-opacity:0; stop-color:white"/>
  </linearGradient>
     <rect style="fill:url(#id5)" x="23427.05" y="66145.14" width="1017.74" height="1017.74"/>
    </mask>
 </defs>
<symbol id="shine" viewBox="15218.02 35538.02 10203.96 10203.96">
 <circle id="red_shine" class="fil0" cx="20320" cy="40640" r="5101.98"/>
</symbol>
<symbol id="star-jewel" viewBox="15151.45 35471.46 10337.09 10337.09">
 <path id="fill" class="fil1" d="M15151.45 40473.22c2854.51,92.13 5093.88,2480.81 5001.76,5335.33 92.12,-2854.52 2480.82,-5093.87 5335.33,-5001.76 -2854.51,-92.11 -5093.86,-2480.82 -5001.76,-5335.33 -92.1,2854.51 -2480.82,5093.89 -5335.33,5001.76z"/>
 <path id="dark" class="fil2" d="M21646.36 40682.79c-732.53,-23.64 -1345.53,551.04 -1369.16,1283.57l-123.99 3842.19c92.12,-2854.52 2480.82,-5093.87 5335.33,-5001.76l-3842.18 -124z"/>
 <path id="mid" class="fil3" d="M20362.8 39313.64c-23.64,732.53 551.03,1345.51 1283.56,1369.15l3842.18 124c-2854.51,-92.11 -5093.86,-2480.82 -5001.76,-5335.33l-123.98 3842.18z"/>
 <path id="light" class="fil4" d="M18993.64 40597.2c732.53,23.64 1345.52,-551.03 1369.16,-1283.56l123.98 -3842.18c-92.1,2854.51 -2480.82,5093.89 -5335.33,5001.76l3842.19 123.98z"/>
 <path id="center" class="fil5" d="M20362.8 39313.64c-23.64,732.53 -636.63,1307.2 -1369.16,1283.56 732.53,23.64 1307.19,636.63 1283.56,1369.16 23.63,-732.53 636.63,-1307.21 1369.16,-1283.57 -732.53,-23.64 -1307.2,-636.62 -1283.56,-1369.15z"/>
</symbol>
<symbol id="jewel_circle" viewBox="18393.83 38713.83 3852.34 3852.34">
 <circle id="fill_0" class="fil6" cx="20320" cy="40640" r="1926.17"/>
 <path id="shine_1" class="fil7" style="mask:url(#id0)" d="M19830.93 39178.07c568.65,0 1029.64,460.99 1029.64,1029.65 0,568.65 -460.99,1029.64 -1029.64,1029.64 -568.66,0 -1029.65,-460.99 -1029.65,-1029.64 0,-568.66 460.99,-1029.65 1029.65,-1029.65z"/>
 <path id="light_2" class="fil8" d="M20320 38713.83c945.62,0 1712.21,766.59 1712.21,1712.21 0,945.62 -766.59,1712.21 -1712.21,1712.21 -945.62,0 -1712.21,-766.59 -1712.21,-1712.21 0,-945.62 766.59,-1712.21 1712.21,-1712.21z"/>
</symbol>
<symbol id="square-jewel" viewBox="18901.84 39221.83 2836.33 2836.33">
 <rect id="fill_3" class="fil9" x="18901.84" y="39221.83" width="2836.33" height="2836.33"/>
 <polygon id="dark_4" class="fil10" points="20320,40639.99 21738.17,42058.16 18901.84,42058.16 "/>
 <polygon id="light_5" class="fil11" points="18901.84,39221.83 20320,40639.99 21738.17,39221.83 "/>
 <polygon id="dark_6" class="fil2" points="20320,40639.99 18901.84,39221.83 18901.84,42058.16 "/>
</symbol>
 <g id="Layer_x0020_1">
  <metadata id="CorelCorpID_0Corel-Layer"/>
  <g id="jewel_0">
   <circle class="fil12" cx="24434.79" cy="67152.89" r="1315.86"/>
   <path class="fil13" style="mask:url(#id2)" d="M24348.06 65887.82c650.78,0 1178.34,527.56 1178.34,1178.34 0,650.77 -527.56,1178.33 -1178.34,1178.33 -650.77,0 -1178.33,-527.56 -1178.33,-1178.33 0,-650.78 527.56,-1178.34 1178.33,-1178.34z"/>
   <path class="fil7" style="mask:url(#id4)" d="M23935.92 66155.14c275.52,0 498.87,223.35 498.87,498.87 0,275.52 -223.35,498.87 -498.87,498.87 -275.52,0 -498.87,-223.35 -498.87,-498.87 0,-275.52 223.35,-498.87 498.87,-498.87z"/>
  </g>
  <g id="jewel_2">
   <path class="fil14" d="M21211.58 31533.37c971.63,-227.03 1943.33,376.58 2170.36,1348.21 -227.03,-971.63 376.58,-1943.33 1348.21,-2170.36 -971.63,227.03 -1943.33,-376.58 -2170.36,-1348.21 227.03,971.63 -376.58,1943.33 -1348.21,2170.36z"/>
   <path class="fil2" d="M23422.34 31016.8c-249.34,58.26 -404.25,307.62 -345.98,556.96l305.58 1307.82c-227.03,-971.63 376.58,-1943.33 1348.21,-2170.36l-1307.81 305.58z"/>
   <path class="fil3" d="M22865.37 30670.82c58.27,249.34 307.63,404.24 556.97,345.98l1307.81 -305.58c-971.63,227.03 -1943.33,-376.58 -2170.36,-1348.21l305.58 1307.81z"/>
   <path class="fil4" d="M22519.4 31227.78c249.34,-58.26 404.24,-307.62 345.97,-556.96l-305.58 -1307.81c227.03,971.63 -376.58,1943.33 -1348.21,2170.36l1307.82 -305.59z"/>
   <path class="fil5" d="M22865.37 30670.82c58.27,249.34 -96.63,498.7 -345.97,556.96 249.34,-58.26 498.69,96.64 556.96,345.98 -58.27,-249.34 96.64,-498.7 345.98,-556.96 -249.34,58.26 -498.7,-96.64 -556.97,-345.98z"/>
  </g>
 </g>
</svg>
