<?xml version="1.0" encoding="UTF-8"?>
<!DOCTYPE svg PUBLIC "-//W3C//DTD SVG 1.1//EN" "http://www.w3.org/Graphics/SVG/1.1/DTD/svg11.dtd">
<!-- Creator: CorelDRAW 2018 (64-Bit Evaluation Version) -->
<svg xmlns="http://www.w3.org/2000/svg" xml:space="preserve" width="100%" height="100%" version="1.1" style="shape-rendering:geometricPrecision; text-rendering:geometricPrecision; image-rendering:optimizeQuality; fill-rule:evenodd; clip-rule:evenodd"
viewBox="0 0 40640 81280"
 xmlns:xlink="http://www.w3.org/1999/xlink">
 <defs>
  <style type="text/css">
   <![CDATA[
    .fil12 {fill:#13966D}
    .fil14 {fill:#003399}
    .fil15 {fill:lime}
    .fil7 {fill:#1A1A1A}
    .fil1 {fill:white}
    .fil3 {fill:#F54029}
    .fil8 {fill:#CF035C}
    .fil13 {fill:#008CCC}
    .fil0 {fill:#00B394}
    .fil2 {fill:white;fill-opacity:0.168627}
    .fil11 {fill:white;fill-opacity:0.478431}
    .fil4 {fill:black;fill-opacity:0.501961}
    .fil6 {fill:#666666;fill-opacity:0.501961}
    .fil9 {fill:#999999;fill-opacity:0.501961}
    .fil5 {fill:white;fill-opacity:0.501961}
    .fil10 {fill:white;fill-opacity:0.701961}
   ]]>
  </style>
  <mask id="id0">
  <linearGradient id="id1" gradientUnits="userSpaceOnUse" x1="18512.54" y1="38780.03" x2="20929.1" y2="41337.67">
   <stop offset="0" style="stop-opacity:1; stop-color:white"/>
   <stop offset="1" style="stop-opacity:0; stop-color:white"/>
  </linearGradient>
   <rect style="fill:url(#id1)" x="18791.28" y="39168.07" width="2079.29" height="2079.29"/>
  </mask>
    <mask id="id2">
  <linearGradient id="id3" gradientUnits="userSpaceOnUse" x1="29317.43" y1="43171.86" x2="29546.74" y2="47952">
   <stop offset="0" style="stop-opacity:1; stop-color:white"/>
   <stop offset="1" style="stop-opacity:0; stop-color:white"/>
  </linearGradient>
     <rect style="fill:url(#id3)" x="28597.4" y="44117.28" width="3509.65" height="3509.65"/>
    </mask>
    <mask id="id4">
  <linearGradient id="id5" gradientUnits="userSpaceOnUse" x1="28602.98" y1="44194.91" x2="31019.54" y2="46752.55">
   <stop offset="0" style="stop-opacity:1; stop-color:white"/>
   <stop offset="1" style="stop-opacity:0; stop-color:white"/>
  </linearGradient>
     <rect style="fill:url(#id5)" x="28881.72" y="44582.95" width="2079.29" height="2079.29"/>
    </mask>
 </defs>
<symbol id="jewel_circle" viewBox="18393.83 38713.83 3852.34 3852.34">
 <circle id="fill" class="fil0" cx="20320" cy="40640" r="1926.17"/>
 <path id="shine" class="fil1" style="mask:url(#id0)" d="M19830.93 39178.07c568.65,0 1029.64,460.99 1029.64,1029.65 0,568.65 -460.99,1029.64 -1029.64,1029.64 -568.66,0 -1029.65,-460.99 -1029.65,-1029.64 0,-568.66 460.99,-1029.65 1029.65,-1029.65z"/>
 <path id="light" class="fil2" d="M20320 38713.83c945.62,0 1712.21,766.59 1712.21,1712.21 0,945.62 -766.59,1712.21 -1712.21,1712.21 -945.62,0 -1712.21,-766.59 -1712.21,-1712.21 0,-945.62 766.59,-1712.21 1712.21,-1712.21z"/>
</symbol>
<symbol id="square-jewel" viewBox="18901.84 39221.83 2836.33 2836.33">
 <rect id="fill_0" class="fil3" x="18901.84" y="39221.83" width="2836.33" height="2836.33"/>
 <polygon id="dark" class="fil4" points="20320,40639.99 21738.17,42058.16 18901.84,42058.16 "/>
 <polygon id="light_1" class="fil5" points="18901.84,39221.83 20320,40639.99 21738.17,39221.83 "/>
 <polygon id="dark_2" class="fil6" points="20320,40639.99 18901.84,39221.83 18901.84,42058.16 "/>
</symbol>
<symbol id="shine_3" viewBox="15218.02 35538.02 10203.96 10203.96">
 <circle id="red_shine" class="fil7" cx="20320" cy="40640" r="5101.98"/>
</symbol>
<symbol id="star-jewel" viewBox="15151.45 35471.46 10337.09 10337.09">
 <path id="fill_4" class="fil8" d="M15151.45 40473.22c2854.51,92.13 5093.88,2480.81 5001.76,5335.33 92.12,-2854.52 2480.82,-5093.87 5335.33,-5001.76 -2854.51,-92.11 -5093.86,-2480.82 -5001.76,-5335.33 -92.1,2854.51 -2480.82,5093.89 -5335.33,5001.76z"/>
 <path id="dark_5" class="fil6" d="M21646.36 40682.79c-732.53,-23.64 -1345.53,551.04 -1369.16,1283.57l-123.99 3842.19c92.12,-2854.52 2480.82,-5093.87 5335.33,-5001.76l-3842.18 -124z"/>
 <path id="mid" class="fil9" d="M20362.8 39313.64c-23.64,732.53 551.03,1345.51 1283.56,1369.15l3842.18 124c-2854.51,-92.11 -5093.86,-2480.82 -5001.76,-5335.33l-123.98 3842.18z"/>
 <path id="light_6" class="fil10" d="M18993.64 40597.2c732.53,23.64 1345.52,-551.03 1369.16,-1283.56l123.98 -3842.18c-92.1,2854.51 -2480.82,5093.89 -5335.33,5001.76l3842.19 123.98z"/>
 <path id="center" class="fil11" d="M20362.8 39313.64c-23.64,732.53 -636.63,1307.2 -1369.16,1283.56 732.53,23.64 1307.19,636.63 1283.56,1369.16 23.63,-732.53 636.63,-1307.21 1369.16,-1283.57 -732.53,-23.64 -1307.2,-636.62 -1283.56,-1369.15z"/>
</symbol>
 <g id="Layer_x0020_1">
  <metadata id="CorelCorpID_0Corel-Layer"/>
  <g id="jewel_6">
   <circle class="fil12" cx="30352.22" cy="46053.45" r="1926.17"/>
   <path class="fil0" style="mask:url(#id2)" d="M30352.22 44127.28c963.64,0 1744.83,781.19 1744.83,1744.82 0,963.64 -781.19,1744.83 -1744.83,1744.83 -963.63,0 -1744.82,-781.19 -1744.82,-1744.83 0,-963.63 781.19,-1744.82 1744.82,-1744.82z"/>
   <path class="fil1" style="mask:url(#id4)" d="M29921.37 44592.95c568.65,0 1029.64,460.99 1029.64,1029.65 0,568.65 -460.99,1029.64 -1029.64,1029.64 -568.66,0 -1029.65,-460.99 -1029.65,-1029.64 0,-568.66 460.99,-1029.65 1029.65,-1029.65z"/>
  </g>
  <g id="jewel_5">
   <rect class="fil13" transform="matrix(0.921179 0.389139 -0.389139 0.921179 13547.6 51285.4)" width="2836.33" height="2836.33"/>
   <polygon class="fil14" points="13547.64,51285.37 14302.15,53143.61 15056.67,55001.87 12443.91,53898.14 "/>
   <polygon class="fil5" points="13547.64,51285.37 14302.15,53143.61 16160.4,52389.1 "/>
  </g>
  <g id="jewel_1">
   <path class="fil15" d="M12375.42 16290.41c1644.16,1021.35 2149.07,3182.16 1127.72,4826.33 1021.35,-1644.17 3182.16,-2149.06 4826.33,-1127.72 -1644.17,-1021.34 -2149.06,-3182.16 -1127.72,-4826.33 -1021.34,1644.17 -3182.17,2149.07 -4826.33,1127.72z"/>
   <path class="fil6" d="M16116.42 18614.28c-421.93,-262.1 -976.45,-132.53 -1238.54,289.4l-1374.74 2213.06c1021.35,-1644.17 3182.16,-2149.06 4826.33,-1127.72l-2213.05 -1374.74z"/>
   <path class="fil9" d="M15827.02 17375.74c-262.1,421.93 -132.53,976.44 289.4,1238.54l2213.05 1374.74c-1644.17,-1021.34 -2149.06,-3182.16 -1127.72,-4826.33l-1374.73 2213.05z"/>
   <path class="fil10" d="M14588.48 17665.14c421.93,262.1 976.44,132.53 1238.54,-289.4l1374.73 -2213.05c-1021.34,1644.17 -3182.17,2149.07 -4826.33,1127.72l2213.06 1374.73z"/>
   <path class="fil11" d="M15827.02 17375.74c-262.1,421.93 -816.61,551.5 -1238.54,289.4 421.93,262.1 551.49,816.61 289.4,1238.54 262.09,-421.93 816.61,-551.5 1238.54,-289.4 -421.93,-262.1 -551.5,-816.61 -289.4,-1238.54z"/>
  </g>
 </g>
</svg>
