<?xml version="1.0" encoding="UTF-8"?>
<!DOCTYPE svg PUBLIC "-//W3C//DTD SVG 1.1//EN" "http://www.w3.org/Graphics/SVG/1.1/DTD/svg11.dtd">
<!-- Creator: CorelDRAW 2018 (64-Bit Evaluation Version) -->
<svg xmlns="http://www.w3.org/2000/svg" xml:space="preserve" width="100%" height="100%" version="1.1" style="shape-rendering:geometricPrecision; text-rendering:geometricPrecision; image-rendering:optimizeQuality; fill-rule:evenodd; clip-rule:evenodd"
viewBox="0 0 40640 22860"
 xmlns:xlink="http://www.w3.org/1999/xlink">
 <defs>
  <style type="text/css">
   <![CDATA[
    .fil7 {fill:#1A1A1A}
    .fil13 {fill:#5A44B3}
    .fil12 {fill:#6666FF}
    .fil1 {fill:white}
    .fil3 {fill:#F54029}
    .fil14 {fill:#ED2E38}
    .fil8 {fill:#CF035C}
    .fil0 {fill:#00B394}
    .fil2 {fill:white;fill-opacity:0.168627}
    .fil11 {fill:white;fill-opacity:0.478431}
    .fil4 {fill:black;fill-opacity:0.501961}
    .fil6 {fill:#666666;fill-opacity:0.501961}
    .fil9 {fill:#999999;fill-opacity:0.501961}
    .fil5 {fill:white;fill-opacity:0.501961}
    .fil10 {fill:white;fill-opacity:0.701961}
   ]]>
  </style>
  <mask id="id0">
  <filter id="super-big-blur">
	    <feGaussianBlur stdDeviation="120" />
    </filter>

				<filter id="big-blur">
					<feGaussianBlur stdDeviation="25" />
				</filter>

				<filter id="small-blur">
					<feGaussianBlur stdDeviation="8" />
				</filter>
  <linearGradient id="id1" gradientUnits="userSpaceOnUse" x1="18512.54" y1="9570.03" x2="20929.1" y2="12127.67">
   <stop offset="0" style="stop-opacity:1; stop-color:white"/>
   <stop offset="1" style="stop-opacity:0; stop-color:white"/>
  </linearGradient>
   <rect style="fill:url(#id1)" x="18791.28" y="9958.07" width="2079.29" height="2079.29"/>
  </mask>
 </defs>
<symbol id="jewel_circle" viewBox="18393.83 9503.83 3852.34 3852.34">
 <circle id="fill" class="fil0" cx="20320" cy="11430" r="1926.17"/>
 <path id="shine" class="fil1" style="mask:url(#id0)" d="M19830.93 9968.07c568.65,0 1029.64,460.99 1029.64,1029.65 0,568.65 -460.99,1029.64 -1029.64,1029.64 -568.66,0 -1029.65,-460.99 -1029.65,-1029.64 0,-568.66 460.99,-1029.65 1029.65,-1029.65z"/>
 <path id="light" class="fil2" d="M20320 9503.83c945.62,0 1712.21,766.59 1712.21,1712.21 0,945.62 -766.59,1712.21 -1712.21,1712.21 -945.62,0 -1712.21,-766.59 -1712.21,-1712.21 0,-945.62 766.59,-1712.21 1712.21,-1712.21z"/>
</symbol>
<symbol id="square-jewel" viewBox="18901.84 10011.83 2836.33 2836.33">
 <rect id="fill_0" class="fil3" x="18901.84" y="10011.83" width="2836.33" height="2836.33"/>
 <polygon id="dark" class="fil4" points="20320,11429.99 21738.17,12848.16 18901.84,12848.16 "/>
 <polygon id="light_1" class="fil5" points="18901.84,10011.83 20320,11429.99 21738.17,10011.83 "/>
 <polygon id="dark_2" class="fil6" points="20320,11429.99 18901.84,10011.83 18901.84,12848.16 "/>
</symbol>
<symbol id="shine_3" viewBox="15218.02 6328.02 10203.96 10203.96">
 <circle id="red_shine" class="fil7" cx="20320" cy="11430" r="5101.98"/>
</symbol>
<symbol id="star-jewel" viewBox="15151.45 6261.46 10337.09 10337.09">
 <path id="fill_4" class="fil8" d="M15151.45 11263.22c2854.51,92.13 5093.88,2480.81 5001.76,5335.33 92.12,-2854.52 2480.82,-5093.87 5335.33,-5001.76 -2854.51,-92.11 -5093.86,-2480.82 -5001.76,-5335.33 -92.1,2854.51 -2480.82,5093.89 -5335.33,5001.76z"/>
 <path id="dark_5" class="fil6" d="M21646.36 11472.79c-732.53,-23.64 -1345.53,551.04 -1369.16,1283.57l-123.99 3842.19c92.12,-2854.52 2480.82,-5093.87 5335.33,-5001.76l-3842.18 -124z"/>
 <path id="mid" class="fil9" d="M20362.8 10103.64c-23.64,732.53 551.03,1345.51 1283.56,1369.15l3842.18 124c-2854.51,-92.11 -5093.86,-2480.82 -5001.76,-5335.33l-123.98 3842.18z"/>
 <path id="light_6" class="fil10" d="M18993.64 11387.2c732.53,23.64 1345.52,-551.03 1369.16,-1283.56l123.98 -3842.18c-92.1,2854.51 -2480.82,5093.89 -5335.33,5001.76l3842.19 123.98z"/>
 <path id="center" class="fil11" d="M20362.8 10103.64c-23.64,732.53 -636.63,1307.2 -1369.16,1283.56 732.53,23.64 1307.19,636.63 1283.56,1369.16 23.63,-732.53 636.63,-1307.21 1369.16,-1283.57 -732.53,-23.64 -1307.2,-636.62 -1283.56,-1369.15z"/>
</symbol>
 <g id="Layer_x0020_1" filter="url(#super-big-blur)">
  <metadata id="CorelCorpID_0Corel-Layer"/>
  <g id="jewel_9">
   <path class="fil8" d="M1774.22 14896.45c2854.51,92.13 5093.88,2480.81 5001.76,5335.33 92.12,-2854.52 2480.82,-5093.87 5335.33,-5001.76 -2854.51,-92.11 -5093.86,-2480.82 -5001.76,-5335.33 -92.1,2854.51 -2480.82,5093.89 -5335.33,5001.76z"/>
   <path class="fil6" d="M8269.13 15106.02c-732.53,-23.64 -1345.53,551.04 -1369.16,1283.57l-123.99 3842.19c92.12,-2854.52 2480.82,-5093.87 5335.33,-5001.76l-3842.18 -124z"/>
   <path class="fil9" d="M6985.57 13736.87c-23.64,732.53 551.03,1345.51 1283.56,1369.15l3842.18 124c-2854.51,-92.11 -5093.86,-2480.82 -5001.76,-5335.33l-123.98 3842.18z"/>
   <path class="fil10" d="M5616.41 15020.43c732.53,23.64 1345.52,-551.03 1369.16,-1283.56l123.98 -3842.18c-92.1,2854.51 -2480.82,5093.89 -5335.33,5001.76l3842.19 123.98z"/>
   <path class="fil11" d="M6985.57 13736.87c-23.64,732.53 -636.63,1307.2 -1369.16,1283.56 732.53,23.64 1307.19,636.63 1283.56,1369.16 23.63,-732.53 636.63,-1307.21 1369.16,-1283.57 -732.53,-23.64 -1307.2,-636.62 -1283.56,-1369.15z"/>
  </g>
  <g id="jewel_8">
   <rect class="fil12" transform="matrix(0.543189 -0.839611 0.839611 0.543189 35145.2 15440.5)" width="2836.33" height="2836.33"/>
   <polygon class="fil13" points="35145.25,15440.47 37106.28,15020.09 39067.32,14599.72 37526.66,16981.13 "/>
   <polygon class="fil5" points="35145.25,15440.47 37106.28,15020.09 36685.91,13059.06 "/>
  </g>
  <g id="jewel_7">
   <rect class="fil3" transform="matrix(0.95266 -0.304038 0.304038 0.95266 22791.5 7177.6)" width="2836.33" height="2836.33"/>
   <polygon class="fil14" points="22791.53,7177.6 24573.73,8097.45 26355.94,9017.31 23653.88,9879.66 "/>
   <polygon class="fil5" points="22791.53,7177.6 24573.73,8097.45 25493.59,6315.25 "/>
  </g>
 </g>
</svg>
